<?xml version="1.0" encoding="UTF-8" standalone="no"?>
<svg version="1.1" width="300" height="360" 
	xmlns="http://www.w3.org/2000/svg" 
	xmlns:xlink="http://www.w3.org/1999/xlink">

<!--outter shield-->
<path fill="#0057be" d="M 0,0 H 300 C 300,202 312,291 150,360 C -12,291 0,202 0,0 z"/>

<!--inner shield-->
<path fill="red" d="M 10,38 H 66 V 71 H 122 V 38 H 178 V 71 H 234 V 38 H 290 C 290,233 290,278 150,350 C 10,278 10,233 10,38 z"/>

<!--inner decorations-->
<path fill="#f0f0f0" d="M 121,83 H 179 C 165.7,94.3 160.8,109.5 162,129 C 187.3,126.4 191.9,115.4 200,106 V 176 
	C 191.9,166.6 187.3,155.6 162,153 C 159.8,231.7 178.1,252.4 202.0,252.1 C 219.9,251.8 225.9,236.3 218,204 
	L 203,217 L 218,155 C 274.3,275.8 213.9,325.1 150,260 
	C 86.1,325.1 25.7,275.8 82,155 L 97,217 L 82,204 C 74.1,236.3 80.1,251.8 98.0,252.1 
	C 121.9,252.4 140.2,231.7 138,153 C 112.7,155.6 108.1,166.6 100,176 V 106 
	C 108.1,115.4 112.7,126.4 138,129 C 139.2,109.5 134.3,94.3 121,83 z"/>

</svg>