<svg width="423" height="534" viewBox="0 0 423 534" fill="none" xmlns="http://www.w3.org/2000/svg">
<g clip-path="url(#clip0_9_3)">
<path d="M0 0H2.0382C3.55273 0.782284 16.0687 2.63146 18.4648 3.02928L44.0731 7.36114L79.6792 13.3596C87.4807 14.6949 96.5741 16.4127 104.362 17.38C124.131 19.9276 144.193 19.0225 163.652 14.7051C179.228 11.1931 195.742 4.85132 211.345 0.898898L238.766 9.03972C245.992 11.1944 253.001 13.3717 260.418 14.9642C276.254 18.3642 292.895 19.4151 309.046 18.2348C318.791 17.5229 329.598 15.464 339.313 13.844L373.411 8.14762L403.902 3.03001C407.024 2.51714 417.951 0.880581 420.306 0H422.241L422.293 265.699L422.296 340.008L422.309 362.236C422.314 373.31 422.588 380.634 420.418 391.721C416.18 413.237 405.741 433.046 390.386 448.709C383.123 455.986 374.91 462.252 365.973 467.339C358.948 471.284 351.88 474.115 344.463 477.2L321.224 486.884L241.399 520.233L218.876 529.607C217.182 530.311 210.099 533.127 208.889 534H207.595C205.689 532.759 197.486 529.416 194.915 528.316L169.129 517.229L69.4429 474.36C38.7134 461.125 15.6074 437.442 5.31522 405.308C3.72968 400.312 2.47439 395.215 1.55749 390.052C1.1508 387.752 0.823637 382.378 0 380.551V0Z" fill="#141618"/>
<path d="M210.863 14.3413C211.834 14.2079 230.45 19.9651 232.878 20.7411C251.407 26.6625 266.571 30.1108 286.138 31.3535C309.129 32.8134 326.56 28.8639 348.792 25.2546C369.009 21.9723 389.486 18.1509 409.708 15.0562L409.721 250.659L409.726 332.381V357.858C409.723 364.7 409.817 371.516 409.254 378.34C408.425 388.639 405.968 398.74 401.975 408.268C395.124 424.637 384.007 438.871 369.783 449.48C357.711 458.372 346.876 462.231 333.208 467.925L303.621 480.29L211.401 518.867L208.333 520.22C197.919 515.915 187.37 511.224 177.003 506.765L115.826 480.407L84.7826 467.054C77.7055 464.012 69.5772 460.747 62.9441 457.018C55.0735 452.594 47.86 447.092 41.5129 440.67C27.7143 426.892 18.3422 409.313 14.5963 390.177C11.89 376.05 12.756 356.703 12.7613 341.851L12.7619 273.047L12.7592 15.0991C38.8605 18.9352 64.924 24.1681 91.0141 28.175C95.4846 28.8616 99.9039 29.7165 104.402 30.2583C122.095 32.4254 140.011 31.974 157.573 28.9194C175.405 25.8078 193.339 19.3061 210.863 14.3413Z" fill="#969A9A"/>
<path d="M211.314 50.7266L277.696 120.243C275.041 123.273 268.876 133.005 266.294 136.808L242.178 172.413C245.792 186.666 248.428 202.192 251.905 216.534C253.308 222.322 254.694 230.806 256.563 236.266C256.241 230.388 256.239 224.011 256.068 218.07C255.709 203.545 255.202 189.023 254.547 174.508C257.956 170.125 265.139 162.704 269.08 158.386L296.358 128.431L332.178 89.0721C338.363 82.2759 345.634 73.807 352.073 67.4162C351.004 70.1563 349.351 77.2 348.558 80.2718L342.408 104.054C334.903 132.945 327.577 162.683 319.691 191.411C317.154 188.341 292.811 163.986 290.532 162.904C290.039 162.668 289.945 162.659 289.466 162.852L289.379 163.355C290.407 165.496 315.315 192.851 318.744 196.245C317.938 198.271 316.947 203.267 316.502 205.519C306.284 196.37 297.005 185.971 286.884 176.711C286.307 176.183 285.457 175.659 284.651 175.76L284.372 176.174C284.808 177.391 312.285 207.98 315.179 210.649C314.418 213.508 313.748 217.213 312.725 219.907C302.815 210.284 293.025 200.543 283.092 190.944C282.229 190.108 280.846 188.558 279.676 188.692L279.488 189.15C280.492 191.928 307.371 220.823 311.627 225.492L309.58 234.485C304.925 230.413 277.647 202.354 275.373 201.659C274.885 201.51 274.94 201.596 274.543 201.827L274.481 202.365C275.438 204.031 282.544 211.675 284.255 213.576L308.169 240.213L301.913 267.261C301.191 270.387 297.98 282.407 298.28 284.887C299.519 283.599 303.963 265.553 304.865 262.176L316.462 218.39L349.554 93.085L355.051 72.1979C356.071 68.3181 357.2 63.4852 358.483 59.7431C357.842 71.8817 358.277 87.9215 358.277 100.296L358.275 174.772L358.314 372.442C352.668 364.919 346.018 357.188 340.166 349.739C324.513 329.813 307.935 310.176 292.412 290.175C278.518 298.902 270.524 299.22 254.614 299.103C251.315 304.317 248.091 309.856 244.912 315.164C244.468 314.632 241.162 311.297 240.659 310.953C238.25 309.313 226.634 295.716 224.657 296.448L224.465 296.988C224.713 298.195 240.962 315.954 243.115 318.113C241.629 320.173 239.433 324.035 238.213 326.295C235.985 324.074 221.553 309.553 220.079 309.277L219.761 309.603C219.716 310.218 219.748 310.716 220.185 311.222C225.426 317.302 231.129 323.172 236.31 329.302C234.755 331.674 232.707 334.955 231.489 337.476C227.434 333.935 219.98 325.855 215.408 322.465C215.202 322.311 214.963 322.655 214.707 322.895C214.704 323.093 214.7 323.292 214.697 323.492C217.567 327.083 227.199 337.606 229.697 340.305C228.118 342.589 225.16 346.675 224.631 349.298C223.317 355.806 233.2 358.098 237.844 358.768C232.765 368.916 226.296 372.58 215.168 368.293C199.06 376.358 168.158 348.383 168.046 332.118C167.988 323.79 172.664 307.073 174.838 298.711C155.917 298.211 146.785 300.367 129.889 289.578C128.024 292.357 123.96 297.142 121.773 299.864L106.157 319.321C92.4203 336.438 78.213 354.789 64.2115 371.503C64.4433 364.301 64.2457 355.981 64.2459 348.714L64.2464 304.568L64.2436 170.917L64.2485 59.9908C69.4541 78.7673 74.3163 98.28 79.2781 117.183L108.249 227.503L118.652 267C119.511 270.254 122.581 282.585 123.717 284.803L123.968 284.817C124.319 282.36 121.641 272.551 120.955 269.61L114.918 243.686L109.606 220.951C108.641 216.828 107.637 212.043 106.484 208.008C109.034 210.209 118.064 219.67 120.042 220.735C120.777 220.545 120.487 220.746 120.916 220.078C120.539 217.838 106.354 204.348 105.348 201.682C103.645 197.172 102.085 189.176 100.984 184.357C104.465 188.492 110.414 193.692 114.346 197.828C117.332 200.969 121.198 204.495 124.421 207.422C124.905 207.862 124.93 207.726 125.508 207.631L125.652 207.372C126.179 206.428 122.262 202.484 121.529 201.673L107.544 186.235C106.029 184.559 100.085 178.262 99.4355 176.629C97.9707 172.944 96.6297 165.761 95.7399 161.617C106.746 171.879 117.192 182.964 128.194 193.268C129.099 194.116 129.51 194.693 130.68 194.653C131.187 192.909 122.375 183.989 120.772 182.218L100.945 160.228C99.6402 158.783 94.1243 152.891 93.5388 151.457C91.9331 147.526 91.5237 142.304 89.96 137.934C99.5995 147.773 110.516 158.142 120.417 167.874L130.061 177.254C131.195 178.349 134.312 181.902 135.731 181.589C135.905 179.767 129.859 173.731 128.425 172.154L117.305 159.83L97.7493 138.064C95.6478 135.756 88.1178 128.213 87.313 125.719C85.7031 120.731 83.9504 114.011 82.5051 108.861L70.852 67.2365C72.8285 69.8732 76.4211 73.5848 78.7056 76.0887L92.9439 91.709L143.006 146.745L159.128 164.434C161.673 167.225 165.495 171.169 167.772 174.06L166.502 214.981C166.36 220.483 165.877 230.08 166.322 235.187C167.239 230.408 168.218 225.64 169.259 220.886C171.73 223.542 175.594 227.127 178.255 229.776L205.341 256.43C206.209 257.298 208.616 259.853 209.797 259.851L210.124 259.496C210.017 257.823 203.657 251.316 202.046 249.531L189.791 235.922L177.773 222.559C175.566 220.1 172.964 217.034 170.64 214.744C171.357 212.202 171.898 209.026 172.41 206.386C186.178 218.615 198.904 233.012 212.545 245.523C213.374 246.283 213.818 246.957 214.993 246.81L215.003 246.227C213.674 243.368 207.141 236.748 204.733 234.075L188.16 215.646L179.144 205.58C177.814 204.096 175.319 201.148 173.87 200.003L175.615 191.796C182.731 197.16 216.724 233.497 220.1 233.986L220.362 233.701C220.002 231.958 206.903 217.912 204.598 215.352L177.175 184.853C177.957 182.123 178.706 178.076 179.324 175.214C180.981 177.309 185.092 181.302 187.069 183.332C192.259 188.696 197.5 194.012 202.789 199.278C206.928 203.439 211.032 207.633 215.101 211.862C216.902 213.728 222.734 220.36 224.755 220.644L224.974 220.268C224.372 217.894 215.713 207.863 213.693 205.363L193.818 180.733C177.66 160.702 161.251 139.846 144.817 120.106C147.44 117.638 150.01 114.727 152.514 112.102L163.134 101.043C166.732 97.2368 171.336 92.9572 174.496 88.9386C181.14 95.7696 188.224 102.302 195 109.023L211.292 124.952C212.913 126.532 221.003 135.175 222.762 135.077L222.876 134.631C222.598 133.812 222.135 133.026 221.558 132.377C207.368 116.392 192.799 100.684 178.699 84.6244C180.543 83.0461 181.873 81.5834 183.514 79.8176C186.147 82.5992 189.743 85.8666 192.531 88.5952L208.976 104.756C213.563 109.197 218.146 113.611 222.614 118.175C223.824 119.411 225.994 121.733 227.626 122.158L227.935 121.909C227.92 120.025 216.375 107.981 214.148 105.509L187.356 75.7576C189.094 74.0216 190.808 72.2626 192.499 70.481C193.725 71.9953 196.264 74.3269 197.752 75.8084C201.309 79.3746 204.892 82.9155 208.499 86.4308L222.629 100.132C224.241 101.717 231.383 109.898 233.023 108.894C232.911 107.677 231.429 106.055 230.585 105.163C218.833 92.7382 207.802 79.0951 195.914 66.8561L201.278 61.2533C202.831 63.1233 206.425 66.5007 208.266 68.3246C213.164 73.1752 218.099 77.9872 223.072 82.7604C225.028 84.6421 235.957 96.1956 237.757 96.028L237.901 95.5709C237.703 94.9587 237.197 94.0056 236.774 93.5152C226.349 81.4306 214.923 69.8935 204.693 57.672C206.804 55.9201 209.514 52.7914 211.314 50.7266Z" fill="#141618"/>
<path d="M266.274 388.355C278.226 386.814 289.15 395.285 290.629 407.243C292.107 419.2 283.577 430.079 271.609 431.492C259.732 432.897 248.95 424.444 247.482 412.578C246.014 400.709 254.412 389.885 266.274 388.355Z" fill="#141618"/>
<path d="M263.762 396.438C271.244 395.337 275.871 401.872 278.695 407.931C281.697 414.369 281.405 420.46 274.222 423.568C264.466 425.182 255.567 409.816 258.217 401.439C259.021 398.896 261.462 397.439 263.762 396.438Z" fill="#969A9A"/>
<path d="M107.501 350.341C108.033 350.641 109.017 351.423 109.504 351.84C112.214 354.161 114.884 356.437 117.582 358.786C123.133 363.665 130.535 368.095 131.386 376.173C132.045 382.433 126.95 388.581 120.672 389.09C113.809 389.645 108.596 384.733 103.702 380.65C101.972 383.007 99.6621 385.575 97.7263 387.825C98.9087 388.699 100.172 389.804 101.315 390.761C101.987 391.379 102.83 391.958 103.572 392.503C102.128 394.18 100.573 395.914 99.273 397.692C93.4676 392.787 86.1165 386.874 80.6777 381.766C81.7751 380.806 83.8599 378.196 85.0535 376.898C86.4792 378.058 87.7918 379.317 89.1315 380.574C90.6886 378.384 93.635 375.036 95.4314 372.924C99.4663 368.238 103.457 363.516 107.404 358.758C105.862 357.449 104.879 356.575 103.128 355.519C104.614 353.817 106.072 352.091 107.501 350.341Z" fill="#141618"/>
<path d="M116.217 365.975C118.169 366.903 121.266 370.069 121.252 372.4C121.225 376.686 117.754 379.993 113.622 380.389C110.956 379.409 109.564 377.974 107.404 376.157C109.953 373.558 113.692 368.867 116.217 365.975Z" fill="#969A9A"/>
<path d="M152.269 385.26C157.377 388.553 164.345 392.182 169.756 395.298C167.196 407.063 165.223 419.594 162.871 431.479C164.209 432.277 165.986 433.134 167.397 433.865C166.166 436.068 165.246 437.682 163.815 439.77C162.257 438.287 146.187 429.335 143.656 428.277C145.008 426.1 145.751 424.885 146.826 422.525C148.52 423.307 150.531 424.553 152.176 425.513C152.679 423.109 153.131 420.695 153.53 418.272C151.536 417.599 144.554 413.535 142.593 412.325C140.733 414.006 138.967 415.435 137.016 417.005C139.065 418.173 141.129 419.315 143.207 420.431C142.12 422.491 141.089 424.261 139.897 426.254C134.383 423.052 128.818 419.938 123.204 416.914C124.099 415.652 125.663 412.622 126.474 411.154C127.894 411.994 129.303 412.854 130.698 413.735C132.202 412.797 135.967 409.496 137.47 408.247L149.538 398.271C150.622 397.368 152.915 395.603 153.042 394.208C152.103 392.946 150.238 392.088 148.827 391.298C149.963 389.199 150.993 387.28 152.269 385.26Z" fill="#141618"/>
<path d="M156.512 400.461L156.766 400.782C156.503 403.986 155.24 409.702 154.555 413.003L150.16 410.429L146.795 408.596C149.41 406.661 154.107 402.651 156.512 400.461Z" fill="#969A9A"/>
<path d="M191.987 407.23C196.33 407.308 200.672 407.412 205.014 407.535C211.791 407.715 220.9 407.154 226.232 412.051C230.925 416.361 231.071 424.392 226.515 428.903C221.551 433.818 214.487 433.15 208.038 433.114C207.82 436.026 207.799 438.821 207.759 441.742L207.999 442.208C209.222 442.644 213.556 442.542 215.165 442.55C215.043 444.73 214.984 447.011 214.897 449.199C206.854 448.964 198.811 448.776 190.765 448.636C190.711 446.153 190.781 444.68 190.978 442.227L196.307 442.224C196.52 432.738 196.796 423.25 197.138 413.767L191.733 413.782C191.679 411.428 191.818 409.566 191.987 407.23Z" fill="#141618"/>
<path d="M208.574 414.035C210.85 413.965 212.859 413.78 214.938 414.82C216.415 415.553 217.519 416.869 217.986 418.449C218.758 421.054 217.858 423.69 216.595 425.959C213.806 428.126 211.715 427.669 208.252 427.602C208.275 423.138 208.445 418.509 208.574 414.035Z" fill="#969A9A"/>
<path d="M313.557 346.229C314.501 346.532 325.447 359.558 327.196 361.561L322.27 365.933C315.469 358.002 314.553 358.614 306.74 365.308C313.033 372.452 319.261 379.654 325.423 386.913C327.559 384.908 329.924 382.866 332.118 380.905C333.544 382.642 334.929 384.397 336.501 386C333.135 388.821 329.802 391.682 326.503 394.581C323.303 397.277 320.155 400.033 317.06 402.847C315.547 401.128 314.068 399.376 312.631 397.595C313.886 396.792 315.604 395.408 316.833 394.477C313.012 389.486 308.005 384.381 303.973 379.474C302.109 377.205 300.017 375.164 298.364 372.692C297.023 373.967 295.672 375.229 294.308 376.478C292.851 374.799 291.38 373.133 289.896 371.474C296.629 365.3 304.174 359.162 311.101 353.1L308.826 350.445L313.557 346.229Z" fill="#141618"/>
<path d="M186.807 462.609C191.131 461.641 195.437 464.298 196.514 468.595C197.591 472.892 195.045 477.262 190.775 478.449C187.916 479.242 184.851 478.423 182.769 476.308C180.687 474.194 179.916 471.117 180.755 468.269C181.594 465.425 183.911 463.258 186.807 462.609Z" fill="#141618"/>
<path d="M186.888 466.669C188.324 466.061 189.978 466.28 191.204 467.245C192.43 468.207 193.034 469.761 192.78 471.302C192.527 472.84 191.455 474.118 189.985 474.637C187.806 475.406 185.411 474.306 184.574 472.155C183.737 470.001 184.762 467.573 186.888 466.669Z" fill="#969A9A"/>
<path d="M223.467 465.021L223.85 465.156C224.229 465.954 224.143 467.477 224.158 468.429C221.597 468.554 217.411 468.585 215.238 469.764L215.274 470.087C218.069 470.992 224.149 469.563 225.359 473.138C226.535 476.605 224.544 478.991 221.588 480.06C219.601 480.451 214.479 480.681 212.312 480.819C212.276 476.412 211.571 470.491 211.313 465.902C215.177 465.495 219.551 465.279 223.467 465.021Z" fill="#141618"/>
<path d="M217.789 474.121C219.606 474.006 220.061 473.797 221.456 474.939C221.792 475.839 221.822 475.43 221.497 476.22C220.965 476.566 220.799 476.535 220.17 476.632C218.372 476.83 217.068 477.218 215.709 475.797C215.506 474.29 216.556 474.254 217.789 474.121Z" fill="#969A9A"/>
<path d="M274.543 447.421C275.101 447.877 275.756 449.877 276.069 450.677C273.563 451.647 270.198 453.006 268.376 454.946L268.827 455.378L268.339 455.006L268.574 455.371C271.268 455.23 273.933 452.779 277.326 453.728C280.32 454.565 280.554 456.906 280.106 459.709C279.855 461.279 277.767 462.591 276.379 463.331C274.225 464.358 271.813 465.367 269.612 466.332C268.222 462.489 265.074 456.651 263.136 452.969C266.341 451.147 271.054 449.199 274.543 447.421Z" fill="#141618"/>
<path d="M274.395 457.337C275.268 457.154 275.745 457.11 276.322 457.743L276.238 458.432C274.958 460.033 274.47 460.108 272.59 460.904C271.807 461.229 271.568 461.031 270.986 460.572C270.587 458.455 272.765 457.968 274.395 457.337Z" fill="#969A9A"/>
<path d="M247.65 459.24C250.048 459.467 251.701 460.505 252.468 462.911C252.892 464.21 252.754 465.628 252.086 466.82C250.687 469.312 247.475 469.839 244.869 470.564C245.259 471.912 246.114 473.563 245.904 474.744C245.251 475.596 245.094 475.437 243.941 475.818C243.262 476.042 243.259 476.094 242.54 475.925C241.634 474.564 238.968 464.648 238.002 462.056C240.986 461.05 244.588 459.756 247.65 459.24Z" fill="#141618"/>
<path d="M247.359 463.12C247.477 463.135 247.985 463.323 248.118 463.37C248.618 464.001 248.594 463.965 248.687 464.77C247.858 466.249 246.187 466.403 244.441 466.903L243.845 466.895C243.279 466.301 243.05 464.997 242.821 464.145C244.311 463.704 245.836 463.425 247.359 463.12Z" fill="#969A9A"/>
<path d="M299.425 432.848C300.257 433.463 306.485 444.005 307.444 445.58C306.378 446.213 305.246 446.977 304.195 447.66C302.341 445.069 299.733 440.66 298.119 437.914C296.416 439.004 294.689 440.06 292.942 441.085C293.615 442.039 294.371 443.314 295.007 444.326C296.335 446.435 297.667 448.641 299.13 450.654C298.045 451.402 296.695 452.127 295.534 452.787C293.881 449.587 289.781 443.243 287.721 440.182C291.221 437.797 295.764 435.121 299.425 432.848Z" fill="#141618"/>
<path d="M321.443 417.751C324.39 417.558 325.241 418.228 327.872 419.485C326.884 420.387 325.663 421.315 324.607 422.16C320.061 420.984 315.456 424.488 318.791 428.877C319.365 429.633 321.514 430.514 322.531 430.438C326.996 430.107 325.259 423.002 329.739 422.903L330.227 423.5C330.571 425.062 330.441 426.692 329.851 428.18C327.077 435.346 317.182 436.574 314.225 428.78C313.505 426.905 313.594 424.817 314.47 423.007C315.889 420.035 318.52 418.768 321.443 417.751Z" fill="#141618"/>
<path d="M118.469 432.099C126.059 431.247 131 439.335 123.161 443.069C121.94 443.65 119.59 443.752 118.207 443.851C119.815 444.771 121.436 445.804 123.016 446.779C122.407 447.825 121.615 448.886 120.911 449.885C119.744 448.743 117.838 447.634 116.421 446.735C114.326 445.421 112.196 443.989 110.118 442.631L111.972 440.227C114.443 440.709 118.173 441.056 120.565 440.3C124.566 439.032 123.133 433.896 118.466 436.498C117.268 435.755 115.338 435.022 115.744 433.497C116.569 432.702 117.387 432.503 118.469 432.099Z" fill="#141618"/>
<path d="M101.399 419.404C101.683 419.341 101.97 419.292 102.259 419.258C103.976 419.041 104.848 420.092 106.291 421.206C104.686 423.354 102.862 425.586 101.192 427.706L103.091 429.515C102.338 430.222 101.497 431.197 100.56 431.442C100.003 431.033 100.048 431.041 99.38 430.89C98.209 431.294 98.4182 431.445 97.5662 432.579C96.6558 432.809 97.0164 432.788 96.0327 432.42L93.8546 430.577C94.6547 429.82 95.3236 428.999 96.0398 428.165C93.8778 426.426 91.6614 424.845 89.4585 423.041C90.153 422.277 90.9534 421.558 91.7083 420.848C94.7723 420.29 98.288 419.85 101.399 419.404Z" fill="#141618"/>
<path d="M99.0042 422.765C99.2892 422.645 99.2837 422.7 99.6366 422.718C99.567 423.552 98.3548 424.773 97.7532 425.37L97.3904 425.224C96.5666 424.41 95.5612 423.878 94.5653 423.273L99.0042 422.765Z" fill="#969A9A"/>
<path d="M140.053 443.405C141.789 443.981 149.395 448.333 151.239 449.397C149.583 452.117 148.287 452.612 145.63 454.129C142.937 455.668 140.772 457.243 138.598 459.451C137.975 459.459 135.43 458.033 134.635 457.642C139.136 454.604 140.362 452.927 145.874 450.343C143.783 449.272 140.309 447.381 138.241 446.67C138.771 445.481 139.382 444.516 140.053 443.405Z" fill="#141618"/>
<path d="M340.877 410.531C342.21 410.215 343.545 411.039 343.858 412.372C344.174 413.704 343.35 415.039 342.017 415.352C340.687 415.665 339.352 414.841 339.039 413.511C338.723 412.181 339.547 410.846 340.877 410.531Z" fill="#141618"/>
<path d="M75.7559 407.425C76.9677 406.865 78.406 407.376 78.9904 408.578C79.5746 409.777 79.0898 411.227 77.9001 411.832C77.1099 412.236 76.164 412.181 75.426 411.688C74.6882 411.196 74.2735 410.346 74.3419 409.462C74.4105 408.578 74.9511 407.798 75.7559 407.425Z" fill="#141618"/>
<path d="M160.391 461.451C161.678 461.07 163.029 461.803 163.415 463.086C163.802 464.371 163.079 465.725 161.797 466.121C160.504 466.517 159.134 465.787 158.744 464.491C158.354 463.195 159.094 461.832 160.391 461.451Z" fill="#141618"/>
</g>
<defs>
<clipPath id="clip0_9_3">
<rect width="423" height="534" fill="white"/>
</clipPath>
</defs>
</svg>
