<svg width="935" height="1069" viewBox="0 0 935 1069" fill="none" xmlns="http://www.w3.org/2000/svg">
<g clip-path="url(#clip0_9_123)">
<path d="M0 0H935V409.057C933.35 418.353 933.972 438.851 933.632 449.298C929.08 591.004 884.914 717.749 799.167 831.967C785.045 851.019 769.791 869.199 753.487 886.419C688.486 953.775 609.415 997.892 526.936 1039.84C514.099 1046.36 501.22 1052.78 488.299 1059.12C482.274 1062.1 474.206 1066.46 468.22 1069H466.772C460.696 1066.39 452.843 1062.14 446.789 1059.13C434.57 1053.15 422.394 1047.09 410.26 1040.94C328.945 999.802 243.604 952.355 180.461 885.307C106.834 807.137 50.6596 705.66 22.8927 602.028C10.0679 554.163 3.66127 499.949 1.45727 450.308C1.08028 441.633 0.798143 432.954 0.610919 424.273C0.508271 419.658 0.746481 413.577 0 409.108V0Z" fill="#780000"/>
<path d="M925.342 5.48364L929.967 5.49079L930.004 257.325V350.357C929.988 440.109 927.717 535.774 900.67 622.186C870.14 718.099 817.684 810.681 747.828 883.423C683.474 950.439 599.825 996.639 517.728 1037.98C501.005 1046.4 484.049 1054.44 467.464 1063.08C459.411 1058.39 445.509 1052.01 436.985 1047.8C420.517 1039.66 404.123 1031.37 387.803 1022.93C311.423 983.61 248.623 944.65 187.475 883.841C143.355 837.265 106.303 784.478 77.4995 727.16C58.8147 690.972 43.5425 653.118 31.8807 614.096C1.96323 510.511 4.94748 400.347 4.94043 293.516L4.97167 5.50144L925.342 5.48364Z" fill="#EE0E09"/>
<path d="M22.9929 23.4913L912.009 23.5035L912.014 303.92C912.019 368.59 913.126 439.244 905.953 503.486C891.967 622.677 844.476 735.465 768.992 828.773C758.274 842.245 748.005 853.483 736.567 866.114C734.724 868.208 732.458 870.311 730.48 872.321C662.534 941.284 576.171 987.301 490.352 1030.01C482.886 1033.73 475.117 1037.91 467.474 1041.12C449.757 1033.64 429.859 1022.6 412.61 1013.81C338.988 976.298 265.254 933.386 206.592 874.398C165.809 833.382 129.649 783.027 102.13 732.192C76.8302 686.41 57.2719 637.684 43.8977 587.115C20.2288 493.857 22.9794 392.527 22.9749 296.702L22.9929 23.4913Z" fill="#780000"/>
<path d="M28.4729 28.4583L906.491 28.5172L906.501 307.915C906.501 367.191 907.702 428.798 902.205 487.778C890.928 608.824 844.638 723.96 768.992 819.137C756.457 835.188 745.625 847.141 732.062 862.231C673.905 921.073 615.784 958.457 542.472 996.989C527.046 1005.05 511.555 1013 496.008 1020.83C486.96 1025.35 476.561 1030.13 467.757 1034.95C377.976 991.56 279.807 940.595 209.535 868.865C126.48 784.092 61.5722 663.177 40.5352 546.317C25.9982 465.567 28.4317 378.466 28.4287 296.64L28.4729 28.4583Z" fill="black"/>
<path d="M158.022 72.2426C158.357 72.1972 158.693 72.1559 159.029 72.1199C161.054 71.9028 161.663 71.8902 163.095 73.0532C166.353 82.5844 167.159 94.1571 168.864 104.107C169.755 109.302 171.312 114.78 171.727 119.999C171.86 121.677 171.31 123.323 170.805 124.902C169.328 129.514 175.578 157.824 176.701 164.919C180.847 164.182 191.725 162.039 195.37 163.068C197.243 165.944 201.14 192.321 202.096 197.988L212.255 258.289L238.266 413.019C241.722 414.547 246.703 415.941 247.529 419.854C250.676 434.773 251.088 450.914 254.04 465.817C263.614 465.368 273.603 464.029 283.297 463.358C284.724 461.911 285.076 461.454 286.783 460.423C290.871 459.883 290.783 461.305 294.031 462.981C302.025 467.108 350.87 447.42 359.451 443.326C363.981 441.165 368.528 439.027 372.951 436.65C378.778 433.517 385.249 428.959 391.723 427.418C394.292 427.977 398.094 434.206 399.107 436.522C402.56 444.417 427.445 482.106 426.352 487.431C423.811 489.724 414.615 494.667 411.137 496.61C383.885 511.836 349.071 527.469 317.831 531.269C322.923 546.161 326.959 561.074 329.787 576.571C330.337 579.588 330.844 582.516 331.525 585.512C351.051 591.484 370.573 598.04 390.127 603.823C393.077 601.375 397.586 599.329 401.495 600.978C403.1 601.657 404.286 603.364 404.864 604.987C405.445 606.616 405.676 608.85 405.601 610.624C404.143 619.216 402.259 659.372 399.542 665.453C392.82 669.874 327.454 625.135 309.912 628.069C297.505 630.146 300.841 643.383 294.987 650.743C291.714 654.856 279.963 655.013 274.816 655.744C275.222 666.773 272.5 671.058 274.18 683.654C281.78 680.663 292.835 679.311 299.754 685.355C302.671 687.908 304.033 695.732 306.701 699.156C319.226 715.233 331.954 731.341 344.075 747.726C348.099 752.408 353.552 759.935 357.409 764.956L382.394 797.517C389.461 806.719 397.645 816.49 404.193 825.928C407.1 830.114 407.276 842.574 405.813 847.772C404.015 850.053 393.49 851.416 389.996 852.178C379.678 854.412 369.396 856.813 359.155 859.376L305.399 873.438C297.559 875.505 289.677 877.744 281.806 879.67C279.169 880.312 277.341 880.844 275.093 879.623C273.096 876.476 266.875 829.195 265.727 821.992C260.867 792.605 255.591 763.286 249.9 734.05C247.462 721.251 244.861 708.312 242.387 695.508C240.935 690.429 246.671 687.6 245.292 682.505C242.91 673.71 238.991 670.975 237.666 661.486C234.509 658.087 228.337 658.609 226.117 652.184C219.528 633.127 217.173 611.34 213.27 591.572C212.63 591.567 211.99 591.546 211.351 591.51C207.392 591.27 206.392 590.064 203.919 587.219C200.525 587.736 197.106 589.01 193.838 589.907C189.09 591.218 170.586 593.587 167.669 589.808C166.679 586.332 167.233 583.122 167.702 579.578L173.941 578.836C178.206 570.547 183.551 572.119 191.943 571.962C196.575 563.777 196.311 558.986 207.161 558.338C203.882 534.416 197.906 505.942 193.569 481.796L159.554 292.956L149.318 236.336C147.599 226.786 145.536 216.727 144.195 207.166C141.936 207.323 132.043 207.93 130.397 208.466C120.724 211.7 111.295 215.529 100.837 213.134C92.9644 211.332 95.0516 200.754 96.5572 195.368C103.402 191.1 117.647 191.401 126.577 190.369C128.166 186.148 129.386 182.211 131.974 178.424C134.416 174.852 136.05 177.097 138.152 175.246C138.17 173.788 138.02 172.869 138.772 171.633C142.159 169.442 151.333 168.84 155.712 168.304C155.356 164.081 153.777 156.112 152.986 151.758C151.851 145.516 150.432 135.317 148.63 129.315C147.197 128.779 147.107 128.775 145.771 127.881C143.423 121.461 137.194 82.3313 137.196 75.9606C141.775 74.7887 153.461 72.7457 158.022 72.2426Z" fill="#2F2F30"/>
<path d="M248.736 462.6C250.18 462.469 249.533 462.304 250.738 463.117C251.239 465.22 251.236 465.748 252.419 467.483C255.277 469.295 280.113 466.259 285.281 465.84C286.784 463.849 287.123 463.249 289.678 463.086C292.33 464.502 293.492 470.555 294.5 473.455L301.36 493.03C308.326 512.857 315.843 532.668 321.731 552.905C325.036 563.824 326.204 575.731 329.503 586.546C330.097 588.493 350.01 594.146 352.874 595.054C365.833 599.245 378.833 603.312 391.874 607.242C395.25 601.923 402.657 600.681 402.931 608.166C403.168 614.659 401.954 622.15 401.293 628.685C400.103 640.497 399.072 652.325 398.199 664.168C393.569 661.626 387.968 659.126 383.127 656.668C372.119 650.989 361.073 645.383 349.992 639.845C340.428 634.865 319.729 623.898 309.909 625.37C295.621 627.51 297.748 640.784 292.312 649.491C291.861 650.07 290.833 650.801 290.109 650.895C272.624 653.238 255.026 656.167 237.518 658.145C231.904 655.853 228.108 651.479 226.568 645.659C222.014 628.445 219.511 610.29 216.309 592.783C209.259 552.847 202.004 512.95 194.543 473.091C199.687 471.63 208.585 470.212 214.139 469.164L248.736 462.6Z" fill="#FEFEFE"/>
<path d="M299.331 532.078C310.66 531.3 315.708 539.448 317.889 549.397C319.989 558.981 325.894 573.074 315.464 580.287C305.393 587.251 297.436 582.856 291.049 573.601C296.165 573.674 305.578 573.413 309.708 570.208C313.616 567.17 313.776 564.038 314.368 559.596C304.752 565.406 298.593 565.056 287.972 561.82C287.304 558.97 286.671 556.11 286.072 553.239C283.965 542.794 288.169 533.686 299.331 532.078Z" fill="#2F2F30"/>
<path d="M299.613 534.531C311.465 533.936 314.957 546.871 316.91 555.901C318.453 562.305 320.236 569.263 316.134 575.235C310.405 583.581 302.775 581.196 295.885 576.2C298.71 575.752 301.914 575.417 304.781 575.057C307.441 574.556 311.654 573.57 313.221 571.252C315.174 568.371 317.28 563.036 316.958 559.591C313.848 555.087 306.537 561.564 301.806 561.653C297.918 561.726 294.248 560.682 290.546 559.722L290.362 559.168C286.743 548.197 286.409 538.488 299.613 534.531Z" fill="black"/>
<path d="M282.915 683.434C289.61 683.502 293.062 684.092 298.586 687.929C303.039 700.132 307.562 704.835 315.378 714.998L336.256 742.125L384.999 805.738C390.382 812.821 398.472 821.345 402.477 828.95C404.189 832.202 403.593 842.657 403.523 846.802C398.302 847.454 389.503 849.547 384.073 850.753C371.521 853.535 359.027 856.568 346.598 859.851C323.435 865.613 300.072 872.18 276.807 878.042C271.099 837.009 264.387 796.118 256.677 755.409L248.401 712.065C247.367 706.751 245.076 697.674 244.611 692.856C245.716 691.332 248.493 691.53 250.469 691.379C262.02 690.481 272.055 687.036 282.915 683.434Z" fill="#FEFEFE"/>
<path d="M307.431 742.537C311.4 742.224 313.375 742.287 317.378 742.532C322.108 747.021 351.72 782.693 353.189 786.795C356.194 795.189 358.274 813.223 360.157 822.843L345.832 826.194C338.233 827.671 321.945 831.027 315.005 833.293L305.232 778.861C303.559 769.508 301.043 757.664 299.959 748.451C302.71 745.236 303.876 744.479 307.431 742.537Z" fill="#2F2F30"/>
<path d="M309.762 744.949C311.062 744.85 315.074 744.651 315.927 745.607C325.303 756.13 343.475 777.656 350.688 788.351C351.902 790.152 356.556 818.531 356.95 820.859C353.318 821.95 347.462 823.026 343.61 823.856C334.811 825.865 325.942 827.656 317.207 829.916C315.25 822.138 302.496 752.424 303.31 749.12C304.956 746.635 306.973 745.873 309.762 744.949Z" fill="black"/>
<path d="M356.61 827.984C357.687 827.984 358.58 827.963 359.556 828.48C360.768 829.117 361.575 830.156 361.917 831.476C362.165 832.437 362.053 833.282 361.476 834.128C358.154 838.982 332.659 843.409 326.041 845.022C323.534 844.797 321.475 843.215 320.906 840.736C322.131 833.94 349.678 829.462 356.61 827.984Z" fill="#2F2F30"/>
<path d="M357.612 830.61L358.74 831.299C359.755 835.908 330.547 841.107 325.764 842.255C325.081 841.864 324.918 841.597 324.339 841.028L324.362 839.964C327.042 836.962 352.265 831.591 357.612 830.61Z" fill="black"/>
<path d="M191.941 165.169L193.396 165.026C195.099 167.181 231.556 390.973 236.262 415.683C238.875 416.463 244.354 417.927 244.939 420.883C247.417 433.412 248.717 446.781 250.182 459.469C234.182 463.24 215.678 466.066 199.299 469.378L194.064 470.227C192.811 460.495 190.182 448.03 188.402 438.097L176.538 372.434L140.562 173.061C157.15 171.199 175.26 167.558 191.941 165.169Z" fill="#FEFEFE"/>
<path d="M185.085 341.533C186.659 341.347 186.73 341.255 188.321 341.648C189.309 344.355 190.334 352.367 190.86 355.614C192.38 365.125 193.956 374.627 195.587 384.12L189.904 384.937C188.184 385.313 187.872 385.325 186.094 385.396C184.543 383.473 179.492 348.341 178.18 342.714L185.085 341.533Z" fill="#2F2F30"/>
<path d="M184.895 343.696L185.841 344.11C187.356 347.216 191.731 376.63 192.021 380.998C191.23 382.386 190.935 382.087 188.972 382.835L187.889 382.229C186.933 379.271 186.115 372.933 185.559 369.619C184.26 361.873 182.628 353.851 181.754 346.076C182.452 344.502 182.908 344.731 184.895 343.696Z" fill="black"/>
<path d="M165.388 223.569C166.802 223.406 167.439 223.203 168.771 223.721C169.858 226.946 171.379 237.298 171.931 240.987C173.154 249.142 174.999 258.157 175.716 266.248C172.975 266.51 171.898 266.709 169.244 267.336L166.501 267.541C165.299 266.159 159.675 229.898 158.892 224.942C161.007 224.383 163.235 223.992 165.388 223.569Z" fill="#2F2F30"/>
<path d="M162.301 226.69C163.059 226.609 166.673 226.12 166.79 227.149C167.532 233.693 173.545 260.205 172.132 264.417C170.406 264.628 170.083 264.762 168.392 264.202C167.429 261.54 161.909 228.907 162.301 226.69Z" fill="black"/>
<path d="M195.513 218.335L196.335 218.265C197.397 219.532 203.019 256.124 203.809 261.089L195.222 262.33L193.875 262.225C191.366 251.499 188.513 231.107 186.65 219.792C189.573 219.201 192.562 218.785 195.513 218.335Z" fill="#2F2F30"/>
<path d="M191.144 221.173C192.695 221.32 193.053 221.253 194.383 222.118C195.724 225.124 199.798 252.819 200.307 257.886C200.387 258.69 199.983 258.742 199.272 259.308C197.644 259.427 197.692 259.453 196.111 259.089C193.093 251.076 192.634 234.343 190.354 225.461C189.886 223.637 190.048 222.609 191.144 221.173Z" fill="black"/>
<path d="M183.65 248.636C184.439 248.534 185.798 248.508 186.642 248.463C188.273 250.052 193.555 285.42 194.581 291.103L187.54 292.112C186.12 292.462 186.022 292.603 184.584 292.214C182.618 288.389 178.959 257.297 177.192 249.763L183.65 248.636Z" fill="#2F2F30"/>
<path d="M182.631 250.631C183.394 250.794 184.25 251.041 185.015 251.241C186.308 254.609 190.51 282.711 190.914 288.163C190.96 288.783 189.659 289.405 188.936 289.892C186.909 289.364 187.561 289.926 186.52 288.627C184.742 278.465 181.94 262.978 180.684 252.422C180.621 251.893 182.007 251.093 182.631 250.631Z" fill="black"/>
<path d="M175.212 183.967L176.197 183.971C177.659 186.154 182.741 220.478 183.714 226.43C180.29 227.223 178.534 227.417 175.011 227.736L174.32 227.952C174.089 227.774 173.856 227.597 173.624 227.419C171.77 216.684 168.16 194.995 166.647 185.139C169.221 184.66 172.552 184.312 175.212 183.967Z" fill="#2F2F30"/>
<path d="M170.642 186.78C172.682 186.805 173.303 186.47 174.67 187.875C175.571 192.586 181.039 222.619 179.939 224.861C178.096 225.078 177.901 225.183 176.194 224.617C174.714 221.323 169.642 189.584 170.642 186.78Z" fill="black"/>
<path d="M175.309 283.607C176.567 283.433 177.28 283.485 178.527 283.524C179.324 284.696 185.055 320.544 186.059 326.269C183.789 326.444 181.351 326.804 179.079 327.094C176.955 327.424 177.232 327.736 175.701 326.942C173.505 313.139 171.273 298.302 168.613 284.644C170.704 284.413 173.197 283.944 175.309 283.607Z" fill="#2F2F30"/>
<path d="M175.497 286.006L175.953 286.126C177.301 287.864 182.242 318.626 182.563 323.072C181.601 324.36 181.004 324.076 178.927 324.562L178.628 324.437C177.372 322.558 172.439 291.642 172.008 287.652C172.843 286.676 174.074 286.519 175.497 286.006Z" fill="black"/>
<path d="M195.546 306.592C196.466 306.455 196.01 306.477 197.05 306.967C199.695 320.796 201.846 335.439 203.919 349.362C201.2 349.74 198.309 350.282 195.585 350.748L194.586 350.612C193.445 349.091 187.661 312.72 186.777 307.756C189.703 307.386 192.626 306.998 195.546 306.592Z" fill="#2F2F30"/>
<path d="M190.07 309.709C191.838 309.554 193.265 309.251 194.901 309.897L198.844 333.814C199.31 336.569 200.938 344.657 200.858 347.064C198.796 347.48 197.881 347.833 196.241 347.01C195.455 344.752 194.301 336.643 193.889 333.847C192.744 326.089 190.829 317.423 190.07 309.709Z" fill="black"/>
<path d="M215.324 337.914L216.114 337.923C217.246 339.295 222.524 375.176 223.607 380.506C220.925 381.061 217.443 381.45 214.676 381.831L214.087 381.788C212.918 380.485 207.221 344.273 206.325 339.269C208.873 338.697 212.644 338.284 215.324 337.914Z" fill="#2F2F30"/>
<path d="M213.112 340.17C213.551 340.348 213.847 340.711 214.238 341.067C215.137 345.38 220.721 376.437 220.031 378.194L216.775 378.906L216.071 378.569C214.668 375.452 210.279 347.421 209.675 342.406C210.574 341.037 211.364 341.027 213.112 340.17Z" fill="black"/>
<path d="M206.156 279.472C206.179 279.486 206.206 279.496 206.225 279.515C208.397 281.775 212.998 316.42 213.936 322.115C210.861 322.768 207.768 323.341 204.663 323.833C204.622 323.815 204.58 323.798 204.538 323.78C204.279 323.555 204.02 323.331 203.761 323.106C201.837 311.267 198.652 292.01 196.829 280.725C199.848 280.454 203.133 279.911 206.156 279.472Z" fill="#2F2F30"/>
<path d="M203.752 282.448L204.772 282.755C205.589 284.832 210.415 316.996 210.352 319.383C209.3 320.624 208.867 320.448 207.075 321.106C204.703 318.228 200.623 289.026 200.226 283.639C201.482 282.554 201.833 282.815 203.752 282.448Z" fill="black"/>
<path d="M206.098 366.182C206.127 366.193 206.163 366.195 206.186 366.217C208.069 367.971 213.109 403.627 213.934 408.885L205.291 410.126C204.669 410.182 204.45 410.066 203.811 409.936C201.401 398.33 198.745 379.479 196.908 367.349C199.967 366.792 203.008 366.511 206.098 366.182Z" fill="#2F2F30"/>
<path d="M202.957 368.753C204.166 369.022 203.81 368.917 204.914 369.498C206.002 376.691 210.405 400.495 210.388 406.155C209.209 407.502 209.223 407.138 207.149 407.73C205.241 407.028 200.658 374.484 200.366 370.118C200.336 369.68 202.484 368.954 202.957 368.753Z" fill="black"/>
<path d="M401.371 447.25C402.821 447.937 409.242 459.675 410.545 461.838C385.302 477.456 340.685 498.556 310.746 501.842C309.452 502.101 309.459 502.217 308.248 501.778C305.773 498.609 303.426 489.811 302.2 485.69C337.623 480.263 370.519 464.858 401.371 447.25Z" fill="#FEFEFE"/>
<path d="M391.569 429.77C393.312 431.399 399.225 442.238 400.31 444.761C393.298 448.368 386.19 452.697 379.084 456.298C358.989 466.48 327.811 479.709 305.273 482.403C303.734 482.726 303.171 482.978 301.646 482.546C299.049 479.786 296.888 471.091 295.251 466.804C303.287 465.027 310.512 463.812 318.549 461.575C344.819 454.264 367.946 442.981 391.569 429.77Z" fill="#FEFEFE"/>
<path d="M158.028 74.7909C158.871 74.6045 159.382 74.6254 160.248 74.5774C161.927 76.1136 167.007 105.897 166.403 107.649C165.129 107.91 165.191 107.865 164.101 108.56C164 110.189 163.779 109.491 164.686 110.754C166.152 110.927 166.389 110.837 167.648 111.636C168.23 113.167 168.188 113.057 167.883 114.677C167.005 115.423 166.441 115.512 165.337 115.807L165.356 117.002C166.472 118.644 166.32 118.081 169 118.707C169.576 121.325 168.934 121.897 167.291 123.633C166.931 127.832 173.077 158.545 174.169 165.325C169.689 165.642 163.708 167.145 158.704 167.704C157.662 163.168 151.996 127.457 150.61 126.491C149.949 126.03 148.896 126.465 147.836 125.649C147.356 124.037 147.246 124.048 147.733 122.375C149.501 121.235 150.039 121.236 149.532 119.17C147.479 118.513 146.674 118.639 145.986 116.559C146.559 114.085 145.97 114.966 148.431 113.373C148.615 111.727 148.828 112.412 148.024 111.192L145.739 111.393C144.819 110.236 140.012 82.1142 139.276 78.2897C145.071 76.8323 152.047 75.8051 158.028 74.7909Z" fill="#FEFEFE"/>
<path d="M411.496 464.616C412.878 465.394 418.209 475.199 419.379 477.23C387.362 495.026 353.523 513.623 316.495 518.676C315.781 518.815 315.11 518.766 314.363 518.772C311.926 516.339 309.986 508.326 308.926 504.738C313.058 504.48 319.978 502.984 324.187 502.004C355.775 494.65 383.674 480.639 411.496 464.616Z" fill="#FEFEFE"/>
<path d="M420.224 479.593C421.407 480.318 423.406 484.252 424.236 485.696C392.811 503.989 354.833 523.873 318.26 528.654L317.215 528.195C315.865 526.201 315.416 524.019 314.729 521.683C348.302 517.3 391.726 497.844 420.224 479.593Z" fill="#FEFEFE"/>
<path d="M266.893 656.819C268.884 656.548 269.447 656.287 271.182 657.075C271.926 658.072 272.354 658.542 272.213 659.883C271.337 668.193 271.011 675.234 271.557 683.617C265.953 686.561 254.201 689.207 248.202 688.268C247.775 677.025 245.959 676.174 241.245 665.839C240.448 664.095 240.58 663.344 241.283 661.814C244.606 659.262 261.753 657.571 266.893 656.819Z" fill="#FEFEFE"/>
<path d="M136.42 178.375C140.051 179.515 140.094 183.267 140.258 186.646C140.471 191.05 144.666 200.949 141.989 204.124C138.885 205.682 133.379 204.631 130.154 205.732C119.561 209.35 116.003 211.157 104.694 211.049C95.8744 210.169 96.3442 201.537 99.5418 197.765C103.081 193.59 121.573 193.434 128.318 192.88C130.686 187.521 132.103 181.809 136.42 178.375Z" fill="#FEFEFE"/>
<path d="M203.821 561.027C204.921 560.964 205.935 561.048 207.032 561.11C209.222 563.167 211.468 582.861 212.597 587.658L212.785 588.441L212.027 589.187C209.342 589.051 206.774 586.014 204.839 584.108C199.365 585.601 189.405 588.764 184.26 589.145L169.882 589.192C169.706 581.175 169.548 583.889 175.736 580.496C176.452 580.105 178.952 576.378 179.609 575.412C185.685 574.723 194.853 576.524 196.473 569.227C197.218 565.871 200.958 562.796 203.821 561.027Z" fill="#FEFEFE"/>
<path d="M771.931 72.1131C778.05 71.7232 791.362 74.6583 797.872 75.9976C797.94 80.6453 790.694 125.138 788.861 128.228C788.24 128.477 787.483 128.737 786.935 129.128C784.888 130.591 779.819 163.425 779.188 168.362C783.959 168.913 790.511 169.394 795.016 170.907C797.256 171.659 796.509 173.323 797.329 175.715C798.634 176.066 799.731 176.309 801.051 176.579C804.873 179.692 806.637 185.666 808.548 190.329C818.363 192.181 830.208 190.425 838.509 195.419C841.495 205.601 841.124 214.089 827.707 213.755C817.856 213.509 813.581 211.419 804.225 208.359C801.934 207.611 793.769 207.384 790.913 207.227C786.784 232.103 781.751 257.658 777.287 282.527L747.358 448.833L734.964 517.529C732.657 530.23 729.394 545.795 727.901 558.38C731.399 558.714 732.427 558.876 735.732 559.977C739.141 563.882 740.764 567.457 743.171 571.998C751.795 572.186 756.551 570.652 761.177 578.842L767.556 579.797C767.796 582.61 768.559 588.3 767.029 590.549C763.442 592.721 748.011 591.484 743.458 590.492C739.866 589.709 735.888 588.133 731.827 587.397L731.2 587.287C727.64 591.097 726.538 591.343 721.642 591.76C717.669 609.33 715.387 637.84 707.609 654.465C706.079 657.732 699.705 659.189 697.57 661.204C696.98 661.762 696.87 666.105 696.186 667.796C693.774 673.773 688.888 678.893 689.869 685.705C690.177 687.824 692.892 692.094 692.662 693.827C691.195 704.7 687.718 720.228 685.682 730.866C679.141 764.612 673.085 798.446 667.515 832.369C665.286 846.107 663.511 860.159 661.574 873.939C661.266 876.121 660.598 878.522 659.219 880.265C653.947 880.166 640.321 876.293 634.411 874.732L598.969 865.389C574.647 859.021 553.655 854.125 529.066 848.905C525.902 824.56 533.524 822.337 547.589 804L588.81 750.377L617.173 713.401C622.127 706.949 629.796 698.671 632.083 691.118C635.753 678.977 651.013 679.76 660.812 683.612C662.717 671.252 659.355 665.437 660.431 655.88C640.979 652.622 640.493 656.887 635.012 637.062C629.974 618.814 605.015 633.116 594.077 638.467C582.571 644.125 571.128 649.913 559.747 655.832C553.942 658.803 548.017 661.913 542.128 664.701C539.643 665.88 538.192 666.554 535.837 665.63C531.979 661.538 532.089 623.794 530.089 616.528C526.832 604.69 533.561 594.282 544.905 603.886C562.613 598.494 586.894 591.473 603.85 585.215C605.516 569.096 612.094 546.516 617.158 531.159C585.396 528.737 545.876 508.844 518.457 493.464C516.101 492.142 509.412 489.019 508.361 486.887C509.087 482.679 512.567 476.944 514.801 473.164C522.974 459.342 530.695 445.237 538.917 431.452C539.455 430.568 542.357 426.785 543.302 427.254C573.503 442.213 603.829 458.611 637.726 463.515C642.837 464.254 644.106 455.951 651.681 463.374C660.979 463.783 671.42 465.221 681.015 465.821C683.813 450.731 684.43 433.87 687.828 418.812C688.397 416.304 694.594 413.951 697.032 412.857C699.063 394.492 703.902 370.078 707.061 351.543L724.095 250.629L734.046 191.574C735.314 184.14 737.22 169.747 739.371 163.16C742.367 161.9 754.134 164.26 758.211 164.898C759.908 156.519 764.184 134.425 764.434 125.292C764.132 124.193 763.02 121.663 763.213 120.569C766.053 104.576 768.621 87.9952 771.931 72.1131Z" fill="#2F2F30"/>
<path d="M684.184 462.289C687.17 462.679 690.872 463.382 693.837 464.039C709.076 467.422 725.364 469.301 740.441 473.04L718.274 595.085C715.189 611.924 712.782 630.804 707.917 647.22C706.33 652.56 702.539 655.848 697.564 658.098C683.317 657.263 659.663 652.555 645.087 650.722C638.107 649.851 639.668 627.839 628.246 625.871C614.328 623.475 597.914 633.163 585.996 639.396C570.522 646.933 552.104 656.104 536.844 664.163C536.244 652.836 534.761 641.739 533.853 630.172C533.853 622.896 530.152 611.444 533.101 604.888C535.941 598.577 542.493 607.206 544.054 606.757C564.446 600.885 584.847 594.48 604.873 587.444C606.507 586.87 609.092 569.78 609.963 566.779C615.998 538.571 627.463 511.878 636.64 484.609C638.332 479.618 641.986 464.157 646.45 463.151C648.241 463.663 648.522 464.339 649.775 465.872C654.338 466.254 680.175 469.198 682.675 467.42C684.022 465.846 683.933 464.401 684.184 462.289Z" fill="#FEFEFE"/>
<path d="M631.858 531.995C638.128 532.005 643.354 532.986 646.925 538.853C651.451 546.286 648.851 553.98 647.019 561.768C637.335 565.286 629.269 565.213 620.629 559.461C622.179 571.79 626.34 571.764 637.361 573.533C639.449 573.507 640.848 573.538 642.931 573.716L643.197 574.426C636.802 586.901 618.525 586.421 614.265 572.604C612.997 568.345 613.555 563.459 614.631 559.215C617.439 548.16 618.567 535.1 631.858 531.995Z" fill="#2F2F30"/>
<path d="M632.521 534.51C648.058 534.63 648.455 548.395 644.367 559.737C636.369 561.757 633.821 562.227 625.787 559.341C623.756 558.61 622.461 558.088 620.295 558.213C615.32 561.215 620.06 572.019 626.607 574.29C630.397 575.198 634.281 575.214 637.716 576.399L637.674 577.265C631.326 582.882 620.431 581.337 617.434 572.907C615.267 566.805 616.62 560.447 618.494 554.507C621.71 544.303 621.396 538.592 632.521 534.51Z" fill="black"/>
<path d="M649.363 683.445C654.516 683.314 667.463 689.014 674.401 689.928C676.953 690.267 688.601 691.713 690.182 692.689C690.569 695.341 686.183 714.476 685.338 718.777C674.803 771.601 665.745 824.717 658.175 878.047C635.414 872.456 612.798 866.083 590.094 860.284C575.555 856.134 545.944 848.988 531.478 846.77C531.415 842.939 530.841 832.118 532.303 829.394C536.568 821.449 544.769 812.617 550.418 805.19L599.136 741.619L619.856 714.695C627.87 704.282 631.937 700.075 636.526 687.725C641.323 684.478 643.761 684.123 649.363 683.445Z" fill="#FEFEFE"/>
<path d="M618.04 742.626C626.628 741.702 629.609 741.984 635.148 748.78L620.044 833.345C616.04 831.816 602.571 829.096 597.638 827.943C590.141 826.429 582.415 824.607 574.939 822.911C576.636 812.263 578.938 800.837 580.89 790.194C581.125 788.92 582.112 785.621 582.838 784.755C587.776 778.872 614.171 745.027 618.04 742.626Z" fill="#2F2F30"/>
<path d="M620.023 744.954C624.565 744.714 633.143 745.674 631.838 751.985C626.549 777.484 623.542 804.72 617.805 829.983C610.606 827.791 602.712 826.7 595.252 824.675C590.788 824.017 582.785 822.034 578.097 821.032C578.619 815.561 583.14 788.57 585.756 785.892C592.924 778.548 613.038 749.14 620.023 744.954Z" fill="black"/>
<path d="M575.962 827.864L576.239 827.88C582.576 828.162 606.81 833.684 612.913 838.111C615.492 839.985 612.798 843.325 610.579 844.995C609.06 845.048 598.191 842.746 596.374 841.963C590.919 839.609 564.383 838.413 575.962 827.864Z" fill="#2F2F30"/>
<path d="M575.717 830.897C581.71 830.135 597.403 835.725 604.08 836.91C607.238 837.469 610.83 838.413 610.747 841.984C605.26 841.942 583.636 836.435 577.471 834.039C576.124 833.517 576.004 832.092 575.717 830.897Z" fill="black"/>
<path d="M741.072 164.751C757.611 167.59 777.867 171.089 794.494 173.061C776.087 268.494 760.707 364.809 742.607 460.331C742.184 462.57 741.495 468.305 740.514 469.881L739.538 470.031C721.908 467.082 702.482 463.032 684.852 459.535C685.855 449.054 687.436 438.538 688.705 428.095C689.843 418.733 689.989 418.56 698.838 415.565C707.248 370.439 714.39 323.445 722.101 278.052L732.333 217.47C735.225 200.83 738.838 181.435 741.072 164.751Z" fill="#FEFEFE"/>
<path d="M766.225 223.23C770.072 223.603 772.312 224.066 776.107 224.916C774.176 237.235 771.534 256.133 768.893 267.839C765.557 267.2 762.67 266.688 759.302 266.258C760.253 255.711 764.053 234.099 766.225 223.23Z" fill="#2F2F30"/>
<path d="M768.136 226.494C769.978 226.469 771.571 226.212 772.845 227.587C771.472 239.008 768.856 252.425 766.987 263.998C765.734 264.921 764.596 264.628 763.244 264.159C761.568 261.513 767.353 231.67 768.136 226.494Z" fill="black"/>
<path d="M746.449 341.229C749.634 341.402 753.607 342.192 756.833 342.739C753.753 354.737 752.463 374.914 749.253 385.65C745.906 385.015 742.811 384.63 739.428 384.204C742.043 370.57 744.325 355.002 746.449 341.229Z" fill="#2F2F30"/>
<path d="M748.929 343.571C750.417 344.066 751.409 344.483 752.845 345.114C753.857 347.023 748.063 378.05 747.207 382.829C745.87 382.517 744.795 382.18 743.495 381.772C742.043 379.427 748.104 348.266 748.929 343.571Z" fill="black"/>
<path d="M747.88 248.305C750.882 248.444 754.797 249.245 757.846 249.776C756.833 253.494 755.993 259.992 755.314 264.012C753.623 273.52 752.119 283.06 750.798 292.626C747.363 292.061 743.912 291.589 740.446 291.211C742.816 277.557 745.014 261.576 747.88 248.305Z" fill="#2F2F30"/>
<path d="M749.989 250.872C751.68 251.159 752.975 251.17 754.27 252.24C754.348 256.933 749.368 283.513 748.256 289.633C746.549 289.386 745.886 289.394 744.335 288.581C743.395 285.539 748.945 255.932 749.989 250.872Z" fill="black"/>
<path d="M737.893 306.217C741.803 306.954 744.278 307.352 748.225 307.661L740.958 350.816L731.07 349.321C733.189 335.194 736.118 320.237 737.893 306.217Z" fill="#2F2F30"/>
<path d="M739.997 309.418C741.929 309.445 743.416 309.281 744.789 310.397C743.97 319.955 740.524 337.376 738.969 347.677C736.87 347.585 736.014 347.761 734.338 346.666C734.103 343.783 739.417 314.863 739.997 309.418Z" fill="black"/>
<path d="M728.376 279.325C731.785 280.002 734.583 280.328 738.044 280.715C736.473 294.93 732.913 309.589 731.294 323.762C728.439 323.602 724.126 322.798 721.14 322.373C722.612 310.797 725.974 290.488 728.376 279.325Z" fill="#2F2F30"/>
<path d="M730.057 282.355C732.234 282.609 732.714 282.658 734.766 283.332C735.236 287.831 729.848 313.848 729.055 320.376C727.306 320.521 726.288 320.839 724.873 319.865C723.949 317.003 729.357 288.174 730.057 282.355Z" fill="black"/>
<path d="M758.603 183.56C761.203 184.183 765.672 184.731 768.449 185.152C766.564 195.435 762.409 217.957 761.38 228.052C757.909 227.644 754.776 227.12 751.331 226.52C752.657 216.12 754.964 205.631 756.389 195.218C756.917 191.363 757.533 187.297 758.603 183.56Z" fill="#2F2F30"/>
<path d="M760.56 186.809C762.268 186.804 763.119 186.62 764.554 187.524C765.343 190.125 760.007 220.119 758.968 225.236C757.005 225.053 757 225.06 755.162 224.371C753.91 222.396 759.762 190.734 760.56 186.809Z" fill="black"/>
<path d="M756.243 283.215C759.626 283.662 763.009 284.141 766.382 284.65C764.058 296.6 760.602 315.689 759.339 327.517C757.146 327.475 751.373 326.394 748.95 326.001C751.623 314.172 754.134 295.75 756.243 283.215Z" fill="#2F2F30"/>
<path d="M758.906 285.809C760.743 286.346 761.292 286.43 762.905 287.396C763.317 291.759 757.94 318.381 756.781 324.644C754.369 324.18 754.16 324.541 752.578 323.172C752.401 319.469 757.611 289.452 758.906 285.809Z" fill="black"/>
<path d="M728.303 365.899C731.232 366.474 735.037 366.914 738.055 367.348C736.243 381.288 733.403 396.301 731.216 410.396C727.984 409.813 724.388 409.355 721.114 408.867C722.994 395.286 725.813 379.359 728.303 365.899Z" fill="#2F2F30"/>
<path d="M730.057 368.772C731.597 369.108 733.915 369.44 734.928 370.415C733.931 381.059 730.563 396.118 728.935 407.497L724.199 406.85C725.719 394.153 728.731 381.456 730.057 368.772Z" fill="black"/>
<path d="M738.237 218.045L748.324 219.824C746.183 234.019 743.207 248.54 741.218 262.676C737.945 262.233 734.479 261.609 731.2 261.074C733.638 246.746 735.982 232.403 738.237 218.045Z" fill="#2F2F30"/>
<path d="M740.968 221.286C742.811 221.418 743.02 221.383 744.695 222.069C745.369 224.561 739.835 255.056 738.921 259.743C737.105 259.386 736.217 259.374 734.74 258.35C734.787 254.055 739.428 224.304 740.968 221.286Z" fill="black"/>
<path d="M718.624 337.563C721.631 338.217 725.562 338.739 728.71 339.298C726.084 353.559 723.965 367.861 721.381 382.122L711.331 380.57C712.318 377.181 713.111 370.588 713.732 366.951C715.393 357.265 716.614 347.181 718.624 337.563Z" fill="#2F2F30"/>
<path d="M720.932 340.199C722.665 340.686 724.116 340.867 725.285 342.19C725.024 346.364 723.343 354.531 722.56 359.122C721.589 364.809 720.54 373.815 719.042 379.051C717.601 378.837 716.212 378.456 714.797 378.109C714.312 376.096 720.164 344.13 720.932 340.199Z" fill="black"/>
<path d="M533.06 447.056C538.959 449.679 550.12 456.476 556.97 459.875C582.263 472.425 604.994 481.04 632.824 485.687C631.791 489.102 628.768 499.747 626.664 501.978L625.301 501.992C594.464 498.972 550.595 477.489 524.451 461.816C527.218 457.621 530.507 451.523 533.06 447.056Z" fill="#FEFEFE"/>
<path d="M543.329 429.587C571.843 447.538 606.722 460.318 639.736 466.812C638.285 470.395 635.492 480.854 633.451 482.79L631.832 482.672C600.692 479.29 561.48 459.835 534.621 444.6C536.777 440.265 540.755 433.707 543.329 429.587Z" fill="#FEFEFE"/>
<path d="M774.176 74.3707C780.451 75.2157 789.77 76.8605 795.747 78.2776C793.904 86.6772 791.9 101.999 789.519 110.771C789.362 111.353 787.927 111.224 787.086 111.269C786.334 112.333 786.59 111.723 786.71 113.288C787.285 113.768 787.629 114.04 788.256 114.474L788.783 114.833C788.95 120.106 787.305 117.142 785.28 119.781C785.593 122.86 786.376 120.135 787.666 123.306C787.295 125.912 787.389 126.096 784.81 126.336C784.533 126.55 784.257 126.764 783.98 126.978C781.589 138.279 779.198 153.265 777.084 164.271C776.859 165.698 776.937 165.666 776.191 166.878C772.751 168.333 766.136 165.783 761.479 165.357L760.816 165.299C762.957 152.222 766.616 136.757 767.885 123.942C762.289 118.393 767.974 118.868 769.54 117.296C769.817 113.866 769.096 117.178 766.94 114.258C766.987 112.104 766.658 113.009 767.65 111.354C769.023 111.033 769.373 110.971 770.709 110.411L771.064 109.284C770.083 106.408 770.584 109.502 768.506 107.182C768.543 102.581 772.975 79.6207 774.176 74.3707Z" fill="#FEFEFE"/>
<path d="M523.203 464.265C545.886 479.636 598.583 502.671 626.142 504.7C625.093 508.142 622.827 516.297 620.895 518.804L619.559 518.794C592.96 515.527 562.702 502.547 539.037 490.289C531.165 486.211 523.558 481.337 515.655 477.336C517.991 473.07 520.751 468.507 523.203 464.265Z" fill="#FEFEFE"/>
<path d="M514.42 479.397C542.796 498.205 586.455 516.687 620.238 521.673C619.402 524.692 619.063 525.741 617.742 528.591C613.002 528.445 605.677 526.707 600.89 525.548C567.755 517.526 539.867 502.614 510.808 485.681L514.42 479.397Z" fill="#FEFEFE"/>
<path d="M663.745 656.553C670.908 656.36 680.221 659.043 687.661 659.601C701.72 660.65 688.653 672.87 687.233 681.472L687.118 682.182C687.128 684.593 687.499 686.592 685.693 688.289C680.697 689.27 668.204 686.086 663.49 683.675C663.745 679.06 663.913 674.921 663.646 670.276C663.364 665.322 661.516 661.146 663.745 656.553Z" fill="#FEFEFE"/>
<path d="M797.198 178.094C802.837 180.304 804.366 187.454 806.642 192.843C814.567 193.552 824.142 193.939 831.831 195.613C838.482 197.059 838.597 203.857 836.044 208.8C835.381 210.08 833.758 210.441 832.437 210.855C819.96 211.408 816.018 209.621 804.309 205.589C801.772 204.715 791.769 206.203 792.176 202.376C792.693 197.583 794.635 180.987 797.198 178.094Z" fill="#FEFEFE"/>
<path d="M727.238 560.938C736.175 560.651 736.071 566.377 740.033 572.359C742.273 575.746 751.346 575.104 755.366 575.417C759.793 581.968 757.94 579.369 764.502 583.111C765.468 584.74 765.097 587.141 765.024 589.14L754.238 589.187C745.661 589.171 738.499 586.41 730.135 584.119C728.397 585.862 724.596 590.508 722.21 588.571C724.199 579.4 725.275 570.093 727.238 560.938Z" fill="#FEFEFE"/>
<path d="M463.966 48.0998L471 48.0369C488.59 63.7496 496.858 96.9773 499.575 120.009C500.095 124.415 499.578 134.112 499.378 138.818L499.155 139.039C499.124 133.922 499.021 128.806 498.847 123.691C497.997 166.379 497.777 209.078 498.186 251.772C498.187 288.185 497.79 325.384 498.219 361.737L498.823 361.65C500.186 365.552 500.334 384.067 499.93 388.713C501.56 392.753 502.552 393.661 500.285 397.758C501.212 399.269 509.337 401.023 511.522 401.822C519.941 404.9 527.609 408.08 534.829 413.558C537.064 424.084 534.636 429.956 523.182 429.523C515.994 424.578 511.997 421.564 503.349 419.766C502.354 423.981 498.594 437.302 498.316 440.303C496.329 461.768 500.557 484.378 500.7 506.086C500.454 512.39 500.739 536.04 499.48 540.576C479.816 540.732 455.356 541.338 435.987 540.638L435.835 540.19C433.022 534.458 434.743 462.538 438.866 458.336L439.275 456.625C439.016 454.031 439.147 449.782 439.154 447.045C437.433 445.201 432.588 423.695 431.588 419.7C423.579 421.361 418.435 425.032 411.767 429.491C406.287 429.751 403.693 429.765 400.412 424.459C399.218 422.528 398.372 418.423 399.344 416.409C404.564 405.597 425.173 402.804 434.339 398.121C432.233 388.815 436.973 387.656 437.037 379.743C437.651 297.453 435.86 213.714 437.144 131.624C436.374 127.831 435.287 125.261 435.578 121.235C437.147 99.5407 446.846 62.0537 463.966 48.0998Z" fill="#2F2F30"/>
<path d="M437.143 131.624C438.64 106.217 446.544 67.6644 466.071 50.0805L466.115 261.601C466.114 297.515 466.799 335.973 466.075 371.69C458.566 378.761 447.46 384.012 437.47 386.334C437.384 384.451 437.341 381.518 437.036 379.743C437.651 297.453 435.86 213.714 437.143 131.624Z" fill="#FEFEFE"/>
<path d="M435.756 520.933L499.069 520.95C499.061 524.781 498.847 537.616 499.48 540.576C479.816 540.732 455.356 541.338 435.987 540.638L435.835 540.189C435.724 533.774 435.698 527.354 435.756 520.933Z" fill="#FEFEFE"/>
<path d="M439.556 440.504C458.022 440.505 477.077 440.289 495.5 440.525L495.497 456.586C490.991 456.612 484.062 456.451 479.754 456.755C466.809 456.314 452.408 456.69 439.275 456.625C439.016 454.031 439.147 449.782 439.154 447.045C439.323 444.867 439.457 442.686 439.556 440.504Z" fill="#FEFEFE"/>
<path d="M439.275 456.625C452.408 456.69 466.809 456.314 479.754 456.755C484.545 457.224 489.349 457.555 494.159 457.749L494.194 457.915C479.122 458.171 453.43 459.133 438.866 458.336L439.275 456.625Z" fill="#221F1F"/>
<path d="M498.219 361.737L498.823 361.65C500.186 365.552 500.334 384.067 499.93 388.713L499.508 388.174C499.474 384.096 498.768 381.067 498.489 377.004C498.14 371.931 498.201 366.824 498.219 361.737Z" fill="#221F1F"/>
<path d="M468.987 50.3157C484.438 62.4488 493.069 94.6561 496.135 113.701C498.137 126.134 497.617 141.469 497.617 154.224L497.614 206.881L497.523 386.355C487.275 383.815 476.712 378.944 468.939 371.714L468.987 50.3157Z" fill="#FEFEFE"/>
<path d="M441.25 399.994C450.58 399.602 461.356 400.026 470.967 399.879C477.368 399.781 488.594 399.593 494.787 400.287C507.043 402.237 519.64 407.161 530.183 413.635C534.714 416.418 532.866 422.455 530.267 425.78C528.095 428.564 523.464 425.917 521.132 424.497C512.089 418.991 505.699 416.379 495.19 416.539C481.715 416.655 468.241 416.662 454.766 416.562C446.393 416.506 439.095 416.499 430.733 417.058C422.569 417.603 404.934 434.327 402.353 422.134C401.845 419.762 402.34 417.284 403.719 415.288C408.276 408.622 432.862 401.27 441.25 399.994Z" fill="#FEFEFE"/>
<path d="M448.135 419.159C449.69 417.941 450.249 419.062 452.406 418.366L452.111 417.775C451.091 417.74 447.977 417.78 447.302 417.387C453.552 417.038 478.961 416.855 484.993 417.428C482.894 417.998 482.222 417.345 480.504 417.877C481.896 419.055 483.756 418.207 484.78 419.143C488.996 419.536 496.264 419.482 500.715 419.578C499.344 425.58 497.43 431.874 495.962 438.045L439.124 438.054C437.565 431.876 435.93 425.718 434.219 419.581C438.86 419.55 443.5 419.409 448.135 419.159Z" fill="#FEFEFE"/>
<path d="M448.135 419.159C449.69 417.941 450.249 419.062 452.406 418.366L452.111 417.775C451.091 417.74 447.977 417.78 447.302 417.387C453.552 417.038 478.961 416.855 484.993 417.428C482.894 417.998 482.222 417.345 480.504 417.877C481.896 419.055 483.756 418.207 484.78 419.143C477.801 419.705 455.52 419.324 448.135 419.159Z" fill="black"/>
<path d="M436.958 500.001L498.004 499.985C497.922 506.036 498.598 511.747 498.485 518.03C477.971 518.26 456.92 518.129 436.388 518.035C436.379 512.361 436.843 505.854 436.958 500.001Z" fill="#FEFEFE"/>
<path d="M438.747 479.518L496.368 479.523C497.039 485.478 497.823 491.521 497.388 497.503L437.46 497.497C437.371 491.478 437.801 485.463 438.747 479.518Z" fill="#FEFEFE"/>
<path d="M439.467 458.845L495.456 458.911C495.334 464.512 496.754 472.124 496.319 477.067L438.439 477.058C438.882 470.972 439.381 464.948 439.467 458.845Z" fill="#FEFEFE"/>
<path d="M467.327 374.098C467.729 374.261 468.494 374.956 468.863 375.264C475.241 380.715 482.28 384.143 490.198 386.752C493.366 387.795 500.088 390.81 498.461 394.838C493.677 398.45 475.391 397.143 468.544 397.093C463.061 397.106 436.054 398.965 436.053 393.627C439.477 386.772 459.013 382.639 467.327 374.098Z" fill="#FEFEFE"/>
<path d="M500.7 506.086C502.591 525.705 501.471 546.782 500.433 566.439C499.916 576.247 498.25 586.849 497.684 596.797C496.728 613.605 496.691 631.947 496.097 648.415C495.367 668.657 454.559 669.936 443.531 658.265C439.101 653.953 438.228 648.139 438.371 642.167C438.908 630.073 437.792 617.802 438.209 605.77C438.253 604.507 438.871 604.105 439.645 603.218L439.461 597.982C438.124 592.961 437.235 590.91 436.373 585.398L439.025 586.729C438.586 579.734 437.952 572.75 437.122 565.787C436.885 565.171 436.916 563.84 436.887 563.099C437.034 559.487 436.435 550.42 435.928 546.855L435.682 544.271C434.926 542.831 435.374 542.799 435.987 540.638C455.356 541.338 479.816 540.732 499.48 540.576C500.739 536.04 500.454 512.39 500.7 506.086Z" fill="#262526"/>
<path d="M499.27 542.867C500.818 545.743 498.52 577.652 496.507 580.131L495.893 586.635L458.402 586.687C452.669 586.687 444.603 586.431 439.025 586.729C438.586 579.734 437.952 572.75 437.122 565.787C436.885 565.171 436.916 563.84 436.887 563.099C437.034 559.487 436.435 550.42 435.928 546.855L435.682 544.271L435.998 543.274C437.178 542.444 492.988 542.857 499.27 542.867Z" fill="#FEFEFE"/>
<path d="M437.122 565.787C440.153 565.114 452.834 565.385 456.847 565.39L497.686 565.453C497.468 569.065 496.459 577.145 496.507 580.131L495.892 586.635L458.402 586.687C452.668 586.687 444.603 586.431 439.024 586.729C438.586 579.734 437.952 572.75 437.122 565.787Z" fill="#FEFEFE"/>
<path d="M499.27 542.867C500.817 545.743 498.52 577.652 496.507 580.131C496.459 577.145 497.468 569.065 497.686 565.453L456.847 565.39C452.834 565.385 440.153 565.114 437.122 565.787C436.885 565.171 436.916 563.84 436.887 563.099C457.057 563.349 477.767 563.109 497.978 563.109C498.251 556.501 498.394 549.371 499.27 542.867Z" fill="#2F2F30"/>
<path d="M439.352 589.359C457.537 589.307 477.448 588.978 495.542 589.427C495.493 597.314 494.785 603.891 494.408 611.621C476.489 611.736 458.57 611.742 440.651 611.632C440.349 609.022 440.064 605.749 439.645 603.218L439.461 597.982L439.352 589.359Z" fill="#FEFEFE"/>
<path d="M446.591 635.945C459.833 635.679 473.148 635.893 486.451 635.972C495.089 636.024 493.794 642.726 493.274 649.151C492.892 653.886 488.312 657.049 484.738 659.559C470.549 666.564 435.406 664.884 442.069 638.816C442.467 637.261 445.135 636.337 446.591 635.945Z" fill="#FEFEFE"/>
<path d="M440.872 614.414C458.219 614.096 476.727 614.299 494.078 614.445C494.103 621.095 493.935 626.492 493.407 633.095L441.627 633.101C440.946 626.106 440.798 621.325 440.872 614.414Z" fill="#FEFEFE"/>
<path d="M436.373 585.398C435.518 578.534 432.232 550.994 435.928 546.855C436.435 550.42 437.034 559.487 436.887 563.099C436.916 563.84 436.885 565.171 437.122 565.787C437.952 572.75 438.586 579.734 439.025 586.729L436.373 585.398Z" fill="#2F2F30"/>
</g>
<defs>
<clipPath id="clip0_9_123">
<rect width="935" height="1069" fill="white"/>
</clipPath>
</defs>
</svg>
