<svg width="1080" height="1080" viewBox="0 0 1080 1080" fill="none" xmlns="http://www.w3.org/2000/svg">
<path d="M80.3505 0L1001 0.0721711C999.627 36.3007 1000.71 79.1261 1000.71 115.732L1000.7 331.868C1000.69 380.185 1002.23 429.855 998.189 477.85C984.428 640.871 928.303 775.799 817.914 895.942C755.745 960.319 694.77 1004.38 614.973 1045.66C600.148 1053.25 585.095 1060.37 569.823 1067.01C560.977 1070.91 549.726 1075.01 541.627 1080C533.82 1076.04 521.895 1071.44 513.542 1067.85C500.716 1062.34 488.048 1056.46 475.554 1050.24C401.576 1014.28 334.062 966.37 275.748 908.423C165.95 797.177 98.4049 651.212 84.7258 495.636C78.2627 428.33 80.3058 356.965 80.309 289.003L80.3505 0Z" fill="#010100"/>
<path d="M114.2 35.5718L624.67 35.5102C739.117 35.5134 855.715 34.3231 970 35.5677L969.878 356.497C969.448 389.434 970.097 421.227 968.629 454.212C963.996 558.817 938.834 658.095 888.398 749.89C827.113 861.428 733.405 946.743 622.195 1007.26C605.894 1016.13 559.32 1040.03 541.875 1045C530.718 1042.08 501.254 1027.53 490.069 1022C411.261 982.971 344.667 935.659 284.194 871.604C190.26 772.098 136.649 647.303 120.162 512.056C115.21 471.442 113.653 431.168 114.171 390.318C114.357 375.66 113.7 360.591 114.178 345.896L114.2 35.5718Z" fill="#1A371A"/>
<path d="M114.023 35.5691L624.598 35.5078C739.069 35.511 855.691 34.3263 970 35.5651L969.878 355C965.796 354.166 821.053 210.515 806.827 196.577C780.232 221.443 752.801 246.539 726.628 271.724C716.386 263.676 704.594 252.915 694.449 244.308C671.425 225.015 648.604 205.489 625.986 185.738C599.366 162.576 572.195 140.604 545.511 117.042C482.419 168.813 417.555 219.686 354.772 271.672C328.421 246.222 300.808 221.983 274.485 196.388C256.547 215.817 231.268 239.21 211.997 258.065L117.99 350.577C116.954 351.584 116.983 351.606 115.59 351.907C113.877 350.009 114.17 347.205 114 344.449L114.023 35.5691Z" fill="#285AA9"/>
<path d="M160.911 332.211C169.936 328.626 176.856 326.058 186.468 329.936C206.86 338.163 206.356 359.477 222.363 370.213C251.369 389.672 281.868 404.139 312.912 419.584L398.765 463.186L459.379 494.043C463.944 496.355 486.221 507.759 490.154 508.559C496.247 506.368 503.286 510.482 507.679 514.701C507.445 469.838 505.981 424.36 505.419 379.415C511.193 379.449 516.255 379.438 522.013 379.111C517.843 378.763 509.776 378.627 506.294 377.714C512.915 377.255 567.963 376.406 572.488 377.834C570.286 378.926 560.306 378.598 556.048 379.108C561.884 379.425 567.024 379.417 572.868 379.372L571.435 454.401C571.079 470.711 570.335 488.944 570.699 505.116C575.782 503.677 583.528 498.561 587.754 501.115C566.846 510.91 535.95 522.015 548.132 556.186C550.471 562.757 562.313 566.07 567.404 570.03C593.331 587.843 583.731 619.42 558.331 631.551C544.335 638.235 536.46 632.933 525.638 646.535C529.458 646.632 533.853 646.858 537.625 646.777L538.71 647.472C532.931 648.418 525.635 646.567 522.259 648.402C504.801 678.095 534.128 690.461 557.238 696.967C559.682 695.576 565.802 696.441 568.619 697.007C574.406 697.443 585.406 693.734 591.882 693.499C601.215 693.16 611.899 695.924 620.9 695.318C622.268 694.946 622.317 694.752 623.62 694.873C636.393 697.047 650.582 687.503 658.531 678.273L658.223 677.174C659.745 677.505 660.401 677.683 661.866 678.2L672 679.219C663.339 746.259 632.799 797.377 564.766 816.532C543.882 819.773 533.529 819.975 512.988 816.225C446.312 796.82 414.49 745.079 407.023 678.653L405.305 678.451C396.113 679.089 386.902 679.388 377.688 679.34C377.574 680.382 377.73 679.728 376.79 681.126C357.78 680.601 339.6 675.994 327.375 660.363C322.108 653.631 323.791 652.79 316.143 649.339L314.647 648.701L313.853 646.704C296.648 641.306 293.955 642.364 281.235 629.296C277.946 628.989 275.708 625.74 274.827 622.774C272.135 613.689 275.65 604.929 279.403 596.741C262.531 594.656 240.52 592.41 225.302 585.637L226.499 585.887C223.037 583.713 219.742 582.356 216.032 580.666L217.193 580.262C214.643 578.25 209.753 575.89 206.841 574.031C188.907 562.587 184.558 553.648 184.512 533.185L183.633 529.257C177.238 524.698 164.691 521.07 157.248 515.323C144.668 505.601 140.923 499.175 137.703 483.876C135.421 478.631 144.142 471.115 147.335 466.314C147.065 464.334 147.256 464.399 148.239 462.596C138.042 451.492 131.915 443.902 139.164 428.789C139.062 425.104 140.87 423.253 144.08 421.887C150.885 418.994 147.862 417.895 149.821 414.379C143.902 408.018 142.077 404.866 141.048 396.518L140.759 396.873L139.665 396.897C137.313 379.755 156.025 380.33 161.627 373.408C153.436 364.786 150.853 360.704 147.296 349.455L146.404 348.655C144.154 342.404 153.493 329.106 160.911 332.211Z" fill="#010100"/>
<path d="M657.08 680.121L657.988 681.716C658.535 711.04 639.951 750.226 620.161 771.308C575.711 818.671 506.877 820.754 460.387 774.221C391.606 705.369 409.964 568.934 504.971 534.517C518.049 529.781 530.345 529.057 544.009 529C540.521 544.647 539.122 557.153 552.932 568.137C536.365 566.233 525.69 566.965 510.196 572.889C496.312 578.047 483.622 588.283 474.572 600.032L475.182 601.44C465.728 616.224 462.308 622.457 456.841 639.503L454.806 640.626C450.485 661.683 450.116 675.426 454.973 696.549L456.223 696.614C461.32 709.86 466.164 724.913 475.917 735.645L474.98 737.5C485.346 750.022 496.574 759.127 511.853 764.863C531.205 771.348 545.545 771.845 565.214 765.205C581.193 758.875 592.004 750.543 602.904 737.378L601.144 736.678C608.522 727.752 619.422 709.201 619.711 697.281C621.07 696.907 621.118 696.711 622.412 696.833C635.096 699.022 649.187 689.413 657.08 680.121Z" fill="#EFD019"/>
<path d="M621.333 696.465C622.675 696.105 622.722 695.918 624 696.035C621.738 709.547 613.206 724.35 604.738 735L603 734.328C610.286 725.749 621.048 707.921 621.333 696.465Z" fill="#382D08"/>
<path d="M454 696L455.253 696.062C460.364 708.677 465.221 723.013 475 733.233L474.06 735C463.573 721.881 458.525 711.986 454 696Z" fill="#382D08"/>
<path d="M473.401 599L474 600.352C464.721 614.556 461.364 620.544 455.997 636.921L454 638C458.868 621.49 463.098 612.657 473.401 599Z" fill="#382D08"/>
<path d="M519.44 570.245C533.504 567.628 543.208 566.997 557.449 569.985C557.514 577.291 558.789 625.492 556.028 629.161C550.708 631.307 544.702 629.461 538.776 629.201C524.448 628.562 514.465 637.706 508.984 650.228C504.445 660.741 504.309 672.648 508.607 683.258C515.833 700.85 533.964 710.708 551.427 701.83C558.45 698.267 560.162 697.505 567.855 697.343C573.628 697.781 584.599 694.063 591.058 693.828C600.366 693.488 611.023 696.258 620 695.65C619.709 707.516 608.762 725.983 601.351 734.869L603.119 735.565C592.172 748.67 581.313 756.964 565.264 763.266C545.509 769.875 531.106 769.381 511.67 762.926C496.324 757.216 485.047 748.152 474.636 735.687L475.577 733.84C465.781 723.157 460.916 708.173 455.797 694.986L454.541 694.922C449.663 673.895 450.033 660.215 454.373 639.253L456.417 638.135C461.908 621.167 465.343 614.962 474.838 600.245C478.718 601.128 502.915 618.243 508.267 621.701C511.692 623.969 515.671 626.755 519.116 628.886L519.44 570.245Z" fill="#EFD019"/>
<path d="M456.595 637C470.737 645.717 487.197 657.527 501 667.076C495.081 671.203 460.598 694.949 455.954 696L454.658 695.933C449.619 674.111 450.002 659.914 454.484 638.16L456.595 637Z" fill="#1A371A"/>
<path d="M474.955 734.659C484.015 728.804 509.795 711.607 518 708L517.503 709.705L515.565 710.533C513.903 711.867 510.921 713.667 510.925 715.497C510.953 728.74 510.92 749.37 511.855 762.116L511.562 763C495.998 757.436 484.559 748.605 474 736.459L474.955 734.659Z" fill="#1A371A"/>
<path d="M562.729 711C568.083 714.45 598.341 734.42 602.188 735.381L604 736.059C592.78 748.805 581.652 756.871 565.203 763L564.144 761.834C565.815 757.785 565.741 723.1 565.609 716.341C565.575 714.45 562.787 712.962 561 711.614L562.729 711Z" fill="#1A371A"/>
<path d="M557.628 764.07C557.785 751.692 556.95 719.857 558.215 709.122L559.075 708.427C561.721 709.525 561.762 709.572 564.061 711.239L562.333 711.855C564.119 713.206 566.905 714.699 566.938 716.595C567.07 723.372 567.145 758.153 565.474 762.214L566.533 763.383C546.3 769.829 531.549 769.347 511.643 763.051L511.938 762.166C510.995 749.409 511.028 728.76 511 715.504C510.996 713.672 514.006 711.871 515.685 710.536L517.642 709.706L518.144 708C520.139 714.248 518.139 753.287 518.793 763.43C533.162 766.598 543.026 766.866 557.628 764.07Z" fill="#382D08"/>
<path d="M565.167 762.417C561.72 762.935 561.442 763.365 558.442 762.529C557.846 758.067 557.667 712.832 559.108 711L561.392 711.629C563.538 712.992 566.886 714.497 566.925 716.409C567.084 723.245 567.174 758.322 565.167 762.417Z" fill="#EFD019"/>
<path d="M515.634 710C517.686 713.221 517.032 755.669 516.213 761.545C514.128 761.983 514.037 762.047 511.928 761.975C510.995 749.132 511.028 728.345 511 715.002C510.996 713.157 513.974 711.344 515.634 710Z" fill="#EFD019"/>
<path d="M158.92 332.22C167.989 328.628 174.943 326.054 184.602 329.939C205.093 338.183 204.587 359.539 220.672 370.296C249.819 389.793 280.466 404.288 311.662 419.763L397.932 463.451L458.84 494.369C463.428 496.685 485.814 508.111 489.766 508.913C495.762 511.723 500.247 514.047 506 517.327C493.04 521.918 485.583 525.538 473.735 532C469.013 529.32 457.417 524.59 452.111 522.266L411.042 504.281C360.35 482.522 310.323 459.273 261.026 434.542C229.72 418.897 183.726 397.34 159.64 373.497C151.409 364.858 148.814 360.768 145.239 349.497L144.343 348.696C142.082 342.432 151.466 329.109 158.92 332.22Z" fill="#EFD019"/>
<path d="M145.329 349L144.367 348.187C141.944 341.832 152.007 328.314 160 331.471C150.503 337.217 148.769 338.585 145.329 349Z" fill="#142012"/>
<path d="M406.808 647.811C412.092 605.065 430.213 566.776 464.786 539.883C490.036 520.091 522.14 511.081 554.054 514.834C550.992 518.676 548.166 522.202 545.372 526.254C464.895 525.923 417.099 591.332 416.11 667.36C414.664 778.419 535.043 856.825 621.822 770.476C646.566 745.92 657.959 712.816 661.833 678.093L672 679.112C663.311 746.204 632.671 797.361 564.416 816.53C543.464 819.773 533.077 819.975 512.468 816.223C445.575 796.803 413.65 745.023 406.158 678.546C405.814 668.299 406.032 658.035 406.808 647.811Z" fill="#EFD019"/>
<path d="M152.451 420C198.289 447.181 255.33 468.608 306 485.655C301.533 496.949 301.361 500.316 302.301 512.329C298.769 515.083 294.92 517.919 291.698 521C247.651 507.107 183.934 492.961 148.188 462.201C138.034 450.973 131.932 443.299 139.151 428.017C144.196 423.996 146.289 422.623 152.451 420Z" fill="#EFD019"/>
<path d="M140 396.758C141.954 389.937 144.112 385.459 150.375 381.74C152.53 380.46 159.187 379.279 161.033 380.537C175.152 390.162 186.992 399.577 202.336 407.679C243.653 429.498 285.447 451.195 328 470.516C318.888 473.778 314.081 476.074 306.948 483C268.398 471.064 178.911 437.962 148.738 414.557C142.843 408.219 141.026 405.078 140 396.758Z" fill="#EFD019"/>
<path d="M150.211 469C191.755 497.134 240.944 509.709 289 523.189L288.551 524.241C284.116 534.922 286.933 548.047 281.083 551C276.016 550.749 270.79 549.649 265.811 548.621C238.253 542.9 209.419 538.426 182.803 529.08C176.425 524.516 163.913 520.883 156.49 515.13C143.945 505.396 140.211 498.963 137 483.646C141.329 475.692 142.853 474.316 150.211 469Z" fill="#EFD019"/>
<path d="M283.981 596C287.482 597.935 290.689 600.238 294.134 602.132C328.78 621.197 371.67 619.139 410 618.356C407.746 627.909 406.19 634.898 404.79 644.696C375.507 649.121 342.102 652.403 312.78 647.709C295.689 642.254 293.013 643.324 280.378 630.121C273.068 615.694 275.348 609.309 283.981 596Z" fill="#EFD019"/>
<path d="M182 533C208.971 540.865 235.414 546.971 263.067 551.799C267.875 552.641 273.241 553.614 277.954 554.803C270.425 571.72 270.571 579.354 281 595C264.693 593.787 251.278 591.815 235.22 587.713C230.782 586.574 217.448 581.408 214.774 581.07C212.217 579.015 207.313 576.606 204.393 574.707C186.407 563.022 182.046 553.895 182 533Z" fill="#EFD019"/>
<path d="M505 380.302C510.717 380.335 515.73 380.324 521.431 380C521.714 422.034 521.186 471.738 523 513.181C519.663 513.927 510.596 516.284 507.799 515.972L507.238 514.536C507.006 470.021 505.556 424.897 505 380.302Z" fill="#EFD019"/>
<path d="M555.439 380C561.185 380.316 566.246 380.308 572 380.263L570.589 455.044C570.239 471.3 569.505 489.473 569.864 505.591C564.564 508.701 559.28 511.834 554.012 515C553.86 470.462 555.199 424.74 555.439 380Z" fill="#EFD019"/>
<path d="M404.951 648L407 648.669C406.23 658.861 406.014 669.093 406.355 679.31L404.645 679.108C395.495 679.745 386.326 680.043 377.154 679.995C354.333 676.971 336.751 673.214 324 652.491C356.606 653.588 372.625 651.604 404.951 648Z" fill="#EFD019"/>
<path d="M405.527 648L407 648.663C406.446 658.754 406.291 668.885 406.537 679L405.307 678.8C404.679 667.975 405.149 658.802 405.527 648Z" fill="#382D08"/>
<path d="M556 697.724C534.795 713.139 511.522 698.161 507.58 674.445C504.144 653.768 516.162 631.531 538.526 631.005C542.185 630.925 546.326 631.773 549.937 632.428C535.495 635.023 528.997 635.419 521.251 649.152C503.907 678.85 533.042 691.217 556 697.724Z" fill="#EFD019"/>
<path d="M509.431 571L510 572.077C507.793 574.296 507.71 575.1 507.846 579.158C508.291 592.376 507.785 608.136 508.718 621.172L507.709 622C502.409 618.464 478.449 600.964 474.607 600.061L474 598.628C483.002 586.669 495.622 576.251 509.431 571Z" fill="#1A371A"/>
<path d="M510.359 572.155C513.2 571.5 515.09 570.534 517.431 571.256C518.572 583.748 517.66 613.274 517.571 627C515.355 625.656 511.159 622.951 508.981 621.952C507.978 608.73 508.522 592.744 508.044 579.337C507.898 575.221 507.987 574.407 510.359 572.155Z" fill="#EFD019"/>
<path d="M328.617 475C337.78 475.137 451.289 526.19 471 534.119C459.38 542.741 454.227 547.366 444.424 557.873L443.302 558.872C437.138 561.12 332.565 533.064 320.277 525.562C296.554 511.082 301.318 484.653 328.617 475Z" fill="#EFD019"/>
<path d="M302.373 516C303.888 516.443 303.696 516.172 304.794 517.297C320.787 533.752 345.042 539.006 366.382 544.655C390.853 550.969 415.393 556.996 440 562.743C432.766 572.851 428.252 579.715 422.462 590.586C422.007 591.341 421.212 592.277 420.645 593C391.51 590.044 312.892 575.027 292.307 551.101C289.142 547.422 287.283 540.731 288.261 535.706C290.067 526.428 295.407 521.345 302.373 516Z" fill="#EFD019"/>
<path d="M286.452 550C290.489 552.822 295.452 558.981 300.867 561.959C335.566 581.006 381.589 588.723 420 594.768L412.204 614.713C372.201 614.95 323.616 618.237 289.072 594.874C271.735 583.144 275.095 564.618 286.452 550Z" fill="#EFD019"/>
<path d="M524 380.061L553.977 380C554.175 423.299 553.034 469.235 552.502 512.694C550.108 513.016 529.912 512.823 525.487 513L524 380.061Z" fill="#EFD019"/>
<path d="M560.15 627C560.142 617.785 559.596 578.153 560.637 571.588L562.068 571C565.152 571.72 566.259 572.813 568.996 574.742L569.601 578.642C574.367 582.102 576.92 587.343 577.687 593.643C579.2 606.079 575.12 612.644 567.675 620.617C566.392 622.397 562.031 625.535 560.15 627Z" fill="#EFD019"/>
<path d="M570.151 576L570.679 579.655C574.833 582.899 577.059 587.811 577.728 593.717C579.046 605.373 575.489 611.527 569 619C569.135 610.363 569.116 583.14 570.151 576Z" fill="#1A371A"/>
<path d="M863.604 345.154C870.17 336.711 878.134 326.098 889.662 326.002C918.681 325.76 931.112 345.464 911.205 367.505C909.277 369.599 907.316 371.655 905.307 373.674C908.089 373.975 908.658 373.645 910.733 375.104C909.228 376.682 909.862 376.281 907.853 376.952C919.584 377.884 929.021 384.531 928.2 397.325C927.443 409.068 916.623 412.362 910.871 418.618L913.475 420.422C921.992 417.266 930.258 425.124 933.154 432.756C935.082 437.847 933.48 444.362 930.705 448.877C905.412 486 817.574 506.735 776.791 518.34L765.654 509.753C768.233 493.057 763.823 493.438 762.318 482.901L762.001 482.067L760.138 482.156L760.211 481.072C754.614 474.581 746.893 471.311 739.238 468.066L738.799 469.353C737.651 468.171 738.14 468.843 737.342 467.321C732.217 469.499 717.768 477.195 713.994 476.378C680.378 490.209 647.519 506.565 613.789 520.282C603.864 524.321 589.79 528.942 586.682 540.288C583.249 553.415 593.858 564.608 598.975 575.663C603.954 587.196 602.213 604.054 598.421 615.756C594.069 629.183 580.068 635.333 568.247 640.845C561.324 644.074 553.205 645.66 545.736 646.987C543.963 647.295 538.17 647.627 537.048 647.983C533.257 648.064 528.839 647.837 525 647.74C535.876 634.119 543.792 639.428 557.858 632.735C583.387 620.588 593.036 588.968 566.978 571.131C561.861 567.166 549.959 563.847 547.608 557.268C535.364 523.05 566.417 511.93 587.431 502.122C590.392 501.304 606.923 492.75 610.706 490.84L664.327 463.639L745.486 422.413C765.922 412.24 787.847 401.889 807.811 391.117C816.272 386.545 841.004 372.436 847.838 366.487C848.261 364.736 852.377 359.199 853.663 357.116C856.347 352.768 858.357 346.041 863.604 345.154Z" fill="#EFD019"/>
<path d="M910.72 418L913.34 419.792C921.914 416.658 930.233 424.46 933.149 432.036C935.089 437.09 933.476 443.557 930.684 448.041C905.225 484.895 816.812 505.479 775.762 517L764.552 508.475C767.148 491.901 762.71 492.278 761.195 481.817L760.875 480.99L759 481.078L759.074 480.002C812.022 461.755 861.318 444.409 910.72 418Z" fill="#EFD019"/>
<path d="M909.402 418L912 419.797C876.478 441.358 830.84 457.659 791.746 472.073C786.299 474.08 766.282 481.259 761.176 482L760.859 481.17L759 481.259L759.073 480.179C811.561 461.881 860.429 444.485 909.402 418Z" fill="#010100"/>
<path d="M906.605 376C918.335 376.94 927.772 383.643 926.95 396.545C926.194 408.387 915.374 411.709 909.623 418.018C860.545 444.845 811.572 462.465 758.972 481C753.375 474.454 745.655 471.157 738 467.884C760.68 457.936 784.32 445.604 806.553 434.537C843.949 415.928 873.316 401.581 906.605 376Z" fill="#EFD019"/>
<path d="M903.594 371C906.366 371.308 906.933 370.971 909 372.462C907.501 374.074 908.133 373.664 906.131 374.35C872.966 400.268 843.707 414.805 806.449 433.658C784.298 444.871 760.746 457.366 738.149 467.446L737.712 468.761C736.569 467.553 737.055 468.24 736.261 466.685C731.155 468.909 716.761 476.773 713 475.938C748.426 459.375 783.504 442.043 818.209 423.959C848.197 408.289 878.331 394.091 903.594 371Z" fill="#010100"/>
<path d="M846 365C846.402 363.358 850.319 358.167 851.542 356.214C854.096 352.138 856.008 345.832 861 345C856.658 353.541 854.638 360.186 846 365Z" fill="#010100"/>
<path d="M603.669 613.318C657.323 615.795 738.159 624.316 782.583 593C786.222 597.43 788.013 600.319 790.159 605.806C795.129 628.415 777.218 637.856 758.653 642.859C756.878 643.343 750.947 644.433 749.705 645.078L750.697 646.16C748.592 648.282 746.607 649.282 743.654 649.597C719.368 688.224 654.394 679.437 619.047 663.113C608.954 658.449 594.213 644.021 587 635.702C587.5 633.846 589.88 632.886 591.97 631.466L591.333 631.094L593.237 630.175L593.753 629.214L594.512 629.198C599.651 623.735 600.982 620.096 603.669 613.318Z" fill="#EFD019"/>
<path d="M591.981 631C626.355 640.562 671.516 645.73 707.281 648.917C719.2 649.977 734.006 648.428 744 649.317C719.661 688.339 654.543 679.462 619.118 662.971C609.002 658.259 594.229 643.684 587 635.28C587.501 633.405 589.887 632.435 591.981 631Z" fill="#EFD019"/>
<path d="M590.644 631.223L590 630.859L591.924 629.957L592.445 629.016L593.211 629C638.181 639.047 704.857 649.554 749.997 644.57L751 645.63C748.873 647.71 746.867 648.691 743.884 649C733.809 648.138 718.885 649.641 706.87 648.612C670.818 645.519 625.294 640.503 590.644 631.223Z" fill="#010100"/>
<path d="M734.814 470C739.09 470.547 742.488 471.618 746.273 473.874C753.101 477.997 758.077 484.724 760.122 492.604C763.657 506.747 756.161 517.406 743.978 523.188C723.291 533.018 700.399 538.277 678.328 543.835C656.692 549.376 634.983 554.651 613.226 559.67L595.092 564C580.043 535.307 594.947 531.151 617.228 521.803C625.199 518.452 633.566 514.636 641.505 511.119C672.514 497.2 703.62 483.488 734.814 470Z" fill="#EFD019"/>
<path d="M512 817C532.63 820.795 543.027 820.591 564 817.311L563.585 819.2C564.618 838.996 562.781 861.499 562.732 881.613C562.683 900.926 562.943 922.374 560.594 941.344C559.553 949.728 547.124 972.902 539.336 976.673L537.312 977C529.671 975.708 517.222 948.902 515.903 941.671C513.912 930.767 514.305 916.076 514.047 904.828L512.518 818.701L512 817Z" fill="#EFD019"/>
<path d="M563.699 819C564.688 838.736 562.928 861.172 562.882 881.226C562.835 900.481 563.084 921.864 560.834 940.777C559.838 949.136 547.934 972.24 540.477 976C539.589 966.173 540.266 949.886 540.111 939.382C539.939 927.549 539.854 912.437 540.733 900.864C541.06 896.542 547.226 884.227 548.573 878.013C552.512 859.883 551.352 839.584 551.321 820.9C555.953 820.443 559.153 819.873 563.699 819Z" fill="#EFD019"/>
<path d="M512 817C532.63 820.795 543.027 820.591 564 817.311L563.585 819.2C558.838 820.076 555.497 820.648 550.66 821.106C550.693 839.847 551.904 860.207 547.791 878.391C546.384 884.624 539.946 896.975 539.605 901.311C538.686 912.918 538.775 928.076 538.954 939.945C539.117 950.481 538.41 966.816 539.336 976.673L537.312 977C537.231 961.417 537.231 945.834 537.32 930.252C537.337 921.99 537.621 911.879 536.906 903.748C536.085 894.513 529.679 885.025 527.921 875.348C524.731 857.802 526.028 839.135 525.579 821.098C520.336 820.427 517.676 820.051 512.518 818.701L512 817Z" fill="#241E07"/>
<path d="M527.111 821.082C535.156 821.345 541.736 821.246 549.783 821C549.783 849.501 551.999 863.366 542.279 890.669L538.097 898C524.944 873.611 527.164 847.737 527.111 821.082Z" fill="#EFD019"/>
<path d="M762.63 513C776.426 517.364 783.649 541.162 772.624 549.866C735.965 578.824 655.929 591.023 611.803 592.844C609.65 592.967 607.619 592.984 605.466 593C604.06 591.105 603.865 583.23 602.606 579.309C600.9 574.025 599.527 571.31 597 566.363C617.978 562.114 642.596 556.437 663.2 550.826C694.383 542.327 739.954 536.527 762.63 513Z" fill="#EFD019"/>
<path d="M558.122 300C559.893 302.602 559.918 310.91 560.048 314.333L559.918 316.015C560.438 321.375 560.909 324.693 560.397 330.066L560.706 332.042C561.802 337.391 561.697 343.073 561.827 348.556C565.62 350.849 589.665 348.519 596.424 349.758C597.593 349.889 598.755 350.082 599.909 350.334C602.719 350.975 604.986 352.493 606.391 355.073C608.438 358.832 608.397 365.325 607.025 369.305C606.034 372.189 604.344 374.399 601.493 375.645C597.374 377.45 480.394 377.6 475.168 375.19C473.251 374.306 471.718 371.727 471.052 369.791C469.703 365.875 469.378 358.265 471.73 354.682C473.714 351.663 476.376 350.731 479.686 349.732C486.902 348.631 512.628 350.459 515.954 348.53C516.022 343.543 516.661 337.194 517.043 332.108L517.499 329.912C517.699 325.282 517.746 320.646 517.637 316.011L517.845 314.492C518.282 312.817 519.106 303.138 519.525 300.329C530.503 300.365 547.627 300.886 558.122 300Z" fill="#EFD019"/>
<path d="M557.57 300C559.295 302.597 559.318 310.886 559.445 314.301L559.318 315.98C559.825 321.328 560.284 324.639 559.785 330C548.913 329.092 529.488 329.768 518 329.847C518.195 325.227 518.241 320.6 518.134 315.976L518.337 314.46C518.763 312.789 519.566 303.131 519.973 300.328C530.667 300.364 547.347 300.884 557.57 300Z" fill="#EFD019"/>
<path d="M558.084 300C559.846 302.514 559.871 310.539 560 313.846C546.16 313.786 531.794 313.533 518 314C518.435 312.382 519.255 303.031 519.672 300.318C530.598 300.352 547.639 300.856 558.084 300Z" fill="#EFD019"/>
<path d="M518.206 314.456C531.932 313.686 546.228 314.102 560 314.202L559.871 316.885C545.914 317.04 531.957 317.039 518 316.88L518.206 314.456Z" fill="#241E07"/>
<path d="M515.582 330.317C527.666 330.238 548.099 329.559 559.535 330.471L559.851 332.452C560.975 337.811 560.867 343.506 561 349C554.541 348.156 521.244 348.563 514 348.975C514.069 343.976 514.724 337.614 515.115 332.517L515.582 330.317Z" fill="#EFD019"/>
<path d="M517.449 330.252C529.064 330.189 548.704 329.65 559.696 330.374L560 331.948C545.672 331.899 531.336 331.917 517 332L517.449 330.252Z" fill="#382D08"/>
<path d="M515.039 348.395C522.065 348.048 554.358 347.705 560.621 348.417C564.391 350.355 588.284 348.386 595 349.433C583.457 350.375 557.005 349.896 544.276 349.735C524.122 349.481 498.601 350.439 479 349.411C486.17 348.48 511.734 350.026 515.039 348.395Z" fill="#382D08"/>
<path d="M915.883 467C920.332 467.885 929.231 476.921 928.995 480.968C926.067 530.25 825.024 540.775 789.673 547.364C787.818 547.71 786.834 547.799 784.955 548C778.171 544.403 781.189 535.85 779.749 529.019C778.985 525.382 778.301 523.653 777 520.233C822.795 508.453 876.693 492.957 915.883 467Z" fill="#EFD019"/>
<path d="M780.009 548C785.288 552.118 790.76 564.778 789.913 571.048C784.941 607.706 721.001 611.566 693.792 611.929C667.311 612.283 643.178 611.252 618.181 610.293C613.476 610.236 608.697 609.89 604 609.608L606.123 595.57C653.396 592.483 745.973 582.2 780.009 548Z" fill="#EFD019"/>
<path d="M519.422 202.829C528.238 194.91 550.423 195.304 559.539 202.531L561.28 203.574C572.021 210.06 578.32 222.595 578.18 234.676L580.66 236.294C583.912 238.029 584.396 240.688 583.756 244.275C579.091 250.161 564.096 248.112 556.393 248.167L555.572 249.692C545.217 250.233 532.973 249.928 522.589 249.773L521.827 248.168C513.87 247.898 495.162 251.151 493 242.571C493.713 239.805 493.806 238.647 495.533 236.289C498.246 235.852 498.254 235.903 500.722 234.792C500.848 223.721 506.818 208.354 517.96 203.567L519.422 202.829Z" fill="#EFD019"/>
<path d="M521 202.935C529.131 194.872 549.593 195.273 558 202.631C554.47 212.661 548.896 225.169 544.738 235L534.066 234.977L521 202.935Z" fill="#EFD019"/>
<path d="M502 235C502.116 223.654 507.601 207.906 517.837 203C521.364 213.173 527.051 224.769 530 234.457C524.848 234.426 506.167 234.035 502 235Z" fill="#EFD019"/>
<path d="M560.464 203C570.972 209.673 577.134 222.57 576.998 235C571.27 234.174 553.813 234.512 547 234.512L560.464 203Z" fill="#EFD019"/>
<path d="M517.393 203.043L518.853 202.3L532.999 233.994L544.552 234.016C549.054 224.292 555.089 211.921 558.91 202L560.648 203.051L546.906 233.892C553.859 233.892 571.677 233.562 577.524 234.37L580 236C553.441 235.165 521.999 236.01 495 235.994C497.708 235.555 497.717 235.606 500.181 234.487C504.709 233.539 525.013 233.923 530.613 233.954C527.407 224.434 521.226 213.04 517.393 203.043Z" fill="#382D08"/>
<path d="M522 249L556 249L555.192 249.832C545.006 250.127 532.963 249.961 522.749 249.876L522 249Z" fill="#241E07"/>
<path d="M789.313 552.035C822.017 544.012 849.763 541.481 883.903 530C884.921 551.919 877.967 560.554 861.579 572.655L861.82 574.169C859.052 575.823 855.362 577.891 852.94 579.867L853.405 579.818C847.285 583.192 841.958 586.733 835.012 583.854C826.043 586.17 808.757 588.916 802.228 591.025C797.727 591.431 790.283 592.233 786 591.935C797.535 578.536 795.65 566.997 789.313 552.035Z" fill="#EFD019"/>
<path d="M859.776 571L860 572.605C857.419 574.359 853.978 576.552 851.719 578.649L852.153 578.596C846.445 582.175 841.478 585.929 835 582.877C845.114 579.263 850.23 576.57 859.776 571Z" fill="#142012"/>
<path d="M581.682 636C583.826 637.351 593.576 648.211 596.683 651.12C616.751 669.888 629.673 671.869 655 677.589C646.382 687.048 639.885 689.717 628.063 692.187C593.204 697.003 568.719 680.167 554 648.302C564.422 644.455 571.931 641.032 581.682 636Z" fill="#EFD019"/>
<path d="M523.426 250.084C533.307 250.244 544.958 250.558 554.812 250C555.828 256.78 555.632 261.436 556.343 267.499L556.156 268.976C556.781 274.039 556.804 277.971 556.89 283.065L557.367 285.224L558 299.332L557.211 300.486C547.115 301.373 530.642 300.851 520.081 300.815L520 299.178C520.282 294.442 520.643 289.712 521.082 284.988L520.73 283.266C521.298 280.312 521.812 272.516 522.223 268.953L521.908 267.494C522.344 261.684 522.849 255.88 523.426 250.084Z" fill="#EFD019"/>
<path d="M523.498 250.083C533.255 250.242 544.758 250.555 554.488 250C555.491 256.735 555.298 261.361 556 267.384L555.815 268.852C544.65 269.057 533.478 269.049 522.311 268.829L522 267.38C522.43 261.607 522.929 255.842 523.498 250.083Z" fill="#EFD019"/>
<path d="M522 267.383C532.445 267.163 545.599 266.642 556 267.388L555.815 268.853C544.65 269.056 533.478 269.049 522.311 268.829L522 267.383Z" fill="#241E07"/>
<path d="M522.487 268C533.747 268.233 545.012 268.24 556.269 268.025C556.891 273.331 556.914 277.452 557 282.79C545.408 282.744 532.471 282.406 521 283C521.566 279.905 522.077 271.734 522.487 268Z" fill="#EFD019"/>
<path d="M521 283.28C532.322 282.801 545.091 283.074 556.532 283.11L557 284.939C545.114 285.064 533.228 284.997 521.346 284.739L521 283.28Z" fill="#382D08"/>
<path d="M520 299.27C530.634 299.201 547.896 298.618 558 299.416L557.211 300.512C547.115 301.354 530.642 300.858 520.081 300.824L520 299.27Z" fill="#241E07"/>
<path d="M524.737 651.34C533.175 651.138 541.929 650.5 550.38 650C556.606 662.195 560.391 667.821 570.074 677.377L571.699 677.942L571.931 678.653C576.908 684.084 582.726 687.345 589 691.042C580.517 692.89 572.115 694.52 563.416 694.884C562.464 695.158 562.08 694.892 560.919 694.658C536.656 691.018 514.006 680.218 524.737 651.34Z" fill="#EFD019"/>
<path d="M563 695C566.302 690.25 568.896 684.219 571.653 679C576.712 684.355 582.624 687.569 589 691.213C580.379 693.035 571.84 694.642 563 695Z" fill="#EFD019"/>
<path d="M570.145 678L571.768 678.545L572 679.23C569.29 684.338 566.74 690.239 563.494 694.888C562.543 695.152 562.159 694.896 561 694.67C565.948 688.394 567.371 685.233 570.145 678Z" fill="#241E07"/>
<path d="M783.581 593.577L783 593.21L785.133 591L785.531 591.979C789.614 592.238 796.71 591.54 801 591.187C799.501 594.189 792.734 594.217 789.201 594.685C790.524 597.73 791.839 599.933 791.771 603.172L790.761 605C788.727 600.105 787.03 597.529 783.581 593.577Z" fill="#010100"/>
</svg>
