<svg width="707" height="1010" viewBox="0 0 707 1010" fill="none" xmlns="http://www.w3.org/2000/svg">
<g clip-path="url(#clip0_9_83)">
<path d="M327.45 0H374.473C378.642 0.713224 383.916 0.641927 388.25 0.821182C396.115 1.12809 403.977 1.52859 411.832 2.02257C437.15 3.79584 462.405 6.37 487.56 9.74112C550.336 18.2703 612.546 33.9724 671.305 57.7184C683.103 62.4864 695.044 68.1725 707 72.4325V534.378C705.782 544.996 705.61 557.019 704.555 568.041C702.316 589.883 698.983 611.597 694.566 633.099C670.565 745.521 607.926 845.964 517.54 916.96C482.173 944.74 443.903 968.609 403.399 988.148C389.176 994.963 374.526 1001.19 360.04 1007.43C358.041 1008.28 355.924 1009.07 353.972 1010H352.972C348.17 1007.52 341.95 1005.15 336.858 1003.01C192.235 942.086 76.6651 837.91 26.6418 684.314C20.8757 666.891 16.0575 649.172 12.2085 631.225C7.69634 608.998 4.34368 586.555 2.16407 563.977C1.25267 554.42 1.55271 540.947 0 532.094V72.6317C6.45692 70.3794 14.1188 66.7606 20.4576 63.9875C86.9733 34.8881 153.541 19.0019 225.528 8.65927C248.162 5.43713 270.915 3.10981 293.733 1.68268C304.825 0.969664 315.984 0.957833 327.037 0.0743731C327.175 0.0495817 327.312 0.024791 327.45 0Z" fill="#B1AFB2"/>
<path d="M353.502 19.6178C442.127 19.8403 537.64 32.6197 621.958 60.425C644.326 67.8027 665.817 76.9257 687.58 85.8816L687.54 372.059L687.545 473.761C687.545 501.716 687.915 526.832 685.859 554.76C677.226 671.971 631.828 779.954 548.053 863.397C492.389 918.834 426.074 959.091 353.515 988.769C349.752 986.851 344.749 984.932 340.814 983.246C272.943 954.169 211.447 915.248 158.791 863.057C75.8131 780.812 29.0919 669.944 21.2315 553.892C19.4294 527.286 19.6407 501.434 19.6399 474.668L19.6397 371.403L19.6165 85.9196C44.5626 74.9713 70.0403 65.2782 95.9547 56.8761C178.05 31.1001 267.696 20.4755 353.502 19.6178Z" fill="black"/>
<path d="M19.6165 85.9196C44.5626 74.9713 70.0403 65.2782 95.9547 56.8761C178.05 31.1001 267.696 20.4755 353.502 19.6178L353.489 52.9229C318.442 49.1115 295.152 53.1266 264.661 70.7055L267.83 62.9677C240.105 64.3624 213.951 75.6854 195.251 96.4427C181.336 112.04 172.285 131.367 169.21 152.044C166.167 172.64 166.407 180.978 149.113 195.767C134.258 208.47 124.096 229.672 124.557 249.308C124.569 250.901 124.538 252.9 124.373 254.486L123.948 254.958C119.24 260.117 106.891 269.621 101.087 274.457C88.2192 285.138 75.5849 296.098 63.1931 307.328C57.8251 312.23 45.9215 321.316 46.9726 329.046C49.9376 350.853 59.7627 374.241 75.2166 390.154C78.0219 392.979 84.2873 396.598 87.6182 398.457C95.3399 421.305 102.081 431.535 124.667 442.732C125.201 442.997 125.738 443.256 126.277 443.509L126.273 400.494L140.076 400.475C142.186 417.174 148.198 430.375 161.814 440.995C168.119 445.962 175.277 449.735 182.937 452.127C178.505 436.636 175.746 416.615 182.732 401.544C186.825 392.714 196.968 401.091 197.998 408.628C200.181 424.597 195.192 441.666 186.913 455.29C183.358 461.06 177.301 467.509 170.473 468.771C155.815 471.48 150.376 457.758 142.566 449.043C137.861 465.08 135.851 477.115 144.249 492.517C145.021 493.928 145.806 495.339 146.601 496.735C144.52 514.942 144.666 529.505 154.578 545.903C165.428 563.849 184.213 576.39 204.675 580.577C206.363 580.918 208.275 581.391 209.967 581.835L207.958 574.166C219.566 576.681 231.406 577.964 243.282 577.993L240.58 568.653C247.289 570.359 250.083 570.694 257.007 570.635C254.844 558.513 255.254 546.806 262.747 536.38C274.456 520.086 284.963 531.917 286.031 547.101C286.462 571.937 275.468 599.761 259.479 618.674C255.28 623.64 250.71 628.079 246.387 632.522C282.822 637.834 320.013 632.498 353.489 617.165L353.515 988.769C349.752 986.851 344.749 984.932 340.814 983.246C272.943 954.169 211.447 915.248 158.791 863.057C75.8131 780.812 29.0919 669.944 21.2315 553.892C19.4294 527.286 19.6407 501.434 19.6399 474.668L19.6397 371.403L19.6165 85.9196Z" fill="#D8261E"/>
<path d="M243.725 683.55C246.268 683.402 248.541 683.363 250.982 684.186C254.115 685.242 256.582 687.264 258.004 690.282C259.191 692.797 259.088 696.264 259.18 699.021C260.053 725.01 259.218 751.301 259.227 777.315C259.233 791.721 260.456 897.164 258.237 902.781C256.712 906.643 253.345 908.63 249.769 910.258C243.259 910.913 237.916 909.118 234.975 902.786C234.166 901.045 234.017 895.857 234.001 893.712C233.913 881.531 233.948 869.345 233.945 857.163L233.947 786.059L233.954 728.783C233.948 718.219 233.87 707.656 234.045 697.092C234.173 689.379 236.78 686.322 243.725 683.55Z" fill="#E2E1E3"/>
<path d="M329.004 683.585C335.301 683.151 340.688 684.231 343.654 690.597C344.53 692.476 344.567 695.919 344.585 698.064C344.684 710.294 344.644 722.53 344.639 734.76L344.64 803.315L344.651 865.74C344.651 876.678 344.715 887.621 344.571 898.555C344.486 905.015 340.342 907.999 335.053 910.332C328.343 910.726 323.438 909.074 320.465 902.594C319.583 900.67 319.561 896.972 319.556 894.762C319.474 857.395 319.537 820.033 319.532 782.666L319.509 725.454C319.506 715.719 319.462 705.91 319.558 696.17C319.576 694.276 319.856 692.792 320.545 691.056C322.29 686.662 325.036 685.321 329.004 683.585Z" fill="#E2E1E3"/>
<path d="M286.066 683.585C292.447 683.091 297.982 684.112 300.824 690.637C301.689 692.619 301.778 696.939 301.784 699.188C301.908 737.749 301.868 776.309 301.869 814.87L301.863 868.886C301.861 878.587 301.963 888.307 301.742 898.007C301.587 904.769 298.317 907.723 292.642 910.248C286.025 910.909 281.162 909.469 278.063 903.107C277.104 901.139 277.053 897.149 277.038 894.866C276.952 881.861 277 868.852 276.997 855.842L276.98 781.019L276.979 725.129C276.98 715.586 276.289 700.771 277.891 691.061C278.458 687.629 282.862 685.02 286.066 683.585Z" fill="#E2E1E3"/>
<path d="M477.632 121.515C490.769 120.8 503.848 124.428 515.139 131.09C544.952 148.681 573.523 169.792 593.495 198.492C604.15 213.806 614.454 229.373 625.128 244.646C630.029 251.652 637.532 258.373 643.33 264.852C622.101 265.228 602.922 256.438 583.216 249.413C597.523 278.426 616.199 305.07 638.592 328.414C612.196 332.804 593.308 326.08 568.686 317.761C584.926 337.312 602.182 349.987 611.939 375.049C617.772 390.033 618.664 405.881 618.581 421.94C618.571 424.569 618.428 428.985 617.525 431.249C616.165 429.962 608.685 419.269 606.817 416.85C598.12 405.392 587.924 395.151 576.511 386.401C587.988 427.372 585.494 462.334 566.152 500.512C564.313 470.517 560.467 451.743 550.203 424.221C549.981 444.406 549.991 458.053 545.095 478.039C533.435 525.654 504.938 559.608 463.743 584.809C466.732 557.113 473.849 514.03 463.441 488.615C457.094 512.674 448.239 538.417 434.045 559.08C421.895 576.77 403.337 594.805 385.197 606.301C390.148 592.399 395.539 577.584 400.144 563.677C384.351 586.811 355.99 604.22 329.768 612.746C351.486 590.327 362.631 564.14 363.409 533.692C363.651 524.214 367.581 512.235 369.55 502.943C372.156 490.648 377.064 478.666 379.825 466.415C382.419 454.601 382.861 441.191 383.674 429.123C404.108 463.879 393.581 498.722 385.503 536.207C387.926 533.5 391.346 528.297 393.372 525.185C407.657 503.368 415.513 477.97 416.041 451.897C417.102 385.223 366.576 331.333 299.49 330.314C307.782 335.631 316.978 340.714 324.448 347.039C346.159 365.423 356.594 382.228 359.534 410.451C339.381 388.531 328.133 376.914 299.496 365.711C306.024 376.059 309.715 382.206 314.164 393.431C323.483 419.808 316.481 449.646 301.73 472.649C308.141 424.598 293.186 373.944 245.84 352.655C225.397 343.463 202 342.153 181.04 350.774C204.382 351.695 224.197 353.756 243.363 368.566C194.314 357.149 164.329 397.941 117.043 386.979C99.5528 382.924 92.5306 374.64 94.4061 354.349C94.9139 348.857 107.626 344.318 112.278 341.487C120.902 336.241 126.069 333.369 129.032 323.105C111.045 327.421 77.9459 342.884 63.373 325.461C70.4825 316.904 81.2827 308.51 90.0058 301.355C100.625 292.647 111.298 284.007 122.024 275.433C127.118 271.399 134.59 265.987 139.028 261.571C139.152 253.764 138.409 247.467 139.239 239.411C141.1 221.347 154.954 209.845 168.197 199.123C197.826 175.106 234.139 161.149 271.609 155.419C275.082 154.888 294.206 151.832 296.054 154.331L295.567 157.059C296.755 157.728 301.95 153.752 303.162 152.897C333.116 131.762 385.845 116.311 420.12 135.769C388.758 140.24 356.712 149.757 330.374 167.802C368.388 165.441 408.071 169.786 438.387 195.33C393.544 187.284 362.604 183.597 317.451 193.499C324.615 196.718 332.468 198.764 339.328 201.874C349.139 206.324 357.662 212.015 368.255 215.229C381.654 219.295 395.138 221.01 408.715 223.979C442.496 231.366 474.063 249.152 496.266 275.898C507.763 289.753 518.659 308.193 528.505 323.683C529.057 283.964 514.049 252.324 489.085 222.512C517.909 227.976 529.072 241.716 551.455 258.109C539.977 228.975 524.629 211.864 498.691 194.917C489.498 188.849 479.846 183.507 469.823 178.941C493.781 171.66 516.356 172.676 540.732 178.021C511.939 154.715 465.654 142.156 429.269 150.54L429.744 149.947C442.327 134.4 457.251 123.621 477.632 121.515Z" fill="#E2E1E3"/>
<path d="M344.787 242.856C376.22 241.004 421.031 253.921 446.577 272.551C476.81 294.6 513.64 341.577 520.044 379.211C509.607 366.883 493.49 354.829 478.268 349.326C482.091 354.951 486.48 361.226 489.654 367.178C508.379 402.31 509.602 449.78 498.129 487.398C492.969 440.564 482.115 401.44 440.199 375.354C443.252 385.535 444.298 392.847 445.601 403.458C446.609 423.599 445.183 442.143 437.277 461.002C436.275 443.249 435.841 431.964 431.3 414.453C416.658 357.984 382.934 323.653 334.359 294.861C359.562 291.708 386.594 299.271 409.478 309.782C428.881 318.695 447.749 335.95 462.455 351.458C461.951 348.857 461.416 346.198 460.523 343.704C441.455 290.502 389.242 267.276 343.049 243.895L342.839 243.247L344.787 242.856Z" fill="black"/>
<path d="M171.508 235.647C171.547 236.528 170.93 239.126 170.602 239.937C167.812 245.952 166.282 262.192 174.837 264.936C194.884 271.364 215.681 244.924 234.199 239.726C251.277 234.932 262.455 234.912 277.743 242.211C272.098 243.482 266.928 245.524 261.842 248.129C251.206 253.578 249.858 255.459 246.338 266.078C239.988 280.357 222.951 288.331 207.836 287.153C197.207 286.325 186.197 284.094 175.506 285.126C163.47 286.287 151.822 291.228 140.471 295.168C147.603 285.925 155.014 283.212 163.151 275.113C156.799 258.617 154.426 245.61 171.508 235.647Z" fill="black"/>
<path d="M231.14 255.976C233.407 255.915 233.385 255.878 234.93 256.924C237.551 261.699 230.912 268.591 227.423 271.347C221.594 275.952 216.622 277.655 209.261 276.79C208.016 274.635 207.103 272.439 208.007 270.005C210.817 269.463 212.649 274.345 216.878 272.454C219.192 269.696 218.544 266.572 218.412 262.941C222.047 259.446 226.436 257.53 231.14 255.976Z" fill="#E2E1E3"/>
<path d="M204.951 322.742C214.134 321.601 226.979 324.411 235.647 327.314C223.589 327.682 206.744 329.666 194.628 331.019C185.375 331.986 176.159 333.285 167 334.914C180.37 326.623 189.428 324.11 204.951 322.742Z" fill="black"/>
<path d="M448.078 772.221L448.056 720.735C448.052 712.913 447.657 702.063 448.319 694.528C449.579 680.197 472.049 678.303 472.959 696.649C473.179 700.983 473.088 705.235 473.127 709.56C473.315 730.45 472.864 751.414 473.128 772.295C481.325 776.107 480.932 783.362 473.058 787.391L473.111 803.744C481.109 807.867 481.089 814.83 473.061 818.899L473.123 835.252C481.206 839.444 481.116 846.215 473.055 850.402L473.112 880.263C473.119 885.156 473.325 892.361 472.949 897.149C472.831 904.537 468.45 910.356 460.715 910.46C457.347 910.499 454.105 909.183 451.72 906.805C450.139 905.213 449.037 903.205 448.541 901.016C447.744 897.43 448.032 887.237 448.035 882.951L448.053 850.427C442.117 850.318 436.179 850.323 430.243 850.432L430.28 882.113C430.283 886.561 430.595 897.421 429.642 901.272C429.11 903.339 428.047 905.232 426.559 906.766C424.117 909.257 420.74 910.603 417.256 910.475C410.749 910.302 407.685 906.307 405.53 900.774C405.125 895.384 405.344 887.75 405.346 882.226L405.349 850.402C399.417 850.318 393.484 850.333 387.552 850.442C379.43 850.215 370.639 850.338 362.447 850.269C355.254 845.845 355.369 839.745 362.458 835.385L362.457 818.687C354.989 814.544 355.742 808.242 362.453 803.838L362.446 787.188C354.972 782.824 355.645 776.788 362.461 772.305L387.538 772.226C393.3 772.369 399.58 772.241 405.382 772.241L405.351 721.83C405.347 712.967 405.04 701.758 405.541 693.044C406.94 689.33 408.289 686.361 412.152 684.61C415.371 683.156 418.897 682.865 422.239 684.152C425.195 685.291 427.79 687.53 429.057 690.469C431.453 696.037 430.227 760.794 430.256 772.191C436.196 772.3 442.138 772.31 448.078 772.221Z" fill="#D8261E"/>
<path d="M448.078 772.221L448.056 720.735C448.052 712.913 447.657 702.063 448.319 694.528C449.579 680.197 472.049 678.303 472.959 696.648C472.717 721.514 472.649 747.41 472.908 772.27L448.078 772.221Z" fill="#E2E1E3"/>
<path d="M405.541 693.044C406.94 689.33 408.289 686.361 412.152 684.61C415.371 683.156 418.897 682.865 422.239 684.152C425.195 685.291 427.79 687.53 429.057 690.469C431.453 696.037 430.227 760.794 430.256 772.191C422.7 772.487 413.306 772.241 405.609 772.251L405.541 693.044Z" fill="#E2E1E3"/>
<path d="M448.053 850.427L472.863 850.343C472.872 864.951 472.403 882.803 472.95 897.149C472.831 904.537 468.45 910.356 460.715 910.46C457.347 910.499 454.105 909.182 451.72 906.805C450.139 905.213 449.037 903.205 448.541 901.016C447.744 897.43 448.032 887.237 448.035 882.951L448.053 850.427Z" fill="#E2E1E3"/>
<path d="M405.577 850.432C413.799 850.323 422.021 850.323 430.242 850.432L430.279 882.113C430.283 886.561 430.595 897.42 429.642 901.272C429.11 903.338 428.047 905.232 426.559 906.766C424.117 909.256 420.74 910.603 417.256 910.474C410.749 910.302 407.685 906.307 405.53 900.774C405.913 884.46 405.59 866.839 405.577 850.432Z" fill="#E2E1E3"/>
<path d="M362.457 818.687C370.451 818.855 379.81 818.583 387.553 818.948L387.54 835.208C379.179 835.198 370.818 835.257 362.458 835.385L362.457 818.687Z" fill="#E2E1E3"/>
<path d="M362.447 787.188C368.91 787.765 380.689 787.455 387.553 787.499L387.532 803.783L362.453 803.838L362.447 787.188Z" fill="#E2E1E3"/>
<path d="M387.553 818.948C393.489 818.81 399.426 818.771 405.363 818.84L405.368 835.237C399.908 835.262 392.874 835.494 387.54 835.208L387.553 818.948Z" fill="black"/>
<path d="M387.553 787.499C393.486 787.435 399.42 787.425 405.353 787.465L405.386 803.798C399.656 803.798 393.197 803.951 387.532 803.783L387.553 787.499Z" fill="black"/>
<path d="M448.077 818.879L472.871 818.79L472.907 835.331L448.077 835.233V818.879Z" fill="#E2E1E3"/>
<path d="M448.053 787.519C456.323 787.42 464.593 787.396 472.864 787.445L472.892 803.803L448.08 803.778L448.053 787.519Z" fill="#E2E1E3"/>
<path d="M405.588 818.919C411.827 818.83 424.702 818.426 430.257 819.086L430.271 834.947C428.623 835.647 408.953 835.282 405.605 835.252L405.588 818.919Z" fill="#E2E1E3"/>
<path d="M405.581 787.489C413.797 787.376 422.013 787.391 430.228 787.539L430.251 803.34C428.219 804.267 409.271 803.828 405.61 803.803L405.581 787.489Z" fill="#E2E1E3"/>
<path d="M430.257 819.086C432.858 818.539 444.718 818.83 448.077 818.879V835.233C444.796 835.292 432.868 835.667 430.271 834.947L430.257 819.086Z" fill="black"/>
<path d="M430.228 787.539C436.168 787.376 442.112 787.371 448.053 787.519L448.08 803.779C445.026 803.833 432.395 804.296 430.251 803.34L430.228 787.539Z" fill="black"/>
<path d="M319.844 63.8223C341.182 60.2794 383.057 68.9182 404.019 75.3357C369.065 76.5455 341.161 81.7745 313.043 104.172C359.886 85.6074 413.572 84.5791 462.022 97.3225C429.398 100.314 388.55 106.452 357.698 115.725C339.495 121.429 314.006 131.507 298.305 141.965C284.921 140.798 267.792 142.836 254.594 144.752C263.065 132.281 280.082 117.702 291.64 107.184C266.044 111.45 238.937 134.367 218.308 149.768C223.301 134.247 231.178 119.807 241.523 107.206C262.568 81.6098 286.747 67.0378 319.844 63.8223Z" fill="#E2E1E3"/>
<path d="M281.16 432.311C283.743 436.945 283.522 447.933 283.189 453.241C282.4 472.756 276.149 489.352 263.093 504.043C249.471 519.371 244.722 533.046 243.508 553.394L225.534 547.481C223.687 555.11 224.652 557.645 226.83 565.092C210.949 561.502 203.072 555.83 190.057 546.623C189.758 548.704 189.644 550.263 189.542 552.319C189.433 554.509 190.967 561.004 190.184 562.424L189.123 562.099C171.479 552.038 159.578 535.122 159.516 514.35C172.447 515.761 187.408 516.501 200.386 515.726C244.692 513.093 261.388 465.272 281.16 432.311Z" fill="#E2E1E3"/>
<path d="M362.461 772.305L362.421 719.837C362.417 711.34 362.096 702.128 362.811 693.699C363.679 683.466 377.918 679.856 384.544 687.629C386.031 689.364 386.992 691.485 387.315 693.744C387.977 698.567 387.591 714.171 387.58 719.758L387.538 772.226L362.461 772.305Z" fill="#E2E1E3"/>
<path d="M252.5 77.5249L252.844 77.9461C251.794 79.6347 246.843 84.1165 245.146 85.7139C240.091 90.4714 236.138 94.8088 231.626 99.9274C213.998 119.93 208.136 140.19 197.943 164.186C192.577 166.627 184.573 171.504 179.301 174.524C179.131 174.382 178.917 174.261 178.933 173.987C181.609 125.259 205.237 90.7161 252.5 77.5249Z" fill="#E2E1E3"/>
<path d="M336.05 499.334C337.325 500.902 338.401 503.535 339.089 505.444C350.384 536.804 343.345 574.472 318.747 597.636C308.903 606.907 301.026 611.213 288.536 616.09L281.669 618.285C307.27 589.38 327.428 555.308 334.244 516.836C335.317 510.78 335.58 505.439 336.05 499.334Z" fill="#E2E1E3"/>
<path d="M246.507 419.286C251.072 418.832 254.306 419.332 258.707 420.094C256.026 424.731 252.911 430.047 250.92 435.01C244.449 451.138 236.84 477.63 216.561 480.148C210.098 479.381 207.996 476.18 204.19 471.422C221.857 453.483 219.067 424.644 246.507 419.286Z" fill="#E2E1E3"/>
<path d="M362.447 850.269C370.639 850.338 379.43 850.215 387.552 850.442L387.564 883.405C387.579 890.413 389.001 901.272 384.099 906.514C381.724 909.044 378.411 910.479 374.942 910.479C371.698 910.465 368.593 909.163 366.308 906.86C360.793 901.381 362.415 890.146 362.423 882.719L362.447 850.269Z" fill="#E2E1E3"/>
<path d="M170.531 395.7C170.723 396.796 169.257 406.343 169.204 408.817C168.966 419.845 170.868 428.191 173.318 438.765C169.588 435.556 166.574 432.998 163.191 429.435C155.228 420.392 150.069 411.569 149.824 399.344C156.765 398.361 163.671 397.146 170.531 395.7Z" fill="#E2E1E3"/>
<path d="M66.2686 346.326C79.9412 351.324 84.4958 365.853 88.7072 378.492C89.6494 381.319 90.598 384.905 90.8968 387.852C76.5847 379.354 65.0725 363.511 66.2686 346.326Z" fill="#E2E1E3"/>
<path d="M192.693 474.888C193.83 475.566 197.889 478.718 199.089 479.635C207.829 486.308 212.401 488.626 223.076 490.432C221.375 493.741 220.731 494.925 218.48 497.839C201.919 513.122 193.643 487.86 192.693 474.888Z" fill="#E2E1E3"/>
<path d="M99.6018 393.919C105.534 396.681 110.041 398.103 116.443 399.253C117.533 408.905 117.733 418.214 119.005 428.393C108.48 422.464 101.571 405.243 99.6018 393.919Z" fill="#E2E1E3"/>
<path d="M148.558 469.777C149.717 470.53 151.351 472.289 152.607 473.272C161.339 480.11 162.782 484.728 159.661 495.038C159.105 495.916 159.483 495.61 158.463 495.946C157.71 495.299 156.992 494.609 156.311 493.889C149.159 486.153 148.048 479.782 148.558 469.777Z" fill="#E2E1E3"/>
</g>
<defs>
<clipPath id="clip0_9_83">
<rect width="707" height="1010" fill="white"/>
</clipPath>
</defs>
</svg>
