<svg width="822" height="934" viewBox="0 0 822 934" fill="none" xmlns="http://www.w3.org/2000/svg">
<g clip-path="url(#clip0_9_34)">
<path d="M2.58026 0H822V419.024C821.343 423.289 821.243 432.766 821.047 437.564C820.714 447.953 820.02 458.326 818.971 468.669C810.596 551.972 783.569 630.874 738.591 701.59C677.899 796.326 588.866 869.514 484.159 910.728C466.104 917.801 447.684 923.889 428.972 928.97C424.008 930.338 418.45 932.381 413.33 932.746C399.743 933.717 338.195 910.855 322.774 904.005C221.071 859.937 135.582 785.358 78.137 690.585C62.8328 665.489 49.6977 639.138 38.8743 611.811C22.3817 570.091 11.2671 526.442 5.79836 481.913C4.05851 466.667 2.47616 451.075 2.04232 435.765C1.91925 431.422 0.984089 426.588 0.970076 422.11C0.900703 399.948 0.924081 377.728 0.922946 355.57L0.93658 224.156L0.932406 83.1912C0.931631 59.2493 0.887123 35.2385 0.973219 11.2951C0.984349 8.19991 1.33486 2.80218 2.58026 0Z" fill="#242224"/>
<path d="M8.74563 3.87814L532.594 3.75292L720.345 3.754L781.014 3.7562C792.199 3.75685 805.478 3.42809 816.435 4.01506L816.471 15.7339L816.49 285.503L816.499 379.901C816.485 410.259 816.759 437.459 813.917 467.725C804.762 562.247 769.989 652.482 713.338 728.712C700.306 746.352 684.564 765.488 669.004 781.067C620.026 832.136 561.177 872.72 496.024 900.352C475.045 909.25 453.519 916.798 431.575 922.945C413.305 928.222 413.469 928.865 395.182 923.848C373.678 917.992 352.562 910.796 331.958 902.3C203.789 849.019 101.762 747.423 47.9561 619.5C28.9161 574.086 16.3769 526.219 10.709 477.307C8.93079 462.125 7.81164 446.876 7.35471 431.6C6.61103 397.659 7.22593 361.402 7.22548 327.336L7.22986 130.656C7.23045 120.497 6.60802 6.76184 7.66371 4.173L8.74563 3.87814Z" fill="#BCBCBC"/>
<path d="M30.2551 27.0252C59.0754 26.5209 89.1441 26.94 118.037 26.9393L283.243 26.9382L793.276 26.9179C792.614 58.6546 793.203 92.6388 793.203 124.567L793.212 312.631V389.275C793.216 412.487 793.417 434.289 791.574 457.537C784.084 552.2 749.612 642.732 692.241 718.409C679.249 735.616 667.48 748.86 652.906 764.516C596.589 823.005 527.015 867.074 450.061 892.992C442.671 895.495 418.69 903.362 411.539 903.613C406.663 903.786 382.515 896.043 376.153 893.936C302.621 869.55 235.654 828.651 180.386 774.376C94.7891 690.526 42.1627 578.729 32.091 459.347C29.9675 434.223 30.3033 410.286 30.3143 385.128L30.3062 298.877L30.2551 27.0252Z" fill="#242224"/>
<path d="M36.5961 280.603C36.736 278.559 36.3314 272.287 36.2505 269.931C36.0579 264.081 35.9723 258.229 35.9938 252.376L35.9943 114.34L35.9728 69.0426C36.0074 59.9315 36.1573 50.5637 36.7205 41.4571C36.839 39.5407 39.1099 33.5028 41.2628 33.3347C44.8153 33.0574 48.7179 33.1645 52.3288 33.1604L78.2163 33.1509L181.798 33.1541L625.746 33.1598L765.45 33.1526C768.374 33.1506 785.416 32.6459 786.465 33.3379C786.967 37.3744 786.538 47.0265 786.534 51.7344L786.529 90.8319L786.515 215.165L786.511 253.986C786.511 262.771 786.296 271.882 786.953 280.604C787.678 288.066 787.236 303.823 787.227 311.877V368.436C787.227 403.614 787.879 435.85 784.285 470.904C773.948 566.675 735.685 657.293 674.25 731.498C621.025 796.043 552.478 846.232 474.862 877.49C453.28 886.123 434.469 891.883 412.205 898.036C285.461 865.97 176.353 785.481 108.322 673.862C66.5961 605.463 42.2552 527.888 37.4244 447.914C35.794 422.224 36.4241 393.508 36.4224 367.624L36.4284 312.455C36.4277 302.392 36.1509 290.507 36.5961 280.603Z" fill="#BCBCBC"/>
<path d="M36.5961 280.603C36.736 278.559 36.3314 272.287 36.2505 269.931C36.0579 264.081 35.9723 258.229 35.9938 252.376L35.9943 114.34L35.9728 69.0426C36.0074 59.9315 36.1573 50.5637 36.7205 41.4571C36.839 39.5407 39.1099 33.5028 41.2628 33.3347C44.8153 33.0574 48.7179 33.1645 52.3288 33.1604L78.2163 33.1509L181.798 33.1541L625.746 33.1598L765.45 33.1526C768.374 33.1506 785.416 32.6459 786.465 33.3379C786.967 37.3744 786.538 47.0265 786.534 51.7344L786.529 90.8319L786.515 215.165L786.511 253.986C786.511 262.771 786.296 271.882 786.953 280.604L36.5961 280.603Z" fill="#52091C"/>
<path d="M141.605 67.689C146.066 67.4236 150.036 67.4879 154.495 67.5431C163.35 72.7754 163.827 83.1588 169.098 91.6447C175.086 101.287 184.567 109.87 194.927 114.61C202.787 118.206 218.003 119.764 226.484 118.579C228.786 118.257 232.396 117.027 234.634 116.276C238.48 127.17 239.148 123.06 249.348 125.359C254.03 126.414 257.365 132.207 263.095 132.301C272.036 132.447 280.82 131.87 289.763 131.901L368.221 131.871L507.377 131.873C528.785 131.897 550.256 132.163 571.682 132.11C577.64 132.095 579.223 127.898 584.779 126.318C589.705 124.919 595.416 125.608 600.512 125.945C602.811 127.369 605.785 130.013 607.947 131.821C636.744 133.208 663.89 129.306 692.113 124.335C700.046 122.938 699.069 118.704 707.49 118.123C717.854 117.408 726.558 119.881 727.237 131.758C735.384 135.263 739.882 136.326 745.237 144.09C749.744 150.628 749.804 160.16 748.631 167.518C747.126 175.022 741.283 179.747 734.335 181.812C726.558 184.125 727.132 184.961 725.668 191.868C725.463 192.109 725.249 192.346 725.03 192.577C719.957 197.918 709.721 200.269 702.732 198.161C699.17 197.085 697.578 195.48 694.959 192.993C667.179 188.205 644.928 185.699 616.842 185.239C615.738 185.208 611.692 185.079 610.894 185.318C602.628 187.786 603.609 191.951 594.253 192.028C583.269 192.119 577.033 185.047 566.975 185.044C541.9 185.034 516.747 185.057 491.676 185.054L334.918 185.053C309.245 185.27 283.572 185.274 257.9 185.063C255.661 188.591 253.389 192.716 248.452 191.346C241.777 189.495 238.685 194.936 234.856 199.346C229.988 199.01 224.349 197.198 219.499 197.671C185.039 201.028 168.899 215.822 159.847 248.797C152.518 249.457 142.57 250.419 135.456 248.416C132.389 247.552 131.158 240.138 130.219 237.174C125.913 223.592 120.834 207.25 106.678 200.894C100.219 197.963 91.4568 194.708 84.3184 195.967C83.1296 196.176 76.8118 199.37 75.2686 200.053C73.3332 193.173 69.5954 191.249 68.2734 184.875C67.9395 183.266 68.0563 177.727 68.0641 175.836C58.9787 172.082 54.8076 169.98 50.9476 160.789C52.0957 147.124 57.1646 147.679 66.6792 141.722C68.5695 140.539 68.0818 132.547 68.0508 129.758C70.1396 126.586 73.9978 119.468 76.9291 117.761C81.2713 120.415 84.437 122.56 89.8648 122.152C105.614 120.967 119.874 107.885 125.787 93.7042C128.898 86.2445 130.659 75.5706 135.31 69.1493C136.432 67.5992 139.628 67.7775 141.605 67.689Z" fill="#242224"/>
<path d="M256.819 137.992L573.835 137.98C573.959 151.687 573.959 165.394 573.835 179.1C534.017 179.852 492.187 179.222 452.239 179.223L256.565 179.139C257.157 166.659 256.74 150.815 256.819 137.992Z" fill="#989A9C"/>
<path d="M552.565 142.061C555.16 142.058 564.064 141.672 565.894 142.067C571.194 146.422 567.832 150.277 562.222 150.485C547.994 151.011 533.684 151.027 519.447 151.015L451.741 151.032L271.757 151.984C267.413 152 261.419 152.567 257.885 150.339C255.98 147.228 258.075 145.637 260.309 143.537L552.565 142.061Z" fill="#BCBCBC"/>
<path d="M692.738 130.187C693.705 131.29 693.295 181.686 693.29 186.965C683.966 186.809 671.75 183.999 662.121 182.694C647.04 180.649 633.355 179.813 618.233 179.271L609.329 179.116C609.448 165.418 609.393 151.72 609.17 138.023C629.929 137.659 650.197 136.748 670.669 133.15C677.808 131.896 685.535 130.485 692.738 130.187Z" fill="#989A9C"/>
<path d="M682.807 136.517C684.171 136.354 686.525 136.404 687.976 136.387C689.454 138.299 691.027 139.598 690.416 142.089C684.65 147.445 632.634 151.127 622.093 151.395L615.373 151.371C610.511 142.949 618.005 143.369 624.049 143.178C630.313 142.98 636.658 142.23 642.916 141.825C656.227 140.964 669.656 138.842 682.807 136.517Z" fill="#BCBCBC"/>
<path d="M113.754 166.234L194.396 165.968C207.559 165.911 228.874 165.139 241.419 166.162C238.426 169.735 235.683 171.799 232.096 174.758C230.932 174.196 228.394 172.956 227.239 172.917C213.384 172.44 188.93 172.427 176.375 175.893C165.58 180.035 158.906 187.685 153.113 197.306C148.088 197.315 143.062 197.277 138.038 197.192C124.865 170.458 107.458 173.946 81.9099 172.819L77.1197 176.979C75.6066 176.044 73.9905 174.822 72.5298 173.773L72.7648 166.307C86.4277 166.356 100.091 166.332 113.754 166.234Z" fill="#BCBCBC"/>
<path d="M138.393 73.0253L154.677 72.9952C164.382 95.663 174.654 115.569 201.09 121.796C209.374 123.747 224.125 127.306 231.621 123.023C233.387 125.177 235.614 128.525 237.273 130.867L231.367 129.168C228.435 130.577 225.957 131.653 222.645 131.858C196.765 133.46 179.012 129.461 162.027 109.036C159.928 106.25 157.552 102.914 155.205 100.401C148.972 100.169 141.82 100.319 135.552 100.316C130.611 107.777 129.792 113.885 121.901 122.175C112.004 132.574 97.8217 132.291 84.1702 132.722C80.353 129.171 80.4329 129.6 75.5086 127.869C75.5862 126.618 77.2671 125.016 78.1671 123.961C80.1751 125.876 80.645 126.336 82.2383 128.676C95.888 127.044 113.57 122.284 122.137 110.795C128.515 102.243 136.136 83.7216 138.393 73.0253Z" fill="#989A9C"/>
<path d="M238.843 183.351L239.135 183.523C238.614 184.837 232.558 192.62 231.304 194.355L228.211 191.961C217.048 192.046 204.016 193.457 193.692 197.599C171.452 206.522 163.45 223.576 154.588 244.068C149.277 244.098 144.141 244.054 138.846 244.506C127.629 215.001 127.721 199.484 93.1583 190.15C89.4584 189.346 86.5134 188.735 82.7278 188.237C81.0715 189.707 79.4466 191.893 78.028 193.649C77.2575 192.389 76.3812 191.263 76.2754 189.82C77.044 188.91 78.1808 188.462 79.3084 188.034C81.1672 187.329 82.2214 186.083 83.6447 184.686C114.014 184.238 122.543 189.337 135.239 216.811C141.998 216.7 148.984 216.807 155.761 216.825C161.987 206.253 172.417 195.339 183.95 190.378C195.507 185.406 212.161 183.928 224.8 185.685C226.506 185.923 230.313 187.422 232.018 188.077C234.123 186.737 236.672 184.815 238.843 183.351Z" fill="#989A9C"/>
<path d="M138.637 120.473C143.357 120.59 148.08 120.652 152.802 120.657C167.481 142.342 181.218 146.046 207.218 145.372C216.107 145.141 223.908 146.27 232.428 142.965L239.541 144.313L239.703 150.087L174.143 150.061L73.3414 150.058L73.4207 143.626C74.5776 142.798 76.0975 141.904 77.3255 141.132L81.5075 145.018C105.896 144.934 128.152 146.678 138.637 120.473Z" fill="#989A9C"/>
<path d="M707.358 123.233C714.164 122.685 716.061 123.699 721.175 127.772L721.225 189.019C718.032 192.137 717.147 192.569 712.864 193.871C708.927 194.498 699.348 193.329 698.942 188.101C698.394 181.046 698.823 173.269 698.878 166.139L698.91 127.678C702.057 125.035 703.54 124.383 707.358 123.233Z" fill="#A1A3A4"/>
<path d="M589.199 130.547C589.774 130.513 590.353 130.486 590.928 130.466C596.479 130.278 600.211 132.142 604.134 135.828C604.435 141.011 604.261 148.371 604.266 153.696C604.325 162.953 604.275 172.21 604.111 181.466C600.817 184.412 599.262 185.051 595.079 186.504C588.287 187.78 584.131 185.691 579.373 181.161C578.826 167.231 579.437 149.959 579.373 135.681C583.301 132.646 584.437 131.79 589.199 130.547Z" fill="#989A9C"/>
<path d="M579.971 135.994C582.238 136.567 589.39 136.342 589.714 138.878C590.567 145.532 590.677 157.323 588.601 163.549C588.396 163.795 587.876 164.044 587.557 164.229C583.894 164.519 582.972 163.677 579.879 161.802C579.907 153.175 579.816 144.632 579.971 135.994Z" fill="#BCBCBC"/>
<path d="M73.3957 155.544C90.6549 154.93 111.64 155.48 129.316 155.479L239.681 155.472L239.445 161.81L131.973 161.813C113.406 161.817 91.6142 162.346 73.3218 161.642L73.3957 155.544Z" fill="#989A9C"/>
<path d="M726.503 137.917C743.91 142.015 750.21 159.285 738.286 173.114C734.071 176.979 731.731 177.843 726.32 179.091C726.466 165.367 726.526 151.642 726.503 137.917Z" fill="#989A9C"/>
<path d="M730.49 144.401C731.183 144.324 731.89 144.376 732.565 144.555C736.032 145.469 740.001 151.137 735.284 153.785C731.612 153.825 728.925 152.238 728.373 148.227C728.118 146.413 729.322 145.61 730.49 144.401Z" fill="#BCBCBC"/>
<path d="M156.086 108.796C157.227 109.582 162.172 115.343 163.318 116.63C165.668 119.278 168.264 121.699 171.07 123.859C186.899 136.014 205.614 137.425 224.924 136.439C226.755 136.345 227.9 135.342 229.912 135.081C230.475 136.005 230.146 137.636 230.075 138.933C229.688 139.292 229.755 139.256 229.23 139.596C225.311 142.132 191.146 140.998 185.287 139.909C172.017 137.444 163.478 128.733 156.093 118.05C155.972 115.121 156.067 111.763 156.086 108.796Z" fill="#BCBCBC"/>
<path d="M195.596 177.14C199.931 176.841 229.244 175.551 229.183 180.062C227.188 181.145 220.279 179.782 216.763 179.746C211.355 179.682 205.948 179.967 200.577 180.599C191.472 181.748 184.341 183.99 176.334 188.31C168.043 193.279 162.684 198.908 156.752 206.277L156.756 205.807C156.791 203.845 156.645 201.501 157.454 199.705C164.58 183.867 179.666 178.317 195.596 177.14Z" fill="#989A9C"/>
<path d="M134.842 111.581C136.146 116.262 134.89 118.648 132.98 122.639C123.362 142.735 102.256 140.033 82.9335 140.473L79.9119 137.794C79.4211 136.128 79.2313 136.469 79.7344 135.184C81.201 135.361 82.002 136.275 83.1853 137.241C110.319 135.72 120.151 136.078 134.842 111.581Z" fill="#BCBCBC"/>
<path d="M251.443 140.517C250.976 154.475 251.719 168.472 251.186 182.416C251.099 184.701 250.629 187.854 247.929 187.731C243.344 184.075 244.891 175.884 244.911 170.454L244.938 143.634C248.769 143.507 250.307 144.321 251.443 140.517Z" fill="#989A9C"/>
<path d="M67.9432 147.273L67.9277 152.198C67.9984 157.722 68.2305 164.31 67.9655 169.736C61.2773 167.791 55.937 165.254 56.1683 157.258C58.6224 150.515 61.5236 149.43 67.9432 147.273Z" fill="#989A9C"/>
<path d="M67.9432 147.273L67.9277 152.198C66.6678 159.796 62.4195 160.486 56.1683 157.258C58.6225 150.515 61.5236 149.43 67.9432 147.273Z" fill="#BCBCBC"/>
<path d="M83.6004 177.488C83.9079 177.477 84.2153 177.469 84.5232 177.463C99.9866 177.211 120.727 176.544 130.023 191.077C131.837 193.912 134.352 198.828 134.383 202.209L133.788 202.252C121.25 181.639 109.326 180.126 86.6147 179.342C85.4064 179.301 83.199 179.461 82.4514 178.817L83.6004 177.488Z" fill="#989A9C"/>
<path d="M142.241 104.665C145.567 104.484 149.314 104.504 152.676 104.447C152.707 108.183 153.281 111.694 152.402 115.224C151.336 116.298 151.582 115.947 149.588 116.084L138.387 115.876C138.307 112.279 137.48 108.738 138.658 105.578C140.013 104.405 139.962 104.8 142.241 104.665Z" fill="#BCBCBC"/>
<path d="M139.552 201.746L151.772 201.706C151.798 204.824 151.615 208.384 151.529 211.534L139.587 211.645C139.383 207.844 139.34 205.531 139.552 201.746Z" fill="#989A9C"/>
<path d="M244.92 135.576C244.976 132.894 245.016 129.879 248.334 129.537C251.998 131.612 251.398 135.252 251.355 138.916L251.443 140.517C250.307 144.321 248.769 143.507 244.938 143.634L244.92 135.576Z" fill="#BCBCBC"/>
<path d="M244.92 135.576C244.976 132.894 245.016 129.879 248.334 129.537C251.998 131.612 251.398 135.252 251.355 138.916C250.297 134.767 248.584 135.403 244.92 135.576Z" fill="#989A9C"/>
<path d="M239.075 174.537L239.556 174.788L239.778 175.539C238.841 177.079 236.948 178.617 235.572 179.881C234.491 178.959 234.776 179.524 234.621 178.168C235.633 176.557 237.433 175.622 239.075 174.537Z" fill="#747373"/>
<path d="M180.532 333.119C198.957 332.626 218.406 332.944 236.908 332.946L335.006 332.934L381.613 332.925C388.438 332.926 396.018 332.794 402.881 333.155C404.035 333.216 404.337 333.853 404.841 334.599C405.384 339.876 400.028 345.724 401.575 348.955C403.9 349.667 426.56 349.354 430.708 349.346L489.555 349.318L635.964 349.326L682.178 349.357C707.577 349.38 734.778 350.102 759.004 341.226C761.267 340.396 765.477 337.944 767.676 338.341C770.135 341.216 770.057 347.319 769.975 350.96C767.512 355.332 761.239 363.362 757.996 367.728L735.708 397.453C718.37 420.174 703.216 448.265 671.759 452.894C659.037 454.765 645.366 453.253 632.539 452.608L567.299 449.07C552.305 448.214 533.1 446.491 518.412 448.03C538.624 455.391 651.241 460.442 655.187 464.847C656.606 471.355 632.146 506.604 627.074 513.892C621.317 522.16 610.401 535.933 602.332 542.085C584.979 555.31 560.411 557.691 539.327 554.635C532.252 553.596 521.632 550.709 514.325 549.049L475.2 540.311C471.177 539.449 459.307 536.421 456.155 537.625L456.12 538.327C460.831 542.783 536.599 561.864 550.412 567.756C544.76 578.82 521.97 601.892 512.304 611.77C506.666 617.503 500.635 625.1 494.007 629.397C453.051 655.948 421.303 623.149 384.41 615.478C392.307 622.51 415.691 634.007 426.026 639.32C455.182 654.302 457.214 665.698 457.816 697.057L458.176 727.27C445.446 729.678 412.101 736.095 400.492 734.804C394.13 734.075 388.005 731.963 382.547 728.611C374.932 724.014 355.493 704.823 349.261 704.974C349.565 708.134 374.382 729.938 378.56 734.412C381.186 737.171 383.459 740.25 385.328 743.57C394.288 759.491 389.645 775.238 386.784 792.162C385.867 797.589 384.934 806.519 383.471 811.517L383.291 812.11C376.758 813.159 366.707 812.566 359.906 812.635C344.146 812.785 327.209 813.848 314.875 802.214C308.24 795.952 302.629 788.724 296.614 781.819L262.39 742.731L215.353 688.953C207.935 680.443 199.072 671.258 192.613 662.146C186.784 653.923 200.911 639.84 205.007 633.465C215.46 617.188 220.367 598.9 219.294 579.55C217.965 556.095 207.324 534.14 189.733 518.566C168.592 499.685 143.675 493.93 115.876 498.386C108.078 499.84 101.463 502.714 93.4918 503.457C72.4993 505.423 54.3008 488.375 53.9988 467.137C53.5158 433.148 65.7349 398.872 88.9858 373.709C113.981 346.658 144.2 334.713 180.532 333.119Z" fill="#747373"/>
<path d="M377.157 804.284C319.949 805.092 329.136 806.861 292.494 764.922L245.763 711.532L216.858 678.536C212.158 673.082 206.962 668.056 203.118 661.977C201.58 659.546 201.654 657.125 202.056 654.302C203.446 646.754 210.139 641.049 213.991 634.463C254.95 564.459 197.753 475.98 115.861 490.254C108.233 491.586 96.8897 495.672 89.6984 495.485C82.2379 495.307 75.1537 492.174 70.0068 486.77C63.544 479.893 61.7125 472.217 61.9752 463.069C62.9446 429.279 75.8562 396.989 100.646 373.603C115.713 359.211 134.403 349.178 154.726 344.572C172.853 340.482 194.16 341.216 212.807 341.215L273.917 341.23L352.215 341.206C366.14 341.199 381.248 340.902 395.104 341.303C391.379 347.241 385.99 354.035 381.966 360.031C378.062 365.609 374.221 371.202 370.104 376.61C360.773 388.867 348.463 387.848 334.703 387.834L308.714 387.811L221.026 387.829C191.438 387.775 171.028 385.341 144.616 402.468L146.316 403.382C151.347 401.47 161.384 399.849 166.82 399.649C187.815 398.878 209.256 399.32 230.305 399.322H266.358C273.873 399.319 288.958 398.643 295.615 400.531C303.9 402.881 310.453 415.146 314.422 421.861C316.995 426.212 320.044 430.936 322.393 435.502C318.052 443.642 315.341 456.543 304.42 457.186C275.735 458.878 246.78 456.675 218.048 458.029C223.042 459.721 231.122 462.626 236.064 463.26C245.065 464.419 254.737 465.162 263.811 466.001L311.297 470.534C318.251 471.182 337.54 472.409 342.94 475.022C349.907 478.392 359.047 503.69 361.821 511.383C346.785 535.645 349.124 533.552 320.844 529.206C306.571 527.012 287.94 522.807 273.721 521.467C286.76 529.511 294.824 531.979 309.181 536.635L340.274 546.778L402.808 567.514C394.658 561.745 385.988 556.679 377.5 551.119C373.629 548.588 361.893 542.463 360.65 537.561C359.918 534.674 366.483 525.836 368.369 523.013C371.831 523.537 375.404 524.349 378.759 525.38C392.577 529.616 406.579 533.388 420.402 537.57L495.161 559.461C507.888 563.182 525.597 568.974 538.177 571.902C527.667 584.183 516.236 595.662 505.325 607.593C501.251 612.053 496.252 617.416 491.567 621.169C488.118 623.942 484.255 626.163 480.122 627.75C469.703 631.809 459.978 631.932 448.984 630.135C439.438 628.366 430.599 623.956 421.686 620.326C399.481 611.314 377.237 602.749 355.059 593.642C335.782 585.725 351.941 576.458 338.783 566.32C335.987 564.167 330.712 562.11 327.342 560.669C335.454 570.128 333.653 583.376 333.516 595.507C329.264 599.972 324.412 608.856 318.811 610.821C311.286 613.462 300.763 605.745 294.196 602.48C289.475 600.136 284.609 597.359 280.006 594.901C283.176 598.576 288.969 606.224 292.404 609.152C299.282 615.008 309.128 621.105 316.682 626.25C329.805 635.184 342.944 644.063 356.247 652.705C351.585 645.878 333.723 626.792 332.674 620.773C331.942 616.568 336.506 610.881 338.997 607.711C340.11 606.293 342.288 603.83 344.333 603.971C346.445 604.117 424.295 647.269 431.128 651.424C433.95 653.139 436.575 655.164 438.955 657.453C449.792 667.924 449.411 680.169 449.708 694.001L450.232 720.776C448.157 721.177 445.693 721.57 443.556 721.775C429.237 723.079 410.063 729.628 396.147 726.08C387.589 723.9 371.147 709.425 363.87 703.679L328.026 675.08C318.508 667.491 318.583 666.045 317.853 654.324C317.371 646.599 306.969 640.921 300.489 636.018C308.581 646.129 305.899 660.349 306.534 673.93C304.48 677.072 301.4 679.841 299.053 682.536C289.939 693.002 283.67 689.276 274.834 681.4C270.246 677.31 264.374 672.225 259.391 668.549C263.455 677.807 266.753 682.422 273.517 689.714C285.193 702.306 297.196 714.496 309.026 726.933C307.166 720.434 304.452 714.2 302.279 707.765C300.332 702.233 300.796 697.809 305.309 693.746C309.322 690.134 313.224 684.114 318.806 689.108C326.719 696.181 334.152 703.87 341.873 711.135L365.39 733.445C367.934 735.908 373.257 740.797 375.4 743.292C389.041 759.176 378.806 783.88 377.157 804.284Z" fill="#52091C"/>
<path d="M144.616 402.468L146.316 403.382L138.565 406.831C140.577 405.14 142.227 403.571 144.616 402.468Z" fill="#7E545F"/>
<path d="M214.545 523.113C206.259 507.074 181.174 490.715 164.377 485.187C148.829 480.075 124.149 479.168 108.218 483.318C94.0219 487.012 81.9797 492.284 72.2886 475.008C65.9612 463.73 72.456 441.588 75.3827 429.457C78.8919 420.222 82.6721 410.989 87.3897 402.319C90.2093 397.137 95.3694 392.432 98.3458 388.055C102.837 381.452 100.831 380.89 109.23 377.474C111.823 376.419 120.366 365.163 124.001 366.544C123.776 367.546 119.648 371.949 118.556 373.318C113.278 379.94 100.549 398.319 100.542 406.435C99.3712 407.927 97.9736 409.818 96.741 411.21C95.5577 423.887 84.7983 465.646 108.308 459.01C115.852 456.88 124.868 457.61 132.612 457.195C197.472 454.093 255.422 518.575 251.619 581.903C250.266 603.461 240.483 632.42 227.219 649.928C222.268 656.678 214.649 670.145 208.529 655.784C213.011 649.358 217.415 643.019 222.027 636.68C224.485 633.3 226.283 626.783 228.044 623.076C236.149 606.005 236.853 586.404 234.286 567.861C233.006 558.621 228.439 547.038 224.208 538.236C220.945 534.373 215.804 527.938 214.545 523.113Z" fill="#6E151E"/>
<path d="M214.545 523.113C220.052 529.867 221.898 529.712 224.208 538.236C220.945 534.373 215.804 527.938 214.545 523.113Z" fill="#5F0C19"/>
<path d="M374.259 354.727L374.66 354.814L374.795 355.408C372.308 359.698 363.526 372.953 360.094 375.744C353.777 380.88 339.704 379.968 331.63 379.938L306.319 379.919L221.339 379.905C205.417 379.883 182.722 379.129 167.349 383.066C156.914 385.738 140.453 394.798 132.136 401.375C131.602 401.797 127.551 407.273 125.006 409.511L124.438 410.004L124.078 409.891C123.857 409.115 123.776 409.358 123.962 408.822C133.235 382.104 159.528 367.173 186.254 363.202C194.944 361.911 205.952 362.171 214.665 362.178L248.744 362.186L326.188 362.179C336.021 362.181 348.944 362.773 358.531 361.649C361.814 361.264 370.967 356.389 374.259 354.727Z" fill="#6E151E"/>
<path d="M352.532 566.105C363.112 565.736 376.465 570.917 386.672 574.392C399.704 578.834 412.848 582.943 426.09 586.714C430.457 587.955 434.843 589.651 439.208 590.933C452.985 594.983 474.753 595.931 488.739 592.757C495.193 591.293 512.687 581.082 519.461 578.2L520.1 577.931C515.164 585.793 512.304 587.636 506.178 594.294C504.171 597.386 503.979 597.983 500.631 599.352C491.024 616.18 477.462 622.661 458.815 622.337C442.558 622.054 441.302 618.387 427.224 613.33C409.714 607.041 393.017 599.84 375.705 593.076C369.7 590.778 361.853 586.796 355.579 586.828C354.824 585.592 353.991 583.882 353.353 582.715C351.854 579.974 351.496 568.504 352.532 566.105Z" fill="#6E151E"/>
<path d="M259.06 691.817C262.582 693.208 279.413 711.555 283.651 715.345C284.765 716.339 289.428 722.258 291.029 723.959C293.722 727.061 297.365 729.916 299.919 733.053C307.843 742.799 316.497 751.633 325.278 760.585C328.548 763.919 331.554 768.379 335.055 771.407C342.392 777.76 350.529 783.333 358.229 789.244C360.302 790.835 366.884 793.832 367.98 795.419L367.518 796.098C327.762 797.845 330.719 797.48 304.761 767.034L276.079 733.518C270.509 727.061 259.14 718.792 258.601 710.091C258.305 705.307 258.104 696.528 259.06 691.817Z" fill="#6E151E"/>
<path d="M326.604 646.681C328.695 646.531 332.203 646.467 333.955 647.625C344.728 654.73 355.371 662.479 366.107 669.648C389.568 685.309 414.247 702.228 440.484 712.932L435.076 714.702C423.616 716.307 412.365 719.641 400.671 718.701C397.334 718.432 390.643 714.068 387.935 712.189C376.845 704.486 367.588 694.43 356.331 686.873C349.283 682.167 343.268 677.2 336.888 671.673C333.031 668.33 329.664 666.529 326.254 662.474C326.001 657.499 326.291 651.643 326.604 646.681Z" fill="#6E151E"/>
<path d="M174.619 434.371C182.092 433.417 188.992 435.177 196.387 435.188C199.953 435.193 203.651 434.79 207.227 434.87C242.663 435.66 278.359 434.18 313.728 436.151C312.27 440.25 311.347 441.609 308.713 444.936C307.466 446.414 305.92 447.793 304.507 449.132C298.824 449.778 294.171 449.357 288.755 449.635C276.492 450.264 264.575 449.603 252.419 449.63L220.609 449.705C217.326 449.701 205.36 449.903 203.218 449.079C196.233 446.395 180.538 438.453 174.619 434.371Z" fill="#6E151E"/>
<path d="M270.671 557.732C280.218 571.395 295.483 575.249 309.577 582.614C314.667 585.273 321.368 589.583 326.371 591.398C324.675 594.777 323.914 595.972 321.603 598.914C319.774 600.77 316.519 604.044 313.577 602.029C302.278 594.299 279.314 587.348 273.614 574.428C273.279 573.667 270.84 558.722 270.671 557.732Z" fill="#6E151E"/>
<path d="M261.768 638.203C266.295 641.263 269.082 646.599 272.863 649.778C281.585 657.111 290.223 663.888 298.827 671.408C296.902 673.442 296.137 674.409 294.52 676.703L293.038 680.475C290.692 680.475 288.339 680.324 285.994 680.206C282.84 678.304 279.854 674.838 276.998 672.489C271.193 667.714 262.993 663.336 261.742 655.209C260.903 649.768 261.518 643.539 261.768 638.203Z" fill="#6E151E"/>
<path d="M760.199 349.79L760.925 349.888C760.405 351.462 752.239 361.749 750.643 363.919L725.864 397.396C688.309 448.18 685.147 447.322 623.009 443.926L545.558 439.546L403.694 431.864L364.359 429.658C355.814 429.209 338.863 429.9 332.066 424.578C328.131 421.499 315.09 404.941 319.39 400.007C322.169 398.495 342.725 399.141 347.663 399.141L416.66 399.084C429.82 399.091 445.912 399.538 458.865 398.906C452.99 397.702 445.284 396.87 439.239 396.036L407.971 391.632C401.412 390.726 387.247 389.769 382.568 385.708C379.922 380.922 383.412 376.383 386.121 372.448C389.615 367.372 392.717 361.096 397.873 357.589C416.697 357.361 436.892 357.798 455.871 357.791L605.662 357.77L668.087 357.794C697.56 357.799 732.123 358.962 760.199 349.79Z" fill="#59101A"/>
<path d="M333.471 439.739C347.781 440.335 362.879 442.203 377.206 443.692L436.985 449.752L645.138 470.867C633.798 489.949 622.868 507.479 608.795 524.714C597.131 538.993 581.791 545.902 563.471 547.585C546.288 548.077 539.076 546.208 522.554 542.614C507.163 539.326 491.795 535.919 476.454 532.394L418.197 519.565C407.064 517.134 386.157 513.308 375.71 509.071C372.396 507.726 365.128 488.549 363.907 483.819C364.284 481.945 364.324 481.48 365.118 479.783C366.29 478.853 368.962 478.798 370.474 478.912C391.309 480.499 412.197 483.491 433.018 485.156C417.567 480.481 332.473 461.459 328.233 457.414C327.22 456.442 326.989 454.716 327.05 453.39C327.235 449.314 330.559 442.5 333.471 439.739Z" fill="#52091C"/>
<path d="M625.924 482.451L626.951 482.675C628.921 486.218 605.297 517.827 601.447 521.968C590.189 534.077 571.422 540.407 555.201 539.9C542.424 539.499 530.331 536.174 518.152 532.845C500.115 530.237 482.403 524.737 464.581 521.385C450.655 518.767 437.466 514.922 423.76 511.903C412.668 509.459 401.703 507.329 390.582 504.798C387.063 504.187 384.272 503.785 380.872 502.6C378.818 499.891 373.956 491.645 375.529 488.334C378.455 487.144 417.316 491.267 423.452 491.974C456.069 495.731 488.816 500.356 521.505 503.612C526.655 504.127 530.564 506.399 535.408 504.36C537.548 505.377 538.41 505.787 540.777 506.12C559.544 508.852 576.992 510.248 594.842 502.586C603.819 498.732 604.019 498.846 611.683 493.054L625.518 482.748L625.924 482.451Z" fill="#6E151E"/>
</g>
<defs>
<clipPath id="clip0_9_34">
<rect width="822" height="934" fill="white"/>
</clipPath>
</defs>
</svg>
