<?xml version="1.0" encoding="utf-8"?>
<!-- Generator: Adobe Illustrator 24.1.2, SVG Export Plug-In . SVG Version: 6.00 Build 0)  -->
<svg version="1.1"
	 id="svg462" inkscape:version="0.92.1 r15371" sodipodi:docname="СЂРёСЃСѓРЅРѕРє.svg" xmlns:cc="http://creativecommons.org/ns#" xmlns:dc="http://purl.org/dc/elements/1.1/" xmlns:inkscape="http://www.inkscape.org/namespaces/inkscape" xmlns:rdf="http://www.w3.org/1999/02/22-rdf-syntax-ns#" xmlns:sodipodi="http://sodipodi.sourceforge.net/DTD/sodipodi-0.dtd" xmlns:svg="http://www.w3.org/2000/svg"
	 xmlns="http://www.w3.org/2000/svg" xmlns:xlink="http://www.w3.org/1999/xlink" x="0px" y="0px" viewBox="0 0 251.3 354.3"
	 style="enable-background:new 0 0 251.3 354.3;" xml:space="preserve">
<style type="text/css">
	.st0{fill:#E9BB2B;}
	.st1{fill:#FFD700;}
	
		.st2{fill-rule:evenodd;clip-rule:evenodd;fill:#FFD700;stroke:#E9BB2B;stroke-width:1.1198;stroke-linecap:round;stroke-linejoin:round;stroke-miterlimit:5.9723;}
	
		.st3{opacity:0.992;fill:none;stroke:#E9BB2B;stroke-width:1.1198;stroke-linecap:round;stroke-linejoin:round;stroke-miterlimit:5.9723;enable-background:new    ;}
	.st4{fill:#FFD700;stroke:#E9BB2B;stroke-width:1.1198;stroke-linecap:round;stroke-linejoin:round;stroke-miterlimit:5.9723;}
	.st5{fill:#0E478A;stroke:#E9BB2B;stroke-width:1.1198;stroke-miterlimit:5.9723;}
	.st6{fill:#FFD700;stroke:#E9BB2B;stroke-width:1.1198;stroke-miterlimit:5.9723;}
	.st7{fill:#800000;}
	.st8{fill:#465626;}
	.st9{fill:#0057B8;}
</style>
<sodipodi:namedview  bordercolor="#666666" borderopacity="1.0" fit-margin-bottom="0" fit-margin-left="0" fit-margin-right="0" fit-margin-top="0" id="base" inkscape:current-layer="layer1" inkscape:cx="167.55233" inkscape:cy="236.22046" inkscape:document-units="mm" inkscape:pageopacity="0.0" inkscape:pageshadow="2" inkscape:window-height="962" inkscape:window-maximized="1" inkscape:window-width="1280" inkscape:window-x="-8" inkscape:window-y="-8" inkscape:zoom="1.5853833" pagecolor="#ffffff" showgrid="false">
	</sodipodi:namedview>
<g id="layer1" transform="translate(-21.668634,-142.49134)" inkscape:groupmode="layer" inkscape:label="Layer 1">
	<g id="g807" transform="matrix(0.52672383,0,0,0.52672383,10.255248,126.59728)">
		<g id="g4385" transform="matrix(0.66346348,0,0,0.66346348,-73.659465,-237.59398)">
			<path id="path3619" inkscape:connector-curvature="0" class="st0" d="M256.9,802c-1.5,0-2.9,0-4.4,0.2c-1.3,0.1-2.4,0.6-3.2,1.3
				c-0.1,0.1-0.1,0.1-0.2,0.2c-0.8,0.9-1.3,2-1.5,3.3c0,0,0,0.1,0,0.1c-0.9,11.7,2.1,22.3,9.1,32.3c4.1,5.8,8.9,10.6,13.9,15.1
				c-3.4-1.1-6.9-1.7-10.4-1.9c-1.7,0-2.7,0.8-3,1.2l0,0c-0.1,0.1-0.1,0.1-0.2,0.2c-0.5,0.6-1.3,1.8-0.9,3.7
				c1.5,7.3,5.4,14.1,11.8,20.9c2.3,2.4,4.8,4.7,7.3,6.8c-2.2-0.4-4.4-0.6-6.6-0.6l-0.9,0c-1.7,0.1-2.7,0.9-3.2,1.5l-0.1,0.2
				c-0.4,0.6-1.1,1.8-0.6,3.7c1.9,6.7,5.9,12.8,12.3,18.6c1.9,1.7,3.8,3.3,5.8,4.8c-2.3-0.2-5-0.2-6.5,0c-0.2,0-0.3,0-0.5,0
				c-1.7,0.2-2.6,1.2-3,1.8c-0.1,0.1-0.1,0.2-0.2,0.3c-0.3,0.6-0.7,1.8-0.2,3.2c0,0.1,0.1,0.2,0.1,0.3c2.3,6.2,6.6,11.7,13,16.8
				c1.4,1.1,2.8,2.1,4.2,3.1c-2.8-0.2-5.5,0-8.2,0.5c-1.8,0.3-2.6,1.4-2.9,2.1c0,0,0,0.1-0.1,0.1c0,0.1-0.1,0.2-0.1,0.3c0,0,0,0,0,0
				c-0.3,0.7-0.5,1.9,0.2,3.3c2.8,6,7.4,11.2,14.2,15.8c0.5,0.3,1,0.6,1.5,1c-3.6-0.1-7.1,0.2-10.4,1.1v0c0,0-0.1,0-0.1,0
				c-1.5,0.4-2.2,1.4-2.5,2c-0.1,0.1-0.1,0.3-0.2,0.4c-0.3,0.7-0.6,2,0.3,3.6c1.6,2.8,3.5,5.3,5.9,7.6c-0.3-0.1-0.6-0.1-0.9-0.2
				c-8-1.6-15-1.2-21.2,1.1c-1.3,0.5-2,1.3-2.4,2c-0.1,0.2-0.2,0.5-0.3,0.7c-0.2,0.7-0.4,2,0.5,3.4c0,0.1,0.1,0.1,0.1,0.2
				c1.5,2.2,3.3,4.3,5.4,6.1c-1.7-0.3-3.4-0.6-5.2-0.8c-8.2-1-15-0.1-21.1,2.7c-1.4,0.7-2,1.7-2.3,2.4c-0.1,0.2-0.1,0.4-0.2,0.6
				c-0.1,0.7-0.1,2,0.9,3.4c1.4,1.8,3,3.4,4.8,4.9c-2.4-0.3-4.9-0.6-7.5-0.7c-8.7-0.4-15.8,1.1-21.9,4.4c-1.2,0.7-1.8,1.6-2,2.4
				c-0.1,0.2-0.1,0.3-0.1,0.5c0,0.1,0,0.2,0,0.3c-0.1,0.7,0,2,1.2,3.4c0,0,0,0,0,0c0,0,0,0,0,0.1c0,0,0,0,0,0
				c1.7,1.8,3.6,3.4,5.7,4.8c-2.7-0.2-5.4-0.4-8.1-0.4l-1.8,0c-9.3,0.2-16.8,2.3-23.1,6.4c-1,0.6-1.5,1.4-1.8,2.2
				c-0.1,0.3-0.2,0.7-0.2,1c0,0.1,0,0.1,0,0.2c0,0.7,0.1,2.1,1.5,3.4c2.5,2.3,5.4,4.3,8.5,5.9c-7.2-0.4-14.4-0.2-20.5,0.9
				c-12.1,2.1-21.7,7.5-29.4,16.4c-0.9,1-1.3,2.2-1.3,3c0,0.2,0,0.4,0,0.6c0,1.2,0.5,2.3,1.4,3.4c7.7,8.9,17.3,14.3,29.3,16.4
				c6.1,1.1,13.3,1.3,20.5,0.9c-3.2,1.6-6,3.6-8.5,5.9c-1.4,1.3-1.5,2.7-1.5,3.2v0c0,0.3,0,0.5,0.1,0.7c0.2,0.8,0.6,1.9,1.9,2.8
				c6.3,4.1,13.8,6.2,23.1,6.4l1.8,0c2.7,0,5.4-0.2,8.1-0.4c-2.2,1.5-4.1,3.1-5.8,5c-1.2,1.3-1.3,2.7-1.2,3c0,0.3,0,0.5,0.1,0.8
				c0.2,0.7,0.6,1.9,2.2,2.8c6.1,3.4,13.2,4.8,21.9,4.4c2.6-0.1,5-0.4,7.5-0.7c-1.8,1.5-3.4,3.1-4.9,4.9c-1,1.2-1,2.4-0.9,3.1
				c0,0.3,0.1,0.7,0.3,1c0.3,0.7,0.9,1.6,2.2,2.2c6.1,2.8,12.9,3.7,21.1,2.7c1.8-0.2,3.5-0.5,5.2-0.8c-2.1,1.9-3.9,3.9-5.4,6.2
				c-1,1.5-0.8,2.9-0.7,3.2v0c0,0.2,0.1,0.4,0.2,0.7c0.3,0.7,1,1.8,2.5,2.3c6.2,2.3,13.2,2.6,21.2,1.1c0.4-0.1,0.9-0.2,1.3-0.3
				c-2.6,2.4-4.6,5-6.3,7.9c-0.8,1.4-0.6,2.5-0.4,3.3c0,0.2,0.1,0.3,0.2,0.5c0.3,0.8,1.1,1.8,2.7,2.3c0.1,0,0.1,0,0.2,0
				c3.1,0.9,6.4,1.2,9.9,1.1c-0.4,0.2-0.7,0.5-1.1,0.7c-6.8,4.6-11.4,9.7-14.2,15.8c-0.7,1.6-0.3,2.9,0,3.6c0,0,0,0,0,0
				c0,0,0,0.1,0.1,0.1c0.3,0.6,1.1,1.7,2.9,2c0.1,0,0.1,0,0.2,0c1.9,0.4,3.9,0.5,5.9,0.5c0.7,0,1.4,0,2.1-0.1c-1.4,1-2.8,2-4.2,3.1
				c-6.4,5.1-10.7,10.6-13,16.8c0,0.1-0.1,0.2-0.1,0.3c-0.5,1.6,0,2.7,0.2,3.1c0,0,0,0,0,0.1c0,0.1,0.1,0.2,0.2,0.3
				c0.4,0.6,1.2,1.6,2.9,1.8c0.1,0,0.1,0,0.2,0c1.2,0.1,2.3,0.2,3.5,0.2c1.1,0,2.2-0.1,3.3-0.2c-2,1.5-3.9,3.1-5.8,4.8
				c-6.4,5.8-10.4,11.9-12.3,18.6c-0.5,1.8,0.2,3.1,0.6,3.7c0.1,0.1,0.1,0.2,0.2,0.3c0.5,0.6,1.5,1.3,3.1,1.4l0.9,0l0,0
				c2.2,0,4.4-0.2,6.6-0.6c-2.5,2.1-4.9,4.3-7.3,6.8c-6.4,6.7-10.3,13.5-11.8,20.9c-0.4,1.9,0.4,3.1,0.9,3.7l0.1,0.1
				c0.6,0.6,1.8,1.4,3.4,1.3c3.4-0.2,6.8-0.8,10.2-1.9c-4.9,4.5-9.8,9.3-13.9,15.1c-7,10-10,20.6-9.2,32.1c0,0.1,0,0.3,0,0.4
				c0.1,1.3,0.6,2.4,1.2,2.9c0,0.1,0.1,0.1,0.1,0.2c0.1,0.1,0.3,0.3,0.4,0.4c0.7,0.6,1.6,1,2.7,1.2c0.2,0,0.4,0.1,0.6,0.1
				c1.3,0.1,2.6,0.2,3.9,0.2c10.2,0,19.5-3,28.4-9.3c5.8-4.1,10.6-8.9,15.1-13.8c-1.1,3.4-1.7,6.7-1.8,10.1
				c-0.1,1.8,0.8,2.9,1.2,3.2c0.4,0.4,0.9,0.7,1.4,0.9c0.5,0.2,1.1,0.3,1.5,0.3c0.2,0,0.8-0.1,1-0.1c7.3-1.5,14.1-5.4,20.8-11.8
				c2.4-2.3,4.7-4.8,6.8-7.3c-0.5,2.5-0.7,5.1-0.6,7.6c0.1,1.8,1,2.8,1.5,3.2c0.3,0.3,0.7,0.4,1.1,0.6c0.7,0.3,1.3,0.4,2.3,0.2
				c0.2,0,0.3-0.1,0.5-0.1c6.7-1.9,12.8-5.9,18.6-12.3c1.7-1.9,3.3-3.8,4.8-5.8c-0.2,2.3-0.2,4.6,0,6.9c0.2,1.8,1.3,2.7,1.9,3.1
				c0.3,0.2,0.7,0.3,1,0.4c0.4,0.1,0.8,0.2,1.1,0.2c0.4,0,1.2-0.1,1.6-0.3c6.2-2.3,11.7-6.6,16.8-13c1.1-1.4,2.1-2.8,3.1-4.2
				c-0.2,2.8,0,5.5,0.5,8.2c0,0.1,0,0.1,0,0.2c0.4,1.7,1.5,2.5,2.1,2.8l0.1,0c0.3,0.1,0.6,0.2,0.9,0.3c0.9,0.2,1.7,0.1,2.5-0.2
				c0.1,0,0.2-0.1,0.3-0.1c6-2.8,11.2-7.4,15.8-14.2c0.3-0.4,0.5-0.7,0.7-1.1c-0.1,3.5,0.3,6.8,1.2,10l0,0.1
				c0.5,1.7,1.7,2.4,2.3,2.7c0,0,0.1,0,0.1,0.1c1.1,0.4,2.4,0.3,3.6-0.3c2.9-1.6,5.5-3.7,7.9-6.2c-0.1,0.4-0.2,0.9-0.3,1.3
				c-1.6,8-1.2,15,1.1,21.2c0.6,1.5,1.6,2.2,2.3,2.5c0.3,0.1,0.6,0.2,0.9,0.2c1.1,0.2,2,0,2.8-0.6c0.1-0.1,0.2-0.1,0.3-0.2
				c2.2-1.5,4.3-3.3,6.1-5.4c-0.3,1.7-0.6,3.4-0.8,5.2c-1,8.1-0.1,15,2.7,21.1c0.7,1.5,1.8,2.1,2.5,2.3c0.2,0.1,0.5,0.1,0.7,0.2
				c1.3,0.1,2.2-0.2,3.1-1c1.8-1.4,3.4-3,4.9-4.8c-0.3,2.4-0.6,4.9-0.7,7.5c-0.4,8.6,1.1,15.8,4.4,21.9c0.8,1.4,1.9,1.9,2.7,2.1
				c0.1,0,0.2,0,0.3,0.1c0.1,0,0.2,0,0.3,0c1,0.1,2-0.1,3.2-1.2l0.1-0.1c1.8-1.7,3.4-3.6,4.9-5.8c-0.3,3.2-0.4,6.5-0.4,9.9
				c0.2,9.3,2.3,16.8,6.4,23.1c0.7,1,1.5,1.5,2.2,1.8c0.3,0.1,0.7,0.2,1.1,0.2c0.1,0,0.1,0,0.2,0c0.8,0,2-0.3,3-1.3
				c0.1-0.1,0.1-0.1,0.2-0.2c2.3-2.5,4.2-5.3,5.9-8.5c-0.3,6.7-0.3,13.5,0.9,20.5c2.1,12.1,7.5,21.7,16.4,29.3
				c1,0.9,2.2,1.4,3.5,1.4h0v0c0.1,0,0.2,0,0.2,0c1.2,0,2.3-0.5,3.3-1.3c0,0,0,0,0,0l0,0c8.9-7.7,14.3-17.3,16.4-29.3
				c1.2-7,1.2-13.8,0.9-20.4c1.6,3,3.5,5.8,5.7,8.3c0,0.1,0.1,0.1,0.2,0.2c1.1,1.2,2.3,1.4,3.1,1.4v0c0,0,0,0,0,0h0
				c0.6,0,1.2-0.1,1.7-0.4c0.6-0.3,1.2-0.8,1.7-1.6c4.1-6.3,6.2-13.8,6.4-23.1c0.1-3.4-0.1-6.7-0.4-9.9c1.4,2.1,3,4,4.8,5.7
				c0.1,0.1,0.2,0.2,0.3,0.2c1,0.9,2.1,1.1,2.8,1.1v0c0,0,0,0,0.1,0c0,0,0.1,0,0.1,0c0.8,0,1.5-0.3,2.1-0.7c0.5-0.3,1-0.8,1.4-1.5
				c3.4-6.1,4.8-13.2,4.4-21.9c-0.1-2.6-0.4-5-0.7-7.5c1.5,1.8,3.1,3.4,4.9,4.9c0.9,0.7,1.7,1,2.9,0.9c0.9,0,1.8-0.4,2.4-1
				c0.4-0.3,0.8-0.8,1.1-1.5c2.8-6,3.7-12.9,2.7-21.1c-0.2-1.8-0.5-3.5-0.8-5.2c1.9,2.1,3.9,3.9,6.2,5.5c0.2,0.1,0.4,0.3,0.7,0.4
				c0.1,0.1,0.2,0.1,0.3,0.2c0.9,0.4,1.6,0.4,2.5,0.1c0.7-0.2,1.3-0.5,1.7-1c0.4-0.4,0.8-0.9,1-1.6c2.3-6.3,2.7-13.2,1.1-21.2
				c-0.1-0.4-0.2-0.9-0.3-1.3c2.4,2.6,5,4.6,7.9,6.3c1,0.6,2,0.8,3.2,0.4c0.2,0,0.3-0.1,0.5-0.2c0.7-0.3,1.9-1,2.4-2.8
				c0.9-3.2,1.3-6.5,1.2-10c0.2,0.4,0.5,0.7,0.7,1.1c4.6,6.8,9.7,11.4,15.8,14.2c0.4,0.2,1.4,0.4,1.9,0.4c0.3,0,0.7-0.1,1.1-0.2
				c0.1,0,0.2-0.1,0.4-0.1c0.1,0,0.1-0.1,0.2-0.1c0,0,0.1,0,0.1-0.1l0.1,0c0.6-0.3,1.8-1.2,2.1-3c0.5-2.7,0.7-5.4,0.5-8.2
				c1,1.4,2,2.8,3.1,4.2c5.1,6.4,10.6,10.7,16.9,13c0.4,0.1,1.1,0.3,1.5,0.3c0.4,0,0.9-0.1,1.3-0.2c0,0,0.1,0,0.1,0
				c0.1-0.1,0.3-0.1,0.4-0.2c0.1-0.1,0.3-0.1,0.4-0.2c0.6-0.4,1.5-1.3,1.7-3c0.3-2.3,0.3-4.5,0-6.8c1.5,2,3.1,3.9,4.8,5.8
				c5.8,6.4,11.9,10.4,18.6,12.3c0.2,0,0.3,0.1,0.5,0.1c1,0.2,1.7,0,2.4-0.2c0.1,0,0.2-0.1,0.3-0.2c0.1-0.1,0.3-0.2,0.4-0.2
				c0.1-0.1,0.2-0.2,0.3-0.3c0.6-0.6,1.3-1.5,1.4-3.1c0.1-2.5-0.1-5-0.6-7.6c2.1,2.5,4.3,4.9,6.8,7.3c6.7,6.4,13.5,10.3,20.8,11.8
				c0.1,0,0.2,0,0.4,0.1c1.1,0.1,1.7,0,2.4-0.4c0.3-0.1,0.5-0.3,0.8-0.4c0.1-0.1,0.2-0.2,0.3-0.3c0,0,0.1-0.1,0.1-0.1
				c0.5-0.6,1.2-1.6,1.1-3.2c-0.2-3.4-0.8-6.8-1.9-10.2c4.5,4.9,9.3,9.8,15.1,13.9c8.9,6.3,18.2,9.3,28.4,9.3c1.3,0,2.6-0.1,4-0.2
				c1.3-0.1,2.4-0.6,3.2-1.3c0.1-0.1,0.2-0.2,0.3-0.3c0.5-0.5,1-1.4,1.3-2.7c0-0.2,0.1-0.4,0.1-0.6c0.9-11.7-2.1-22.3-9.1-32.3
				c-4.1-5.8-8.9-10.6-13.8-15.1c3.4,1.1,6.7,1.7,10.1,1.8c0.9,0.1,1.8-0.2,2.3-0.5c1.1-0.5,1.8-1.5,2-2.7c0.1-0.6,0.2-1.2,0-2
				c-1.5-7.3-5.4-14.1-11.8-20.9c-2.3-2.4-4.8-4.7-7.3-6.8c2.2,0.4,4.4,0.6,6.6,0.6l0.9,0c1.8,0,2.8-1,3.3-1.5
				c0.1-0.1,0.1-0.2,0.2-0.2c0.4-0.6,1-1.8,0.5-3.6c-1.9-6.7-6-12.8-12.3-18.6c-1.9-1.7-3.8-3.3-5.8-4.8c2.3,0.2,4.6,0.2,6.9,0
				c1.5-0.2,2.4-1,2.9-1.6c0.2-0.3,0.4-0.6,0.5-1c0.3-0.7,0.4-1.7,0-3.1c-2.3-6.2-6.6-11.7-13-16.8c-1.4-1.1-2.8-2.1-4.2-3.1
				c2.8,0.2,5.5,0,8.2-0.5c0.1,0,0.1,0,0.2-0.1c1.7-0.4,2.5-1.5,2.8-2.1c0-0.1,0.1-0.2,0.1-0.3c0.3-0.7,0.5-1.9-0.2-3.3
				c-2.8-6.1-7.4-11.2-14.2-15.8c-0.4-0.2-0.7-0.5-1.1-0.7c3.5,0.1,6.8-0.3,9.9-1.1c0,0,0.1,0,0.1,0c1.8-0.5,2.5-1.7,2.8-2.4l0-0.1
				c0.3-0.7,0.5-2-0.3-3.4c0,0,0-0.1,0-0.1c-1.6-2.9-3.7-5.5-6.2-7.9c0.4,0.1,0.9,0.2,1.3,0.3c8,1.6,15,1.2,21.2-1.1
				c1.5-0.5,2.2-1.6,2.5-2.3c0.1-0.2,0.1-0.3,0.2-0.5c0.2-0.7,0.3-2-0.7-3.4c-1.5-2.2-3.3-4.3-5.4-6.1c1.7,0.3,3.4,0.6,5.2,0.8
				c8.2,1,15,0.1,21.1-2.7c0,0,0.1,0,0.1,0c1.5-0.7,2-1.8,2.3-2.5c0-0.1,0.1-0.3,0.1-0.4c0.1-0.7,0.2-2-0.8-3.4l-0.1-0.1v0
				c-1.4-1.8-3-3.4-4.8-4.9c2.4,0.4,4.9,0.6,7.5,0.7c0.9,0,1.8,0.1,2.6,0.1c7.5,0,13.7-1.5,19.2-4.5c0,0,0,0,0.1,0
				c1.4-0.8,1.9-1.9,2.1-2.7c0.1-0.2,0.1-0.5,0.1-0.7c0-0.7-0.1-1.9-1.1-3c0-0.1-0.1-0.1-0.1-0.2c-1.7-1.8-3.7-3.5-5.8-4.9
				c2.7,0.2,5.4,0.4,8.1,0.4c0.5,0,1.2,0,1.8,0c9.3-0.2,16.8-2.3,23.1-6.4c1-0.6,1.5-1.4,1.8-2.2c0.1-0.4,0.2-0.7,0.3-1.1
				c0-0.9-0.2-2.1-1.5-3.4c-2.5-2.3-5.3-4.2-8.5-5.9c2.3,0.1,4.7,0.2,7,0.2c4.9,0,9.3-0.4,13.5-1.1c12.1-2.1,21.7-7.5,29.3-16.4
				c0.9-1,1.3-2.1,1.4-3.4c0-0.1,0-0.2,0-0.3c0-1.1-0.4-2.2-1.2-3.2c0-0.1-0.1-0.1-0.2-0.2c-7.7-8.9-17.3-14.3-29.3-16.4
				c-6.1-1.1-13.2-1.2-20.4-0.9c3.1-1.6,5.9-3.6,8.5-5.9c1.3-1.2,1.5-2.6,1.5-3.1c0-0.3,0-0.6-0.1-0.9c-0.2-0.8-0.6-1.8-1.9-2.7
				c-6.3-4.1-13.8-6.2-23.1-6.4c-3.4-0.1-6.7,0.1-9.9,0.4c2.1-1.4,4-3,5.7-4.8c0,0,0.1-0.1,0.1-0.1c1.1-1.2,1.3-2.4,1.2-3.2
				c0-0.2,0-0.4-0.1-0.6c-0.2-0.7-0.7-1.9-2.2-2.8c-6.1-3.4-13.2-4.8-21.9-4.4c-2.6,0.1-5,0.4-7.5,0.7c1.8-1.5,3.4-3.1,4.8-4.9
				c0-0.1,0.1-0.1,0.1-0.2c0.2-0.2,0.3-0.4,0.4-0.7c0-0.1,0.1-0.1,0.1-0.2c0.5-0.9,0.6-1.7,0.2-2.6c0-0.1-0.1-0.3-0.1-0.4
				c-0.3-0.7-0.9-1.7-2.2-2.3c-6.1-2.8-12.9-3.7-21.1-2.7c-1.8,0.2-3.5,0.5-5.2,0.8c2.1-1.9,3.9-3.9,5.4-6.1c0,0,0-0.1,0.1-0.1
				c0.9-1.5,0.8-2.8,0.6-3.4c0-0.1-0.1-0.2-0.1-0.4c-0.3-0.8-1-1.7-2.5-2.4c-6.2-2.3-13.3-2.7-21.2-1.1c-0.4,0.1-0.9,0.2-1.3,0.3
				c2.6-2.4,4.6-5,6.3-7.9c0.9-1.6,0.6-3,0.3-3.7c0-0.1,0-0.1-0.1-0.2c-0.3-0.7-1.1-1.8-2.8-2.2c-3.2-0.9-6.5-1.3-10-1.2
				c0.4-0.2,0.8-0.5,1.2-0.8c6.8-4.6,11.4-9.7,14.2-15.8c0.6-1.3,0.5-2.3,0.2-3c-0.1-0.3-0.2-0.5-0.3-0.8c0,0,0,0,0-0.1
				c-0.4-0.7-1.2-1.6-2.8-1.9l-0.1,0c-2.6-0.5-5.4-0.7-8.1-0.5c1.4-1,2.8-2,4.2-3.1c6.4-5.1,10.7-10.6,13-16.8
				c0-0.1,0.1-0.2,0.1-0.2c0.4-1.3,0.2-2.3-0.1-3c-0.1-0.2-0.2-0.4-0.4-0.6c-0.4-0.6-1.3-1.5-2.9-1.7l-0.1,0c-2.2-0.2-4.5-0.3-6.9,0
				c2-1.5,3.9-3.1,5.8-4.8c6.4-5.8,10.4-11.9,12.3-18.6c0.2-0.6,0.2-1.2,0.2-1.7c0-1.4-0.8-2.5-2-3.1c-0.5-0.3-1.2-0.5-2.1-0.6
				l-0.9,0c-2.2,0-4.4,0.2-6.6,0.6c2.5-2.1,4.9-4.3,7.3-6.8c6.4-6.7,10.3-13.5,11.8-20.8c0.4-1.9-0.3-3.1-0.8-3.7v0
				c0,0-0.1-0.1-0.1-0.1c-0.1-0.1-0.2-0.2-0.2-0.2c-0.5-0.5-1.5-1.1-3.2-1.1h0c-3.4,0.2-6.7,0.8-10.1,1.8c4.9-4.4,9.7-9.2,13.8-15
				c7-10,10-20.6,9.2-32.1c0-0.2,0-0.3,0-0.5c-0.1-1.3-0.6-2.4-1.5-3.2c0,0,0,0-0.1-0.1l-0.1-0.1c-0.6-0.6-1.7-1.2-3.3-1.4
				c0,0,0,0-0.1,0c-11.6-0.9-22.3,2.1-32.3,9.1c-5.8,4.1-10.7,8.9-15.1,13.9c1.1-3.4,1.7-6.8,1.9-10.2c0.1-1.5-0.5-2.6-1.1-3.1
				c0,0,0,0,0,0c-0.1-0.1-0.2-0.2-0.4-0.3c-0.7-0.6-1.6-0.9-2.6-0.9c-0.2,0-0.8,0.1-1,0.1c-7.3,1.6-14.1,5.4-20.9,11.8
				c-2.4,2.3-4.7,4.8-6.8,7.3c0.5-2.6,0.7-5.1,0.6-7.6c-0.1-1.7-0.9-2.7-1.2-2.9c-0.1-0.1-0.3-0.2-0.4-0.3l-0.1-0.1
				c-0.7-0.5-1.5-0.7-2.3-0.7c-0.3,0-1,0.1-1.3,0.2c-6.7,1.9-12.8,6-18.6,12.3c-1.7,1.9-3.3,3.8-4.8,5.8c0.2-2.3,0.2-4.6,0-6.9
				c-0.2-1.8-1.3-2.7-1.9-3.1c-0.1-0.1-0.2-0.1-0.3-0.2c-0.5-0.3-1.2-0.4-1.8-0.4c-0.4,0-1.2,0.2-1.6,0.3c-6.2,2.3-11.7,6.6-16.8,13
				c-1.1,1.4-2.1,2.8-3.1,4.2c0.2-2.8,0-5.5-0.5-8.2c-0.3-1.7-1.3-2.5-2-2.9c-0.1,0-0.1-0.1-0.2-0.1c0,0,0,0-0.1,0
				c-0.2-0.1-0.4-0.2-0.6-0.2c-1-0.3-1.9-0.2-2.8,0.2c-0.1,0-0.1,0.1-0.2,0.1c-6,2.8-11.2,7.4-15.8,14.2c-0.2,0.4-0.5,0.7-0.7,1.1
				c0.1-3.5-0.3-6.8-1.2-10c-0.5-1.8-1.7-2.6-2.4-2.8c-0.2-0.1-0.4-0.1-0.6-0.2c-1.1-0.3-2.1-0.1-2.9,0.4c-0.1,0-0.1,0.1-0.2,0.1
				c-2.9,1.6-5.5,3.7-7.9,6.2l-161.8,0c-2.4-2.6-5.1-4.7-8-6.3c-0.9-0.5-1.8-0.7-2.9-0.4c-0.2,0-0.5,0.1-0.7,0.2
				c-0.7,0.3-1.9,1-2.3,2.8c-0.9,3.2-1.3,6.5-1.2,10c-0.2-0.4-0.5-0.7-0.7-1.1c-4.6-6.8-9.7-11.4-15.8-14.2c-0.1,0-0.1,0-0.2-0.1
				c-0.9-0.4-1.8-0.5-2.8-0.2c-0.3,0.1-0.5,0.2-0.8,0.3c-0.7,0.4-1.7,1.2-2,2.9c-0.5,2.7-0.7,5.4-0.5,8.2c-1-1.4-2-2.8-3.1-4.2
				c-5.1-6.4-10.6-10.7-16.9-13c-0.8-0.3-1.6-0.4-2.6-0.1c-0.5,0.1-0.9,0.3-1.3,0.6c-0.6,0.4-1.5,1.3-1.7,3c-0.2,2.3-0.3,4.5,0,6.8
				c-1.5-2-3.1-3.9-4.8-5.8c-5.8-6.4-11.9-10.4-18.6-12.3c-0.9-0.2-1.8-0.2-2.8,0.1c-0.2,0.1-0.3,0.1-0.5,0.2
				c-0.1,0.1-0.2,0.1-0.3,0.2c-0.1,0.1-0.2,0.1-0.2,0.2v0c-0.5,0.4-1.5,1.4-1.5,3.3c-0.1,2.5,0.1,5,0.6,7.5
				c-2.1-2.5-4.3-4.9-6.8-7.3c-6.7-6.4-13.5-10.3-20.8-11.8c-0.9-0.2-1.9-0.1-2.9,0.3c0,0-0.1,0-0.1,0.1v0c-0.2,0.1-0.4,0.3-0.6,0.4
				c0,0,0,0-0.1,0c-0.1,0.1-0.1,0.1-0.2,0.2c-0.5,0.5-1.3,1.6-1.3,3.4c0.2,3.4,0.8,6.8,1.9,10.1c-4.5-4.9-9.3-9.8-15.1-13.8
				C276,805.1,267.1,802,256.9,802L256.9,802z"/>
			<g id="g3941" transform="matrix(0.11435837,0,0,0.11435837,232.96839,570.60574)">
				<path id="path3625" inkscape:connector-curvature="0" class="st1" d="M5477.1,4261c0,0,0-0.1,0-0.1c0-3.4-1.5-6.9-4.7-10.7
					c0-0.1-0.1-0.1-0.1-0.2l0,0c0,0,0,0,0,0c-59.7-69.5-136.6-115.5-238.8-133.3c-97.5-17-190.7-5.5-285.5,0l-2423.2,140.7
					l-124.6,0.3v3.3L5477.1,4261C5477.1,4261,5477.1,4261,5477.1,4261L5477.1,4261z"/>
				<path id="path3631" inkscape:connector-curvature="0" class="st1" d="M-749.5,4261.5h3076.9v3.3l-124.6,0.3l-2423.2,140.8
					c-94.8,5.5-188,17-285.5,0c-102.1-17.8-179.1-63.8-238.8-133.3c0,0,0,0,0,0c0,0,0,0,0-0.1c-3.2-3.8-4.7-7.3-4.7-10.8
					C-749.5,4261.6-749.5,4261.5-749.5,4261.5L-749.5,4261.5z"/>
				<path id="path3633" inkscape:connector-curvature="0" class="st1" d="M2364.2,7374.7c0,0,0.1,0,0.1,0c3.4,0,6.9-1.5,10.7-4.7
					c0.1,0,0.1-0.1,0.2-0.1l0,0c0,0,0,0,0,0c69.5-59.7,115.5-136.6,133.3-238.8c17-97.5,5.5-190.7,0-285.5l-140.7-2423.2l-0.3-124.6
					h-3.3L2364.2,7374.7C2364.1,7374.7,2364.1,7374.7,2364.2,7374.7L2364.2,7374.7z"/>
				<path id="path3637" inkscape:connector-curvature="0" class="st1" d="M4565.2,2059.8C4565.2,2059.8,4565.1,2059.8,4565.2,2059.8
					c-2.5-2.5-6-3.9-11-4.3c-0.1,0-0.1,0-0.2,0v0c0,0,0,0,0,0c-91.3-6.9-178.3,15-263.1,74.6c-81,56.9-138.7,130.9-201.9,201.9
					l-1613.9,1813l-87.9,88.4l2.3,2.3L4565.2,2059.8C4565.2,2059.9,4565.2,2059.9,4565.2,2059.8L4565.2,2059.8z"/>
				<path id="path3641" inkscape:connector-curvature="0" class="st1" d="M4565.5,6462.5C4565.5,6462.5,4565.6,6462.5,4565.5,6462.5
					c2.5-2.5,3.9-6,4.3-11c0-0.1,0-0.1,0-0.2l0,0c0,0,0,0,0,0c6.9-91.3-15-178.3-74.6-263.1c-56.9-81-130.9-138.7-201.9-201.9
					l-1813-1613.9l-88.4-87.9l-2.3,2.3L4565.5,6462.5C4565.5,6462.6,4565.5,6462.6,4565.5,6462.5L4565.5,6462.5z"/>
				<path id="path3647" inkscape:connector-curvature="0" class="st1" d="M162.3,2060l2175.7,2175.7l-2.3,2.3l-88.4-87.9
					l-1813-1613.9c-70.9-63.2-144.9-120.9-201.9-201.9c-59.6-84.8-81.5-171.8-74.6-263.1c0,0,0,0,0,0c0,0,0-0.1,0-0.1
					c0.4-5,1.9-8.5,4.3-11C162.2,2060.1,162.2,2060,162.3,2060L162.3,2060z"/>
				<path id="path3649" inkscape:connector-curvature="0" class="st1" d="M162.6,6463C162.6,6463.1,162.7,6463.1,162.6,6463
					c2.5,2.5,6,3.9,11,4.3c0.1,0,0.1,0,0.2,0h0c0,0,0,0,0,0c91.3,6.9,178.3-15,263.1-74.6c81-56.9,138.7-130.9,201.9-201.9
					l1613.9-1813l87.9-88.4l-2.3-2.3L162.6,6463C162.6,6463,162.6,6463,162.6,6463L162.6,6463z"/>
				<path id="path3655" inkscape:connector-curvature="0" class="st1" d="M439.1,3466.2l1890.3,783l-0.6,1.4l-76.6-31.6
					L739.5,3660.3c-59.2-21.9-118.4-40.8-175.4-72.6c-59.7-33.3-99.1-71.9-123.9-115.7c0,0,0,0,0,0c0,0,0,0,0,0
					C438.8,3469.5,438.5,3467.7,439.1,3466.2C439.1,3466.2,439.1,3466.2,439.1,3466.2L439.1,3466.2z"/>
				<path id="path3659" inkscape:connector-curvature="0" class="st1" d="M4287.8,5058.2l-1890.3-783l0.6-1.4l76.6,31.6
					l1512.7,558.6c59.2,21.9,118.4,40.8,175.4,72.6c59.7,33.3,99.1,71.9,123.9,115.7c0,0,0,0,0,0c0,0,0,0,0,0
					C4288.1,5054.9,4288.4,5056.7,4287.8,5058.2C4287.8,5058.2,4287.8,5058.2,4287.8,5058.2L4287.8,5058.2z"/>
				<path id="path3663" inkscape:connector-curvature="0" class="st1" d="M3160.7,2337.4l-783,1890.3l-1.4-0.6l31.6-76.6
					l558.6-1512.7c21.9-59.2,40.8-118.4,72.6-175.4c33.3-59.7,71.9-99.1,115.7-123.9c0,0,0,0,0,0c0,0,0,0,0,0
					C3157.3,2337.1,3159.2,2336.8,3160.7,2337.4C3160.6,2337.4,3160.6,2337.4,3160.7,2337.4L3160.7,2337.4z"/>
				<path id="path3665" inkscape:connector-curvature="0" class="st1" d="M1567,6185.3C1567,6185.3,1567,6185.3,1567,6185.3
					c1.5,0.6,3.3,0.3,5.6-1c0,0,0.1,0,0.1,0h0c0,0,0,0,0,0c43.8-24.8,82.3-64.2,115.7-123.9c31.8-57,50.8-116.2,72.6-175.4
					l558.6-1512.7l31.6-76.6l-1.4-0.6L1567,6185.3C1566.9,6185.3,1567,6185.3,1567,6185.3L1567,6185.3z"/>
				<path id="path3671" inkscape:connector-curvature="0" class="st1" d="M439.9,5058.3l1890.3-783l0.6,1.4l-76.5,31.8L789.6,4983.2
					c-57.3,26.4-112.6,54.8-175.4,72.6c-65.8,18.6-120.9,19.3-169.4,5.8c0,0,0,0,0,0c0,0,0,0,0,0
					C442,5060.9,440.5,5059.8,439.9,5058.3C439.9,5058.4,439.9,5058.4,439.9,5058.3z"/>
				<path id="path3675" inkscape:connector-curvature="0" class="st1" d="M4287.7,3464.4l-1890.3,783l-0.6-1.4l76.5-31.8
					l1464.7-674.6c57.3-26.4,112.6-54.8,175.4-72.6c65.8-18.6,120.9-19.3,169.4-5.8c0,0,0,0,0,0c0,0,0,0,0,0
					C4285.6,3461.8,4287.1,3462.9,4287.7,3464.4C4287.7,3464.3,4287.7,3464.3,4287.7,3464.4L4287.7,3464.4z"/>
				<path id="path3679" inkscape:connector-curvature="0" class="st1" d="M1566.8,2337.4l783,1890.3l-1.4,0.6l-31.8-76.5
					L1642,2687.1c-26.4-57.3-54.8-112.6-72.6-175.4c-18.6-65.8-19.3-120.9-5.8-169.4c0,0,0,0,0,0c0,0,0,0,0,0
					C1564.2,2339.6,1565.3,2338.1,1566.8,2337.4C1566.8,2337.4,1566.8,2337.4,1566.8,2337.4z"/>
				<path id="path3683" inkscape:connector-curvature="0" class="st1" d="M3160.8,6185.3l-783-1890.3l1.4-0.6l31.8,76.5
					l674.6,1464.7c26.4,57.3,54.8,112.6,72.6,175.4c18.6,65.8,19.3,120.9,5.8,169.4c0,0,0,0,0,0c0,0,0,0,0,0
					C3163.4,6183.1,3162.3,6184.6,3160.8,6185.3C3160.8,6185.2,3160.8,6185.3,3160.8,6185.3L3160.8,6185.3z"/>
				<path id="path3687" inkscape:connector-curvature="0" class="st1" d="M416.9,3259.1L2235.3,4197l-0.7,1.3l-73.7-37.9L700,3477.6
					c-57.2-26.7-114.6-50.5-168.7-87c-56.7-38.2-92.8-79.9-113.9-125.6c0,0,0,0,0,0c0,0,0,0,0,0
					C416.3,3262.4,416.2,3260.6,416.9,3259.1C416.9,3259.1,416.9,3259.1,416.9,3259.1L416.9,3259.1z"/>
				<path id="path3691" inkscape:connector-curvature="0" class="st1" d="M365.2,3032l1742,1073.2l-0.8,1.3l-70.6-43.4L631,3271.3
					c-55-31-110.4-59.1-161.6-99.6c-53.7-42.4-86.4-86.7-104-133.9c0,0,0,0,0,0c0,0,0,0,0,0C364.4,3035.2,364.4,3033.4,365.2,3032
					C365.2,3032,365.2,3032,365.2,3032L365.2,3032z"/>
				<path id="path3695" inkscape:connector-curvature="0" class="st1" d="M297.8,2780.4l1763.7,1271.3l-0.9,1.2l-71.5-51.4
					L560.2,3053.2c-55.9-37.1-112.6-71.3-163.6-118c-53.5-48.9-84.6-98-99.1-148.7c0,0,0,0,0,0c0,0,0,0,0,0
					C296.6,2783.7,296.8,2781.8,297.8,2780.4C297.8,2780.5,297.8,2780.5,297.8,2780.4L297.8,2780.4z"/>
				<path id="path3699" inkscape:connector-curvature="0" class="st1" d="M232.5,2499.4L2038.8,4004l-1.1,1.3l-73.3-60.8
					L494.8,2813.4c-57.5-44.3-116-85.4-167.6-139.6c-54-56.8-83.8-112-95.6-167.8c0,0,0,0,0,0c0,0,0,0,0,0
					C231,2502.9,231.3,2500.8,232.5,2499.4C232.4,2499.4,232.5,2499.4,232.5,2499.4L232.5,2499.4z"/>
				<path id="path3701" inkscape:connector-curvature="0" class="st1" d="M4310.9,3259C4310.9,3258.9,4310.9,3258.9,4310.9,3259
					c-0.8-1.4-2.3-2.3-5-2.9c0,0-0.1,0-0.1,0v0c0,0,0,0,0,0c-49.5-9.3-104.4-4.1-168.4,19.9c-61.1,23-113.8,55.9-168.7,87
					l-1403.3,794.4l-73.6,38.1l0.7,1.3L4310.9,3259C4310.9,3259,4310.9,3259,4310.9,3259L4310.9,3259z"/>
				<path id="path3705" inkscape:connector-curvature="0" class="st1" d="M4362.6,3031.8C4362.6,3031.8,4362.6,3031.8,4362.6,3031.8
					c-0.9-1.3-2.5-2.2-5.2-2.5c0,0-0.1,0-0.1,0v0c0,0,0,0,0,0c-50-5.5-104.4,3.8-166.4,32.7c-59.2,27.6-109.2,64.4-161.6,99.6
					l-1339,898.6l-70.5,43.6l0.8,1.3L4362.6,3031.8C4362.6,3031.8,4362.6,3031.8,4362.6,3031.8L4362.6,3031.8z"/>
				<path id="path3709" inkscape:connector-curvature="0" class="st1" d="M4430,2780.3C4430,2780.3,4429.9,2780.3,4430,2780.3
					c-1-1.3-2.8-2-5.7-2.1c0,0-0.1,0-0.1,0v0c0,0,0,0,0,0c-53.9-1.4-111,13.1-174.6,48.6c-60.7,33.9-110.8,76.7-163.6,118
					l-1349.1,1054l-71.4,51.6l0.9,1.2L4430,2780.3C4430,2780.3,4430,2780.3,4430,2780.3L4430,2780.3z"/>
				<path id="path3713" inkscape:connector-curvature="0" class="st1" d="M4495.3,2499.2C4495.3,2499.2,4495.3,2499.2,4495.3,2499.2
					c-1.2-1.3-3.2-2-6.4-1.9c0,0-0.1,0-0.1,0v0c0,0,0,0,0,0c-58.3,2.6-118.8,22.6-184.8,65.7c-62.9,41.2-113.8,91.1-167.6,139.6
					L2760.9,3941.5l-73.1,61.1l1.1,1.3L4495.3,2499.2C4495.3,2499.3,4495.3,2499.2,4495.3,2499.2L4495.3,2499.2z"/>
				<path id="path3719" inkscape:connector-curvature="0" class="st1" d="M4310.7,5263.6l-1818.4-937.9l0.7-1.3l73.7,37.9
					l1460.8,682.8c57.2,26.7,114.6,50.5,168.7,87c56.7,38.2,92.8,79.9,113.9,125.6c0,0,0,0,0,0c0,0,0,0,0,0
					C4311.3,5260.3,4311.4,5262.1,4310.7,5263.6C4310.7,5263.5,4310.7,5263.6,4310.7,5263.6L4310.7,5263.6z"/>
				<path id="path3723" inkscape:connector-curvature="0" class="st1" d="M4362.4,5490.7l-1742-1073.2l0.8-1.3l70.6,43.4
					l1404.8,791.8c55,31,110.4,59.1,161.6,99.6c53.7,42.4,86.4,86.7,104,133.9c0,0,0,0,0,0c0,0,0,0,0,0
					C4363.2,5487.5,4363.2,5489.3,4362.4,5490.7C4362.4,5490.7,4362.4,5490.7,4362.4,5490.7L4362.4,5490.7z"/>
				<path id="path3727" inkscape:connector-curvature="0" class="st1" d="M4429.8,5742.3L2666.1,4471l0.9-1.2l71.5,51.4
					l1428.8,948.3c55.9,37.1,112.6,71.3,163.6,118c53.5,48.9,84.6,98,99.1,148.7v0c0,0,0,0,0,0
					C4430.9,5738.9,4430.8,5740.9,4429.8,5742.3C4429.8,5742.2,4429.8,5742.2,4429.8,5742.3L4429.8,5742.3z"/>
				<path id="path3731" inkscape:connector-curvature="0" class="st1" d="M4495.1,6023.3L2688.8,4518.7l1.1-1.3l73.3,60.8
					l1469.6,1131.1c57.5,44.3,116,85.4,167.6,139.6c54,56.8,83.8,112,95.6,167.8c0,0,0,0,0,0c0,0,0,0,0,0
					C4496.6,6019.8,4496.3,6021.9,4495.1,6023.3C4495.1,6023.3,4495.1,6023.3,4495.1,6023.3L4495.1,6023.3z"/>
				<path id="path3733" inkscape:connector-curvature="0" class="st1" d="M416.7,5263.7C416.7,5263.7,416.7,5263.8,416.7,5263.7
					c0.8,1.4,2.3,2.3,5,2.9c0,0,0.1,0,0.1,0l0,0c0,0,0,0,0,0c49.5,9.3,104.4,4.1,168.4-19.9c61.1-23,113.8-55.9,168.7-87
					l1403.3-794.4l73.6-38.1l-0.7-1.3L416.7,5263.7C416.7,5263.7,416.7,5263.7,416.7,5263.7L416.7,5263.7z"/>
				<path id="path3737" inkscape:connector-curvature="0" class="st1" d="M365,5490.9C365,5490.9,365,5490.9,365,5490.9
					c0.9,1.3,2.5,2.2,5.2,2.5c0,0,0.1,0,0.1,0l0,0c0,0,0,0,0,0c50,5.5,104.4-3.8,166.4-32.7c59.2-27.6,109.2-64.4,161.6-99.6
					l1339-898.6l70.5-43.6l-0.8-1.3L365,5490.9C365,5490.8,365,5490.8,365,5490.9L365,5490.9z"/>
				<path id="path3741" inkscape:connector-curvature="0" class="st1" d="M297.6,5742.4C297.6,5742.4,297.7,5742.4,297.6,5742.4
					c1,1.3,2.8,2,5.7,2.1c0,0,0.1,0,0.1,0l0,0c0,0,0,0,0,0c53.9,1.4,111-13.1,174.6-48.6c60.7-33.9,110.9-76.7,163.6-118
					l1349.1-1054l71.4-51.6l-0.9-1.2L297.6,5742.4C297.6,5742.4,297.6,5742.4,297.6,5742.4L297.6,5742.4z"/>
				<path id="path3745" inkscape:connector-curvature="0" class="st1" d="M232.3,6023.4C232.3,6023.5,232.4,6023.5,232.3,6023.4
					c1.2,1.3,3.2,2,6.4,1.9c0,0,0.1,0,0.1,0l0,0c0,0,0,0,0,0c58.3-2.6,118.8-22.6,184.7-65.7c62.9-41.2,113.8-91.1,167.6-139.6
					l1375.5-1238.8l73.1-61.1l-1.1-1.3L232.3,6023.4C232.3,6023.4,232.3,6023.4,232.3,6023.4L232.3,6023.4z"/>
				<path id="path3765" inkscape:connector-curvature="0" class="st1" d="M4449.4,4929.4C4449.4,4929.4,4449.4,4929.3,4449.4,4929.4
					c0.4-1.5,0-3.3-1.5-5.5c0,0,0-0.1,0-0.1v0c0,0,0,0,0,0c-28.4-41.6-70.9-76.7-133.2-104.9c-59.5-27-120-40.9-180.8-57.8
					l-1554-430.6l-79-25.1l-0.5,1.4L4449.4,4929.4C4449.4,4929.4,4449.4,4929.4,4449.4,4929.4L4449.4,4929.4z"/>
				<path id="path3769" inkscape:connector-curvature="0" class="st1" d="M4646.6,4805.3C4646.6,4805.3,4646.6,4805.3,4646.6,4805.3
					c0.3-1.5-0.2-3.3-1.9-5.4c0,0,0-0.1-0.1-0.1v0c0,0,0,0,0,0c-31.5-39.3-76.5-71.1-140.7-94.5c-61.3-22.4-122.8-31.7-184.7-43.9
					L2737,4350l-80.7-19l-0.3,1.4L4646.6,4805.3C4646.6,4805.3,4646.6,4805.3,4646.6,4805.3L4646.6,4805.3z"/>
				<path id="path3773" inkscape:connector-curvature="0" class="st1" d="M4872.1,4675.1C4872.1,4675.1,4872.1,4675,4872.1,4675.1
					c0.2-1.7-0.6-3.5-2.6-5.6c0,0,0-0.1-0.1-0.1v0c0,0,0,0,0,0c-37.1-39.1-87.8-69.2-157.8-89.1c-66.9-19-132.6-24.1-199.1-32.3
					l-1699.3-208.7l-87-14l-0.2,1.5L4872.1,4675.1C4872.1,4675.1,4872.1,4675.1,4872.1,4675.1L4872.1,4675.1z"/>
				<path id="path3777" inkscape:connector-curvature="0" class="st1" d="M5117,4522.5C5117,4522.5,5117,4522.5,5117,4522.5
					c0.1-1.8-0.9-3.7-3.2-5.8c0,0,0-0.1-0.1-0.1l0,0c0,0,0,0,0,0c-43-39.4-100-68-177.1-84.2c-73.6-15.4-144.9-16-217.2-19.8
					L2870.7,4316l-94.8-8.5l-0.1,1.7L5117,4522.5C5117,4522.6,5117,4522.5,5117,4522.5L5117,4522.5z"/>
				<path id="path3783" inkscape:connector-curvature="0" class="st1" d="M3031.8,6346.7l-622.6-1949l1.4-0.5l25.4,78.9L2986.1,5992
					c21.5,59.3,45.3,116.8,57.8,180.8c13.1,67.1,9.1,122.1-8.3,169.3c0,0,0,0,0,0c0,0,0,0,0,0
					C3034.5,6344.8,3033.3,6346.2,3031.8,6346.7C3031.8,6346.7,3031.8,6346.7,3031.8,6346.7L3031.8,6346.7z"/>
				<path id="path3787" inkscape:connector-curvature="0" class="st1" d="M2907.7,6543.9l-472.9-1990.6l1.4-0.3l19.3,80.6
					L2889,6186.7c17,60.8,36.3,119.9,43.9,184.7c8,67.9-0.2,122.4-21.1,168.2c0,0,0,0,0,0c0,0,0,0,0,0
					C2910.6,6542.2,2909.3,6543.5,2907.7,6543.9C2907.8,6543.8,2907.7,6543.9,2907.7,6543.9L2907.7,6543.9z"/>
				<path id="path3791" inkscape:connector-curvature="0" class="st1" d="M2777.5,6769.4l-348.2-2146l1.5-0.2l14.3,86.9
					l339.8,1680.9c13.3,65.8,29.2,130,32.3,199.1c3.3,72.4-9.5,129.1-35.1,175.2c0,0,0,0,0,0c0,0,0,0,0,0
					C2780.7,6767.9,2779.2,6769.1,2777.5,6769.4C2777.6,6769.4,2777.5,6769.4,2777.5,6769.4L2777.5,6769.4z"/>
				<path id="path3795" inkscape:connector-curvature="0" class="st1" d="M2625,7014.3l-213.3-2341.2l1.7-0.1l8.8,94.8l239.4,1839
					c9.4,72,21.7,142.4,19.8,217.2c-2,78.3-20,138.4-51,186.2c0,0,0,0,0,0c0,0,0,0,0,0c-1.7,2.6-3.4,3.8-5.1,4
					C2625,7014.3,2625,7014.3,2625,7014.3L2625,7014.3z"/>
				<path id="path3797" inkscape:connector-curvature="0" class="st1" d="M278.2,3593.3C278.2,3593.3,278.2,3593.3,278.2,3593.3
					c-0.5,1.5,0,3.3,1.5,5.5c0,0,0,0.1,0,0.1l0,0c0,0,0,0,0,0c28.4,41.6,70.9,76.7,133.2,104.9c59.5,27,120,40.9,180.8,57.8
					l1554,430.6l79,25.1l0.5-1.4L278.2,3593.3C278.2,3593.3,278.2,3593.3,278.2,3593.3L278.2,3593.3z"/>
				<path id="path3801" inkscape:connector-curvature="0" class="st1" d="M81,3717.4C81,3717.4,81,3717.4,81,3717.4
					c-0.3,1.5,0.2,3.3,1.9,5.4c0,0,0,0.1,0.1,0.1l0,0c0,0,0,0,0,0c31.5,39.3,76.5,71.1,140.7,94.5c61.3,22.4,122.8,31.7,184.7,43.9
					l1582.2,311.4l80.7,19l0.3-1.4L81,3717.4C81,3717.4,81,3717.4,81,3717.4L81,3717.4z"/>
				<path id="path3805" inkscape:connector-curvature="0" class="st1" d="M-144.5,3847.6C-144.5,3847.6-144.5,3847.6-144.5,3847.6
					c-0.2,1.7,0.6,3.5,2.6,5.6c0,0,0,0.1,0.1,0.1l0,0c0,0,0,0,0,0c37.1,39.1,87.8,69.2,157.8,89.1c66.9,19,132.6,24.1,199.1,32.3
					l1699.3,208.7l87,14l0.2-1.5L-144.5,3847.6C-144.5,3847.6-144.5,3847.6-144.5,3847.6L-144.5,3847.6z"/>
				<path id="path3809" inkscape:connector-curvature="0" class="st1" d="M-389.4,4000.2C-389.4,4000.2-389.4,4000.2-389.4,4000.2
					c-0.1,1.8,0.9,3.7,3.2,5.8c0,0,0,0.1,0.1,0.1l0,0c0,0,0,0,0,0c43,39.4,100,68,177.1,84.2c73.6,15.4,144.9,16,217.2,19.8
					l1848.6,96.6l94.8,8.5l0.1-1.7L-389.4,4000.2C-389.4,4000.1-389.4,4000.1-389.4,4000.2L-389.4,4000.2z"/>
				<path id="path3815" inkscape:connector-curvature="0" class="st1" d="M3366,2314.4l-937.9,1818.4l-1.3-0.7l37.9-73.7
					l682.8-1460.8c26.7-57.2,50.5-114.6,87-168.7c38.2-56.7,79.9-92.8,125.6-113.9c0,0,0,0,0,0c0,0,0,0,0,0
					C3362.7,2313.8,3364.6,2313.7,3366,2314.4C3366,2314.4,3366,2314.4,3366,2314.4L3366,2314.4z"/>
				<path id="path3819" inkscape:connector-curvature="0" class="st1" d="M3593.2,2262.7L2520,4004.7l-1.3-0.8l43.4-70.6
					l791.8-1404.8c31-55,59.1-110.4,99.6-161.6c42.4-53.7,86.7-86.4,133.9-104c0,0,0,0,0,0c0,0,0,0,0,0
					C3589.9,2261.9,3591.8,2261.9,3593.2,2262.7C3593.1,2262.7,3593.2,2262.7,3593.2,2262.7L3593.2,2262.7z"/>
				<path id="path3823" inkscape:connector-curvature="0" class="st1" d="M3844.7,2195.4L2573.4,3959l-1.2-0.9l51.4-71.5
					l948.3-1428.8c37.1-55.9,71.3-112.6,118-163.6c48.9-53.5,98-84.6,148.7-99.1c0,0,0,0,0,0c0,0,0,0,0,0
					C3841.4,2194.2,3843.3,2194.3,3844.7,2195.4C3844.7,2195.3,3844.7,2195.3,3844.7,2195.4L3844.7,2195.4z"/>
				<path id="path3827" inkscape:connector-curvature="0" class="st1" d="M4125.8,2130L2621.1,3936.4l-1.3-1.1l60.8-73.3
					l1131.1-1469.6c44.3-57.5,85.4-116,139.6-167.6c56.8-54,112-83.8,167.8-95.6c0,0,0,0,0,0c0,0,0,0,0,0
					C4122.3,2128.5,4124.4,2128.8,4125.8,2130C4125.7,2130,4125.7,2130,4125.8,2130L4125.8,2130z"/>
				<path id="path3829" inkscape:connector-curvature="0" class="st1" d="M3366.2,6208.5C3366.2,6208.5,3366.2,6208.5,3366.2,6208.5
					c1.4-0.8,2.3-2.3,2.9-5c0,0,0-0.1,0-0.1h0c0,0,0,0,0,0c9.3-49.5,4.1-104.4-19.9-168.4c-23-61.1-55.9-113.8-87-168.7L2467.7,4463
					l-38.1-73.6l-1.3,0.7L3366.2,6208.5C3366.2,6208.5,3366.2,6208.5,3366.2,6208.5L3366.2,6208.5z"/>
				<path id="path3833" inkscape:connector-curvature="0" class="st1" d="M3593.3,6260.1C3593.3,6260.1,3593.3,6260.1,3593.3,6260.1
					c1.3-0.9,2.2-2.5,2.5-5.2c0,0,0-0.1,0-0.1h0c0,0,0,0,0,0c5.5-50-3.8-104.4-32.7-166.4c-27.6-59.2-64.4-109.2-99.6-161.6
					l-898.6-1339l-43.6-70.5l-1.3,0.8L3593.3,6260.1C3593.3,6260.2,3593.3,6260.2,3593.3,6260.1L3593.3,6260.1z"/>
				<path id="path3837" inkscape:connector-curvature="0" class="st1" d="M3844.8,6327.5C3844.9,6327.5,3844.9,6327.5,3844.8,6327.5
					c1.3-1,2-2.8,2.1-5.7c0,0,0-0.1,0-0.1h0c0,0,0,0,0,0c1.4-53.9-13.1-111-48.6-174.6c-33.9-60.7-76.7-110.9-118-163.6
					l-1054-1349.1l-51.6-71.4l-1.2,0.9L3844.8,6327.5C3844.8,6327.5,3844.8,6327.5,3844.8,6327.5L3844.8,6327.5z"/>
				<path id="path3841" inkscape:connector-curvature="0" class="st1" d="M4125.9,6392.8C4125.9,6392.8,4125.9,6392.8,4125.9,6392.8
					c1.3-1.2,2-3.2,1.9-6.4c0,0,0-0.1,0-0.1h0c0,0,0,0,0,0c-2.6-58.3-22.6-118.8-65.7-184.8c-41.2-62.9-91.1-113.8-139.6-167.6
					L2683.6,4658.5l-61.1-73.1l-1.3,1.1L4125.9,6392.8C4125.9,6392.8,4125.9,6392.8,4125.9,6392.8L4125.9,6392.8z"/>
				<path id="path3847" inkscape:connector-curvature="0" class="st1" d="M1361.6,6208.3l937.9-1818.4l1.3,0.7l-37.9,73.7
					L1580,5925.1c-26.7,57.2-50.5,114.6-87,168.7c-38.2,56.7-79.9,92.8-125.6,113.9c0,0,0,0,0,0c0,0,0,0,0,0
					C1364.9,6208.8,1363,6209,1361.6,6208.3C1361.6,6208.3,1361.6,6208.2,1361.6,6208.3L1361.6,6208.3z"/>
				<path id="path3851" inkscape:connector-curvature="0" class="st1" d="M1134.4,6259.9l1073.2-1742l1.3,0.8l-43.4,70.6
					l-791.8,1404.8c-31,55-59.1,110.4-99.6,161.6c-42.4,53.7-86.7,86.4-133.9,104c0,0,0,0,0,0c0,0,0,0,0,0
					C1137.7,6260.8,1135.8,6260.8,1134.4,6259.9C1134.5,6260,1134.5,6259.9,1134.4,6259.9L1134.4,6259.9z"/>
				<path id="path3855" inkscape:connector-curvature="0" class="st1" d="M882.9,6327.3l1271.3-1763.7l1.2,0.9l-51.4,71.5
					l-948.3,1428.8c-37.1,55.9-71.3,112.6-118,163.6c-48.9,53.5-98,84.6-148.7,99.1c0,0,0,0,0,0c0,0,0,0,0,0
					C886.2,6328.5,884.3,6328.3,882.9,6327.3C882.9,6327.3,882.9,6327.3,882.9,6327.3L882.9,6327.3z"/>
				<path id="path3859" inkscape:connector-curvature="0" class="st1" d="M601.8,6392.7l1504.6-1806.3l1.3,1.1l-60.8,73.3
					L915.8,6130.3c-44.3,57.5-85.4,116-139.6,167.6c-56.8,54-112,83.8-167.8,95.6c0,0,0,0,0,0c0,0,0,0,0,0
					C605.3,6394.2,603.3,6393.8,601.8,6392.7C601.9,6392.7,601.9,6392.7,601.8,6392.7L601.8,6392.7z"/>
				<path id="path3861" inkscape:connector-curvature="0" class="st1" d="M1361.4,2314.2C1361.4,2314.2,1361.4,2314.2,1361.4,2314.2
					c-1.4,0.8-2.3,2.3-2.9,5c0,0,0,0.1,0,0.1l0,0c0,0,0,0,0,0c-9.3,49.5-4.1,104.4,19.9,168.4c23,61.1,55.9,113.8,87,168.7
					l794.4,1403.3l38.1,73.6l1.3-0.7L1361.4,2314.2C1361.4,2314.2,1361.4,2314.2,1361.4,2314.2z"/>
				<path id="path3865" inkscape:connector-curvature="0" class="st1" d="M1134.3,2262.5C1134.3,2262.6,1134.3,2262.6,1134.3,2262.5
					c-1.3,0.9-2.2,2.5-2.5,5.2c0,0,0,0.1,0,0.1l0,0c0,0,0,0,0,0c-5.5,50,3.8,104.4,32.7,166.4c27.6,59.2,64.4,109.2,99.6,161.6
					l898.6,1339l43.6,70.5l1.3-0.8L1134.3,2262.5C1134.3,2262.5,1134.3,2262.5,1134.3,2262.5L1134.3,2262.5z"/>
				<path id="path3869" inkscape:connector-curvature="0" class="st1" d="M882.8,2195.2C882.7,2195.2,882.7,2195.2,882.8,2195.2
					c-1.3,1-2,2.8-2.1,5.7c0,0,0,0.1,0,0.1l0,0c0,0,0,0,0,0c-1.4,53.9,13.1,111,48.6,174.6c33.9,60.7,76.7,110.9,118,163.6
					l1054,1349.1l51.6,71.4l1.2-0.9L882.8,2195.2C882.8,2195.2,882.8,2195.2,882.8,2195.2L882.8,2195.2z"/>
				<path id="path3873" inkscape:connector-curvature="0" class="st1" d="M601.7,2129.9C601.7,2129.9,601.7,2129.9,601.7,2129.9
					c-1.3,1.2-2,3.2-1.9,6.4c0,0,0,0.1,0,0.1l0,0c0,0,0,0,0,0c2.6,58.3,22.6,118.8,65.7,184.8c41.2,62.9,91.1,113.8,139.6,167.6
					L2044,3864.2l61.1,73.1l1.3-1.1L601.7,2129.9C601.7,2129.8,601.7,2129.9,601.7,2129.9L601.7,2129.9z"/>
				<path id="path3879" inkscape:connector-curvature="0" class="st1" d="M4449.2,3593.4l-1949,622.6l-0.5-1.4l78.9-25.4
					l1515.8-550.1c59.3-21.5,116.8-45.3,180.8-57.8c67.1-13.1,122.1-9.1,169.3,8.3c0,0,0,0,0,0c0,0,0,0,0,0
					C4447.3,3590.6,4448.7,3591.8,4449.2,3593.4C4449.2,3593.3,4449.2,3593.3,4449.2,3593.4L4449.2,3593.4z"/>
				<path id="path3883" inkscape:connector-curvature="0" class="st1" d="M4646.3,3717.4l-1990.6,472.9l-0.3-1.4l80.6-19.3
					l1553.2-433.5c60.8-17,119.9-36.3,184.7-43.9c67.9-8,122.4,0.2,168.2,21.1c0,0,0,0,0,0c0,0,0,0,0,0
					C4644.6,3714.5,4645.9,3715.8,4646.3,3717.4C4646.3,3717.4,4646.3,3717.4,4646.3,3717.4L4646.3,3717.4z"/>
				<path id="path3887" inkscape:connector-curvature="0" class="st1" d="M4871.8,3847.6l-2146,348.2l-0.2-1.5l86.9-14.3
					l1680.9-339.8c65.8-13.3,130-29.2,199.1-32.3c72.4-3.3,129.1,9.5,175.2,35.1c0,0,0,0,0,0c0,0,0,0,0,0
					C4870.3,3844.5,4871.6,3845.9,4871.8,3847.6C4871.8,3847.6,4871.8,3847.6,4871.8,3847.6L4871.8,3847.6z"/>
				<path id="path3891" inkscape:connector-curvature="0" class="st1" d="M5116.8,4000.2l-2341.2,213.3l-0.1-1.7l94.8-8.8
					l1839-239.4c72-9.4,142.4-21.7,217.2-19.8c78.3,2,138.4,20,186.2,51c0,0,0,0,0,0c0,0,0,0,0,0c2.6,1.7,3.8,3.4,4,5.1
					C5116.8,4000.1,5116.8,4000.1,5116.8,4000.2L5116.8,4000.2z"/>
				<path id="path3893" inkscape:connector-curvature="0" class="st1" d="M1695.8,6347C1695.8,6347,1695.8,6347,1695.8,6347
					c1.5,0.4,3.3,0,5.5-1.5c0,0,0.1,0,0.1,0h0c0,0,0,0,0,0c41.6-28.4,76.7-70.9,104.9-133.2c27-59.5,40.9-120,57.8-180.8l430.6-1554
					l25.1-79l-1.4-0.5L1695.8,6347C1695.7,6347,1695.8,6347,1695.8,6347L1695.8,6347z"/>
				<path id="path3897" inkscape:connector-curvature="0" class="st1" d="M1819.8,6544.1C1819.9,6544.1,1819.9,6544.1,1819.8,6544.1
					c1.5,0.3,3.3-0.2,5.4-1.9c0,0,0.1,0,0.1-0.1h0c0,0,0,0,0,0c39.3-31.5,71.1-76.5,94.5-140.7c22.4-61.3,31.7-122.8,43.9-184.7
					l311.4-1582.2l19-80.7l-1.4-0.3L1819.8,6544.1C1819.8,6544.1,1819.8,6544.1,1819.8,6544.1L1819.8,6544.1z"/>
				<path id="path3901" inkscape:connector-curvature="0" class="st1" d="M1950.1,6769.6C1950.1,6769.6,1950.1,6769.6,1950.1,6769.6
					c1.7,0.2,3.5-0.6,5.6-2.6c0,0,0.1,0,0.1-0.1h0c0,0,0,0,0,0c39.1-37.1,69.2-87.8,89.1-157.8c19-66.9,24.1-132.6,32.3-199.1
					l208.7-1699.3l14-87l-1.5-0.2L1950.1,6769.6C1950,6769.6,1950,6769.6,1950.1,6769.6L1950.1,6769.6z"/>
				<path id="path3905" inkscape:connector-curvature="0" class="st1" d="M2102.6,7014.5C2102.6,7014.5,2102.7,7014.5,2102.6,7014.5
					c1.8,0.1,3.7-0.9,5.8-3.2c0,0,0.1,0,0.1-0.1h0c0,0,0,0,0,0c39.4-43,68-100,84.2-177.1c15.4-73.6,16-144.9,19.8-217.2
					l96.6-1848.6l8.5-94.8l-1.7-0.1L2102.6,7014.5C2102.6,7014.5,2102.6,7014.5,2102.6,7014.5L2102.6,7014.5z"/>
				<path id="path3911" inkscape:connector-curvature="0" class="st1" d="M278.4,4929.3l1949-622.6l0.5,1.4l-78.9,25.4L633.1,4883.6
					c-59.3,21.5-116.8,45.3-180.8,57.8c-67.1,13.1-122.1,9.1-169.3-8.3c0,0,0,0,0,0c0,0,0,0,0,0
					C280.4,4932.1,278.9,4930.9,278.4,4929.3C278.4,4929.4,278.4,4929.4,278.4,4929.3L278.4,4929.3z"/>
				<path id="path3915" inkscape:connector-curvature="0" class="st1" d="M81.3,4805.3l1990.6-472.9l0.3,1.4l-80.6,19.3
					L438.4,4786.6c-60.8,17-119.9,36.3-184.7,43.9c-67.9,8-122.4-0.2-168.2-21.1c0,0,0,0,0,0c0,0,0,0,0,0
					C83,4808.1,81.7,4806.8,81.3,4805.3C81.3,4805.3,81.3,4805.3,81.3,4805.3L81.3,4805.3z"/>
				<path id="path3919" inkscape:connector-curvature="0" class="st1" d="M-144.2,4675.1l2146-348.2l0.2,1.5l-86.9,14.3
					L234.2,4682.4c-65.8,13.3-130,29.2-199.1,32.3c-72.4,3.3-129.1-9.5-175.2-35.1c0,0,0,0,0,0c0,0,0,0,0,0
					C-142.7,4678.2-144,4676.7-144.2,4675.1C-144.2,4675.1-144.2,4675.1-144.2,4675.1L-144.2,4675.1z"/>
				<path id="path3923" inkscape:connector-curvature="0" class="st1" d="M-389.2,4522.5L1952,4309.2l0.1,1.7l-94.8,8.8L18.4,4559
					c-72,9.4-142.4,21.7-217.2,19.8c-78.3-2-138.4-20-186.2-51c0,0,0,0,0,0c0,0,0,0,0,0c-2.6-1.7-3.8-3.4-4-5.1
					C-389.2,4522.6-389.2,4522.5-389.2,4522.5L-389.2,4522.5z"/>
			</g>
			<g id="g3951" transform="translate(0,273.08535)">
			</g>
		</g>
		<g id="g618" transform="translate(-527.07668,20.224629)">
			
				<path id="path528" inkscape:connector-curvature="0" sodipodi:nodetypes="ccccccccccccccccccccccccccccccccccccccsscc" class="st2" d="
				M725.8,260.5c-9,5.8-19.9,9-36.5,4.5c-31,11.2-52.4,3.7-66-18.9c-22-12.9-34.2-30.2-27.2-55.3c4,8.8,13,19.7,23.4,23.9
				c-2.5-3.5-3.8-9.4-0.3-15c-11.7-17.8-16.6-36.2-3.6-55.8c1.3,7.5,5.4,15.8,13.2,19.3c-1.6-5.3-1.8-17.5,3.6-26.6
				c-1.1-5.6-5.5-8-10.9-9.3c12-13.5,27.5-11.4,43.3-8.1c4.1-6.5,3.3-15.6,0.4-22.7c5.5-1.1,11.6,2.1,14.6,6.5
				c3.5-7.9,3.6-19.1-5.7-24.8c13.9-2.8,24.8,1.5,32,8.6c2.6-11.8-2.2-22.5-14.3-32c14.7-4.5,28.6-2,41.3,9
				c3.8-15.7,15.3-39.8,39.9-38.7c-11.1,13.1-10.3,23.3-9.4,33.5c12.6-10.8,13.8-27.5,8.6-47.5c20.8,7.1,27.3,21.6,30.2,37.8
				c4-5.1,5.7-14.3,2.5-24.9c15,2.1,31.4,24.2,28.6,47.8c11.4-6.4,18.3-17.7,24.4-29.7c17.1,14,22.6,47.6,8.8,69.4
				c9.7-3.5,19.4-10,25.9-18.5c5.2,10.3,1.9,17.8-1.2,23.5c12.4-9.8,19.2-23.2,23.5-38.3c8.9,7.8,8.5,17,7.2,24.2
				c3.1,0.7,5.8-1.9,8.4-6.3c1.6,17.3-0.2,35.4-11.1,48.5c14.1,7.9,27,0.1,35.6-6.3c-0.4,15.7-7.9,26.6-15.8,37.2
				c5.1,3,9.2,6.7,11.7,11.6c32.8,1.5,33,28.9,25.1,43.3c-1.1-3.9-3.2-6.6-7-7.2c0,12.8-4.8,18.1-10.8,21.3
				c-2.4-2.9-3.5-4.3-6.9-6.2c-7.9,12.6-19.9,21.5-36.8,24.4c-15.3,2.7-29.6-1-43.2-6.5c-11.9-4.8-22.2-2.8-31,7.3L725.8,260.5z"/>
			<path id="path554" inkscape:connector-curvature="0" sodipodi:nodetypes="cc" class="st3" d="M689.4,265
				c10.7-9.3,34.6-15.8,45.2-4.7"/>
			<path id="path556" inkscape:connector-curvature="0" sodipodi:nodetypes="cssc" class="st3" d="M623.3,246.1
				c11,4.6,22.5,10.8,39.9,4.4c12.7-4.7,23.6-11.2,35-12.8c21.6-3.1,31.2,7.9,36.4,22.7"/>
			<path id="path558" inkscape:connector-curvature="0" sodipodi:nodetypes="csssc" class="st3" d="M619.5,214.7
				c7,9.5,17.3,14,33,12.1c14.3-1.7,25.8-8.4,40.8-7.9c12.9,0.4,23.6,6.4,32.9,15.3c7.4,7,12.8,15.6,14.8,26.1"/>
			<path id="path560" inkscape:connector-curvature="0" sodipodi:nodetypes="ccsc" class="st3" d="M619.2,199.6
				c8.8,8.7,19.3,14.6,33.4,13.2c11.3-1.2,20.5-6.2,34-5c14.1,1.3,21.6,9.3,28.3,17.6"/>
			<path id="path562" inkscape:connector-curvature="0" sodipodi:nodetypes="ccsc" class="st3" d="M628.8,163.1
				c2.6,8.3,8,15.5,25.2,17.7c12.1,10.3,27.3,16.7,41.8,24.6c11.4,6.2,14,13.4,19,20"/>
			<path id="path564" inkscape:connector-curvature="0" sodipodi:nodetypes="cc" class="st3" d="M632.5,136.5
				c15.2,5.8,11.8,36.7,21.6,44.3"/>
			<path id="path566" inkscape:connector-curvature="0" sodipodi:nodetypes="csssc" class="st3" d="M691.9,54.8
				c19.1,3.9,29.7,14.9,30.8,32.5c0.8,13.6-7.5,25.5-14.8,37.2c-7.7,12.2-14.4,24.5-16.9,38.1c-3.5,18.9,2.9,36.8,12.9,48.3"/>
			<path id="path568" inkscape:connector-curvature="0" sodipodi:nodetypes="cssc" class="st3" d="M621.5,127.2
				c11.7-2.7,21,1.1,29.6,7c8.9,6.1,13.1,15,16.5,25.5c4.1,12.6,11.4,23.9,25.2,31.3"/>
			<path id="path570" inkscape:connector-curvature="0" sodipodi:nodetypes="cc" class="st3" d="M664.9,119.1
				c14.6,13.2,22.5,35.4,25.2,58.2"/>
			<path id="path572" inkscape:connector-curvature="0" sodipodi:nodetypes="cc" class="st3" d="M679.9,102.9
				c10.9,16.8,11.5,41.9,10.7,62"/>
			<path id="path574" inkscape:connector-curvature="0" sodipodi:nodetypes="cc" class="st3" d="M706.2,86.7
				c8.3,9.4-9.9,45.5-13.1,67.4"/>
			<path id="path576" inkscape:connector-curvature="0" sodipodi:nodetypes="cc" class="st3" d="M674.2,78.1
				c25.1,12.9,27.4,37.5,24.8,53.4"/>
			<path id="path578" inkscape:connector-curvature="0" sodipodi:nodetypes="cssssc" class="st3" d="M772.3,11
				c34.8,37.8-3.8,81-23.3,107.8c-10.8,14.8-24.5,25.2-29.8,41.7c-4.6,14.6,0.8,27.7,10,39.8c6.7,8.8,15,16.3,24,25.7
				c10.9,11.2,13.3,23.7,11.1,35.5"/>
			<path id="path580" inkscape:connector-curvature="0" sodipodi:nodetypes="cssssc" class="st3" d="M763.7,58.5
				c-2.4,15.1-14.4,28.7-27.6,44c-14.9,17.3-27.1,36.8-32.8,60.7c-3.8,15.9,0.1,27.9,5.6,38.1c4.4,8.3,10.2,14.7,20.1,24.1
				c19.4,18.4,21.4,28.3,20.6,36.8"/>
			<path id="path582" inkscape:connector-curvature="0" sodipodi:nodetypes="cc" class="st3" d="M733.2,63.8
				c8.2,10.1,7.5,30.6,2.9,38.7"/>
			<path id="path584" inkscape:connector-curvature="0" sodipodi:nodetypes="cc" class="st3" d="M802.5,48.8
				c3.6,26.1-34.1,42-49.3,64.2"/>
			<path id="path586" inkscape:connector-curvature="0" sodipodi:nodetypes="cssc" class="st3" d="M751.7,115.1
				c-8.4,17.3-17.3,34.1-15.7,56.7c1.2,16.6,8.4,27.5,19.1,35c24.2,16.9,27.8,34.8,25.6,53.6"/>
			<path id="path588" inkscape:connector-curvature="0" sodipodi:nodetypes="cssssc" class="st3" d="M805.1,23.9
				c15.4,18.8,12.5,37.2,0.4,53.2c-12.2,16.2-28.8,29.3-40.5,45.5c-11.2,15.4-12.1,30.5-8.2,45.9c3,12,13.4,22.4,25.6,37.2
				c20.1,24.5,14.7,41,9,55.2"/>
			<path id="path590" inkscape:connector-curvature="0" sodipodi:nodetypes="cc" class="st3" d="M833.7,71.8
				c-6.5,22.6-48.6,30.4-65,46.1"/>
			<path id="path592" inkscape:connector-curvature="0" sodipodi:nodetypes="cssc" class="st3" d="M866.9,111.4
				c-18.7,7.2-37,1.7-57.2,5.5c-15.9,3-30,12.9-36.2,28.9c-10.7,27.7-0.9,45.4,10.5,61.9"/>
			<path id="path594" inkscape:connector-curvature="0" sodipodi:nodetypes="cc" class="st3" d="M858.1,42.1
				c11.3,48.1-23,71-49.4,75.1"/>
			<path id="path596" inkscape:connector-curvature="0" sodipodi:nodetypes="cssssc" class="st3" d="M922.2,102.3
				c-8.5,26.7-26.1,35.7-45.5,37.1c-22.3,1.7-45.4-5-65.9-1.4c-17.2,3-30.8,12.6-29.2,35.5c0.9,13.7,5.8,26.1,15.1,37.4
				c13.8,16.8,11.3,38.4,4.9,51.5"/>
			<path id="path598" inkscape:connector-curvature="0" sodipodi:nodetypes="cc" class="st3" d="M891.6,116.4
				c-7.6,12.3-16.8,19.8-25.9,23.2"/>
			<path id="path600" inkscape:connector-curvature="0" sodipodi:nodetypes="cssssc" class="st3" d="M919.5,144.4
				c-12.5,11.6-26.3,21.2-46.3,22.1c-17.2,0.8-32.2-6.9-48.3-10.7c-11.1-2.6-24.2-2.2-27.1,14.3c-1.8,10.6,4.7,20.7,12.4,30.9
				c21.3,28.1,10.7,44.5,2.9,61.7"/>
			<path id="path602" inkscape:connector-curvature="0" sodipodi:nodetypes="cssc" class="st3" d="M939.4,175.3
				c-15.1,17.3-32.1,18.5-46,16.1c-14.2-2.5-28.2-11-42.1-7.4c-24.5,6.3-25.1,26.7-28.7,44.1"/>
			<path id="path604" inkscape:connector-curvature="0" sodipodi:nodetypes="ccsc" class="st3" d="M951.1,186.9
				c-34.8-0.2-45.3,45.5-75.2,25.6c-9.3-5.2-20-10.3-35.3,0c-9.7,6.6-14.7,17.9-19,29"/>
			<path id="path606" inkscape:connector-curvature="0" sodipodi:nodetypes="csssc" class="st3" d="M969.2,223.1
				c-2.3-19.1-25.8-16.7-41.3-7.9c-16,9.1-30.5,24.5-48.5,18.5c-13.5-4.5-25.8-13.8-41.4-1.3c-9.8,7.8-13.2,19.3-15.8,30.6"/>
			<path id="path608" inkscape:connector-curvature="0" sodipodi:nodetypes="csc" class="st3" d="M951.5,238.2
				c-13-7.1-22.7-3.2-30.6,0.5c-18.7,8.7-35.8,0.6-52.9-9.5"/>
			<path id="path610" inkscape:connector-curvature="0" sodipodi:nodetypes="cc" class="st3" d="M938.3,234.2
				c-15.7,13.7-33.1,14.4-51.9,4.4"/>
			<path id="path612" inkscape:connector-curvature="0" sodipodi:nodetypes="cc" class="st3" d="M831,157.4
				c-15.3,6.6-25,20.3-23.8,39.5"/>
			<path id="path614" inkscape:connector-curvature="0" sodipodi:nodetypes="cc" class="st3" d="M851.9,163.7
				c-26,5.7-36.8,28-35.6,46.3"/>
			<path id="path616" inkscape:connector-curvature="0" sodipodi:nodetypes="cc" class="st3" d="M879.4,187.6
				c-18.4,4.4-31,14.4-41.3,26.9"/>
		</g>
		<path id="path536" inkscape:connector-curvature="0" class="st4" d="M209.4,303.2c1.4,2.7,2,5.7,1.7,8.7c-0.3,3-1.6,5.9-3.5,8.2
			c-1,1.1-2.1,2.1-3.3,2.9c-58,23-96,79-96.1,141.3c0,84,68.1,152,152,152s152-68.1,152-152c-0.1-62.2-38-118-95.7-141.1
			c-1.4-0.8-2.6-1.9-3.7-3.1c-2-2.3-3.2-5.2-3.5-8.2c-0.3-3,0.3-6.1,1.7-8.7L209.4,303.2z"/>
		<path id="path1344" inkscape:connector-curvature="0" class="st5" d="M391.4,464.3c0,72.4-58.7,131.1-131.1,131.1
			s-131.1-58.7-131.1-131.1c0-72.4,58.7-131.1,131.1-131.1C332.7,333.2,391.4,391.9,391.4,464.3z"/>
		<path id="rect1363" inkscape:connector-curvature="0" class="st6" d="M199.1,275.9h122.2c1.1,0,1.9,0.9,1.9,1.9v23.4
			c0,1.1-0.9,1.9-1.9,1.9H199.1c-1.1,0-1.9-0.9-1.9-1.9v-23.4C197.2,276.8,198.1,275.9,199.1,275.9z"/>
	</g>
</g>
<g id="layer1_1_" transform="translate(-122.52669,177.83348)" inkscape:groupmode="layer" inkscape:label="Layer 1">
	<g id="g4574" transform="matrix(2.2402868,0,0,2.2402868,-215.28066,-392.89174)">
		<g id="g3348" transform="matrix(0.43799777,0,0,0.43799777,150.23742,95.101032)">
			<polygon id="polygon3350" class="st7" points="190.7,260.2 141.5,246.7 155.1,295.8 104.9,295.8 118.5,246.7 69.1,260.4 
				69.1,210.1 118.4,223.8 104.8,174.3 155,174.3 141.4,223.6 190.7,210 			"/>
			<path id="path3352" inkscape:connector-curvature="0" class="st1" d="M153.6,175.4l-12.7,46.1l-1,3.7l3.7-1l46-12.7v47.3
				l-45.9-12.7l-3.7-1l1,3.7l12.7,45.9h-47.3l12.7-45.9l1-3.7l-3.7,1l-46.1,12.7v-47.3l46.1,12.7l3.7,1l-1-3.7l-12.8-46.2H153.6
				 M156.4,173.2h-53.1l13.5,49L68,208.7v53.1l48.9-13.5l-13.4,48.6h53.1l-13.4-48.7l48.6,13.4v-53.1L143,222.1L156.4,173.2
				L156.4,173.2L156.4,173.2z"/>
		</g>
		<g id="g4562">
			<g id="g4308" transform="translate(-380.09984,0.06652958)">
				<path id="path4286" inkscape:connector-curvature="0" sodipodi:nodetypes="ccccccccccccccccccc" class="st1" d="M587.2,184.3
					C587.2,184.3,587.2,184.3,587.2,184.3l-9.6,4c0,0-0.1,0-0.1,0.1l-4,9.6c0,0,0,0.1,0,0.1l4,9.6c0,0,0,0.1,0.1,0.1l9.6,4
					c0,0,0.1,0,0.1,0l9.6-4c0,0,0.1,0,0.1-0.1l4-9.6c0,0,0-0.1,0-0.1l-4-9.6c0,0,0-0.1-0.1-0.1L587.2,184.3
					C587.3,184.3,587.2,184.3,587.2,184.3L587.2,184.3z"/>
				<path id="path4294" inkscape:connector-curvature="0" sodipodi:nodetypes="cccccccccccccccccc" class="st8" d="M587.2,185.3
					C587.2,185.3,587.2,185.3,587.2,185.3l-9,3.7c0,0-0.1,0-0.1,0.1l-3.7,8.9c0,0,0,0.1,0,0.1l3.7,8.9c0,0,0,0.1,0.1,0.1l8.9,3.7
					c0,0,0.1,0,0.1,0l8.9-3.7c0,0,0.1,0,0.1-0.1l3.7-8.9c0,0,0-0.1,0-0.1l-3.7-8.9c0,0,0-0.1-0.1-0.1L587.2,185.3
					C587.3,185.3,587.2,185.3,587.2,185.3z"/>
				<path id="path4296" inkscape:connector-curvature="0" sodipodi:nodetypes="cccccccccccccccccc" class="st1" d="M587.2,185.7
					C587.2,185.7,587.2,185.7,587.2,185.7l-8.7,3.6c0,0-0.1,0-0.1,0.1l-3.6,8.6c0,0,0,0.1,0,0.1l3.6,8.6c0,0,0,0.1,0.1,0.1l8.6,3.6
					c0,0,0.1,0,0.1,0l8.6-3.6c0,0,0.1,0,0.1-0.1l3.6-8.6c0,0,0-0.1,0-0.1l-3.6-8.6c0,0,0-0.1-0.1-0.1L587.2,185.7
					C587.3,185.7,587.2,185.7,587.2,185.7z"/>
				<path id="path4298" inkscape:connector-curvature="0" sodipodi:nodetypes="cccccccccccccccccc" class="st8" d="M587.2,186.2
					C587.2,186.2,587.2,186.2,587.2,186.2l-8.3,3.4c0,0-0.1,0-0.1,0.1l-3.4,8.2c0,0,0,0.1,0,0.1l3.4,8.2c0,0,0,0.1,0.1,0.1l8.2,3.4
					c0,0,0.1,0,0.1,0l8.2-3.4c0,0,0.1,0,0.1-0.1l3.4-8.2c0,0,0-0.1,0-0.1l-3.4-8.2c0,0,0-0.1-0.1-0.1L587.2,186.2
					C587.3,186.2,587.2,186.2,587.2,186.2z"/>
			</g>
			<g id="g4336" transform="matrix(1.0181242,0,0,1.0181242,-4.7554254,-2.778822)">
				<g id="g4332" transform="translate(-380.05732,0)">
					<path id="path3369" inkscape:connector-curvature="0" class="st1" d="M583,205.4c-1-0.4-1.6-1.4-1.6-2.5v-14.2h13.5V203
						c0,1.1-0.6,2.1-1.6,2.5l-5.2,2.3L583,205.4L583,205.4z"/>
					<path id="path4316" inkscape:connector-curvature="0" class="st9" d="M581.9,189.3V203c0,0.9,0.5,1.7,1.3,2l5,2.2l5-2.2
						c0.8-0.4,1.3-1.1,1.3-2v-13.6H581.9z"/>
				</g>
				<path id="path7306" inkscape:connector-curvature="0" class="st1" d="M208.1,190c-0.4,0.4-0.6,1-0.6,1.6c0,1.3,0.2,2.6,0.2,4
					c0,1.2-0.3,2.4-0.8,3.5c-0.1,0.3-0.3,0.6-0.5,0.9l-0.5-0.1c-0.4-0.1-0.7-0.5-0.6-0.9c0.1-0.4,0.4-0.6,0.8-0.6l0.2,0l-0.4-3.2
					c-0.1-1.4-0.9-2.7-2-3.5c-0.2-0.1-0.4-0.3-0.6-0.4v11.5h2.7c0.2,1.1,0.8,2,1.6,2.7c0.2,0.1,0.4,0.3,0.5,0.5
					c0.1-0.2,0.3-0.4,0.5-0.5c0.8-0.6,1.4-1.6,1.6-2.7h2.7v-11.5c-0.2,0.1-0.4,0.2-0.6,0.4c-1.1,0.8-1.8,2.1-2,3.5l-0.4,3.2l0.2,0
					c0.4,0,0.7,0.3,0.8,0.6c0.1,0.4-0.2,0.8-0.6,0.9l-0.5,0.1c-0.2-0.3-0.3-0.6-0.5-0.9c-0.4-1.1-0.8-2.3-0.8-3.5
					c0-1.3,0.2-2.6,0.2-4C208.7,190.9,208.5,190.4,208.1,190L208.1,190z M204.1,192.8c0.5,0.6,0.9,1.4,1,2.2l0.3,2.7
					c-0.4,0.2-0.7,0.6-0.8,1h-0.4C204.1,198.7,204.1,192.8,204.1,192.8L204.1,192.8z M212.1,192.8v5.9h-0.4c-0.1-0.4-0.4-0.8-0.8-1
					l0.3-2.7C211.2,194.2,211.6,193.4,212.1,192.8L212.1,192.8z M208.1,198.2c0.2,0.7,0.5,1.4,0.9,2c-0.3,0.1-0.6,0.3-0.9,0.6
					c-0.2-0.3-0.5-0.5-0.9-0.6C207.6,199.5,207.9,198.9,208.1,198.2z M204.1,199.5h0.4c0.1,0.5,0.6,1,1.1,1.1l0.4,0.1
					c-0.1,0.4-0.2,0.8-0.2,1.2h-1.8L204.1,199.5L204.1,199.5z M211.6,199.5h0.4v2.4h-1.8c0-0.4-0.1-0.8-0.2-1.2l0.4-0.1
					C211.1,200.4,211.5,200,211.6,199.5L211.6,199.5z M206.9,200.9c0.5,0.1,0.9,0.5,0.9,1h-1C206.7,201.5,206.8,201.2,206.9,200.9z
					 M209.4,200.9c0.1,0.3,0.1,0.6,0.1,1h-1C208.5,201.4,208.9,200.9,209.4,200.9z M206.8,202.6h0.9v1.7
					C207.3,203.9,207,203.3,206.8,202.6z M208.5,202.6h0.9c-0.1,0.6-0.5,1.2-0.9,1.7V202.6z"/>
			</g>
		</g>
	</g>
</g>
</svg>
