<svg width="128" height="129" viewBox="0 0 128 129" fill="none" xmlns="http://www.w3.org/2000/svg">
<g clip-path="url(#clip0_3587_16348)">
<path d="M2.7318 63.7281C2.7288 74.5666 5.5608 85.1496 10.9458 94.4776L2.2168 126.349L34.8328 117.797C43.854 122.708 53.9615 125.281 64.2328 125.282H64.2598C98.1673 125.282 125.769 97.6901 125.783 63.7766C125.79 47.3431 119.396 31.8901 107.779 20.2641C96.1638 8.63907 80.7163 2.23357 64.2573 2.22607C30.3458 2.22607 2.7463 29.8161 2.7323 63.7281" fill="url(#paint0_linear_3587_16348)"/>
<path d="M0.535 63.708C0.5315 74.9365 3.465 85.898 9.042 95.56L0 128.574L33.7855 119.715C43.0945 124.79 53.5755 127.466 64.2405 127.47H64.268C99.392 127.47 127.985 98.8865 128 63.759C128.006 46.735 121.382 30.7265 109.35 18.684C97.3165 6.643 81.3165 0.007 64.268 0C29.138 0 0.549 28.58 0.535 63.708ZM20.6555 93.896L19.394 91.8935C14.091 83.4615 11.292 73.7175 11.296 63.712C11.307 34.5145 35.069 10.76 64.288 10.76C78.438 10.766 91.736 16.282 101.738 26.29C111.739 36.299 117.243 49.604 117.24 63.755C117.227 92.9525 93.464 116.71 64.268 116.71H64.247C54.7405 116.705 45.417 114.152 37.286 109.327L35.351 108.18L15.302 113.437L20.6555 93.896Z" fill="url(#paint1_linear_3587_16348)"/>
<path d="M48.3398 37.074C47.1468 34.4225 45.8913 34.369 44.7568 34.3225C43.8278 34.2825 42.7658 34.2855 41.7048 34.2855C40.6428 34.2855 38.9173 34.685 37.4588 36.2775C35.9988 37.8715 31.8848 41.7235 31.8848 49.558C31.8848 57.3925 37.5913 64.9645 38.3868 66.028C39.1833 67.0895 49.4033 83.6814 65.5893 90.0644C79.0413 95.3689 81.7788 94.3139 84.6983 94.0479C87.6183 93.7829 94.1203 90.197 95.4468 86.4785C96.7743 82.7605 96.7743 79.5735 96.3763 78.9075C95.9783 78.244 94.9163 77.8454 93.3238 77.0494C91.7313 76.2534 83.9018 72.4005 82.4423 71.869C80.9823 71.338 79.9208 71.073 78.8588 72.6675C77.7968 74.2595 74.7473 77.8455 73.8178 78.9075C72.8893 79.972 71.9598 80.1044 70.3678 79.3079C68.7743 78.5089 63.6458 76.8294 57.5613 71.4049C52.8273 67.1839 49.6313 61.9715 48.7023 60.377C47.7733 58.785 48.6028 57.922 49.4013 57.1285C50.1168 56.415 50.9943 55.269 51.7913 54.3395C52.5853 53.4095 52.8503 52.746 53.3813 51.684C53.9128 50.621 53.6468 49.691 53.2493 48.8945C52.8503 48.098 49.7558 40.2225 48.3398 37.074Z" fill="white"/>
</g>
<defs>
<linearGradient id="paint0_linear_3587_16348" x1="64" y1="126.349" x2="64" y2="2.22607" gradientUnits="userSpaceOnUse">
<stop stop-color="#1FAF38"/>
<stop offset="1" stop-color="#60D669"/>
</linearGradient>
<linearGradient id="paint1_linear_3587_16348" x1="64" y1="128.574" x2="64" y2="0" gradientUnits="userSpaceOnUse">
<stop stop-color="#F9F9F9"/>
<stop offset="1" stop-color="white"/>
</linearGradient>
<clipPath id="clip0_3587_16348">
<rect width="128" height="129" fill="white"/>
</clipPath>
</defs>
</svg>
