<svg width="214" height="34" viewBox="0 0 214 34" fill="none" xmlns="http://www.w3.org/2000/svg">
<path d="M4.64701 14.594C5.68301 14.594 6.50435 14.9393 7.11101 15.63C7.72701 16.3207 8.03501 17.254 8.03501 18.43C8.03501 19.5967 7.73168 20.5207 7.12501 21.202C6.51835 21.874 5.69235 22.21 4.64701 22.21C3.60168 22.21 2.76635 21.8693 2.14101 21.188C1.52501 20.4973 1.21701 19.5687 1.21701 18.402C1.21701 17.2447 1.52501 16.3207 2.14101 15.63C2.76635 14.9393 3.60168 14.594 4.64701 14.594ZM6.46701 16.176C6.00968 15.616 5.39835 15.336 4.63301 15.336C3.86768 15.336 3.25635 15.616 2.79901 16.176C2.34168 16.7267 2.11301 17.4687 2.11301 18.402C2.11301 19.354 2.33701 20.1053 2.78501 20.656C3.24235 21.2067 3.86768 21.482 4.66101 21.482C5.42635 21.482 6.03301 21.2067 6.48101 20.656C6.92901 20.1053 7.15301 19.3587 7.15301 18.416C7.15301 17.4733 6.92435 16.7267 6.46701 16.176ZM14.7842 15.546H12.1102V22H11.2282V15.546H8.55422V14.804H14.7842V15.546ZM16.7349 14.804V16.19C17.2576 15.126 18.1163 14.594 19.3109 14.594C20.2909 14.594 21.0749 14.944 21.6629 15.644C22.2603 16.344 22.5589 17.2727 22.5589 18.43C22.5589 19.5687 22.2649 20.488 21.6769 21.188C21.0889 21.8787 20.3096 22.224 19.3389 22.224C18.1256 22.224 17.2763 21.706 16.7909 20.67V24.688H15.9369V14.804H16.7349ZM20.9909 16.176C20.5523 15.6067 19.9549 15.322 19.1989 15.322C18.4429 15.322 17.8456 15.5973 17.4069 16.148C16.9776 16.6987 16.7629 17.4547 16.7629 18.416C16.7629 19.3587 16.9823 20.1053 17.4209 20.656C17.8689 21.2067 18.4709 21.482 19.2269 21.482C19.9643 21.482 20.5523 21.2067 20.9909 20.656C21.4389 20.096 21.6629 19.354 21.6629 18.43C21.6629 17.4873 21.4389 16.736 20.9909 16.176ZM30.066 22H29.184V15.84L25.292 22H24.2V14.804H25.082V20.964L28.974 14.804H30.066V22ZM39.6995 22H38.8175V16.078H38.7755L36.2415 22H35.4575L32.9235 16.078H32.8815V22H31.9995V14.804H33.1755L35.8635 21.006L38.5235 14.804H39.6995V22ZM47.9454 21.286V21.958C47.7307 22.0327 47.4974 22.07 47.2454 22.07C46.8627 22.07 46.6107 21.9533 46.4894 21.72C46.3681 21.4867 46.3074 21.1647 46.3074 20.754C45.7007 21.7153 44.7954 22.196 43.5914 22.196C42.8541 22.196 42.2754 22.0187 41.8554 21.664C41.4447 21.3093 41.2394 20.8147 41.2394 20.18C41.2394 18.8827 42.1307 18.1407 43.9134 17.954C44.0067 17.9447 44.1374 17.9353 44.3054 17.926C44.4734 17.9073 44.5947 17.8933 44.6694 17.884C44.7534 17.8747 44.8561 17.8653 44.9774 17.856C45.1081 17.8373 45.2014 17.8233 45.2574 17.814C45.3227 17.8047 45.3974 17.7907 45.4814 17.772C45.5747 17.7533 45.6447 17.7347 45.6914 17.716C45.7474 17.6973 45.8034 17.6787 45.8594 17.66C45.9154 17.632 45.9667 17.604 46.0134 17.576C46.1814 17.464 46.2654 17.2353 46.2654 16.89C46.2654 16.3207 46.1067 15.9193 45.7894 15.686C45.4721 15.4527 45.0054 15.336 44.3894 15.336C43.7827 15.336 43.3161 15.476 42.9894 15.756C42.6721 16.0267 42.4854 16.4513 42.4294 17.03H41.5894C41.6267 16.2553 41.8974 15.658 42.4014 15.238C42.9054 14.818 43.6007 14.608 44.4874 14.608C45.3087 14.608 45.9527 14.7853 46.4194 15.14C46.8954 15.4947 47.1334 16.008 47.1334 16.68V20.6C47.1334 20.7867 47.1381 20.922 47.1474 21.006C47.1567 21.0807 47.1941 21.1553 47.2594 21.23C47.3341 21.2953 47.4507 21.328 47.6094 21.328C47.7307 21.328 47.8427 21.314 47.9454 21.286ZM46.2654 18.08C46.1814 18.1733 46.0414 18.2527 45.8454 18.318C45.6587 18.374 45.4861 18.416 45.3274 18.444C45.1687 18.472 44.8981 18.5093 44.5154 18.556C44.4221 18.5653 44.3521 18.5747 44.3054 18.584C44.0067 18.6213 43.7594 18.6633 43.5634 18.71C43.3767 18.7567 43.1574 18.836 42.9054 18.948C42.6627 19.0507 42.4761 19.2 42.3454 19.396C42.2241 19.5827 42.1634 19.816 42.1634 20.096C42.1634 20.516 42.3127 20.852 42.6114 21.104C42.9101 21.3467 43.3114 21.468 43.8154 21.468C44.4967 21.468 45.0754 21.2673 45.5514 20.866C46.0274 20.4553 46.2654 19.9187 46.2654 19.256V18.08ZM50.0952 12.004H50.6412C50.6878 12.3587 50.8372 12.6387 51.0892 12.844C51.3412 13.0493 51.6725 13.152 52.0832 13.152C52.4845 13.152 52.8158 13.054 53.0772 12.858C53.3385 12.6527 53.5018 12.368 53.5672 12.004H54.1132C53.8985 13.2173 53.2172 13.824 52.0692 13.824C51.4905 13.824 51.0332 13.67 50.6972 13.362C50.3705 13.0447 50.1698 12.592 50.0952 12.004ZM55.0232 22H54.1412V15.84L50.2492 22H49.1572V14.804H50.0392V20.964L53.9312 14.804H55.0232V22ZM62.3607 15.546H59.6867V22H58.8047V15.546H56.1307V14.804H62.3607V15.546ZM69.2173 19.634C69.0586 20.446 68.7133 21.0853 68.1813 21.552C67.6493 22.0093 66.968 22.238 66.1373 22.238C65.1386 22.238 64.336 21.8973 63.7293 21.216C63.132 20.5347 62.8333 19.6247 62.8333 18.486C62.8333 17.3473 63.1366 16.4187 63.7433 15.7C64.3593 14.972 65.1526 14.608 66.1233 14.608C67.1406 14.608 67.92 14.9673 68.4613 15.686C69.012 16.4047 69.2873 17.296 69.2873 18.36V18.612H63.7293C63.7293 19.4427 63.93 20.138 64.3313 20.698C64.742 21.2487 65.3533 21.524 66.1653 21.524C67.3506 21.524 68.0833 20.894 68.3633 19.634H69.2173ZM68.4053 17.898C68.3586 17.0953 68.13 16.47 67.7193 16.022C67.3086 15.5647 66.7673 15.336 66.0953 15.336C65.3673 15.336 64.812 15.574 64.4293 16.05C64.056 16.526 63.8226 17.142 63.7293 17.898H68.4053ZM82.1096 18.388C82.1096 19.5453 81.7689 20.474 81.0876 21.174C80.4156 21.874 79.5149 22.224 78.3856 22.224C77.2562 22.224 76.3509 21.874 75.6696 21.174C74.9882 20.474 74.6476 19.5453 74.6476 18.388C74.6476 17.24 74.9929 16.316 75.6836 15.616C76.3742 14.916 77.2842 14.566 78.4136 14.566C79.5242 14.566 80.4156 14.916 81.0876 15.616C81.7689 16.316 82.1096 17.24 82.1096 18.388ZM80.1216 18.374C80.1216 17.6553 79.9629 17.0953 79.6456 16.694C79.3376 16.2833 78.9082 16.078 78.3576 16.078C77.8256 16.078 77.4056 16.2833 77.0976 16.694C76.7896 17.1047 76.6356 17.6693 76.6356 18.388C76.6356 19.1253 76.7896 19.6993 77.0976 20.11C77.4056 20.5207 77.8349 20.726 78.3856 20.726C78.9362 20.726 79.3609 20.5207 79.6596 20.11C79.9676 19.69 80.1216 19.1113 80.1216 18.374ZM90.4582 22H88.4842V16.302H85.6982V22H83.7242V14.776H90.4582V22ZM98.393 16.302H96.013V22H94.039V16.302H91.659V14.776H98.393V16.302ZM106.561 18.388C106.561 19.5453 106.22 20.474 105.539 21.174C104.867 21.874 103.966 22.224 102.837 22.224C101.708 22.224 100.802 21.874 100.121 21.174C99.4396 20.474 99.0989 19.5453 99.0989 18.388C99.0989 17.24 99.4442 16.316 100.135 15.616C100.826 14.916 101.736 14.566 102.865 14.566C103.976 14.566 104.867 14.916 105.539 15.616C106.22 16.316 106.561 17.24 106.561 18.388ZM104.573 18.374C104.573 17.6553 104.414 17.0953 104.097 16.694C103.789 16.2833 103.36 16.078 102.809 16.078C102.277 16.078 101.857 16.2833 101.549 16.694C101.241 17.1047 101.087 17.6693 101.087 18.388C101.087 19.1253 101.241 19.6993 101.549 20.11C101.857 20.5207 102.286 20.726 102.837 20.726C103.388 20.726 103.812 20.5207 104.111 20.11C104.419 19.69 104.573 19.1113 104.573 18.374ZM108.119 14.776H112.277C112.959 14.776 113.514 14.93 113.943 15.238C114.373 15.5367 114.587 15.9893 114.587 16.596C114.587 17.2867 114.261 17.7813 113.607 18.08C114.485 18.332 114.923 18.92 114.923 19.844C114.923 20.5253 114.69 21.0573 114.223 21.44C113.766 21.8133 113.183 22 112.473 22H108.119V14.776ZM110.079 17.674H111.395C112.179 17.674 112.571 17.3987 112.571 16.848C112.571 16.5307 112.464 16.316 112.249 16.204C112.044 16.092 111.759 16.036 111.395 16.036H110.079V17.674ZM110.079 20.712H111.549C111.96 20.712 112.282 20.6467 112.515 20.516C112.749 20.3853 112.865 20.1333 112.865 19.76C112.865 19.3773 112.739 19.1207 112.487 18.99C112.235 18.8593 111.895 18.794 111.465 18.794H110.079V20.712ZM118.511 12.032V13.712H116.523V12.032H118.511ZM118.511 14.776V22H116.523V14.776H118.511ZM132.05 24.128H130.188V22H124.518V14.776H126.492V20.474H129.166V14.776H131.14V20.474H132.05V24.128ZM135.292 12.032V13.712H133.304V12.032H135.292ZM135.292 14.776V22H133.304V14.776H135.292ZM143.899 22H141.925V18.962H139.139V22H137.165V14.776H139.139V17.394H141.925V14.776H143.899V22ZM152.478 22H150.574V17.114L147.998 22H145.744V14.776H147.648V19.662L150.224 14.776H152.478V22Z" fill="#00E569"/>
<rect x="163.5" y="8" width="1" height="18" fill="#00E569" fill-opacity="0.1"/>
<g clip-path="url(#clip0_5003_2435)">
<path d="M192.125 25.1428H189.125C188.918 25.1428 188.75 24.9748 188.75 24.7678V23.6428H185.75V24.7678C185.75 24.9748 185.582 25.1428 185.375 25.1428H181.625C181.418 25.1428 181.25 24.9748 181.25 24.7678V23.6428H178.25V24.7678C178.25 24.9748 178.082 25.1428 177.875 25.1428H174.875C174.668 25.1428 174.5 24.9748 174.5 24.7678V21.0178C174.5 20.8108 174.668 20.6428 174.875 20.6428H192.125C192.332 20.6428 192.5 20.8108 192.5 21.0178V24.7678C192.5 24.9748 192.332 25.1428 192.125 25.1428ZM189.5 24.3928H191.75V21.3928H175.25V24.3928H177.5V23.2678C177.5 23.0608 177.668 22.8928 177.875 22.8928H181.625C181.832 22.8928 182 23.0608 182 23.2678V24.3928H185V23.2678C185 23.0608 185.168 22.8928 185.375 22.8928H189.125C189.332 22.8928 189.5 23.0608 189.5 23.2678V24.3928Z" fill="#00E569"/>
<path d="M183.5 16.8928C183.293 16.8928 183.125 16.7248 183.125 16.5178V9.76782C183.125 9.56082 183.293 9.39282 183.5 9.39282C183.707 9.39282 183.875 9.56082 183.875 9.76782V16.5178C183.875 16.7248 183.707 16.8928 183.5 16.8928Z" fill="#00E569"/>
<path d="M183.5 16.8927C183.404 16.8927 183.308 16.856 183.235 16.7832L180.235 13.7832C180.088 13.637 180.088 13.3992 180.235 13.253C180.381 13.1067 180.619 13.1067 180.765 13.253L183.5 15.9875L186.235 13.253C186.381 13.1067 186.619 13.1067 186.765 13.253C186.911 13.3992 186.911 13.637 186.765 13.7832L183.765 16.7832C183.692 16.856 183.596 16.8927 183.5 16.8927Z" fill="#00E569"/>
</g>
<rect x="202.5" y="8" width="1" height="18" fill="#00E569" fill-opacity="0.1"/>
<defs>
<clipPath id="clip0_5003_2435">
<rect width="18" height="18" fill="white" transform="translate(174.5 8)"/>
</clipPath>
</defs>
</svg>
