<svg width="158" height="70" viewBox="0 0 158 70" fill="none" xmlns="http://www.w3.org/2000/svg">
<path d="M0.367712 16.6494C0.367712 15.2896 1.32845 14.1192 2.66222 13.8542L24.7017 9.47571C25.0683 9.40287 25.4457 9.40287 25.8123 9.47571L47.8519 13.8542C49.1856 14.1192 50.1464 15.2896 50.1464 16.6494V51.9929C50.1464 52.7132 49.8736 53.4069 49.3828 53.9342L35.6205 68.7238C35.0814 69.3032 34.3256 69.6323 33.5342 69.6323H17.2318C16.4488 69.6323 15.7003 69.3102 15.1621 68.7415L1.14786 53.9361C0.646892 53.4068 0.367712 52.7058 0.367712 51.977V16.6494Z" fill="#FFD21D" stroke="#FFD21D" stroke-width="0.735424"/>
<path d="M1.17252 16.8022C1.17252 15.8229 1.86662 14.981 2.82794 14.7943L24.8672 10.5134C25.1248 10.4634 25.3896 10.4634 25.6472 10.5134L47.6865 14.7943C48.6478 14.981 49.3419 15.8229 49.3419 16.8022V51.7872C49.3419 52.2971 49.1515 52.7885 48.808 53.1653L35.3816 67.8925C34.994 68.3176 34.4453 68.5599 33.87 68.5599H25.2572H16.8998C16.3309 68.5599 15.7877 68.3229 15.4006 67.906L1.71882 53.1663C1.36767 52.788 1.17252 52.2909 1.17252 51.7748V16.8022Z" stroke="black" stroke-width="0.735424"/>
<path fill-rule="evenodd" clip-rule="evenodd" d="M32.7068 29.3437C32.5108 29.3437 32.352 29.1857 32.352 28.9908V29.079C32.352 29.2252 32.4705 29.3437 32.6168 29.3437H32.7068ZM18.6225 28.9908C18.6225 29.1857 18.4637 29.3437 18.2677 29.3437H18.3578C18.504 29.3437 18.6225 29.2252 18.6225 29.079V28.9908Z" fill="#161D1E"/>
<path d="M4.32098 56.0923C4.32098 56.1604 4.34723 56.2259 4.39426 56.2751L16.1254 68.5613C16.1754 68.6136 16.2445 68.6432 16.3169 68.6432H34.0928C34.1661 68.6432 34.236 68.6129 34.2861 68.5594L46.2245 55.8119C46.2704 55.7629 46.296 55.6982 46.296 55.631V31.6811C46.296 31.5877 46.2588 31.4981 46.1924 31.4319L44.2023 29.4474C44.1358 29.381 44.0454 29.3437 43.9512 29.3437H32.7068H32.6168C32.4705 29.3437 32.352 29.2252 32.352 29.079V28.9908V14.3831C32.352 14.1881 32.1932 14.0301 31.9972 14.0301H18.9773C18.7814 14.0301 18.6225 14.1881 18.6225 14.3831V28.9908V29.079C18.6225 29.2252 18.504 29.3437 18.3578 29.3437H18.2677H6.66584C6.5716 29.3437 6.48122 29.381 6.41466 29.4474L4.42459 31.4319C4.35824 31.4981 4.32098 31.5877 4.32098 31.6811V56.0923Z" fill="#161D1E"/>
<g clip-path="url(#clip0_2522_13743)">
<path d="M25.3087 52.0646C21.7458 52.0646 18.8467 49.1668 18.8467 45.6045C18.8467 42.0422 21.7453 39.1444 25.3087 39.1444C28.8721 39.1444 31.7707 42.0422 31.7707 45.6045C31.7707 49.1668 28.8721 52.0646 25.3087 52.0646ZM25.3087 39.2411C21.7992 39.2411 18.9434 42.0956 18.9434 45.6045C18.9434 49.1135 21.7987 51.9679 25.3087 51.9679C28.8187 51.9679 31.674 49.1135 31.674 45.6045C31.674 42.0956 28.8187 39.2411 25.3087 39.2411Z" fill="#FFD21D"/>
<path d="M25.3077 56.3011C25.1942 56.3011 25.1019 56.2087 25.1019 56.0952V35.1142C25.1019 35.0007 25.1942 34.9084 25.3077 34.9084C25.4212 34.9084 25.5135 35.0007 25.5135 35.1142V56.0952C25.5135 56.2087 25.4216 56.3011 25.3077 56.3011Z" fill="#FFD21D"/>
<path d="M35.8022 45.8102H14.8149C14.7014 45.8102 14.6091 45.7179 14.6091 45.6044C14.6091 45.4909 14.7014 45.3986 14.8149 45.3986H35.8022C35.9157 45.3986 36.0081 45.4904 36.0081 45.6044C36.0081 45.7183 35.9157 45.8102 35.8022 45.8102Z" fill="#FFD21D"/>
<path d="M25.3091 50.2436C22.7506 50.2436 20.6688 48.1624 20.6688 45.6046C20.6688 43.0468 22.7506 40.9656 25.3091 40.9656C27.8677 40.9656 29.9495 43.0468 29.9495 45.6046C29.9495 48.1624 27.8677 50.2436 25.3091 50.2436ZM25.3091 41.0623C22.804 41.0623 20.7654 43.0997 20.7654 45.6046C20.7654 48.1095 22.8035 50.147 25.3091 50.147C27.8148 50.147 29.8528 48.1095 29.8528 45.6046C29.8528 43.0997 27.8148 41.0623 25.3091 41.0623Z" fill="#FFD21D"/>
<path d="M27.1267 45.6049C27.1267 46.6089 26.3128 47.4226 25.3085 47.4226C24.3041 47.4226 23.4902 46.6089 23.4902 45.6049C23.4902 44.6008 24.3041 43.7872 25.3085 43.7872C26.3128 43.7872 27.1267 44.6008 27.1267 45.6049Z" fill="#FFD21D"/>
<path d="M25.3089 51.16C22.2448 51.16 19.7522 48.6677 19.7522 45.6045C19.7522 42.5413 22.2448 40.049 25.3089 40.049C28.373 40.049 30.8661 42.5408 30.8661 45.6045C30.8661 48.6682 28.373 51.16 25.3089 51.16ZM25.3089 40.1461C22.2982 40.1461 19.8489 42.5947 19.8489 45.6045C19.8489 48.6143 22.2982 51.0629 25.3089 51.0629C28.3196 51.0629 30.7689 48.6143 30.7689 45.6045C30.7689 42.5947 28.3196 40.1461 25.3089 40.1461Z" fill="#FFD21D"/>
<path d="M28.0027 36.7526H31.7686C33.0929 36.7526 34.1704 37.8297 34.1704 39.1536V42.9275H34.5821V39.1536C34.5821 37.6028 33.3199 36.3409 31.7686 36.3409H28.0027V36.7526Z" fill="#FFD21D"/>
<path d="M16.4302 42.9275V39.1536C16.4302 37.8297 17.5077 36.7526 18.832 36.7526H22.6157V36.341H18.832C17.2807 36.341 16.0185 37.6028 16.0185 39.1536V42.9275H16.4298H16.4302Z" fill="#FFD21D"/>
<path d="M22.6152 54.4874H18.8315C17.5072 54.4874 16.4298 53.4102 16.4298 52.0864V48.3125H16.0185V52.0864C16.0185 53.6372 17.2807 54.899 18.832 54.899H22.6157V54.4874H22.6152Z" fill="#FFD21D"/>
<path d="M34.1704 48.3125V52.0864C34.1704 53.4102 33.0929 54.4874 31.7686 54.4874H28.0027V54.899H31.7686C33.3199 54.899 34.5821 53.6372 34.5821 52.0864V48.3125H34.1704Z" fill="#FFD21D"/>
</g>
<path d="M94.1825 13.7175L109.042 51H94.1825L85.8206 27.8316L81.8261 38.5903H88.6967L93.1706 51H62.8653L77.4587 13.7175H94.1825Z" fill="#FFD21D"/>
<path d="M120.989 32.6251H120.19L123.759 41.7859V51H109.645V13.7175H125.197L132.813 31.187L140.429 13.7175H155.928V51H141.867V41.7859L145.436 32.6251H144.637L139.311 46.3131H126.315L120.989 32.6251Z" fill="#FFD21D"/>
<mask id="path-16-outside-1_2522_13743" maskUnits="userSpaceOnUse" x="62.9718" y="53.227" width="94" height="12" fill="black">
<rect fill="white" x="62.9718" y="53.227" width="94" height="12"/>
<path d="M66.3138 55.814H63.6689V54.4267H70.387V55.814H67.7285V64.227H66.3138V55.814ZM82.2869 64.227H80.8858V59.7027C80.8858 59.2722 80.9132 58.9851 80.9747 58.8553L82.8199 54.9324C82.984 54.5565 83.1411 54.4267 83.5512 54.4267H84.9454C85.1436 54.4267 85.2939 54.4608 85.3828 54.536C85.4716 54.6112 85.5673 54.741 85.663 54.9324L87.5219 58.8553C87.5766 58.9783 87.6039 59.2585 87.6039 59.7027V64.227H86.2097V62.1289H82.2869V64.227ZM82.2869 59.3132V60.7279H86.2097V59.3132L84.5968 55.814H83.9408L82.2869 59.3132ZM99.5038 64.227H98.1028V54.4267H102.374C103.051 54.4267 103.632 54.6659 104.103 55.1443C104.582 55.6227 104.821 56.2036 104.821 56.8802V57.5773C104.821 58.1582 104.636 58.6776 104.274 59.1218C103.912 59.566 103.461 59.8462 102.907 59.9693L104.431 61.835C104.561 61.999 104.657 62.1562 104.718 62.2998C104.78 62.4433 104.814 62.5526 104.821 62.6278C104.828 62.703 104.835 62.8123 104.835 62.9695V64.227H103.44V62.826L101.13 60.0308H99.5038V64.227ZM99.5038 55.814V58.6297H102.374C102.661 58.6297 102.907 58.5272 103.112 58.3222C103.324 58.1103 103.427 57.8643 103.427 57.5773V56.8802C103.427 56.5863 103.324 56.3403 103.112 56.1284C102.907 55.9165 102.661 55.814 102.374 55.814H99.5038ZM115.32 62.1289V56.5316C115.32 55.9507 115.525 55.4518 115.928 55.0417C116.338 54.6317 116.83 54.4267 117.411 54.4267H119.94C120.521 54.4267 121.013 54.6317 121.423 55.0417C121.833 55.4518 122.038 55.9507 122.038 56.5316H120.644C120.644 56.3334 120.575 56.1694 120.432 56.0259C120.288 55.8824 120.124 55.814 119.94 55.814H117.411C117.226 55.814 117.062 55.8824 116.926 56.0259C116.789 56.1694 116.721 56.3334 116.721 56.5316V62.1289C116.721 62.5184 117.028 62.826 117.411 62.826H119.94C120.322 62.826 120.644 62.5116 120.644 62.1289V60.0308H118.682V58.6297H122.038V62.1289C122.038 62.7098 121.833 63.2019 121.423 63.6119C121.019 64.022 120.521 64.227 119.94 64.227H117.411C116.83 64.227 116.338 64.022 115.928 63.6188C115.525 63.2087 115.32 62.7098 115.32 62.1289ZM139.255 64.227H132.537V54.4267H139.255V55.814H133.938V58.6297H139.255V60.0308H133.938V62.826H139.255V64.227ZM152.398 55.814H149.754V54.4267H156.472V55.814H153.813V64.227H152.398V55.814Z"/>
</mask>
<path d="M66.3138 55.814H63.6689V54.4267H70.387V55.814H67.7285V64.227H66.3138V55.814ZM82.2869 64.227H80.8858V59.7027C80.8858 59.2722 80.9132 58.9851 80.9747 58.8553L82.8199 54.9324C82.984 54.5565 83.1411 54.4267 83.5512 54.4267H84.9454C85.1436 54.4267 85.2939 54.4608 85.3828 54.536C85.4716 54.6112 85.5673 54.741 85.663 54.9324L87.5219 58.8553C87.5766 58.9783 87.6039 59.2585 87.6039 59.7027V64.227H86.2097V62.1289H82.2869V64.227ZM82.2869 59.3132V60.7279H86.2097V59.3132L84.5968 55.814H83.9408L82.2869 59.3132ZM99.5038 64.227H98.1028V54.4267H102.374C103.051 54.4267 103.632 54.6659 104.103 55.1443C104.582 55.6227 104.821 56.2036 104.821 56.8802V57.5773C104.821 58.1582 104.636 58.6776 104.274 59.1218C103.912 59.566 103.461 59.8462 102.907 59.9693L104.431 61.835C104.561 61.999 104.657 62.1562 104.718 62.2998C104.78 62.4433 104.814 62.5526 104.821 62.6278C104.828 62.703 104.835 62.8123 104.835 62.9695V64.227H103.44V62.826L101.13 60.0308H99.5038V64.227ZM99.5038 55.814V58.6297H102.374C102.661 58.6297 102.907 58.5272 103.112 58.3222C103.324 58.1103 103.427 57.8643 103.427 57.5773V56.8802C103.427 56.5863 103.324 56.3403 103.112 56.1284C102.907 55.9165 102.661 55.814 102.374 55.814H99.5038ZM115.32 62.1289V56.5316C115.32 55.9507 115.525 55.4518 115.928 55.0417C116.338 54.6317 116.83 54.4267 117.411 54.4267H119.94C120.521 54.4267 121.013 54.6317 121.423 55.0417C121.833 55.4518 122.038 55.9507 122.038 56.5316H120.644C120.644 56.3334 120.575 56.1694 120.432 56.0259C120.288 55.8824 120.124 55.814 119.94 55.814H117.411C117.226 55.814 117.062 55.8824 116.926 56.0259C116.789 56.1694 116.721 56.3334 116.721 56.5316V62.1289C116.721 62.5184 117.028 62.826 117.411 62.826H119.94C120.322 62.826 120.644 62.5116 120.644 62.1289V60.0308H118.682V58.6297H122.038V62.1289C122.038 62.7098 121.833 63.2019 121.423 63.6119C121.019 64.022 120.521 64.227 119.94 64.227H117.411C116.83 64.227 116.338 64.022 115.928 63.6188C115.525 63.2087 115.32 62.7098 115.32 62.1289ZM139.255 64.227H132.537V54.4267H139.255V55.814H133.938V58.6297H139.255V60.0308H133.938V62.826H139.255V64.227ZM152.398 55.814H149.754V54.4267H156.472V55.814H153.813V64.227H152.398V55.814Z" fill="#FFD21D"/>
<path d="M66.3138 55.814H66.7176V55.4102H66.3138V55.814ZM63.6689 55.814H63.2651V56.2178H63.6689V55.814ZM63.6689 54.4267V54.0228H63.2651V54.4267H63.6689ZM70.387 54.4267H70.7908V54.0228H70.387V54.4267ZM70.387 55.814V56.2178H70.7908V55.814H70.387ZM67.7285 55.814V55.4102H67.3246V55.814H67.7285ZM67.7285 64.227V64.6308H68.1323V64.227H67.7285ZM66.3138 64.227H65.9099V64.6308H66.3138V64.227ZM66.3138 55.4102H63.6689V56.2178H66.3138V55.4102ZM64.0727 55.814V54.4267H63.2651V55.814H64.0727ZM63.6689 54.8305H70.387V54.0228H63.6689V54.8305ZM69.9832 54.4267V55.814H70.7908V54.4267H69.9832ZM70.387 55.4102H67.7285V56.2178H70.387V55.4102ZM67.3246 55.814V64.227H68.1323V55.814H67.3246ZM67.7285 63.8232H66.3138V64.6308H67.7285V63.8232ZM66.7176 64.227V55.814H65.9099V64.227H66.7176ZM82.2869 64.227V64.6308H82.6907V64.227H82.2869ZM80.8858 64.227H80.482V64.6308H80.8858V64.227ZM80.9747 58.8553L81.3396 59.0281L81.3401 59.0272L80.9747 58.8553ZM82.8199 54.9324L83.1855 55.1043L83.1901 55.0939L82.8199 54.9324ZM85.663 54.9324L86.028 54.7594L86.0242 54.7518L85.663 54.9324ZM87.5219 58.8553L87.891 58.6912L87.8868 58.6823L87.5219 58.8553ZM87.6039 64.227V64.6308H88.0078V64.227H87.6039ZM86.2097 64.227H85.8059V64.6308H86.2097V64.227ZM86.2097 62.1289H86.6136V61.7251H86.2097V62.1289ZM82.2869 62.1289V61.7251H81.883V62.1289H82.2869ZM82.2869 59.3132L81.9218 59.1406L81.883 59.2225V59.3132H82.2869ZM82.2869 60.7279H81.883V61.1317H82.2869V60.7279ZM86.2097 60.7279V61.1317H86.6136V60.7279H86.2097ZM86.2097 59.3132H86.6136V59.2246L86.5765 59.1441L86.2097 59.3132ZM84.5968 55.814L84.9636 55.645L84.8554 55.4102H84.5968V55.814ZM83.9408 55.814V55.4102H83.685L83.5757 55.6415L83.9408 55.814ZM82.2869 63.8232H80.8858V64.6308H82.2869V63.8232ZM81.2897 64.227V59.7027H80.482V64.227H81.2897ZM81.2897 59.7027C81.2897 59.4942 81.2964 59.33 81.3089 59.2074C81.3226 59.0734 81.34 59.0273 81.3396 59.0281L80.6097 58.6824C80.5478 58.8131 80.5208 58.9755 80.5055 59.1251C80.489 59.2861 80.482 59.4807 80.482 59.7027H81.2897ZM81.3401 59.0272L83.1853 55.1043L82.4545 54.7605L80.6093 58.6834L81.3401 59.0272ZM83.1901 55.0939C83.2644 54.9236 83.3087 54.881 83.3283 54.867C83.3406 54.8582 83.3836 54.8305 83.5512 54.8305V54.0228C83.3087 54.0228 83.0681 54.0601 82.8584 54.2101C82.6558 54.355 82.5395 54.5653 82.4498 54.7709L83.1901 55.0939ZM83.5512 54.8305H84.9454V54.0228H83.5512V54.8305ZM84.9454 54.8305C85.0234 54.8305 85.0765 54.8374 85.1093 54.8454C85.1431 54.8537 85.1395 54.8591 85.1219 54.8443L85.6436 54.2277C85.4406 54.0559 85.1655 54.0228 84.9454 54.0228V54.8305ZM85.1219 54.8443C85.152 54.8697 85.2181 54.9455 85.3018 55.113L86.0242 54.7518C85.9166 54.5366 85.7913 54.3527 85.6436 54.2277L85.1219 54.8443ZM85.2981 55.1053L87.157 59.0282L87.8868 58.6823L86.0279 54.7595L85.2981 55.1053ZM87.1529 59.0193C87.1522 59.0177 87.1685 59.0632 87.1815 59.1975C87.1934 59.3204 87.2001 59.4872 87.2001 59.7027H88.0078C88.0078 59.474 88.0008 59.2786 87.9854 59.1196C87.9711 58.972 87.9463 58.8159 87.8909 58.6913L87.1529 59.0193ZM87.2001 59.7027V64.227H88.0078V59.7027H87.2001ZM87.6039 63.8232H86.2097V64.6308H87.6039V63.8232ZM86.6136 64.227V62.1289H85.8059V64.227H86.6136ZM86.2097 61.7251H82.2869V62.5327H86.2097V61.7251ZM81.883 62.1289V64.227H82.6907V62.1289H81.883ZM81.883 59.3132V60.7279H82.6907V59.3132H81.883ZM82.2869 61.1317H86.2097V60.324H82.2869V61.1317ZM86.6136 60.7279V59.3132H85.8059V60.7279H86.6136ZM86.5765 59.1441L84.9636 55.645L84.2301 55.9831L85.843 59.4822L86.5765 59.1441ZM84.5968 55.4102H83.9408V56.2178H84.5968V55.4102ZM83.5757 55.6415L81.9218 59.1406L82.652 59.4857L84.3059 55.9866L83.5757 55.6415ZM99.5038 64.227V64.6308H99.9076V64.227H99.5038ZM98.1028 64.227H97.6989V64.6308H98.1028V64.227ZM98.1028 54.4267V54.0228H97.6989V54.4267H98.1028ZM104.103 55.1443L103.816 55.4277L103.818 55.4298L104.103 55.1443ZM102.907 59.9693L102.82 59.5751L102.18 59.7172L102.595 60.2247L102.907 59.9693ZM104.431 61.835L104.748 61.5843L104.744 61.5796L104.431 61.835ZM104.835 64.227V64.6308H105.238V64.227H104.835ZM103.44 64.227H103.037V64.6308H103.44V64.227ZM103.44 62.826H103.844V62.6807L103.752 62.5687L103.44 62.826ZM101.13 60.0308L101.442 59.7735L101.321 59.6269H101.13V60.0308ZM99.5038 60.0308V59.6269H99.1V60.0308H99.5038ZM99.5038 55.814V55.4102H99.1V55.814H99.5038ZM99.5038 58.6297H99.1V59.0336H99.5038V58.6297ZM103.112 56.1284L102.822 56.4093L102.827 56.4139L103.112 56.1284ZM99.5038 63.8232H98.1028V64.6308H99.5038V63.8232ZM98.5066 64.227V54.4267H97.6989V64.227H98.5066ZM98.1028 54.8305H102.374V54.0228H98.1028V54.8305ZM102.374 54.8305C102.945 54.8305 103.421 55.0278 103.816 55.4277L104.391 54.8608C103.842 54.3039 103.157 54.0228 102.374 54.0228V54.8305ZM103.818 55.4298C104.22 55.832 104.417 56.3101 104.417 56.8802H105.225C105.225 56.0971 104.943 55.4133 104.389 54.8587L103.818 55.4298ZM104.417 56.8802V57.5773H105.225V56.8802H104.417ZM104.417 57.5773C104.417 58.0661 104.264 58.4951 103.961 58.8666L104.587 59.377C105.009 58.86 105.225 58.2503 105.225 57.5773H104.417ZM103.961 58.8666C103.655 59.2416 103.283 59.472 102.82 59.5751L102.995 60.3635C103.638 60.2204 104.168 59.8905 104.587 59.377L103.961 58.8666ZM102.595 60.2247L104.119 62.0905L104.744 61.5796L103.22 59.7138L102.595 60.2247ZM104.115 62.0857C104.228 62.2282 104.303 62.3549 104.347 62.4588L105.09 62.1407C105.011 61.9576 104.895 61.7699 104.748 61.5844L104.115 62.0857ZM104.347 62.4588C104.374 62.5221 104.393 62.572 104.405 62.6099C104.417 62.6497 104.419 62.6658 104.419 62.6644L105.223 62.5912C105.21 62.4491 105.154 62.2908 105.09 62.1407L104.347 62.4588ZM104.419 62.6644C104.424 62.7274 104.431 62.8246 104.431 62.9695H105.238C105.238 62.8001 105.231 62.6785 105.223 62.5912L104.419 62.6644ZM104.431 62.9695V64.227H105.238V62.9695H104.431ZM104.835 63.8232H103.44V64.6308H104.835V63.8232ZM103.844 64.227V62.826H103.037V64.227H103.844ZM103.752 62.5687L101.442 59.7735L100.819 60.288L103.129 63.0832L103.752 62.5687ZM101.13 59.6269H99.5038V60.4346H101.13V59.6269ZM99.1 60.0308V64.227H99.9076V60.0308H99.1ZM99.1 55.814V58.6297H99.9076V55.814H99.1ZM99.5038 59.0336H102.374V58.2259H99.5038V59.0336ZM102.374 59.0336C102.77 59.0336 103.118 58.8876 103.398 58.6077L102.827 58.0367C102.697 58.1668 102.553 58.2259 102.374 58.2259V59.0336ZM103.398 58.6077C103.683 58.3224 103.83 57.9746 103.83 57.5773H103.023C103.023 57.754 102.965 57.8982 102.827 58.0367L103.398 58.6077ZM103.83 57.5773V56.8802H103.023V57.5773H103.83ZM103.83 56.8802C103.83 56.4774 103.684 56.1292 103.398 55.8428L102.827 56.4139C102.964 56.5513 103.023 56.6952 103.023 56.8802H103.83ZM103.402 55.8476C103.121 55.557 102.771 55.4102 102.374 55.4102V56.2178C102.552 56.2178 102.693 56.2761 102.822 56.4092L103.402 55.8476ZM102.374 55.4102H99.5038V56.2178H102.374V55.4102ZM115.928 55.0417L115.642 54.7562L115.64 54.7586L115.928 55.0417ZM122.038 56.5316V56.9354H122.442V56.5316H122.038ZM120.644 56.5316H120.24V56.9354H120.644V56.5316ZM120.644 60.0308H121.047V59.6269H120.644V60.0308ZM118.682 60.0308H118.278V60.4346H118.682V60.0308ZM118.682 58.6297V58.2259H118.278V58.6297H118.682ZM122.038 58.6297H122.442V58.2259H122.038V58.6297ZM121.423 63.6119L121.137 63.3264L121.135 63.3288L121.423 63.6119ZM115.928 63.6188L115.64 63.9019L115.645 63.9067L115.928 63.6188ZM115.724 62.1289V56.5316H114.916V62.1289H115.724ZM115.724 56.5316C115.724 56.0564 115.887 55.6593 116.216 55.3249L115.64 54.7586C115.162 55.2443 114.916 55.845 114.916 56.5316H115.724ZM116.213 55.3273C116.548 54.9926 116.938 54.8305 117.411 54.8305V54.0228C116.722 54.0228 116.128 54.2708 115.642 54.7562L116.213 55.3273ZM117.411 54.8305H119.94V54.0228H117.411V54.8305ZM119.94 54.8305C120.413 54.8305 120.802 54.9926 121.137 55.3273L121.708 54.7562C121.223 54.2708 120.628 54.0228 119.94 54.0228V54.8305ZM121.137 55.3273C121.471 55.661 121.634 56.0569 121.634 56.5316H122.442C122.442 55.8445 122.195 55.2426 121.708 54.7562L121.137 55.3273ZM122.038 56.1278H120.644V56.9354H122.038V56.1278ZM121.047 56.5316C121.047 56.2243 120.935 55.9581 120.717 55.7403L120.146 56.3114C120.215 56.3807 120.24 56.4426 120.24 56.5316H121.047ZM120.717 55.7403C120.503 55.5256 120.238 55.4102 119.94 55.4102V56.2178C120.011 56.2178 120.074 56.2391 120.146 56.3114L120.717 55.7403ZM119.94 55.4102H117.411V56.2178H119.94V55.4102ZM117.411 55.4102C117.114 55.4102 116.845 55.5249 116.633 55.7474L117.218 56.3044C117.28 56.2398 117.338 56.2178 117.411 56.2178V55.4102ZM116.633 55.7474C116.428 55.963 116.317 56.2257 116.317 56.5316H117.125C117.125 56.4411 117.15 56.3758 117.218 56.3044L116.633 55.7474ZM116.317 56.5316V62.1289H117.125V56.5316H116.317ZM116.317 62.1289C116.317 62.7389 116.803 63.2298 117.411 63.2298V62.4222C117.254 62.4222 117.125 62.298 117.125 62.1289H116.317ZM117.411 63.2298H119.94V62.4222H117.411V63.2298ZM119.94 63.2298C120.54 63.2298 121.047 62.7397 121.047 62.1289H120.24C120.24 62.2835 120.104 62.4222 119.94 62.4222V63.2298ZM121.047 62.1289V60.0308H120.24V62.1289H121.047ZM120.644 59.6269H118.682V60.4346H120.644V59.6269ZM119.086 60.0308V58.6297H118.278V60.0308H119.086ZM118.682 59.0336H122.038V58.2259H118.682V59.0336ZM121.634 58.6297V62.1289H122.442V58.6297H121.634ZM121.634 62.1289C121.634 62.6022 121.472 62.9917 121.137 63.3264L121.708 63.8975C122.194 63.412 122.442 62.8174 122.442 62.1289H121.634ZM121.135 63.3288C120.809 63.6598 120.415 63.8232 119.94 63.8232V64.6308C120.626 64.6308 121.23 64.3842 121.711 63.8951L121.135 63.3288ZM119.94 63.8232H117.411V64.6308H119.94V63.8232ZM117.411 63.8232C116.937 63.8232 116.546 63.6607 116.211 63.3308L115.645 63.9067C116.13 64.3833 116.723 64.6308 117.411 64.6308V63.8232ZM116.216 63.3356C115.887 63.0012 115.724 62.6041 115.724 62.1289H114.916C114.916 62.8156 115.162 63.4162 115.64 63.9019L116.216 63.3356ZM139.255 64.227V64.6308H139.659V64.227H139.255ZM132.537 64.227H132.133V64.6308H132.537V64.227ZM132.537 54.4267V54.0228H132.133V54.4267H132.537ZM139.255 54.4267H139.659V54.0228H139.255V54.4267ZM139.255 55.814V56.2178H139.659V55.814H139.255ZM133.938 55.814V55.4102H133.534V55.814H133.938ZM133.938 58.6297H133.534V59.0336H133.938V58.6297ZM139.255 58.6297H139.659V58.2259H139.255V58.6297ZM139.255 60.0308V60.4346H139.659V60.0308H139.255ZM133.938 60.0308V59.6269H133.534V60.0308H133.938ZM133.938 62.826H133.534V63.2298H133.938V62.826ZM139.255 62.826H139.659V62.4222H139.255V62.826ZM139.255 63.8232H132.537V64.6308H139.255V63.8232ZM132.94 64.227V54.4267H132.133V64.227H132.94ZM132.537 54.8305H139.255V54.0228H132.537V54.8305ZM138.851 54.4267V55.814H139.659V54.4267H138.851ZM139.255 55.4102H133.938V56.2178H139.255V55.4102ZM133.534 55.814V58.6297H134.341V55.814H133.534ZM133.938 59.0336H139.255V58.2259H133.938V59.0336ZM138.851 58.6297V60.0308H139.659V58.6297H138.851ZM139.255 59.6269H133.938V60.4346H139.255V59.6269ZM133.534 60.0308V62.826H134.341V60.0308H133.534ZM133.938 63.2298H139.255V62.4222H133.938V63.2298ZM138.851 62.826V64.227H139.659V62.826H138.851ZM152.398 55.814H152.802V55.4102H152.398V55.814ZM149.754 55.814H149.35V56.2178H149.754V55.814ZM149.754 54.4267V54.0228H149.35V54.4267H149.754ZM156.472 54.4267H156.875V54.0228H156.472V54.4267ZM156.472 55.814V56.2178H156.875V55.814H156.472ZM153.813 55.814V55.4102H153.409V55.814H153.813ZM153.813 64.227V64.6308H154.217V64.227H153.813ZM152.398 64.227H151.995V64.6308H152.398V64.227ZM152.398 55.4102H149.754V56.2178H152.398V55.4102ZM150.157 55.814V54.4267H149.35V55.814H150.157ZM149.754 54.8305H156.472V54.0228H149.754V54.8305ZM156.068 54.4267V55.814H156.875V54.4267H156.068ZM156.472 55.4102H153.813V56.2178H156.472V55.4102ZM153.409 55.814V64.227H154.217V55.814H153.409ZM153.813 63.8232H152.398V64.6308H153.813V63.8232ZM152.802 64.227V55.814H151.995V64.227H152.802Z" fill="#FFD21D" mask="url(#path-16-outside-1_2522_13743)"/>
<defs>
<clipPath id="clip0_2522_13743">
<rect width="21.399" height="21.3927" fill="white" transform="translate(14.6088 34.9085)"/>
</clipPath>
</defs>
</svg>
