<svg width="20" height="20" viewBox="0 0 20 20" fill="none" xmlns="http://www.w3.org/2000/svg">
<g clip-path="url(#clip0_3607_19827)">
<g clip-path="url(#clip1_3607_19827)">
<mask id="mask0_3607_19827" style="mask-type:luminance" maskUnits="userSpaceOnUse" x="0" y="0" width="20" height="20">
<path d="M19.9221 0H0.0771484V20H19.9221V0Z" fill="white"/>
</mask>
<g mask="url(#mask0_3607_19827)">
<path d="M0.500743 9.88035C0.500278 11.5607 0.939348 13.2015 1.77423 14.6477L0.420898 19.589L5.47764 18.2631C6.87628 19.0245 8.44333 19.4234 10.0358 19.4236H10.04C15.2969 19.4236 19.5763 15.1458 19.5784 9.88787C19.5795 7.34004 18.5882 4.94423 16.7871 3.14175C14.9863 1.33942 12.5914 0.346317 10.0396 0.345154C4.78198 0.345154 0.502914 4.62268 0.500743 9.88035Z" fill="url(#paint0_linear_3607_19827)"/>
<path d="M7.57167 5.74789C7.38671 5.3368 7.19206 5.32851 7.01617 5.3213C6.87214 5.31509 6.70748 5.31556 6.54299 5.31556C6.37834 5.31556 6.11082 5.3775 5.88469 5.6244C5.65834 5.87153 5.02051 6.46874 5.02051 7.68339C5.02051 8.89804 5.90524 10.072 6.02857 10.2369C6.15206 10.4015 7.73655 12.9738 10.246 13.9635C12.3316 14.7859 12.756 14.6223 13.2086 14.581C13.6614 14.54 14.6694 13.984 14.8751 13.4075C15.0809 12.8311 15.0809 12.337 15.0192 12.2337C14.9575 12.1308 14.7928 12.069 14.5459 11.9456C14.299 11.8222 13.0852 11.2249 12.8589 11.1425C12.6325 11.0601 12.468 11.019 12.3033 11.2663C12.1386 11.5131 11.6659 12.069 11.5217 12.2337C11.3778 12.3987 11.2337 12.4193 10.9869 12.2958C10.7398 12.1719 9.94469 11.9115 9.00136 11.0705C8.26741 10.4161 7.7719 9.60796 7.62787 9.36075C7.48384 9.11393 7.61245 8.98013 7.73624 8.85711C7.84717 8.74649 7.98322 8.56882 8.10679 8.42471C8.22989 8.28052 8.27097 8.17765 8.3533 8.013C8.4357 7.8482 8.39446 7.70401 8.33283 7.58052C8.27097 7.45703 7.79121 6.23603 7.57167 5.74789Z" fill="white"/>
</g>
</g>
</g>
<defs>
<linearGradient id="paint0_linear_3607_19827" x1="9.99969" y1="19.589" x2="9.99969" y2="0.345154" gradientUnits="userSpaceOnUse">
<stop stop-color="#1FAF38"/>
<stop offset="1" stop-color="#60D669"/>
</linearGradient>
<clipPath id="clip0_3607_19827">
<rect width="20" height="20" fill="white"/>
</clipPath>
<clipPath id="clip1_3607_19827">
<rect width="19.845" height="20" fill="white" transform="translate(0.0771484)"/>
</clipPath>
</defs>
</svg>
