<svg width="472" height="32" viewBox="0 0 472 32" fill="none" xmlns="http://www.w3.org/2000/svg">
<g clip-path="url(#clip0_3001_4679)">
<path fill-rule="evenodd" clip-rule="evenodd" d="M4.11856 11.0761L0.913086 0.721741H2.28353L3.81542 5.82144C4.23695 7.21828 4.60109 8.47903 4.86477 9.69252H4.89527C5.17151 8.49415 5.58049 7.18804 6.01638 5.83656L7.67921 0.721741H9.0353L5.5213 11.0761H4.11856Z" fill="white"/>
<path fill-rule="evenodd" clip-rule="evenodd" d="M9.70318 7.60465C9.73367 9.43245 10.8404 10.1847 12.1248 10.1847C13.0432 10.1847 13.5957 10.0165 14.0782 9.80103L14.297 10.7688C13.845 10.9824 13.0719 11.23 11.949 11.23C9.77672 11.23 8.47803 9.72542 8.47803 7.48178C8.47803 5.23814 9.73188 3.47272 11.7875 3.47272C14.0908 3.47272 14.7042 5.60862 14.7042 6.97522C14.7042 7.25118 14.6737 7.46666 14.6612 7.60465H9.70318ZM13.4647 6.63687C13.4809 5.77684 13.1293 4.4386 11.6871 4.4386C10.3884 4.4386 9.82157 5.69746 9.71932 6.63687H13.4647Z" fill="white"/>
<path fill-rule="evenodd" clip-rule="evenodd" d="M15.7102 5.96153C15.7102 5.08638 15.6959 4.33409 15.6528 3.64229H16.7757L16.8188 5.1015H16.8762C17.1973 4.10349 17.9686 3.47406 18.8296 3.47406C18.9749 3.47406 19.0789 3.48918 19.1937 3.51942V4.79529C19.0628 4.76316 18.9319 4.74804 18.7561 4.74804C17.8538 4.74804 17.2134 5.47009 17.0376 6.48511C17.0071 6.67035 16.9784 6.88394 16.9784 7.11454V11.0782H15.7102V5.96153Z" fill="white"/>
<path fill-rule="evenodd" clip-rule="evenodd" d="M21.3823 1.55225C21.3966 2.01345 21.0755 2.38203 20.5661 2.38203C20.1141 2.38203 19.793 2.01345 19.793 1.55225C19.793 1.07592 20.1284 0.707336 20.5948 0.707336C21.0755 0.707336 21.3823 1.07781 21.3823 1.55225ZM19.9526 3.64089H21.237V11.075H19.9526V3.64089Z" fill="white"/>
<path fill-rule="evenodd" clip-rule="evenodd" d="M22.9138 11.0764V4.67063H21.9219V3.64048H22.9138V3.28702C22.9138 2.24364 23.1327 1.29099 23.73 0.689915C24.2107 0.198469 24.8511 0 25.4502 0C25.9023 0 26.2951 0.10774 26.5426 0.21548L26.3669 1.25886C26.1785 1.16624 25.9148 1.09063 25.5507 1.09063C24.4583 1.09063 24.1802 2.10377 24.1802 3.23976V3.63859H25.8843V4.66874H24.1802V11.0746H22.9138V11.0764Z" fill="white"/>
<path fill-rule="evenodd" clip-rule="evenodd" d="M28.5781 1.55225C28.5942 2.01345 28.2713 2.38203 27.7619 2.38203C27.3099 2.38203 26.9888 2.01345 26.9888 1.55225C26.9888 1.07592 27.326 0.707336 27.7906 0.707336C28.2713 0.707336 28.5781 1.07781 28.5781 1.55225ZM27.1502 3.64089H28.4328V11.075H27.1502V3.64089Z" fill="white"/>
<path fill-rule="evenodd" clip-rule="evenodd" d="M30.6939 7.60465C30.7244 9.43245 31.8312 10.1847 33.1155 10.1847C34.0339 10.1847 34.5864 10.0165 35.0689 9.80103L35.2878 10.7688C34.8357 10.9824 34.0608 11.23 32.9397 11.23C30.7674 11.23 29.4688 9.72542 29.4688 7.48178C29.4688 5.23814 30.7226 3.47272 32.7783 3.47272C35.0815 3.47272 35.6932 5.60862 35.6932 6.97522C35.6932 7.25118 35.6645 7.46666 35.6501 7.60465H30.6939ZM34.4537 6.63687C34.468 5.77684 34.1182 4.4386 32.676 4.4386C31.3773 4.4386 30.8105 5.69746 30.7065 6.63687H34.4537Z" fill="white"/>
<path fill-rule="evenodd" clip-rule="evenodd" d="M42.7941 0.170591V9.15649C42.7941 9.81806 42.8084 10.5703 42.8515 11.0769H41.6999L41.6407 9.78592H41.6102C41.2173 10.6138 40.3581 11.2432 39.2047 11.2432C37.5006 11.2432 36.1876 9.72355 36.1876 7.46479C36.1733 4.99054 37.6316 3.47084 39.3518 3.47084C40.4299 3.47084 41.1599 4.00954 41.4792 4.60684H41.5097V0.168701H42.7941V0.170591ZM41.5097 6.66713C41.5097 6.4989 41.4954 6.2683 41.4523 6.09819C41.264 5.23816 40.5626 4.53123 39.6012 4.53123C38.2756 4.53123 37.4881 5.75985 37.4881 7.4043C37.4881 8.90888 38.1877 10.1545 39.5725 10.1545C40.4317 10.1545 41.2191 9.55532 41.4523 8.5403C41.4954 8.35695 41.5097 8.17171 41.5097 7.95623V6.66713Z" fill="white"/>
<path fill-rule="evenodd" clip-rule="evenodd" d="M47.5439 11.0763C47.5744 10.5679 47.6013 9.81556 47.6013 9.15589V0.169983H48.8695V4.83872H48.9C49.3521 4.01082 50.1682 3.47212 51.3055 3.47212C53.0562 3.47212 54.2939 5.00884 54.2796 7.26571C54.2796 9.9233 52.6903 11.2426 51.1154 11.2426C50.0947 11.2426 49.2767 10.8287 48.7547 9.8458H48.7117L48.6525 11.0744H47.5439V11.0763ZM48.8695 8.0955C48.8695 8.26372 48.9 8.43384 48.9287 8.58694C49.1763 9.52258 49.9189 10.1671 50.8517 10.1671C52.1934 10.1671 52.9934 9.01601 52.9934 7.31107C52.9934 5.82161 52.2652 4.54574 50.8947 4.54574C50.0212 4.54574 49.205 5.17517 48.9413 6.20532C48.9108 6.35842 48.8678 6.54366 48.8678 6.75725V8.0955H48.8695Z" fill="white"/>
<path fill-rule="evenodd" clip-rule="evenodd" d="M55.6784 3.64068L57.2229 8.03346C57.3843 8.5249 57.5601 9.10897 57.6749 9.55505H57.7054C57.8364 9.10897 57.9816 8.54002 58.1574 8.00321L59.5566 3.64068H60.9127L58.988 8.94074C58.0695 11.4906 57.4435 12.7967 56.5682 13.5944C55.9403 14.1784 55.3143 14.409 54.9932 14.4695L54.6721 13.3316C54.9932 13.2239 55.4148 13.0084 55.795 12.6701C56.1448 12.379 56.5807 11.8554 56.8749 11.1655C56.9323 11.0275 56.9771 10.9198 56.9771 10.8441C56.9771 10.7667 56.9466 10.6589 56.8892 10.4907L54.2793 3.63879H55.6784V3.64068Z" fill="white"/>
<path fill-rule="evenodd" clip-rule="evenodd" d="M22.1906 16.5385L18.3017 26.9005L16.7286 18.0903C16.5474 17.1075 15.8173 16.5385 15.0066 16.5385H8.64762L8.56152 16.9789C9.8656 17.2814 11.3491 17.7596 12.2477 18.2737C12.7966 18.5912 12.9545 18.8634 13.1321 19.6138L16.1133 31.7639H20.065L26.119 16.5404H22.1906V16.5385Z" fill="white"/>
<path fill-rule="evenodd" clip-rule="evenodd" d="M27.7204 16.5385L24.6333 31.762H28.3697L31.4532 16.5385H27.7204Z" fill="white"/>
<path fill-rule="evenodd" clip-rule="evenodd" d="M36.3594 20.7572C36.372 20.2129 36.8653 19.6307 37.9451 19.4795C38.4833 19.4057 39.956 19.3509 41.6331 20.158L42.2879 16.9334C41.3892 16.5875 40.2286 16.2548 38.7918 16.2548C35.0948 16.2548 32.4992 18.3265 32.4759 21.2903C32.4562 23.4791 34.3343 24.7058 35.7478 25.4354C37.2043 26.1783 37.694 26.6546 37.685 27.3256C37.6779 28.3482 36.5245 28.7943 35.4518 28.8132C33.5701 28.8434 32.4813 28.2782 31.6095 27.853L30.9351 31.191C31.805 31.6125 33.4194 31.9811 35.093 32C39.0124 32 41.5811 29.9511 41.5955 26.7907C41.6098 22.7703 36.3218 22.551 36.3594 20.7572Z" fill="white"/>
<path fill-rule="evenodd" clip-rule="evenodd" d="M47.1794 26.3693L49.1652 20.6534L50.2827 26.3693H47.1794ZM48.5983 16.5385C47.8808 16.5385 47.2745 16.9751 47.0054 17.6556L41.3999 31.762H45.3265L46.1068 29.4881H50.8908L51.3392 31.762H54.8048L51.7912 16.5385H48.5983Z" fill="white"/>
</g>
<g clip-path="url(#clip1_3001_4679)">
<path fill-rule="evenodd" clip-rule="evenodd" d="M123.826 21.7816C123.287 21.4333 122.724 21.1637 122.138 20.9713C121.552 20.7796 120.939 20.6827 120.299 20.6827C119.88 20.6827 119.497 20.727 119.15 20.8154C118.802 20.9039 118.505 21.0317 118.257 21.2002C118.009 21.368 117.815 21.5695 117.678 21.8041C117.54 22.0393 117.471 22.3033 117.471 22.5968C117.471 22.865 117.531 23.0939 117.651 23.2835C117.771 23.4731 117.943 23.6332 118.167 23.7638C118.391 23.8951 118.665 24.0032 118.988 24.0896C119.312 24.1752 119.676 24.2483 120.083 24.3093L120.954 24.428C121.462 24.501 121.959 24.6141 122.443 24.7671C122.927 24.9195 123.36 25.133 123.74 25.4082C124.119 25.6828 124.425 26.0282 124.655 26.4425C124.885 26.8575 125 27.3616 125 27.9535C125 28.6065 124.865 29.1837 124.596 29.6836C124.327 30.1843 123.962 30.6055 123.501 30.9468C123.04 31.2887 122.507 31.5485 121.899 31.7255C121.292 31.9031 120.647 31.9909 119.965 31.9909C119.54 31.9909 119.099 31.9544 118.641 31.8807C118.184 31.8076 117.731 31.6995 117.286 31.5556C116.84 31.4123 116.414 31.2333 116.008 31.0198C115.601 30.8057 115.236 30.5557 114.913 30.2685L116.016 28.6206C116.232 28.8221 116.491 29.0089 116.793 29.1795C117.095 29.3501 117.419 29.4997 117.767 29.6282C118.113 29.7566 118.474 29.8556 118.848 29.9259C119.221 29.9961 119.591 30.0312 119.956 30.0312C120.369 30.0312 120.753 29.9891 121.109 29.9027C121.465 29.817 121.775 29.692 122.038 29.5277C122.301 29.3627 122.509 29.1633 122.662 28.9281C122.815 28.6929 122.891 28.4289 122.891 28.1361C122.891 27.6354 122.65 27.2542 122.168 26.9909C121.687 26.7283 120.985 26.5331 120.064 26.4053L119.086 26.2676C118.619 26.2002 118.163 26.0907 117.717 25.9383C117.271 25.786 116.873 25.5711 116.524 25.2931C116.173 25.0157 115.892 24.6681 115.68 24.2497C115.467 23.8319 115.361 23.3235 115.361 22.7253C115.361 22.0842 115.491 21.5148 115.752 21.0176C116.012 20.5198 116.367 20.102 116.815 19.7636C117.264 19.4245 117.789 19.1668 118.39 18.9898C118.992 18.8122 119.633 18.7244 120.315 18.7244C121.23 18.7244 122.057 18.848 122.796 19.0952C123.535 19.3423 124.221 19.6793 124.856 20.107L123.826 21.7816ZM130.673 22.7618C131.271 22.7618 131.82 22.8734 132.319 23.096C132.819 23.3193 133.246 23.6332 133.603 24.039C133.959 24.4449 134.237 24.9307 134.438 25.4953C134.638 26.0598 134.738 26.684 134.738 27.3679C134.738 27.4901 134.735 27.6116 134.729 27.7337C134.723 27.8559 134.714 27.9718 134.702 28.082H128.348C128.408 28.4787 128.519 28.8172 128.68 29.098C128.842 29.3789 129.037 29.6092 129.264 29.7896C129.492 29.9694 129.746 30.1028 130.027 30.1878C130.308 30.2734 130.601 30.3156 130.907 30.3156C131.337 30.3156 131.77 30.2355 132.203 30.0733C132.637 29.9118 133.033 29.6843 133.392 29.3908L134.326 30.7551C133.799 31.2129 133.241 31.5338 132.652 31.7164C132.062 31.8996 131.441 31.9916 130.79 31.9916C130.143 31.9916 129.551 31.8814 129.013 31.6623C128.474 31.4425 128.011 31.1308 127.622 30.7284C127.233 30.3254 126.931 29.8395 126.715 29.2722C126.5 28.7041 126.392 28.0729 126.392 27.3763C126.392 26.6924 126.497 26.0668 126.706 25.4995C126.916 24.9314 127.209 24.4449 127.586 24.039C127.963 23.6332 128.412 23.3193 128.937 23.096C129.46 22.8734 130.039 22.7618 130.673 22.7618ZM130.637 24.4645C130.302 24.4645 130.004 24.5165 129.744 24.6197C129.484 24.7236 129.26 24.8718 129.071 25.0642C128.883 25.2558 128.728 25.4854 128.609 25.7509C128.49 26.0163 128.406 26.3077 128.358 26.625H132.818C132.717 25.9411 132.477 25.4103 132.101 25.0319C131.723 24.6541 131.235 24.4645 130.637 24.4645ZM140.608 22.7618C141.254 22.7618 141.855 22.8791 142.411 23.1143C142.968 23.3495 143.437 23.6985 143.821 24.1626L142.618 25.4721C142.313 25.1793 141.996 24.9546 141.667 24.7994C141.338 24.6443 140.967 24.5663 140.554 24.5663C140.195 24.5663 139.859 24.6351 139.548 24.7721C139.237 24.909 138.968 25.1014 138.74 25.3485C138.513 25.5957 138.335 25.892 138.206 26.2368C138.078 26.5822 138.013 26.9621 138.013 27.3763C138.013 27.7913 138.078 28.1719 138.206 28.5166C138.335 28.8614 138.513 29.1577 138.74 29.4049C138.968 29.652 139.237 29.8437 139.548 29.9813C139.859 30.119 140.195 30.1871 140.554 30.1871C140.967 30.1871 141.352 30.1 141.711 29.9259C142.071 29.7524 142.388 29.5341 142.663 29.2715L143.82 30.5901C143.425 31.0535 142.953 31.4032 142.402 31.6384C141.852 31.8736 141.254 31.9909 140.608 31.9909C139.926 31.9909 139.306 31.8736 138.75 31.6384C138.194 31.4032 137.718 31.0795 137.323 30.668C136.928 30.2566 136.623 29.7693 136.408 29.2076C136.193 28.6465 136.085 28.0357 136.085 27.3763C136.085 26.717 136.193 26.1069 136.408 25.5451C136.623 24.9841 136.928 24.4968 137.323 24.0854C137.718 23.6732 138.194 23.3502 138.75 23.115C139.305 22.8791 139.926 22.7618 140.608 22.7618ZM153.441 28.0448C153.441 28.7406 153.327 29.3389 153.1 29.8388C152.872 30.3394 152.573 30.7488 152.202 31.0662C151.832 31.3835 151.407 31.6166 150.928 31.7662C150.449 31.9158 149.958 31.9909 149.456 31.9909C148.953 31.9909 148.463 31.9158 147.984 31.7662C147.505 31.6166 147.079 31.3835 146.706 31.0662C146.332 30.7488 146.033 30.3394 145.808 29.8388C145.584 29.3389 145.472 28.7399 145.472 28.0448V22.9907H147.356V27.8707C147.356 28.292 147.41 28.6508 147.518 28.9464C147.626 29.2427 147.774 29.4821 147.962 29.6661C148.151 29.8486 148.374 29.9813 148.631 30.0642C148.888 30.1463 149.163 30.1878 149.456 30.1878C149.749 30.1878 150.024 30.1463 150.282 30.0642C150.539 29.982 150.762 29.8493 150.95 29.6661C151.138 29.4828 151.286 29.2427 151.394 28.9464C151.502 28.6508 151.556 28.292 151.556 27.8707V22.9907H153.44V28.0448H153.441ZM160.288 22.7618C160.575 22.7618 160.833 22.7815 161.064 22.8215C161.294 22.8608 161.517 22.924 161.733 23.009L161.284 24.9048C161.087 24.8008 160.856 24.7215 160.593 24.666C160.329 24.6106 160.084 24.5839 159.857 24.5839C159.558 24.5839 159.283 24.6358 159.032 24.7391C158.781 24.843 158.566 24.9953 158.386 25.1976C158.206 25.3991 158.066 25.6455 157.964 25.939C157.862 26.2318 157.811 26.5647 157.811 26.9375V31.7627H155.936V22.9914H157.793V23.98C158.08 23.5587 158.437 23.2505 158.862 23.0553C159.285 22.8594 159.761 22.7618 160.288 22.7618ZM166.588 22.7618C167.186 22.7618 167.735 22.8734 168.235 23.096C168.735 23.3193 169.162 23.6332 169.518 24.039C169.874 24.4449 170.152 24.9307 170.353 25.4953C170.553 26.0598 170.653 26.684 170.653 27.3679C170.653 27.4901 170.651 27.6116 170.645 27.7337C170.639 27.8559 170.63 27.9718 170.618 28.082H164.264C164.324 28.4787 164.435 28.8172 164.596 29.098C164.757 29.3789 164.951 29.6092 165.179 29.7896C165.407 29.9694 165.661 30.1028 165.943 30.1878C166.223 30.2734 166.516 30.3156 166.822 30.3156C167.253 30.3156 167.685 30.2355 168.119 30.0733C168.553 29.9118 168.949 29.6843 169.308 29.3908L170.241 30.7551C169.715 31.2129 169.157 31.5338 168.568 31.7164C167.978 31.8996 167.357 31.9916 166.706 31.9916C166.06 31.9916 165.467 31.8814 164.929 31.6623C164.391 31.4425 163.927 31.1308 163.538 30.7284C163.149 30.3254 162.847 29.8395 162.632 29.2722C162.416 28.7041 162.308 28.0729 162.308 27.3763C162.308 26.6924 162.413 26.0668 162.622 25.4995C162.831 24.9314 163.124 24.4449 163.501 24.039C163.879 23.6332 164.329 23.3193 164.852 23.096C165.375 22.8734 165.954 22.7618 166.588 22.7618ZM166.552 24.4645C166.216 24.4645 165.919 24.5165 165.658 24.6197C165.398 24.7236 165.174 24.8718 164.985 25.0642C164.797 25.2558 164.642 25.4854 164.523 25.7509C164.404 26.0163 164.32 26.3077 164.272 26.625H168.733C168.631 25.9411 168.392 25.4103 168.015 25.0319C167.638 24.6541 167.15 24.4645 166.552 24.4645ZM178.748 18.7055C179.304 18.7055 179.843 18.7665 180.363 18.8887C180.884 19.0109 181.369 19.1878 181.817 19.4203C182.265 19.652 182.673 19.9342 183.038 20.267C183.402 20.5999 183.708 20.9734 183.953 21.3884L182.257 22.542C181.874 21.9684 181.382 21.5162 180.78 21.1869C180.179 20.8576 179.502 20.6926 178.748 20.6926C178.107 20.6926 177.515 20.8056 176.97 21.031C176.426 21.2571 175.957 21.5745 175.562 21.9831C175.167 22.3925 174.858 22.884 174.633 23.4576C174.409 24.0313 174.297 24.6632 174.297 25.3527C174.297 26.043 174.409 26.6749 174.633 27.2479C174.858 27.8215 175.167 28.313 175.562 28.7224C175.957 29.1317 176.426 29.4484 176.97 29.6745C177.515 29.9006 178.107 30.0129 178.748 30.0129C179.495 30.0129 180.167 29.8514 180.762 29.5277C181.358 29.2041 181.853 28.7526 182.248 28.1726L183.9 29.4084C183.63 29.8107 183.315 30.1709 182.953 30.4883C182.591 30.8057 182.19 31.0774 181.75 31.3035C181.31 31.5296 180.837 31.7023 180.332 31.821C179.826 31.9396 179.299 32 178.748 32C177.785 32 176.899 31.8336 176.092 31.5008C175.284 31.1687 174.59 30.706 174.01 30.114C173.429 29.5221 172.977 28.82 172.654 28.0083C172.331 27.1959 172.169 26.3112 172.169 25.3527C172.169 24.3943 172.331 23.5096 172.654 22.6972C172.977 21.8855 173.429 21.1834 174.01 20.5914C174.59 19.9995 175.284 19.5375 176.092 19.2047C176.899 18.8719 177.785 18.7055 178.748 18.7055ZM189.832 22.7618C190.496 22.7618 191.11 22.8791 191.675 23.1143C192.241 23.3495 192.73 23.6732 193.143 24.0847C193.555 24.4961 193.878 24.9834 194.112 25.5444C194.346 26.1062 194.462 26.717 194.462 27.3756C194.462 28.035 194.346 28.6458 194.112 29.2069C193.878 29.7686 193.555 30.2559 193.143 30.6673C192.73 31.0795 192.241 31.4025 191.675 31.6377C191.11 31.8729 190.496 31.9902 189.832 31.9902C189.167 31.9902 188.552 31.8729 187.987 31.6377C187.421 31.4025 186.934 31.0788 186.524 30.6673C186.114 30.2559 185.793 29.7686 185.559 29.2069C185.326 28.6458 185.21 28.035 185.21 27.3756C185.21 26.7163 185.326 26.1062 185.559 25.5444C185.793 24.9834 186.114 24.4961 186.524 24.0847C186.934 23.6725 187.421 23.3495 187.987 23.1143C188.552 22.8791 189.167 22.7618 189.832 22.7618ZM189.832 24.5656C189.448 24.5656 189.092 24.6344 188.763 24.7714C188.435 24.9083 188.15 25.1007 187.911 25.3478C187.672 25.595 187.483 25.8913 187.346 26.2361C187.208 26.5815 187.139 26.9614 187.139 27.3756C187.139 27.7906 187.208 28.1712 187.346 28.5159C187.484 28.8607 187.672 29.157 187.911 29.4042C188.15 29.6513 188.435 29.843 188.763 29.9806C189.093 30.1183 189.448 30.1864 189.832 30.1864C190.214 30.1864 190.57 30.1176 190.899 29.9806C191.228 29.843 191.514 29.6513 191.756 29.4042C191.999 29.157 192.188 28.8607 192.326 28.5159C192.464 28.1712 192.533 27.7906 192.533 27.3756C192.533 26.9614 192.464 26.5808 192.326 26.2361C192.188 25.8913 191.999 25.595 191.756 25.3478C191.514 25.1007 191.228 24.9083 190.899 24.7714C190.57 24.6344 190.214 24.5656 189.832 24.5656ZM200.107 22.7618C200.724 22.7618 201.253 22.8791 201.696 23.1143C202.138 23.3495 202.509 23.662 202.809 24.0531V18.577H204.684V31.762H202.809V30.7095C202.51 31.0999 202.139 31.4116 201.696 31.6433C201.253 31.875 200.724 31.9916 200.107 31.9916C199.503 31.9916 198.941 31.8771 198.42 31.6482C197.899 31.4193 197.445 31.1006 197.056 30.6912C196.667 30.2826 196.362 29.796 196.141 29.2314C195.919 28.6669 195.809 28.0483 195.809 27.377C195.809 26.7058 195.919 26.0879 196.141 25.5234C196.362 24.9588 196.667 24.4715 197.056 24.0629C197.445 23.6542 197.899 23.3355 198.42 23.1066C198.941 22.8762 199.503 22.7618 200.107 22.7618ZM200.332 24.5656C199.925 24.5656 199.561 24.6401 199.241 24.7896C198.921 24.9399 198.65 25.1407 198.429 25.3942C198.207 25.6469 198.037 25.9447 197.917 26.2866C197.798 26.6286 197.738 26.9916 197.738 27.3763C197.738 27.7611 197.798 28.1241 197.917 28.4661C198.037 28.808 198.208 29.1057 198.429 29.3585C198.65 29.6113 198.92 29.8128 199.241 29.9631C199.561 30.1126 199.924 30.1871 200.332 30.1871C200.72 30.1871 201.073 30.1154 201.391 29.9722C201.708 29.8297 201.98 29.6324 202.207 29.3817C202.434 29.1317 202.611 28.8354 202.736 28.4935C202.862 28.1522 202.925 27.7794 202.925 27.3763C202.925 26.974 202.861 26.6012 202.736 26.2599C202.61 25.918 202.434 25.6224 202.207 25.3717C201.98 25.121 201.707 24.9244 201.391 24.7805C201.073 24.6372 200.72 24.5656 200.332 24.5656ZM210.931 22.7618C211.529 22.7618 212.078 22.8734 212.577 23.096C213.076 23.3193 213.505 23.6332 213.86 24.039C214.216 24.4449 214.494 24.9307 214.695 25.4953C214.895 26.0598 214.996 26.684 214.996 27.3679C214.996 27.4901 214.992 27.6116 214.987 27.7337C214.981 27.8559 214.972 27.9718 214.96 28.082H208.607C208.666 28.4787 208.777 28.8172 208.939 29.098C209.101 29.3789 209.294 29.6092 209.523 29.7896C209.75 29.9694 210.004 30.1028 210.285 30.1878C210.567 30.2734 210.86 30.3156 211.165 30.3156C211.595 30.3156 212.028 30.2355 212.461 30.0733C212.895 29.9118 213.291 29.6843 213.65 29.3908L214.584 30.7551C214.057 31.2129 213.499 31.5338 212.91 31.7164C212.321 31.8996 211.7 31.9916 211.048 31.9916C210.401 31.9916 209.81 31.8814 209.271 31.6623C208.733 31.4425 208.268 31.1308 207.879 30.7284C207.49 30.3254 207.188 29.8395 206.973 29.2722C206.757 28.7041 206.65 28.0729 206.65 27.3763C206.65 26.6924 206.754 26.0668 206.964 25.4995C207.174 24.9314 207.466 24.4449 207.843 24.039C208.221 23.6332 208.67 23.3193 209.194 23.096C209.718 22.8734 210.297 22.7618 210.931 22.7618ZM215.892 31.762V31.321H216.066V31.2312H215.622V31.321H215.796V31.762H215.892ZM216.754 31.762V31.2298H216.618L216.461 31.5956L216.304 31.2298H216.168V31.762H216.264V31.3604L216.411 31.7065H216.511L216.657 31.3597V31.762H216.754ZM210.895 24.4645C210.56 24.4645 210.262 24.5165 210.002 24.6197C209.741 24.7236 209.517 24.8718 209.329 25.0642C209.141 25.2558 208.986 25.4854 208.866 25.7509C208.746 26.0163 208.663 26.3077 208.615 26.625H213.075C212.973 25.9411 212.734 25.4103 212.357 25.0319C211.981 24.6541 211.493 24.4645 210.895 24.4645Z" fill="white"/>
<path fill-rule="evenodd" clip-rule="evenodd" d="M130.001 13.6765H127.897V2.73559L124.09 12.3747H121.874L118.067 2.83951V13.6758H115.963V0.379865H119.194L122.982 9.87718L126.771 0.379865H130.001V13.6765H130.001ZM141.078 13.6765H139.133V12.5847C138.822 12.9898 138.437 13.3128 137.978 13.553C137.519 13.7938 136.97 13.9146 136.331 13.9146C135.704 13.9146 135.121 13.7959 134.581 13.5586C134.041 13.3205 133.569 12.9898 133.166 12.5657C132.763 12.1416 132.446 11.6368 132.217 11.0512C131.987 10.4656 131.872 9.82452 131.872 9.12799C131.872 8.43145 131.987 7.79039 132.217 7.20409C132.446 6.6192 132.763 6.11365 133.166 5.68955C133.569 5.26544 134.041 4.93403 134.581 4.6967C135.121 4.45937 135.704 4.34071 136.331 4.34071C136.97 4.34071 137.519 4.46288 137.978 4.70653C138.437 4.95018 138.822 5.27457 139.133 5.67971V4.57804H141.078V13.6765ZM136.564 6.21124C136.142 6.21124 135.764 6.28918 135.433 6.44366C135.101 6.59883 134.82 6.80807 134.59 7.07068C134.361 7.33399 134.184 7.64153 134.06 7.99682C133.935 8.35141 133.873 8.72846 133.873 9.12729C133.873 9.52611 133.935 9.90246 134.06 10.257C134.184 10.6116 134.361 10.9206 134.59 11.1832C134.82 11.4465 135.101 11.655 135.433 11.8102C135.764 11.9647 136.142 12.0426 136.564 12.0426C136.967 12.0426 137.333 11.9682 137.662 11.8193C137.991 11.6705 138.273 11.4669 138.509 11.2071C138.744 10.9473 138.927 10.6404 139.058 10.2858C139.188 9.93125 139.254 9.54507 139.254 9.12729C139.254 8.7088 139.188 8.32262 139.058 7.96803C138.927 7.61344 138.744 7.3066 138.509 7.04681C138.273 6.78771 137.991 6.58339 137.662 6.43453C137.333 6.28567 136.967 6.21124 136.564 6.21124ZM150.014 6.85722C149.878 6.77577 149.71 6.68801 149.511 6.59602C149.313 6.50404 149.092 6.42049 148.851 6.34395C148.609 6.26812 148.353 6.20493 148.083 6.15367C147.812 6.10311 147.538 6.07784 147.259 6.07784C146.725 6.07784 146.311 6.17754 146.016 6.37695C145.721 6.57636 145.574 6.83827 145.574 7.16055C145.574 7.31854 145.613 7.45125 145.691 7.55938C145.768 7.66751 145.872 7.75598 146.002 7.82549C146.133 7.89501 146.288 7.95048 146.468 7.9919C146.648 8.03333 146.84 8.06984 147.045 8.10074L147.966 8.24327C148.941 8.38862 149.701 8.67861 150.247 9.11184C150.794 9.54507 151.067 10.1517 151.067 10.9304C151.067 11.3672 150.975 11.7681 150.792 12.1318C150.609 12.4955 150.346 12.8094 150.001 13.072C149.657 13.3353 149.231 13.5389 148.726 13.685C148.22 13.8303 147.647 13.9026 147.008 13.9026C146.778 13.9026 146.511 13.8886 146.207 13.8605C145.903 13.8317 145.58 13.7748 145.239 13.6899C144.898 13.6042 144.55 13.4855 144.196 13.3339C143.843 13.1815 143.504 12.9821 143.182 12.7356L144.085 11.2443C144.246 11.3714 144.421 11.4893 144.611 11.6003C144.8 11.7112 145.014 11.8095 145.253 11.8945C145.492 11.9801 145.756 12.0489 146.044 12.0988C146.333 12.1494 146.66 12.1746 147.026 12.1746C147.697 12.1746 148.202 12.0749 148.544 11.8755C148.885 11.6761 149.056 11.4051 149.056 11.0631C149.056 10.804 148.931 10.5899 148.684 10.4221C148.435 10.2549 148.044 10.1328 147.511 10.0569L146.58 9.93336C145.587 9.79363 144.834 9.49802 144.322 9.04513C143.81 8.59295 143.554 7.99893 143.554 7.26447C143.554 6.8151 143.64 6.40995 143.81 6.04905C143.981 5.68814 144.226 5.3827 144.545 5.13204C144.865 4.88207 145.251 4.68898 145.704 4.55276C146.157 4.41654 146.669 4.34913 147.24 4.34913C147.942 4.34913 148.602 4.43269 149.223 4.60121C149.844 4.76832 150.387 5.00424 150.852 5.30828L150.014 6.85722ZM159.248 6.38187H155.832V10.3427C155.832 10.646 155.869 10.9058 155.943 11.1214C156.018 11.337 156.119 11.5125 156.246 11.6487C156.373 11.7849 156.522 11.8846 156.693 11.9478C156.864 12.011 157.048 12.0426 157.247 12.0426C157.551 12.0426 157.859 11.9829 158.173 11.8622C158.487 11.7421 158.777 11.5968 159.044 11.4261L159.816 13.0116C159.456 13.2588 159.051 13.4715 158.601 13.6477C158.151 13.8254 157.644 13.9139 157.079 13.9139C156.067 13.9139 155.281 13.6274 154.719 13.0544C154.158 12.4815 153.877 11.5904 153.877 10.3806V6.38187H152.098V4.57804H153.877V1.82349H155.831V4.57804H159.248V6.38187H159.248ZM165.234 4.34001C165.854 4.34001 166.423 4.45586 166.942 4.68687C167.46 4.91788 167.904 5.24438 168.273 5.66497C168.642 6.08626 168.931 6.5897 169.139 7.1746C169.347 7.76019 169.451 8.40828 169.451 9.11675C169.451 9.24384 169.447 9.37023 169.441 9.49662C169.435 9.62371 169.425 9.74378 169.414 9.85752H162.823C162.885 10.269 163 10.6208 163.167 10.9122C163.334 11.2028 163.536 11.4423 163.772 11.6291C164.008 11.8158 164.271 11.9542 164.563 12.0419C164.855 12.1311 165.159 12.1746 165.475 12.1746C165.922 12.1746 166.37 12.0911 166.821 11.9233C167.271 11.7561 167.682 11.5202 168.054 11.2155L169.022 12.6303C168.476 13.105 167.897 13.4378 167.286 13.6281C166.675 13.8177 166.031 13.9132 165.355 13.9132C164.684 13.9132 164.07 13.7987 163.512 13.5712C162.953 13.3437 162.472 13.0207 162.068 12.6029C161.665 12.1845 161.351 11.6817 161.128 11.0926C160.905 10.5042 160.793 9.8484 160.793 9.12729C160.793 8.41811 160.902 7.76862 161.119 7.17951C161.336 6.59111 161.64 6.08626 162.031 5.66497C162.422 5.24368 162.889 4.91788 163.433 4.68687C163.976 4.45586 164.576 4.34001 165.234 4.34001ZM165.196 6.10733C164.849 6.10733 164.54 6.16139 164.27 6.26882C164 6.37625 163.768 6.53002 163.572 6.72943C163.377 6.92955 163.216 7.16617 163.093 7.44212C162.968 7.71736 162.882 8.01999 162.832 8.3486H167.459C167.353 7.64013 167.105 7.08894 166.714 6.69573C166.322 6.30323 165.816 6.10733 165.196 6.10733ZM176.19 4.34001C176.488 4.34001 176.756 4.36037 176.995 4.4018C177.234 4.44322 177.465 4.50782 177.688 4.59629L177.223 6.56232C177.018 6.45489 176.78 6.37204 176.506 6.31516C176.233 6.25899 175.979 6.2302 175.742 6.2302C175.432 6.2302 175.146 6.28427 174.886 6.3917C174.626 6.49913 174.402 6.65711 174.216 6.86635C174.03 7.07489 173.884 7.33118 173.778 7.63521C173.673 7.93854 173.62 8.284 173.62 8.67018V13.6751H171.674V4.57663H173.601V5.60248C173.899 5.16574 174.268 4.84626 174.709 4.64334C175.15 4.44182 175.643 4.34001 176.19 4.34001ZM182.845 4.34001C183.516 4.34001 184.14 4.46218 184.717 4.70583C185.293 4.94948 185.781 5.31249 186.178 5.79346L184.93 7.15213C184.613 6.8481 184.286 6.61568 183.945 6.45419C183.602 6.29269 183.218 6.21195 182.79 6.21195C182.418 6.21195 182.071 6.28286 181.747 6.4261C181.424 6.56794 181.145 6.76735 180.91 7.02434C180.674 7.28062 180.489 7.58746 180.356 7.94486C180.222 8.30296 180.156 8.69687 180.156 9.12799C180.156 9.55841 180.222 9.95231 180.356 10.3104C180.489 10.6678 180.674 10.9746 180.91 11.2316C181.145 11.4879 181.424 11.6873 181.747 11.8292C182.07 11.9717 182.417 12.0433 182.79 12.0433C183.218 12.0433 183.618 11.9527 183.99 11.773C184.362 11.5925 184.692 11.3657 184.977 11.0933L186.178 12.4611C185.769 12.9428 185.278 13.3044 184.708 13.5487C184.136 13.7924 183.516 13.9146 182.845 13.9146C182.139 13.9146 181.496 13.7924 180.919 13.5487C180.342 13.3051 179.848 12.9695 179.439 12.5426C179.029 12.1149 178.713 11.6101 178.49 11.0273C178.267 10.4445 178.155 9.81188 178.155 9.12799C178.155 8.44409 178.267 7.81075 178.49 7.22796C178.713 6.64517 179.029 6.14033 179.439 5.71272C179.848 5.28581 180.342 4.95018 180.919 4.70653C181.496 4.46218 182.138 4.34001 182.845 4.34001ZM196.548 13.6765H194.602V12.5847C194.292 12.9898 193.907 13.3128 193.448 13.553C192.988 13.7938 192.44 13.9146 191.8 13.9146C191.173 13.9146 190.59 13.7959 190.05 13.5586C189.511 13.3205 189.039 12.9898 188.635 12.5657C188.232 12.1416 187.916 11.6368 187.686 11.0512C187.456 10.4656 187.341 9.82452 187.341 9.12799C187.341 8.43145 187.456 7.79039 187.686 7.20409C187.916 6.6192 188.232 6.11365 188.635 5.68955C189.039 5.26544 189.51 4.93403 190.05 4.6967C190.59 4.45937 191.173 4.34071 191.8 4.34071C192.44 4.34071 192.989 4.46288 193.448 4.70653C193.907 4.95018 194.292 5.27457 194.602 5.67971V4.57804H196.548V13.6765ZM192.033 6.21124C191.611 6.21124 191.234 6.28918 190.902 6.44366C190.571 6.59883 190.29 6.80807 190.06 7.07068C189.831 7.33399 189.654 7.64153 189.529 7.99682C189.405 8.35141 189.343 8.72846 189.343 9.12729C189.343 9.52611 189.405 9.90246 189.529 10.257C189.654 10.6116 189.831 10.9206 190.06 11.1832C190.29 11.4465 190.571 11.655 190.902 11.8102C191.235 11.9647 191.611 12.0426 192.033 12.0426C192.437 12.0426 192.802 11.9682 193.132 11.8193C193.461 11.6705 193.743 11.4669 193.979 11.2071C194.215 10.9473 194.398 10.6404 194.529 10.2858C194.659 9.93125 194.725 9.54507 194.725 9.12729C194.725 8.7088 194.659 8.32262 194.529 7.96803C194.398 7.61344 194.215 7.3066 193.979 7.04681C193.743 6.78771 193.461 6.58339 193.132 6.43453C192.802 6.28567 192.436 6.21124 192.033 6.21124ZM203.929 4.34001C204.227 4.34001 204.496 4.36037 204.735 4.4018C204.973 4.44322 205.205 4.50782 205.428 4.59629L204.963 6.56232C204.759 6.45489 204.52 6.37204 204.247 6.31516C203.973 6.25899 203.719 6.2302 203.483 6.2302C203.172 6.2302 202.887 6.28427 202.627 6.3917C202.366 6.49913 202.142 6.65711 201.956 6.86635C201.77 7.07489 201.624 7.33118 201.519 7.63521C201.413 7.93854 201.36 8.284 201.36 8.67018V13.6751H199.415V4.57663H201.342V5.60248C201.639 5.16574 202.009 4.84626 202.449 4.64334C202.89 4.44182 203.384 4.34001 203.929 4.34001ZM210.315 4.34001C210.955 4.34001 211.503 4.46218 211.963 4.70583C212.422 4.94948 212.807 5.27387 213.117 5.67901V0H215.063V13.6758H213.117V12.584C212.807 12.9891 212.422 13.3121 211.963 13.5523C211.503 13.7931 210.955 13.9139 210.315 13.9139C209.688 13.9139 209.105 13.7952 208.565 13.5579C208.026 13.3198 207.554 12.9891 207.15 12.565C206.746 12.1409 206.43 11.6361 206.201 11.0505C205.971 10.4649 205.856 9.82382 205.856 9.12729C205.856 8.43075 205.971 7.78968 206.201 7.20339C206.43 6.61849 206.747 6.11294 207.15 5.68884C207.554 5.26474 208.025 4.93333 208.565 4.696C209.105 4.45937 209.688 4.34001 210.315 4.34001ZM217.335 12.8347C217.415 12.8347 217.489 12.8501 217.559 12.8803C217.63 12.9105 217.69 12.9519 217.743 13.0046C217.795 13.0572 217.837 13.1183 217.867 13.1892C217.897 13.2595 217.912 13.3346 217.912 13.4139C217.912 13.4933 217.897 13.5684 217.867 13.6379C217.837 13.7074 217.795 13.7692 217.743 13.8219C217.691 13.8745 217.63 13.916 217.559 13.9469C217.489 13.9778 217.415 13.9932 217.335 13.9932C217.254 13.9932 217.177 13.9778 217.107 13.9469C217.036 13.916 216.974 13.8745 216.922 13.8219C216.87 13.7692 216.829 13.7081 216.799 13.6379C216.769 13.5677 216.754 13.4933 216.754 13.4139C216.754 13.3346 216.769 13.2595 216.799 13.1892C216.829 13.119 216.87 13.0572 216.922 13.0046C216.974 12.9519 217.036 12.9105 217.107 12.8803C217.177 12.8501 217.253 12.8347 217.335 12.8347ZM217.335 13.864C217.396 13.864 217.453 13.8521 217.506 13.8289C217.559 13.805 217.605 13.7727 217.645 13.7327C217.685 13.692 217.716 13.6442 217.739 13.5895C217.762 13.5347 217.773 13.4764 217.773 13.4132C217.773 13.3507 217.762 13.2925 217.739 13.2377C217.716 13.1829 217.685 13.1352 217.645 13.0944C217.605 13.0537 217.559 13.0221 217.506 12.999C217.453 12.9758 217.396 12.9646 217.335 12.9646C217.273 12.9646 217.215 12.9758 217.16 12.999C217.106 13.0221 217.059 13.0537 217.019 13.0944C216.979 13.1352 216.948 13.1829 216.926 13.2377C216.903 13.2925 216.892 13.3507 216.892 13.4132C216.892 13.4757 216.903 13.534 216.926 13.5895C216.948 13.6442 216.979 13.692 217.019 13.7327C217.059 13.7734 217.106 13.8057 217.16 13.8289C217.215 13.8528 217.273 13.864 217.335 13.864ZM217.368 13.1429C217.436 13.1429 217.488 13.1583 217.524 13.1892C217.561 13.2201 217.579 13.2616 217.579 13.3149C217.579 13.3592 217.565 13.3964 217.535 13.4252C217.506 13.454 217.464 13.4715 217.411 13.4785L217.583 13.6814H217.448L217.288 13.4799H217.237V13.6814H217.124V13.1443H217.368V13.1429ZM217.238 13.2433V13.3865H217.367C217.397 13.3865 217.42 13.3809 217.438 13.369C217.455 13.3571 217.464 13.3388 217.464 13.3142C217.464 13.2903 217.455 13.2728 217.438 13.2609C217.42 13.2489 217.397 13.2433 217.367 13.2433H217.238ZM210.548 6.21124C210.126 6.21124 209.749 6.28918 209.417 6.44366C209.085 6.59883 208.805 6.80807 208.575 7.07068C208.346 7.33399 208.169 7.64153 208.044 7.99682C207.92 8.35141 207.858 8.72846 207.858 9.12729C207.858 9.52611 207.92 9.90246 208.044 10.257C208.169 10.6116 208.346 10.9206 208.575 11.1832C208.805 11.4465 209.085 11.655 209.417 11.8102C209.749 11.9647 210.126 12.0426 210.548 12.0426C210.952 12.0426 211.317 11.9682 211.647 11.8193C211.976 11.6705 212.257 11.4669 212.494 11.2071C212.73 10.9473 212.913 10.6404 213.043 10.2858C213.174 9.93125 213.239 9.54507 213.239 9.12729C213.239 8.7088 213.174 8.32262 213.043 7.96803C212.913 7.61344 212.73 7.3066 212.494 7.04681C212.258 6.78771 211.976 6.58339 211.647 6.43453C211.317 6.28567 210.952 6.21124 210.548 6.21124Z" fill="white"/>
</g>
<g clip-path="url(#clip2_3001_4679)">
<path d="M285.808 4.1768C284.917 5.27118 283.492 6.13436 282.067 6.01105C281.889 4.53132 282.587 2.9591 283.403 1.98803C284.294 0.862812 285.853 0.0612894 287.114 -0.000366211C287.263 1.54102 286.684 3.05158 285.808 4.1768ZM287.1 6.30392C285.036 6.1806 283.269 7.52161 282.29 7.52161C281.295 7.52161 279.796 6.36557 278.163 6.3964C276.04 6.42723 274.065 7.67575 272.982 9.66414C270.755 13.6409 272.403 19.529 274.555 22.7659C275.609 24.369 276.871 26.1262 278.534 26.0645C280.107 26.0029 280.731 25.001 282.631 25.001C284.546 25.001 285.095 26.0645 286.758 26.0337C288.48 26.0029 289.564 24.4307 290.618 22.8276C291.82 21.0088 292.31 19.2362 292.34 19.1437C292.31 19.1129 289.015 17.8027 288.985 13.8567C288.955 10.5581 291.583 8.98593 291.702 8.89345C290.217 6.61219 287.901 6.36557 287.1 6.30392ZM299.02 1.83389V25.8641H302.613V17.6485H307.586C312.129 17.6485 315.321 14.4116 315.321 9.7258C315.321 5.03998 312.188 1.83389 307.705 1.83389H299.02ZM302.613 4.97832H306.755C309.872 4.97832 311.654 6.70468 311.654 9.74121C311.654 12.7777 309.872 14.5195 306.74 14.5195H302.613V4.97832ZM321.882 26.0491C324.139 26.0491 326.232 24.8622 327.182 22.9817H327.257V25.8641H330.582V13.903C330.582 10.4348 327.91 8.19982 323.798 8.19982C319.982 8.19982 317.162 10.4657 317.058 13.5793H320.294C320.561 12.0995 321.882 11.1285 323.694 11.1285C325.891 11.1285 327.123 12.192 327.123 14.1496V15.4752L322.64 15.7526C318.468 16.0147 316.212 17.7873 316.212 20.87C316.212 23.9836 318.542 26.0491 321.882 26.0491ZM322.847 23.1975C320.932 23.1975 319.715 22.2419 319.715 20.7776C319.715 19.267 320.888 18.3884 323.129 18.2497L327.123 17.9876V19.3441C327.123 21.5945 325.282 23.1975 322.847 23.1975ZM335.021 32.3996C338.524 32.3996 340.172 31.0124 341.612 26.8044L347.921 8.43103H344.269L340.038 22.6272H339.964L335.733 8.43103H331.977L338.064 25.9258L337.737 26.9894C337.188 28.7928 336.297 29.4864 334.709 29.4864C334.427 29.4864 333.878 29.4556 333.655 29.4248V32.3071C333.863 32.3688 334.753 32.3996 335.021 32.3996Z" fill="white"/>
</g>
<g clip-path="url(#clip3_3001_4679)">
<path d="M434.988 16.5467V24.3577H432.363V5.04016H439.188C440.851 5.04016 442.426 5.62809 443.651 6.71995C444.876 7.72783 445.488 9.23964 445.488 10.8354C445.488 12.4312 444.876 13.8591 443.651 14.9509C442.426 16.0428 440.938 16.6307 439.188 16.6307L434.988 16.5467ZM434.988 7.39187V14.111H439.363C440.326 14.111 441.288 13.7751 441.901 13.1032C443.301 11.8433 443.301 9.74357 441.988 8.48373L441.901 8.39974C441.201 7.72783 440.326 7.30788 439.363 7.39187H434.988Z" fill="white"/>
<path d="M451.526 10.7504C453.451 10.7504 454.938 11.2543 456.076 12.2622C457.213 13.2701 457.738 14.6139 457.738 16.2937V24.3567H455.288V22.5089H455.201C454.151 24.0207 452.663 24.7766 450.913 24.7766C449.426 24.7766 448.113 24.3567 447.063 23.5168C446.101 22.6769 445.488 21.501 445.488 20.2412C445.488 18.8973 446.013 17.8055 447.063 16.9656C448.113 16.1257 449.601 15.7897 451.351 15.7897C452.926 15.7897 454.151 16.0417 455.113 16.6296V16.0417C455.113 15.2018 454.763 14.3619 454.063 13.858C453.363 13.2701 452.488 12.9341 451.526 12.9341C450.038 12.9341 448.901 13.522 448.113 14.6979L445.838 13.354C447.238 11.5903 449.076 10.7504 451.526 10.7504ZM448.201 20.3252C448.201 20.9971 448.551 21.585 449.076 21.921C449.688 22.3409 450.388 22.5929 451.088 22.5929C452.138 22.5929 453.188 22.1729 453.976 21.417C454.851 20.6611 455.288 19.7372 455.288 18.7294C454.501 18.1414 453.363 17.8055 451.876 17.8055C450.826 17.8055 449.951 18.0575 449.251 18.5614C448.551 18.9813 448.201 19.5693 448.201 20.3252Z" fill="white"/>
<path d="M471.914 11.1708L463.251 30.2365H460.626L463.864 23.6013L458.176 11.2548H460.976L465.089 20.7456H465.176L469.201 11.2548H471.914V11.1708Z" fill="white"/>
<path d="M424.576 14.8661C424.576 14.1102 424.488 13.3543 424.401 12.5984H413.463V16.8819H419.676C419.413 18.2257 418.626 19.4855 417.401 20.2414V23.0131H421.163C423.351 21.0813 424.576 18.2257 424.576 14.8661Z" fill="white"/>
<path d="M413.463 25.7017C416.613 25.7017 419.238 24.6938 421.163 23.0141L417.401 20.2424C416.351 20.9143 415.038 21.3343 413.463 21.3343C410.488 21.3343 407.863 19.4025 406.988 16.7148H403.138V19.5705C405.151 23.35 409.088 25.7017 413.463 25.7017Z" fill="white"/>
<path d="M406.989 16.7148C406.464 15.371 406.464 13.8591 406.989 12.4313V9.57568H403.139C401.476 12.6833 401.476 16.3788 403.139 19.5704L406.989 16.7148Z" fill="white"/>
<path d="M413.464 7.89504C415.127 7.89504 416.702 8.48297 417.927 9.57483L421.252 6.38323C419.152 4.53546 416.352 3.4436 413.552 3.52759C409.177 3.52759 405.152 5.8793 403.227 9.65882L407.077 12.5145C407.864 9.8268 410.489 7.89504 413.464 7.89504Z" fill="white"/>
</g>
<defs>
<clipPath id="clip0_3001_4679">
<rect width="59.9997" height="32" fill="white" transform="translate(0.913086)"/>
</clipPath>
<clipPath id="clip1_3001_4679">
<rect width="103" height="32" fill="white" transform="translate(114.913)"/>
</clipPath>
<clipPath id="clip2_3001_4679">
<rect width="76" height="32" fill="white" transform="translate(271.913)"/>
</clipPath>
<clipPath id="clip3_3001_4679">
<rect width="70" height="32" fill="white" transform="translate(401.913)"/>
</clipPath>
</defs>
</svg>
