<svg xmlns="http://www.w3.org/2000/svg">
  <symbol id="ico-cart" viewBox="0 0 18 20" xmlns="http://www.w3.org/2000/svg">
    <path fill-rule="evenodd" clip-rule="evenodd" d="M18 20V6.00003H14V5.00003C14 3.81216 13.6749 2.90388 13 2.00003C12.0685 0.752486 10.5542 -0.00106166 9 0.000490779C7.44203 0.00204697 5.95738 0.754423 5.01945 2.00003C4.37731 2.8528 4.0012 3.90421 4 5.00003V6.00003H0V20L18 20ZM14 10V8.00003H12V10H14ZM9 2.00003C7.346 2.00003 6 3.34603 6 5.00003V6.00003H12V5.00003C12 3.34603 10.654 2.00003 9 2.00003ZM6 8.00003H4V10H6V8.00003Z" />
  </symbol>
  <symbol id="ico-user" viewBox="0 0 16 19" xmlns="http://www.w3.org/2000/svg">
    <path d="M8.00056 8.77186C10.3796 8.77186 12.3083 6.80821 12.3083 4.38593C12.3083 1.96365 10.3796 0 8.00056 0C5.62149 0 3.69287 1.96365 3.69287 4.38593C3.69287 6.80821 5.62149 8.77186 8.00056 8.77186Z" />
    <path d="M15.76 13.6869C14.7712 12.596 13.5712 11.7255 12.2357 11.1301C10.9001 10.5347 9.45796 10.2273 8 10.2273C6.54204 10.2273 5.09988 10.5347 3.76434 11.1301C2.42881 11.7255 1.22883 12.596 0.24 13.6869C0.086834 13.8584 0.00135711 14.0816 0 14.3134V18.0728C0.00323597 18.3199 0.101915 18.5557 0.274676 18.7293C0.447437 18.9028 0.680379 19.0001 0.923077 19.0001H15.0769C15.3217 19.0001 15.5565 18.9011 15.7296 18.7248C15.9027 18.5486 16 18.3095 16 18.0603V14.3009C15.9956 14.0734 15.9104 13.8552 15.76 13.6869Z" />
  </symbol>
  <symbol id="ico-search" viewBox="0 0 19 19" xmlns="http://www.w3.org/2000/svg">
    <path fill-rule="evenodd" clip-rule="evenodd" d="M0 8.5C0 3.80558 3.80558 0 8.5 0C13.1944 0 17 3.80558 17 8.5C17 10.4865 16.3176 12.3149 15.176 13.7618L18.7071 17.2929C19.0976 17.6834 19.0976 18.3166 18.7071 18.7071C18.3166 19.0976 17.6834 19.0976 17.2929 18.7071L13.7618 15.176C12.3149 16.3176 10.4865 17 8.5 17C3.80558 17 0 13.1944 0 8.5ZM8.5 2C4.91015 2 2 4.91015 2 8.5C2 12.0899 4.91015 15 8.5 15C10.2952 15 11.9188 14.2736 13.0962 13.0962C14.2736 11.9188 15 10.2952 15 8.5C15 4.91015 12.0899 2 8.5 2Z" />
  </symbol>
  <symbol id="ico-catalog" viewBox="0 0 14 14" xmlns="http://www.w3.org/2000/svg">
    <rect width="6" height="6" rx="3" />
    <rect x="8" width="6" height="6" rx="3" />
    <rect y="8" width="6" height="6" rx="3" />
    <rect x="8" y="8" width="6" height="6" rx="3" />
  </symbol>
  <symbol id="ico-home" width="16" height="16" viewBox="0 0 16 16" xmlns="http://www.w3.org/2000/svg">
    <path fill-rule="evenodd" clip-rule="evenodd" d="M8.35327 0.789269C8.15801 0.594007 7.84143 0.594007 7.64617 0.789269C5.3604 3.07504 3.07463 5.36081 0.789025 7.64641C0.593763 7.84167 0.593763 8.15826 0.789025 8.35352C0.984287 8.54878 1.30087 8.54878 1.49613 8.35352L2.16602 7.68363V11.8094C2.16602 12.3462 2.37924 12.8609 2.75878 13.2405C3.13831 13.62 3.65308 13.8332 4.18983 13.8332H11.8089C12.3456 13.8332 12.8604 13.62 13.2399 13.2405C13.6195 12.8609 13.8327 12.3462 13.8327 11.8094V7.68289L14.5033 8.35352C14.6986 8.54878 15.0152 8.54878 15.2104 8.35352C15.4057 8.15826 15.4057 7.84167 15.2104 7.64641L8.35327 0.789269ZM12.8327 6.68289L7.99972 1.84993L3.16602 6.68363V11.8094C3.16602 12.0809 3.27388 12.3413 3.46588 12.5333C3.65788 12.7254 3.91829 12.8332 4.18983 12.8332H11.8089C12.0804 12.8332 12.3408 12.7254 12.5328 12.5333C12.7248 12.3413 12.8327 12.0809 12.8327 11.8094V6.68289Z" />
  </symbol>
  <symbol id="ico-filter" viewBox="0 0 20 12" xmlns="http://www.w3.org/2000/svg">
    <path fill-rule="evenodd" clip-rule="evenodd" d="M0 0H20V2H0V0ZM4 5H16V7H4V5ZM12 10H8V12H12V10Z" />
  </symbol>
  <symbol id="ico-slider-arrow" viewBox="0 0 11 19" xmlns="http://www.w3.org/2000/svg">
    <path fill-rule="evenodd" clip-rule="evenodd" d="M8.07561 9.46013L0.294355 1.68504L1.70801 0.270264L10.904 9.45901L1.71529 18.655L0.300514 17.2414L8.07561 9.46013Z" />
  </symbol>
  <symbol id="ico-play" viewBox="0 0 20 20" xmlns="http://www.w3.org/2000/svg">
    <path d="M18.5 9.13397C19.1667 9.51887 19.1667 10.4811 18.5 10.866L6.5 17.7942C5.83333 18.1791 5 17.698 5 16.9282V3.0718C5 2.302 5.83333 1.82087 6.5 2.20577L18.5 9.13397Z" />
  </symbol>
  <symbol id="ico-one-click" viewBox="0 0 12 18" xmlns="http://www.w3.org/2000/svg">
    <path d="M6.04983 0.114024C8.19283 0.114024 10.1398 0.957024 11.5758 2.33002L10.1598 3.74402C9.04787 2.6951 7.57645 2.11183 6.04783 2.11402C4.47203 2.11187 2.95907 2.73179 1.83783 3.83902L0.423828 2.42502C1.9197 0.941526 3.94208 0.110639 6.04883 0.114024M4.97683 8.88602C4.97683 8.34136 5.43216 7.88602 5.97683 7.88602C6.5215 7.88602 6.97683 8.34136 6.97683 8.88602V10.886H4.97683V8.88602Z" />
    <path fill-rule="evenodd" clip-rule="evenodd" d="M5.97656 3.88599C4.65048 3.88599 3.37871 4.41277 2.44103 5.35045C1.50335 6.28813 0.976563 7.5599 0.976562 8.88599V12.886C0.976563 14.2121 1.50335 15.4838 2.44103 16.4215C3.37871 17.3592 4.65048 17.886 5.97656 17.886C7.30264 17.886 8.57441 17.3592 9.5121 16.4215C10.4498 15.4838 10.9766 14.2121 10.9766 12.886V8.88599C10.9766 8.22938 10.8472 7.5792 10.596 6.97257C10.3447 6.36594 9.97639 5.81474 9.5121 5.35045C8.58351 4.42187 7.28978 3.88599 5.97656 3.88599ZM8.97656 12.886V8.88599C8.97656 8.09034 8.66049 7.32728 8.09788 6.76467C7.53527 6.20206 6.77221 5.88599 5.97656 5.88599C5.18091 5.88599 4.41785 6.20206 3.85524 6.76467C3.29263 7.32728 2.97656 8.09034 2.97656 8.88599V12.886C2.97656 13.6816 3.29263 14.4447 3.85524 15.0073C4.41785 15.5699 5.18091 15.886 5.97656 15.886C6.77221 15.886 7.53527 15.5699 8.09788 15.0073C8.66049 14.4447 8.97656 13.6816 8.97656 12.886Z" />
  </symbol>
  <symbol id="ico-trash" viewBox="0 0 19 21" xmlns="http://www.w3.org/2000/svg">
    <path d="M6.47969 15.75L9.51302 12.7167L12.5464 15.75L14.1797 14.1167L11.1464 11.0833L14.1797 8.05L12.5464 6.41667L9.51302 9.45L6.47969 6.41667L4.84635 8.05L7.87969 11.0833L4.84635 14.1167L6.47969 15.75ZM3.67969 21C3.03802 21 2.48891 20.7717 2.03235 20.3152C1.5758 19.8586 1.34713 19.3091 1.34635 18.6667V3.5H0.179688V1.16667H6.01302V0H13.013V1.16667H18.8464V3.5H17.6797V18.6667C17.6797 19.3083 17.4514 19.8578 16.9949 20.3152C16.5383 20.7725 15.9888 21.0008 15.3464 21H3.67969Z" />
  </symbol>
  <symbol id="ico-arrow" viewBox="0 0 12 12"  xmlns="http://www.w3.org/2000/svg">
    <path fill-rule="evenodd" clip-rule="evenodd" d="M8.82987 5.53889L5.07881 1.78783L5.92734 0.9393L11.1269 6.13889L5.92734 11.3385L5.07881 10.49L8.82988 6.73889L0.00041213 6.73889L0.000412298 5.53889L8.82987 5.53889Z"/>
  </symbol>
<symbol id="ico-opt" viewBox="0 0 21 21" xmlns="http://www.w3.org/2000/svg">
<path d="M20.5625 20H17.0625C16.821 20 16.625 19.804 16.625 19.5625V18.25H13.125V19.5625C13.125 19.804 12.929 20 12.6875 20H8.3125C8.071 20 7.875 19.804 7.875 19.5625V18.25H4.375V19.5625C4.375 19.804 4.179 20 3.9375 20H0.4375C0.196 20 0 19.804 0 19.5625V15.1875C0 14.946 0.196 14.75 0.4375 14.75H20.5625C20.804 14.75 21 14.946 21 15.1875V19.5625C21 19.804 20.804 20 20.5625 20ZM17.5 19.125H20.125V15.625H0.875V19.125H3.5V17.8125C3.5 17.571 3.696 17.375 3.9375 17.375H8.3125C8.554 17.375 8.75 17.571 8.75 17.8125V19.125H12.25V17.8125C12.25 17.571 12.446 17.375 12.6875 17.375H17.0625C17.304 17.375 17.5 17.571 17.5 17.8125V19.125Z"/>
<path d="M10.5 10.375C10.2585 10.375 10.0625 10.179 10.0625 9.9375V2.0625C10.0625 1.821 10.2585 1.625 10.5 1.625C10.7415 1.625 10.9375 1.821 10.9375 2.0625V9.9375C10.9375 10.179 10.7415 10.375 10.5 10.375Z"/>
<path d="M10.5002 10.375C10.3882 10.375 10.2762 10.3321 10.1905 10.2472L6.69047 6.7472C6.51984 6.57658 6.51984 6.2992 6.69047 6.12858C6.86109 5.95795 7.13847 5.95795 7.30909 6.12858L10.5002 9.31883L13.6905 6.12858C13.8611 5.95795 14.1385 5.95795 14.3091 6.12858C14.4797 6.2992 14.4797 6.57658 14.3091 6.7472L10.8091 10.2472C10.7242 10.3321 10.6122 10.375 10.5002 10.375Z"/>
</symbol>


</svg>