<svg width="31" height="50" viewBox="0 0 31 50" fill="none" xmlns="http://www.w3.org/2000/svg">
<g clip-path="url(#clip0_3607_19813)">
<path d="M15.4987 0.12384C14.3048 1.43976 13.5772 3.16115 13.5772 5.0517C13.6476 9.2022 14.1716 13.3477 14.2177 17.4895C14.3125 21.3577 13.1186 24.9895 11.6659 28.5343C11.1817 29.5131 10.6591 30.4708 10.1352 31.431L8.59797 31.1301C7.21066 30.8614 6.30884 29.5517 6.58682 28.2047C6.82892 27.0268 7.89727 26.2022 9.08859 26.2022L9.64967 26.2606L8.39814 16.1114C7.9895 11.5965 5.58892 7.62881 2.05723 5.05419C1.45004 4.6114 0.805701 4.20593 0.135742 3.84896V39.8813H8.70301C9.34351 43.2519 11.2573 46.1997 13.9474 48.2146C14.5866 48.6425 15.1233 49.2072 15.5089 49.8664C15.8932 49.2072 16.43 48.6425 17.0705 48.2146C19.7605 46.1947 21.6743 43.2532 22.3148 39.8813H30.8821V3.84896C30.2121 4.20593 29.5678 4.6114 28.9606 5.05419C25.4251 7.63254 23.0296 11.5965 22.6197 16.1114L21.3682 26.2606L21.9293 26.2022C23.1206 26.2072 24.1889 27.0256 24.431 28.2047C24.7077 29.5517 23.8059 30.8602 22.4199 31.1301L20.8827 31.431C20.3588 30.4721 19.8348 29.5144 19.3519 28.5343C17.898 24.992 16.7041 21.3602 16.7989 17.4895C16.845 13.3353 17.3689 9.19349 17.4394 5.0517C17.4394 3.16115 16.7118 1.44474 15.5179 0.12384H15.4987ZM2.68876 9.04175C4.34636 10.9311 5.45954 13.283 5.78876 15.8738L6.81355 24.2445C5.50054 24.8788 4.50777 26.043 4.13116 27.4522H2.67979V9.04424L2.68876 9.04175ZM28.3086 9.04175V27.4497H26.8572C26.4832 26.0417 25.4878 24.8776 24.1748 24.242L25.1996 15.8713C25.5314 13.283 26.6446 10.9286 28.2996 9.03802L28.3086 9.04175ZM15.4987 25.8701C16.1866 28.0554 17.1332 30.1363 18.3105 32.0616C17.1909 32.3912 16.2173 33.033 15.4987 33.8975C14.78 33.033 13.8065 32.3925 12.6869 32.0604C13.8641 30.1313 14.8108 28.0554 15.4987 25.8701ZM2.68876 29.9422H4.14012C4.59744 31.6599 5.97835 33.0156 7.7269 33.4895L8.95793 33.7619C8.62872 34.9211 8.4481 36.1375 8.4481 37.4062H2.68363V29.9435L2.68876 29.9422ZM26.8611 29.9422H28.3124V37.4049H22.548C22.548 36.1437 22.3674 34.9211 22.0381 33.7606L23.2692 33.4883C25.0241 33.0144 26.4038 31.6574 26.8559 29.941L26.8611 29.9422ZM11.4636 34.3328C13.0174 34.5455 14.2151 35.8378 14.2151 37.4037H11.0126C11.0126 36.3378 11.1753 35.3092 11.4636 34.3328ZM19.53 34.3328C19.8182 35.3092 19.9809 36.3353 19.9809 37.4037H16.7784C16.7784 35.8353 17.9761 34.5455 19.53 34.3328ZM11.306 39.8925H14.2177V45.1288C12.8086 43.6922 11.7838 41.895 11.306 39.8925ZM16.7797 39.8925H19.6914C19.22 41.895 18.1926 43.6947 16.7797 45.1288V39.8925Z" fill="#FFD21D"/>
</g>
<defs>
<clipPath id="clip0_3607_19813">
<rect width="31" height="50" fill="white"/>
</clipPath>
</defs>
</svg>
