<svg width="400" height="400" viewBox="0 0 400 400" fill="none" xmlns="http://www.w3.org/2000/svg">
<path d="M200.499 16.5215C201.162 16.5861 201.685 16.7909 201.759 16.8184C201.954 16.891 202.13 16.9687 202.261 17.0283C202.529 17.1506 202.826 17.2995 203.116 17.4502C203.708 17.7575 204.469 18.1746 205.318 18.6504C207.027 19.6074 209.233 20.88 211.465 22.1807C213.732 23.5015 216.002 24.8367 217.858 25.9297L221.769 28.2246L221.772 28.2275L314.126 81.4902L314.13 81.4932L343.298 98.3535L345.073 99.3848C349.224 101.81 353.419 104.339 357.391 106.468L359.853 107.787L359.763 110.578C359.526 117.911 359.701 126.066 359.699 133.688L359.697 176.761L359.737 289.409L359.738 291.949L357.563 293.263C351.785 296.751 345.477 300.267 339.752 303.595L339.738 303.603L290.272 332.122L290.273 332.123L237.608 362.537L237.607 362.536C226.044 369.238 214.076 376.337 202.349 382.924L200.169 384.147L197.979 382.944C188.76 377.879 178.885 371.936 169.889 366.722V366.721L126.338 341.578H126.337L42.835 293.36L40.585 292.062V289.463L40.5938 170.88L40.5967 131.457C40.5972 124.896 40.8524 116.78 40.5078 110.838L40.3594 108.284L42.4785 106.851C45.0002 105.145 48.2651 103.364 50.6006 102.023L63.2314 94.7432L109.016 68.3232L166.104 35.3672L186.467 23.5947L186.47 23.5928C189.998 21.5562 194.151 19.0302 197.964 17.0195L199.157 16.3906L200.499 16.5215Z" fill="#4B6832" stroke="black" stroke-width="9"/>
<path d="M119.059 86.3252C126.901 85.5365 134.413 89.5507 137.564 96.9821C138.787 100.191 139.384 103.771 140.079 107.123C145.243 132.061 151.82 156.683 157.756 181.457C161.036 181.399 164.847 181.788 167.977 182.785C174.145 175.288 181.177 171.974 190.859 172.146C192.374 167.873 194.081 165.697 197.304 162.637C200.34 164.755 201.245 165.231 204.755 166.316C202.018 167.924 200.719 168.168 197.616 168.165C196.458 169.605 195.703 171.172 195.073 172.892C197.419 173.456 199.036 174.353 201.038 175.635C204.037 170.539 206.533 168.73 211.683 166.161C213.892 169.091 214.683 169.962 217.674 172.03C214.409 172.686 213.337 172.482 210.174 171.499C207.344 173.883 205.972 175.368 204.44 178.743C210.207 185.164 213.642 196.567 214.614 205.114C215.584 213.658 215.115 221.936 213.348 230.328C212.929 232.318 212.763 235.015 211.51 236.573C210.823 236.948 208.208 236.963 207.311 237.006C208.7 244.558 208.4 251.834 208.818 259.376C207.592 257.353 206.545 254.777 205.184 252.491C201.04 245.532 195.568 238.585 189.312 233.412C188.684 232.892 185.397 231.322 184.224 230.553L183.965 230.383C182.538 232.782 181.568 234.257 179.76 236.372C183.279 243.482 183.795 247.876 181.752 255.627C189.886 270.103 193.222 284.59 197.229 300.333C203.9 303.22 213.238 304.857 220.483 304.342C225.04 304.018 230.115 302.911 234.568 301.917C223.812 310.908 211.411 318.147 198.201 322.991C197.326 323.311 196.346 323.585 195.453 323.852C192.78 324.533 189.14 325.599 186.472 325.926C162.598 328.854 134.695 320.207 119.501 301.172C117.793 299.072 116.231 296.858 114.824 294.546C113.943 293.066 112.904 290.923 111.947 289.586L111.754 289.321C111.01 288.281 110.24 287.786 109.224 287.017C105.774 298.738 106.683 309.333 110.041 320.835C94.2546 304.444 89.7418 284.097 95.4686 262.376C98.6273 262.824 100.444 262.796 103.598 262.738C100.04 253.759 99.7852 246.957 101.028 237.642C82.1375 238.053 66.3162 233.159 55.1546 216.691C50.3102 209.543 48.4436 196.74 56.9246 191.607C63.4949 187.63 75.2605 190.173 82.4198 191.89C75.9728 187.134 70.349 181.354 65.7724 174.779C62.4039 169.859 58.1023 161.547 56.1617 155.91C51.1729 141.417 50.9517 117.715 65.1647 108.266C69.7452 105.261 75.3322 104.201 80.695 105.318C87.3872 106.706 91.1421 110.435 94.7383 115.891C97.251 103.288 105.052 88.3691 119.059 86.3252Z" fill="#040505"/>
<path d="M155.265 210.802C136.917 212.618 123.849 209.908 106.653 203.042C80.2977 192.52 59.1286 168.619 54.6247 140.258C54.1511 136.13 54.5819 131.926 55.1302 127.867C56.7697 115.727 66.5445 103.993 79.7886 106.483C83.6095 107.192 87.1237 109.05 89.8622 111.807C91.9604 113.949 94.2096 117.539 95.9513 120.107L104.256 132.368C119.021 154.168 132.824 176.557 147.46 198.26C135.945 191.254 124.321 183.809 112.744 176.958L112.585 177.487L140.045 198.975C145.037 202.881 150.192 207.021 155.265 210.802Z" fill="#F9F8FA"/>
<path d="M112.585 177.487C111.457 176.623 110.42 175.827 109.344 174.901C110.422 175.502 111.795 176.213 112.744 176.958L112.585 177.487Z" fill="#040505"/>
<path d="M119.428 87.6033C123.164 87.226 126.917 88.1344 130.067 90.1783C136.508 94.3133 137.153 99.6101 138.575 106.487L140.868 117.51C143.481 129.744 145.909 142.017 148.152 154.325C149.806 163.205 151.425 172.835 153.306 181.633L150.644 182.123L131.378 155.521C132.21 157.67 136.215 164.379 137.598 166.823C140.678 172.191 143.727 177.577 146.743 182.982C145.534 183.253 144.838 183.497 143.675 183.906C141.456 181.257 138.139 176.435 136.042 173.568L121.308 153.381L108.668 136.098C105.37 131.585 102.142 126.952 99.0877 122.262C98.5058 121.368 98.224 120.184 98.0764 119.122C97.0017 111.396 99.9114 103.107 104.526 96.983C108.522 91.6789 112.898 88.5823 119.428 87.6033Z" fill="#F9F8FA"/>
<path d="M64.3344 191.013C69.5729 190.562 84.12 194.082 89.5471 195.922C90.4088 196.214 95.9465 199.669 97.7396 200.501C108.18 205.339 120.324 211.237 131.489 213.78C128.175 215.101 125.868 216.108 122.706 217.743C112.906 216.623 103.1 215.562 93.2882 214.56L111.695 218.874C113.943 219.525 116.984 220.155 119.336 220.734C118.462 224.584 119.074 229.691 119.776 233.542C115.139 231.724 109.177 229.746 104.422 228.152C103.351 230.36 102.669 232.05 101.956 234.396C90.9818 233.391 75.9443 230.67 66.5099 224.595C61.3163 221.251 54.2095 212.761 53.038 206.4C52.38 203.013 53.1185 199.503 55.086 196.667C57.4143 193.337 60.3918 191.689 64.3344 191.013Z" fill="#F9F8FA"/>
<path d="M188.827 178.766L189.249 178.778C189.676 179.494 189.106 181.586 190.095 182.797C190.598 183.488 191.235 183.829 192.095 183.954C195.257 184.413 194.466 180.716 194.267 178.942C206.551 182.706 209.787 194.158 212.653 205.397C215.125 215.092 213.17 225.976 210.828 235.536C209.648 235.589 208.422 235.589 207.238 235.603C201.985 235.512 194.857 234.748 190.486 231.62C185.108 227.82 179.661 222.433 178.554 215.631C177.584 209.671 178.287 203.915 185.298 202.686C184.147 198.971 183.384 195.598 183.597 191.674C183.795 188.013 184.923 186.298 187.507 183.942C187.365 182.157 186.793 180.922 187.304 179.305C187.915 178.761 187.863 178.925 188.827 178.766Z" fill="#FDA929"/>
<path d="M190.142 198.595C190.419 199.2 190.507 199.426 190.706 200.058C194.397 207.374 198.653 215.689 202.027 223.097C196.582 223.5 192.936 223.42 189.045 219.064C185.964 217.995 184.736 211.92 185.624 209.064C186.226 207.127 187.159 206.34 188.861 205.465C189.456 203.234 189.662 200.89 190.142 198.595Z" fill="#040505"/>
<path d="M190.142 198.595C190.419 199.2 190.507 199.426 190.706 200.058C190.551 202.097 190.408 204.135 190.277 206.175C185.638 210.551 186.228 213.864 189.045 219.064C185.964 217.995 184.736 211.92 185.624 209.064C186.226 207.127 187.159 206.34 188.861 205.465C189.456 203.234 189.662 200.89 190.142 198.595Z" fill="#D2772C"/>
<path d="M196.313 215.017C196.951 215.594 199.427 220.451 199.83 221.489L199.64 221.79C194.884 222.019 195.02 218.509 196.313 215.017Z" fill="#F9F8FA"/>
<path d="M165.882 186.21C165.434 187.657 164.758 189.686 164.516 191.132C163.013 200.115 164.919 208.525 169.114 216.475C171.293 220.553 173.907 224.383 176.911 227.898L174.225 229.97C167.829 234.425 159.07 238.47 151.142 238.311C148.138 238.594 144.883 238.62 141.777 238.866C142.582 243.741 143.47 248.342 145 253.049C145.307 253.993 145.664 255.108 145.889 256.06C146.224 257.023 146.503 257.741 146.903 258.678C150.32 266.04 151.945 268.767 156.89 275.294C145.984 268.826 135.859 259.743 130.514 248.015C130.258 247.743 129.526 246.142 129.341 245.735C126.623 239.734 125.469 233.939 124.889 227.452C124.835 226.338 124.789 225.223 124.751 224.107C127.002 223.146 129.221 222.106 131.485 221.18C139.883 217.743 148.83 215.724 157.86 214.929C159.191 214.814 160.523 214.683 161.845 214.482C160.98 211.947 160.056 209.346 159.247 206.8L163.173 207.127C161.737 202.134 159.384 194.162 161.964 189.178C162.966 187.243 164.152 186.913 165.882 186.21Z" fill="#FDA929"/>
<path d="M165.882 186.21C165.434 187.657 164.758 189.686 164.516 191.132C163.013 200.115 164.919 208.525 169.114 216.475C171.293 220.553 173.907 224.383 176.911 227.898L174.225 229.97C171.544 227.151 170.378 224.757 168.686 221.352C167.172 221.282 163.217 221.224 161.959 220.951C155.329 220.387 148.655 220.612 142.076 221.617C139.703 221.986 137.052 222.691 134.94 223.001C132.461 223.919 126.883 224.759 125.075 226.524C124.999 226.862 124.946 227.107 124.889 227.452C124.835 226.338 124.789 225.223 124.751 224.107C127.002 223.146 129.221 222.106 131.485 221.18C139.883 217.743 148.83 215.724 157.86 214.929C159.191 214.814 160.523 214.683 161.845 214.482C160.98 211.947 160.056 209.346 159.247 206.8L163.173 207.127C161.737 202.134 159.384 194.162 161.964 189.178C162.966 187.243 164.152 186.913 165.882 186.21Z" fill="#D2772C"/>
<path d="M134.94 223.002L135.066 222.79C136.408 222.028 138.621 221.423 140.112 220.95C147.452 218.622 154.853 217.495 162.554 217.303C162.827 218.335 163.662 219.8 163.48 220.709C162.915 221.105 162.82 220.953 161.959 220.952C155.329 220.387 148.655 220.612 142.076 221.617C139.703 221.986 137.052 222.691 134.94 223.002Z" fill="#040505"/>
<path d="M130.515 248.015C130.915 248.081 141.867 257.558 146.903 258.678C150.32 266.04 151.945 268.768 156.891 275.294C145.984 268.826 135.859 259.743 130.515 248.015Z" fill="#F9F8FA"/>
<path d="M137.947 237.038C142.63 237.485 146.378 238.105 151.142 238.311C148.138 238.594 144.883 238.62 141.777 238.867C142.582 243.741 143.47 248.342 145 253.049C145.307 253.993 145.664 255.108 145.889 256.06C143.298 253.564 139.131 240.959 137.947 237.038Z" fill="#D2772C"/>
<path d="M135.08 261.474C135.352 261.563 140.376 265.846 141.163 266.478C129.651 276.414 133.444 293.989 141.202 305.032C143.251 307.906 145.524 310.612 148 313.127C148.762 313.899 155.32 319.14 151.106 319.56C149.707 319.699 147.027 318.232 145.682 317.638C142.054 316.039 139.445 314.084 136.596 311.394C128.681 304.267 123.381 296.047 118.513 286.719C122.144 289.357 124.335 290.547 128.539 291.972C123.185 284.247 121.214 280.468 118.433 271.362C118.954 270.578 119.445 269.791 119.889 268.956C120.693 267.443 121.311 265.868 122.34 264.483C124.088 262.128 127.364 263.734 129.707 263.505C131.689 263.314 133.393 262.36 135.08 261.474Z" fill="#FDA929"/>
<path d="M105.737 232.68L112.303 235.315C116.267 236.716 122.333 239.055 126.139 240.77C126.262 241.379 126.438 242.135 126.527 242.736C123.292 241.708 120.528 240.642 117.361 239.44C120.043 242.102 122.312 244.063 125.753 245.795C126.894 246.369 128.478 246.749 128.671 247.787C127.745 249.964 125.79 251.868 124.5 254.971C121.618 253.617 118.78 252.263 115.839 251.033C114.761 259.758 115.811 264.909 117.573 273.227L118.317 275.466C119.643 279.776 122.48 284.835 124.732 288.707C115.231 281.888 108.692 274.227 105.323 262.758C104.982 262.038 104.295 258.839 104.111 257.96C102.183 248.748 102.708 241.565 105.737 232.68Z" fill="#FDA929"/>
<path d="M112.303 235.315C116.267 236.716 122.333 239.055 126.139 240.77C126.262 241.379 126.438 242.135 126.527 242.736C123.292 241.708 120.528 240.643 117.361 239.44C120.043 242.102 122.312 244.063 125.754 245.795C126.894 246.369 128.478 246.749 128.671 247.787C127.745 249.965 125.79 251.868 124.5 254.971C121.618 253.617 118.78 252.263 115.839 251.033C114.761 259.758 115.812 264.909 117.573 273.228C114.331 270.655 112.253 255.19 113.279 251.108C113.614 249.778 113.698 247.973 113.869 246.568C116.632 247.849 120.913 250.284 123.534 251.79L125.783 248.019C123.042 246.144 119.962 244.074 117.611 241.755C116.366 240.529 112.944 236.946 112.303 235.315Z" fill="#D2772C"/>
<path d="M105.323 262.758L105.7 262.729C106.083 263.219 106.16 263.323 106.444 263.836C108.398 267.37 114.642 273.845 118.317 275.466C119.643 279.776 122.48 284.835 124.732 288.707C115.231 281.888 108.692 274.227 105.323 262.758Z" fill="#F9F8FA"/>
<path d="M97.1456 265.72C99.6813 266.736 100.632 266.918 103.368 267.375C104.03 267.326 104.691 267.269 105.352 267.207C107.265 271.42 109.09 275.166 111.749 279.005C114.18 282.513 116.901 284.671 118.606 288.639C115.887 287.563 110.364 285.456 107.978 284.092C106.412 283.394 105.145 282.694 103.649 281.874L105.637 283.894C106.522 284.759 107.306 285.53 108.252 286.328C106.722 291.786 106.161 296.657 105.76 302.275C105.571 305.387 105.577 308.508 105.78 311.619C100.823 304.148 98.3749 297.38 96.5454 288.659C96.3968 288.214 96.0862 285.707 96.0265 285.173C95.2821 278.672 95.6605 272.093 97.1456 265.72Z" fill="#FDA929"/>
<path d="M103.369 267.375C104.03 267.326 104.691 267.269 105.352 267.207C107.266 271.421 109.09 275.166 111.749 279.005C114.18 282.513 116.902 284.671 118.607 288.639C115.888 287.563 110.364 285.457 107.978 284.092C108.118 283.556 105.451 275.438 105.35 273.949C105.244 272.411 104.911 269.349 104.66 267.803C104.28 267.357 104.141 267.487 103.369 267.375Z" fill="#D2772C"/>
<path d="M96.5454 288.659L96.7215 288.274C97.5147 289.504 98.4635 291.557 99.2046 292.913C100.588 295.455 102.195 297.87 104.005 300.128C104.609 301.035 104.937 301.502 105.76 302.275C105.571 305.387 105.577 308.508 105.78 311.619C100.823 304.148 98.3749 297.38 96.5454 288.659Z" fill="#F9F8FA"/>
<path d="M105.638 283.894C106.522 284.759 107.307 285.53 108.253 286.328C106.723 291.786 106.161 296.657 105.76 302.275C104.937 301.502 104.61 301.035 104.005 300.128C104.327 294.758 104.666 289.191 105.638 283.894Z" fill="#D2772C"/>
<path d="M142.868 272.667C150.803 271.667 146.15 280.185 147.601 283.281C149.186 286.659 152.156 290.39 154.076 293.865C156.458 298.177 156.132 302.451 158.786 306.445C159.58 307.616 161.945 309.598 161.891 310.978C161.81 313.012 159.183 312.705 157.854 312.591C150.792 311.088 145.519 302.75 142.243 296.854C138.897 290.836 136.132 282.8 139.537 276.219C140.335 274.677 141.321 273.502 142.868 272.667Z" fill="#FDA929"/>
<path d="M194.32 304.124C197.362 303.923 200.025 305.054 202.99 305.582C204.704 305.888 206.425 306.026 208.157 306.174C208.95 310.424 210.863 311.981 214.313 314.241C208.99 316.457 207.638 317.919 201.302 319.35C194.379 320.844 190.415 321.155 183.419 321.203C183.185 320.28 182.873 319.112 182.76 318.18C182.35 314.837 183.303 311.468 185.403 308.833C187.736 305.9 190.671 304.565 194.32 304.124Z" fill="#D2772C"/>
<path d="M180.794 262.521C182.348 263.178 182.972 263.628 183.89 265.068C185.128 267.01 187.733 273.514 187.236 275.689C185.714 277.106 176.042 273.505 171.503 275.944L171.359 276.078C170.047 277.289 169.247 279.593 168.164 279.886C166.075 277.843 168.623 267.869 171.971 266.84C176.196 265.541 177.593 266.085 180.794 262.521Z" fill="#FDA929"/>
<path d="M163.329 248.516C164.103 248.536 164.304 248.591 164.889 249.068C167.661 254.017 153.482 261.011 150.133 261.945C149.916 262.007 149.76 261.653 149.642 261.49C148.565 259.173 147.645 256.765 146.703 254.39C153.394 252.437 156.919 251.209 163.329 248.516Z" fill="#FDA929"/>
<path d="M228.316 304.678L228.685 304.598L228.749 304.766C226.35 307.083 218.63 311.707 215.691 313.404C214.656 312.858 214.406 312.694 213.474 311.983C211.638 310.229 211.41 308.656 211.168 306.284C216.105 306.253 223.478 305.4 228.316 304.678Z" fill="#F9F8FA"/>
<path d="M195.938 235.377C198.984 236.228 201.151 236.416 204.294 236.785C204.753 236.926 204.842 236.844 204.961 237.197C206.585 242.017 207.354 248.98 207.546 253.897C205.783 250.761 204.278 247.578 202.445 244.379C201.252 242.654 200.051 240.937 198.84 239.226C198.237 238.66 196.441 236.109 195.938 235.377Z" fill="#F9F8FA"/>
<path d="M195.938 235.377C198.984 236.228 201.151 236.416 204.294 236.785C203.678 237.394 203.828 238.313 203.791 239.329C202.962 239.29 199.368 239.035 198.84 239.226C198.237 238.66 196.441 236.109 195.938 235.377Z" fill="#D2772C"/>
<path d="M198.84 239.226C199.368 239.035 202.962 239.29 203.792 239.329C203.6 241.103 203.419 242.815 202.445 244.379C201.252 242.654 200.052 240.937 198.84 239.226Z" fill="#FDA929"/>
<path d="M177.518 238.669L178.507 240.065C179.036 241.033 179.8 242.331 180.05 243.387C181.544 247.396 181.538 250.209 181.194 254.488L178.734 250.768C176.672 248.154 175.341 246.526 172.873 244.196L171.453 242.903C173.948 241.435 175.317 240.615 177.518 238.669Z" fill="#FDA929"/>
<path d="M178.733 250.768C179.799 248.147 179.438 244.509 180.05 243.387C181.543 247.396 181.537 250.209 181.193 254.488L178.733 250.768Z" fill="#F9F8FA"/>
<path d="M177.518 238.669L178.507 240.065C176.751 241.826 175.448 242.713 173.231 243.909C172.998 244.035 173.091 243.977 172.873 244.196L171.453 242.903C173.948 241.435 175.317 240.615 177.518 238.669Z" fill="#D2772C"/>
<path d="M280.773 183.939C315.886 182.824 345.239 210.422 346.29 245.538C347.341 280.655 319.691 309.957 284.573 310.943C249.543 311.928 220.333 284.364 219.284 249.338C218.237 214.312 245.748 185.05 280.773 183.939Z" fill="#040505"/>
<path d="M279.075 185.757C279.887 185.685 281.034 185.69 281.875 185.668C282.079 194.935 281.77 204.452 281.915 213.741C281.946 215.74 282.543 217.003 282.543 218.417C282.545 226.561 282.549 234.731 282.498 242.873C281.482 242.849 280.985 242.782 279.994 243.049L279.947 243.251C280.782 243.575 281.65 243.494 282.563 243.498L282.51 247.123C273.285 247.165 264.02 247.141 254.793 247.138C252.785 247.136 250.424 246.551 248.407 246.54C241.771 246.506 235.113 246.518 228.479 246.524L221.022 246.538C221.161 231.857 226.58 217.717 236.289 206.703C247.154 194.253 262.576 186.702 279.075 185.757Z" fill="#4B6832"/>
<path d="M283.659 185.682C299.374 185.644 314.967 192.358 326.107 203.373C337.728 214.765 344.375 230.287 344.603 246.559L340.344 246.524C332.698 246.521 325.009 246.497 317.363 246.541C315.101 246.554 312.76 247.122 310.321 247.129C301.266 247.155 292.201 247.155 283.146 247.102C283.137 245.896 283.14 244.69 283.159 243.484C284.054 243.48 284.794 243.559 285.616 243.235L285.623 243.036C284.792 242.731 284.039 242.843 283.14 242.874C283.371 234.982 283.002 226.645 283.128 218.717C283.153 217.087 283.718 215.412 283.712 213.693C283.683 204.378 283.82 194.989 283.659 185.682Z" fill="#4B6832"/>
<path d="M283.172 247.774C292.408 247.765 301.646 247.737 310.882 247.785C313.016 247.796 315.185 248.331 317.286 248.317C326.385 248.258 335.535 248.446 344.631 248.313C344.37 264.848 337.512 280.595 325.585 292.049C319.959 297.454 314.136 301.161 307.025 304.342C301.949 306.611 300.264 306.266 294.853 306.248L283.723 306.244L283.687 302.306C287.487 302.418 307.591 302.818 309.753 301.954C308.867 301.612 304.969 301.775 303.765 301.76C297.217 301.68 290.517 302.025 283.99 301.614C282.896 301.544 283.152 297.651 283.17 296.905L298.368 296.911C300.734 296.911 304.767 297.021 306.997 296.756L307.041 296.617C304.883 296.111 300.089 296.302 297.595 296.306L283.137 296.337C283.146 295 283.131 293.595 283.183 292.263C286.402 292.274 302.74 292.61 304.558 291.978C303.27 291.395 285.461 291.667 283.031 291.671C282.814 290.419 283.124 288.307 282.828 287.375L282.614 287.764C282.539 287.642 282.463 287.519 282.388 287.399C279.852 286.999 264.592 287.768 263.349 286.94C263.799 287.092 263.567 287.046 264.193 286.758L264.091 286.754C269.773 286.346 276.906 287.063 282.313 286.608C282.6 286.182 282.523 285.486 282.534 284.93C282.843 285.259 282.779 286.151 282.792 286.642C282.929 286.144 282.927 285.424 282.952 284.881L283.146 284.569C283.15 284.015 283.095 283.374 283.265 282.844C283.574 281.885 297.708 283.129 299.556 282.241C298.686 281.764 285.249 281.936 283.179 281.928C283.157 280.518 283.097 279.014 283.236 277.62L283.738 277.295L283.384 277.035C282.996 276.306 283.168 273.831 283.179 272.82C284.48 272.818 294.602 272.922 294.979 272.574C293.25 271.985 285.644 272.223 283.164 272.203C283.172 270.724 283.161 269.212 283.188 267.735C284.586 267.741 291.966 267.885 292.717 267.492C292.223 266.875 284.505 267.147 283.157 267.152L283.177 262.968C284.738 262.977 288.662 263.177 289.958 262.734L289.998 262.55C288.509 262.276 284.851 262.389 283.142 262.402L283.17 258.187C284.038 258.198 287.213 258.307 287.776 257.933C286.645 257.492 284.35 257.536 283.141 257.538L283.168 253.219C284.056 253.259 284.796 253.376 285.62 253.085L285.556 252.866C284.699 252.563 284.043 252.61 283.133 252.583L283.172 247.774Z" fill="#4B6832"/>
<path d="M282.534 284.93C282.843 285.259 282.779 286.151 282.792 286.642C282.929 286.144 282.927 285.424 282.952 284.881L283.146 284.569L283.179 286.673C286.15 286.673 300.57 286.458 302.404 286.995L302.338 287.096C300.18 287.415 296.976 287.313 294.699 287.309L283.177 287.289C283.173 288.574 283.226 290.463 283.031 291.671C282.814 290.419 283.124 288.307 282.828 287.375L282.614 287.764C282.539 287.642 282.463 287.519 282.388 287.399C279.852 286.999 264.592 287.768 263.349 286.94C263.799 287.092 263.567 287.046 264.193 286.758L264.091 286.754C269.773 286.346 276.906 287.063 282.313 286.608C282.6 286.182 282.523 285.486 282.534 284.93Z" fill="#010A00"/>
<path d="M283.383 277.035C285.642 277.011 295.976 276.756 297.536 277.362C295.905 277.879 285.739 277.391 283.235 277.62L283.738 277.295L283.383 277.035Z" fill="#010A00"/>
<path d="M220.992 248.347C230.069 248.276 239.158 248.384 248.235 248.322C250.451 248.305 252.653 247.785 254.862 247.776C264.072 247.737 273.283 247.761 282.492 247.783L282.576 252.548C280.92 252.634 280.063 252.683 278.461 253.04L278.667 253.069C280.142 253.286 280.973 253.253 282.488 253.235C282.53 254.638 282.503 256.155 282.506 257.567C281.063 257.545 279.521 257.428 278.138 257.812L278.256 257.987C279.698 258.318 281.041 258.225 282.513 258.196L282.504 262.404C280.794 262.405 276.992 262.139 275.618 262.694L275.733 262.848C277.896 263.036 280.321 262.977 282.508 262.979L282.479 267.152C281.028 267.145 273.712 267.044 272.866 267.351C274.107 268.004 280.622 267.733 282.515 267.724L282.506 272.219C280.359 272.217 272.367 272.097 270.643 272.438C271.969 273.072 280.509 272.815 282.506 272.818C282.484 273.98 282.797 275.873 282.309 276.834C282.19 277.068 281.752 277.041 281.408 277.09L282.532 277.512L282.475 281.943C280.452 281.943 266.818 281.795 265.982 282.217C268.017 282.793 279.723 282.522 282.484 282.52L282.534 284.93C282.523 285.486 282.599 286.182 282.312 286.608C276.906 287.063 269.773 286.346 264.091 286.754L264.193 286.757C263.566 287.046 263.798 287.092 263.349 286.94C264.591 287.768 279.851 286.999 282.387 287.399C282.462 287.519 282.539 287.642 282.614 287.764C282.559 289.043 282.481 290.393 282.468 291.667C279.966 291.665 261.986 291.479 261.132 291.943C263.091 292.52 279.407 292.284 282.55 292.266L282.552 296.304C279.994 296.304 259.344 296.014 258.609 296.741C260.418 297.022 265.004 296.913 267.012 296.913L282.479 296.903C282.625 299.313 282.972 299.743 281.702 301.791L265.475 301.76C263.698 301.758 256.934 301.617 255.496 302.045C257.213 302.694 278.613 302.345 281.907 302.378L281.89 306.224L270.822 306.238C263.619 306.244 261.264 306.158 254.679 302.494C251.33 301.356 242.839 294.8 240.245 292.292C227.789 280.249 221.475 265.513 220.992 248.347Z" fill="#4B6832"/>
<path d="M282.532 277.512C281.195 277.633 268.496 277.744 268.006 277.377L268.151 277.18C269.441 276.911 280.016 276.975 281.408 277.09L282.532 277.512Z" fill="#010A00"/>
<path d="M283.724 306.805L300.208 306.837L297.928 307.38C294.029 308.544 287.791 309.169 283.702 309.204L283.724 306.805Z" fill="#4B6832"/>
<path d="M265.98 306.885C267.219 306.748 270.106 306.803 271.441 306.803L281.9 306.821L281.898 309.207C277.305 309.213 270.34 308.387 265.98 306.885Z" fill="#4B6832"/>
<path d="M279.451 118.121C283.25 118.286 288.498 118.224 292.335 118.14L292.322 148.269C289.205 148.229 286.088 148.224 282.971 148.253L282.994 130.345C280.668 135.915 278.355 142.564 276.239 148.258C274.399 148.212 272.583 148.25 270.743 148.279C269.274 143.935 267.431 139.24 265.828 134.911C265.286 133.353 264.703 131.809 264.082 130.281C263.851 135.887 264.014 142.595 264.01 148.249C260.961 148.23 257.913 148.233 254.864 148.258L254.869 118.209C259.318 118.153 263.767 118.15 268.216 118.2C269.441 121.996 272.214 129.731 273.806 133.289C275.421 129.866 278.098 121.872 279.451 118.121Z" fill="#040505"/>
<path d="M156.871 118.151C159.813 118.222 164.209 118.261 167.043 118.15C177.467 117.742 187.104 119.397 187.178 132.035C187.207 136.935 187.051 140.707 183.381 144.537C178.435 148.709 172.436 148.248 166.32 148.237L156.748 148.239L156.724 127.601C156.723 125.838 156.607 119.587 156.871 118.151Z" fill="#040505"/>
<path d="M166.303 126.558C171.779 126.503 177.7 126.176 177.195 133.823C177.073 135.655 176.785 136.761 175.553 138.187C172.677 140.313 169.785 139.877 166.297 139.845L166.303 126.558Z" fill="#4B6832"/>
<path d="M250.536 118.165C250.928 118.607 250.786 145.635 250.812 148.234L241.241 148.243C241.29 144.579 241.294 140.914 241.252 137.25L230.229 137.263L230.244 148.272C227.479 148.241 224.713 148.233 221.947 148.249C221.378 148.273 221.329 148.329 220.828 148.1C220.613 147.107 220.697 140.695 220.697 139.236L220.702 118.225C223.88 118.153 227.059 118.153 230.236 118.224L230.234 128.457L241.201 128.44C241.398 125.386 241.312 121.308 241.236 118.204L250.536 118.165Z" fill="#040505"/>
<path d="M190.003 118.194L216.629 118.165C216.653 120.594 216.658 123.023 216.644 125.452C215.679 126.653 213.404 128.768 212.257 129.922C209.206 132.988 206.046 135.984 203.023 139.081C207.574 139.121 212.127 139.105 216.679 139.033C216.722 141.924 216.73 144.816 216.7 147.707L216.669 148.04C216.584 148.105 216.498 148.17 216.412 148.235C208.868 148.271 196.898 148.185 189.82 148.269C189.816 145.758 189.838 143.247 189.887 140.737C193.894 136.34 198.626 131.641 202.801 127.356C198.747 127.218 194.099 127.33 189.995 127.347L190.003 118.194Z" fill="#040505"/>
<path d="M309.997 118.189L319.495 118.16C319.626 124.634 319.63 132.479 319.458 138.933C324.028 138.882 328.598 138.868 333.167 138.89L333.173 148.209C331.79 148.365 327.172 148.24 325.608 148.238L309.944 148.241C310.118 144.748 310.019 140.499 310.021 136.975L309.997 118.189Z" fill="#040505"/>
<path d="M296.482 118.17C299.645 118.146 302.806 118.159 305.969 118.21L305.947 148.195C303.199 148.359 299.243 148.243 296.404 148.248C296.46 138.46 296.192 127.878 296.482 118.17Z" fill="#040505"/>
<path d="M336.745 118.163C339.926 118.16 343.107 118.173 346.288 118.202C346.206 128.21 346.189 138.219 346.241 148.227C343.069 148.214 339.899 148.229 336.729 148.273L336.745 118.163Z" fill="#040505"/>
<path d="M262.043 153.469L266.061 153.442C266.483 154.912 267.055 156.652 267.687 158.025C268.244 156.522 268.723 154.98 269.216 153.454L273.216 153.467L273.206 162.458C272.271 162.479 271.29 162.461 270.349 162.459C270.217 160.947 270.239 158.946 270.214 157.395C269.79 158.363 269.51 159.412 269.212 160.428C268.165 160.413 267.195 160.448 266.15 160.486L265.07 160.741C265.025 161.657 265.173 161.683 264.736 162.313C264.051 162.673 262.848 162.502 262.017 162.463C262.008 159.465 262.017 156.467 262.043 153.469Z" fill="#040505"/>
<path d="M264.911 156.93L266.15 160.486L265.07 160.741C265.004 159.471 264.953 158.201 264.911 156.93Z" fill="#525B48"/>
<path d="M246.065 153.162C248.674 153.016 251.145 153.979 251.939 156.695C252.297 157.904 252.14 159.208 251.506 160.298C250.728 161.624 249.581 162.234 248.163 162.631C245.51 162.784 243.089 162.271 242.124 159.425C241.713 158.24 241.802 156.939 242.369 155.821C243.211 154.186 244.452 153.662 246.065 153.162Z" fill="#040505"/>
<path d="M246.163 156.012C247.237 155.543 248.487 156.036 248.949 157.112C249.414 158.187 248.915 159.434 247.837 159.893C246.766 160.348 245.529 159.853 245.069 158.785C244.608 157.717 245.098 156.477 246.163 156.012Z" fill="#4B6832"/>
<path d="M321.914 153.413L322.194 153.374C322.989 153.743 324.565 157.133 325.079 158.148L325.064 153.457L327.982 153.461L328.002 162.467L325 162.495C324.127 162.145 322.61 158.895 322.071 157.862L322.073 162.474L319.155 162.472L319.133 153.47L321.914 153.413Z" fill="#040505"/>
<path d="M283.536 153.4C285.787 153.508 290.707 152.783 291.787 155.37C292.71 157.584 291.553 159.331 289.448 160.242L286.402 160.256L286.428 162.457C285.476 162.483 284.46 162.471 283.501 162.476C283.441 159.451 283.453 156.424 283.536 153.4Z" fill="#040505"/>
<path d="M286.358 155.908C287.262 155.857 288.161 155.666 288.833 156.242C289.091 156.844 289.012 156.972 288.872 157.606C288.152 157.708 287.255 157.948 286.643 157.646C286.208 156.938 286.369 156.894 286.358 155.908Z" fill="#4B6832"/>
<path d="M302.702 153.45C304.328 153.445 305.952 153.453 307.579 153.475C308.319 156.455 309.238 159.477 310.007 162.488C308.282 162.451 307.253 163.176 306.731 161.287C306.722 160.966 306.771 161.131 306.482 160.831C304.48 160.457 303.623 160.253 303.234 162.443L300.369 162.497C301.021 159.431 302.03 156.507 302.702 153.45Z" fill="#040505"/>
<path d="M304.991 155.817C305.826 156.363 306.332 158.097 305.426 158.806C304.56 158.511 304.662 158.704 304.332 158.1C304.266 157.305 304.673 156.585 304.991 155.817Z" fill="#525B48"/>
<path d="M226.491 153.153C229.725 152.79 231.11 154.183 232.423 156.847C231.508 156.869 230.521 156.839 229.601 156.829C229.549 156.791 229.496 156.754 229.443 156.716L229.182 156.539C228.205 155.871 227.233 155.449 226.155 156.313C225.219 157.063 225.157 158.89 226.109 159.668C227.585 160.877 228.683 159.485 229.928 158.813C229.929 158.812 230.985 158.802 231.102 158.801C231.817 158.732 231.747 158.611 232.177 158.939C232.487 160.283 230.185 162.112 229.107 162.513C227.98 162.934 226.096 162.756 225.014 162.226C223.889 161.682 223.034 160.702 222.646 159.513C222.239 158.292 222.332 156.959 222.908 155.808C223.723 154.195 224.883 153.669 226.491 153.153Z" fill="#040505"/>
<path d="M339.262 153.428C340.047 153.464 341.176 156.03 341.567 156.787C342.094 155.693 342.686 154.57 343.239 153.484C344.268 153.463 345.329 153.47 346.362 153.464C345.461 154.763 344.14 157.273 343.318 158.734C342.951 159.744 343.051 161.351 343.058 162.464L340.106 162.473C340.137 157.783 338.949 157.668 336.844 153.454L339.262 153.428Z" fill="#040505"/>
</svg>
