<svg width="400" height="400" viewBox="0 0 400 400" fill="none" xmlns="http://www.w3.org/2000/svg">
<g clip-path="url(#clip0_19_6)">
<path d="M0 200C0 89.5431 89.5431 0 200 0C310.457 0 400 89.5431 400 200C400 310.457 310.457 400 200 400C89.5431 400 0 310.457 0 200Z" fill="white"/>
<path d="M196.27 76.9089C197.598 76.7725 200.668 76.8065 202.068 76.82C211.836 76.9468 221.554 78.2152 231.027 80.5994C262.294 88.6678 289.084 108.819 305.514 136.629C311.593 146.933 316.107 158.084 318.905 169.716C320.368 175.751 320.655 175.913 318.952 181.84C317.945 185.349 317.144 190.651 316.409 194.353L311.727 217.923L308.388 234.679C307.727 237.97 306.861 241.493 306.542 244.808C306.144 248.944 309.596 249.504 312.721 249.453C319.299 249.35 325.795 249.614 332.368 249.398C335.003 249.312 336.633 247.616 337.237 245.103C338.121 240.753 338.706 236.317 339.415 231.935L344.24 202.034L345.843 211.974C346.076 213.387 346.826 217.548 346.764 218.835C346.55 223.256 345.487 228.33 344.81 232.778C343.99 238.154 343.14 243.495 342.217 248.847C341.955 250.363 341.135 251.928 339.824 252.782C339.387 253.065 337.427 253.452 336.873 253.433C332.814 253.294 317.262 253.943 314.229 253.172L313.578 254.471C297.469 286.292 271.512 308.015 237.752 319.064C212.194 326.93 184.814 326.576 159.468 318.052C127.443 307.168 101.096 283.929 86.2884 253.506C81.5235 253.358 76.6992 253.632 71.9304 253.48C68.3775 253.367 66.8288 251.525 64.6387 249.085L64.7407 248.956C68.0989 249.749 70.7096 249.436 74.1234 249.43C79.8443 249.496 85.5358 249.427 91.2594 249.438C94.204 249.442 96.8854 246.968 95.5992 244.131C93.816 240.198 91.3303 236.15 89.2001 232.348L75.6703 208.172L89.4278 183.668C91.0103 180.815 92.6958 177.986 94.2719 175.131C99.5963 165.488 88.768 167.187 83.2057 167.255C88.0844 148.747 97.2904 131.664 110.065 117.414C132.991 91.9514 162.261 78.6678 196.27 76.9089Z" fill="#202161"/>
<path d="M108.745 167.105C114.701 150.585 123.265 137.109 136.49 125.397C150.593 112.896 168.032 104.795 186.664 102.09C190.048 101.594 195.991 100.986 199.331 101.193C200.189 101.157 200.882 101.119 201.745 101.168C205.421 101.001 211.372 101.62 215.016 102.172C234.248 105.087 252.161 113.731 266.43 126.982C276.289 136.155 284.14 147.279 289.489 159.65C291.144 163.498 291.989 166.438 293.393 170.159C289.459 168.184 283.508 166.417 279.096 166.401L279.213 166.769C278.598 167.39 276.947 167.142 276.037 167.199C285.409 167.885 293.877 170.295 300.299 177.687C308.006 186.54 308.659 196.706 308.739 207.768C308.833 220.796 307.941 233.157 297.392 242.393C286.449 251.974 264.514 252.487 252.774 244.378C253.072 245.178 253.982 245.754 254.614 246.333C261.227 252.397 270.768 254.403 279.591 254.232C272.957 262.735 268.635 267.953 259.894 274.709C239.657 290.429 214.035 297.48 188.627 294.316C166.904 291.602 146.738 281.593 131.417 265.919C127.574 261.991 124.791 258.434 121.473 254.122C126.816 254.704 134.952 253.846 139.821 251.571C148.727 247.41 151.119 239.837 153.84 231.19C155.289 226.587 156.939 220.351 158.567 215.955C158.72 215.222 158.967 214.439 159.177 213.713C160.523 209.607 161.658 205.3 163.088 201.243C163.475 199.749 164.008 198.149 164.47 196.665L164.741 195.66C164.947 194.159 164.902 191.706 164.924 190.144C165.016 183.614 165.408 178.202 169.919 173.2L169.682 172.753C169.105 172.438 166.443 169.576 165.784 168.854C163.454 166.3 155.706 167.161 151.918 167.159L149.667 167.14C143.933 167.199 138.279 165.366 136.361 171.987L135.863 174.174C135.679 176.041 133.726 183.677 133.225 186.021C132.449 182.079 131.417 177.63 130.011 173.896C129.527 172.611 124.813 167.728 123.873 167.573C119.146 166.796 113.623 167.185 108.745 167.105Z" fill="white"/>
<path d="M240.114 191.254C240.321 190.528 240.09 189.481 240.366 188.848C244.323 179.769 247.795 170.444 251.765 161.393C251.864 161.166 252.136 161.227 252.351 161.217C252.704 161.426 253.014 161.593 253.263 161.933C253.743 162.587 248.604 174.056 248.217 175.931C248.201 176.01 248.187 176.089 248.172 176.168C249.562 175.411 251.505 173.542 252.915 172.542C257.467 169.311 262.595 167.706 268.046 166.89L270.099 166.582C273.267 166.649 275.872 166.307 279.123 166.667L279.24 167.035C278.626 167.655 276.976 167.408 276.067 167.465C285.431 168.149 293.891 170.556 300.307 177.936C308.007 186.776 308.659 196.926 308.739 207.971C308.833 220.978 307.942 233.321 297.403 242.543C286.469 252.109 264.554 252.621 252.826 244.524C252.459 244.068 249.691 242.144 248.953 241.431C245.512 238.11 243.372 234.468 241.478 230.118C240.921 228.838 240.518 228.452 240.278 226.996C238.276 214.672 238.349 203.621 240.114 191.254Z" fill="white"/>
<path d="M270.494 166.621C273.735 166.687 276.402 166.35 279.727 166.706L279.848 167.068C279.219 167.68 277.531 167.436 276.6 167.492C267.397 167.419 256.688 168.789 249.738 175.305C248.681 176.309 247.663 177.352 246.686 178.431C246.508 178.63 246.592 178.55 246.388 178.707C246.451 178.549 247.85 176.404 248.058 176.076C249.48 175.329 251.468 173.486 252.911 172.499C257.569 169.313 262.816 167.73 268.393 166.926L270.494 166.621Z" fill="#262C6F"/>
<path d="M244.106 181.749C244.511 180.61 245.407 179.44 246.388 178.707C246.004 179.634 244.978 181.182 244.106 181.749Z" fill="#F2EFF2"/>
<path d="M270.296 169.806C279.024 168.9 289.423 170.66 296.189 176.57C306.218 185.333 306.549 196.968 306.453 209.206C306.371 219.744 306.246 228.79 298.921 237.369C293.703 243.479 286.494 246.234 278.639 246.852C278.246 246.893 277.854 246.933 277.461 246.968C257.934 248.699 243.408 237.884 242.156 218.004C241.933 214.476 242.031 210.905 241.887 207.48C241.053 187.592 248.609 171.456 270.296 169.806Z" fill="#EE1D24"/>
<path d="M272.949 190.92C274.728 190.771 276.604 190.964 278.159 191.909C280.081 193.078 280.877 194.953 281.354 197.051C282.417 201.748 282.692 219.008 280.181 222.855C278.953 224.735 277.457 225.373 275.355 225.84C265.479 226.277 266.456 217.524 266.215 210.24C266.093 206.48 266.147 202.116 266.647 198.385C267.226 194.076 268.637 191.987 272.949 190.92Z" fill="white"/>
<path d="M272.247 193.992C273.518 193.91 274.897 193.782 276.095 194.31C277.109 194.758 277.602 195.504 277.97 196.526C279.431 200.58 279.575 217.68 277.704 221.461C277.16 222.563 276.595 222.983 275.466 223.393C274.33 223.597 273.084 223.689 271.964 223.339C271.03 223.046 270.269 222.412 269.843 221.52C267.973 217.606 268.048 200.545 269.627 196.393C270.164 194.981 270.928 194.55 272.247 193.992Z" fill="#202161"/>
<path d="M158.781 215.93C158.933 215.197 159.181 214.414 159.39 213.688C160.568 215.044 163.695 220.983 164.751 222.919C164.83 223.851 164.956 225.002 164.983 225.915L165.412 227.67C165.616 233.198 165.101 240.724 165.752 246.19C165.824 246.792 167.06 247.846 167.417 248.459C168.642 250.38 170.66 252.405 172.938 252.986C175.302 253.588 179.824 252.86 181.781 253.292C181.203 253.31 181.057 253.295 180.485 253.43L180.326 253.807C180.448 254.613 192.7 275.935 193.773 278.165C194.646 279.982 195.012 281.161 195.445 283.491C196.302 288.12 197.675 290.055 200.612 293.525C207.05 288.358 205.399 284.689 208.101 277.676C208.691 276.148 210.813 272.742 211.678 271.203L218.351 259.289C218.886 258.333 221.345 254.083 221.525 253.2C223.122 253.573 227.28 253.099 229.113 253.205C241.369 253.92 240.427 251.642 240.41 241.168C240.376 236.378 240.393 231.59 240.458 226.802C240.698 228.26 241.102 228.647 241.659 229.929C243.556 234.288 245.699 237.936 249.144 241.263C249.883 241.978 252.655 243.905 253.021 244.362C253.319 245.163 254.23 245.738 254.862 246.318C261.477 252.384 271.022 254.39 279.848 254.22C273.212 262.725 268.888 267.944 260.144 274.703C239.899 290.428 214.268 297.481 188.851 294.316C167.12 291.602 146.947 281.589 131.62 265.91C127.776 261.981 124.992 258.423 121.673 254.109C127.018 254.692 135.157 253.833 140.028 251.558C148.937 247.396 151.33 239.82 154.052 231.17C155.501 226.566 157.152 220.328 158.781 215.93Z" fill="#96D5F4"/>
<path d="M158.936 215.919C159.085 215.19 159.328 214.41 159.534 213.688C160.688 215.037 163.756 220.947 164.792 222.874C164.869 223.802 164.992 224.947 165.019 225.856C163.963 225.44 160.567 217.414 158.936 215.919Z" fill="white"/>
<path d="M201.521 101.168C205.212 101.002 211.187 101.619 214.845 102.17C234.154 105.08 252.139 113.71 266.466 126.939C276.364 136.096 284.246 147.201 289.617 159.552C291.278 163.393 292.126 166.329 293.536 170.043C289.587 168.071 283.612 166.308 279.182 166.291C275.915 165.931 273.297 166.272 270.113 166.205L268.05 166.514C262.572 167.33 257.42 168.934 252.845 172.165C251.428 173.165 249.475 175.033 248.079 175.79C248.094 175.711 248.107 175.632 248.124 175.553C248.512 173.679 253.677 162.211 253.194 161.557C252.944 161.217 252.633 161.051 252.278 160.842C252.062 160.852 251.788 160.791 251.689 161.018C247.7 170.068 244.21 179.391 240.234 188.469C239.956 189.102 240.189 190.149 239.981 190.874C239.677 181.874 237.91 180.289 232.448 174.134C230.908 172.305 229.2 171.006 227.167 169.79L225.879 169.225L225.32 169.335C221.295 167.684 217.736 167.461 213.423 167.39C212.077 167.368 210.246 167.475 209.006 167.126C209.188 164.007 209.133 160.967 209.105 157.847C216.55 156.569 222.773 156.461 229.437 160.559C233.611 158.593 237.045 157.146 241.743 156.792C246.027 156.469 251.574 157.782 254.838 160.663C261.872 156.801 268.677 157.424 273.952 163.694C266.899 132.496 246.254 110.515 213.691 106.217C211.422 105.917 209.077 105.779 206.834 105.386C205.278 103.08 204.047 102.206 201.521 101.168Z" fill="#96D5F4"/>
<path d="M226.563 160.456C227.314 160.851 228.138 161.311 228.897 161.662C228.512 163.563 227.457 168.522 227.374 170.342L226.151 169.732C225.457 169.461 225.527 169.614 225.095 169.074C225.081 167.375 226.303 162.492 226.563 160.456Z" fill="white"/>
<path d="M268.441 166.54C268.798 165.484 270.082 162.766 271.344 162.738C271.844 163.663 270.859 165.317 270.484 166.234L268.441 166.54Z" fill="white"/>
<path d="M108.745 167.329C114.695 150.75 123.25 137.226 136.462 125.473C150.551 112.927 167.972 104.797 186.585 102.083C189.966 101.585 195.903 100.975 199.239 101.182C196.97 101.792 195.179 103.511 193.886 105.414C188.807 106.218 185.161 106.387 179.933 107.58C164.032 111.043 149.95 120.272 140.369 133.512C135.523 140.263 131.813 147.772 129.389 155.736C128.545 158.492 127.968 161.141 127.206 163.87C128.263 162.761 129.09 161.878 130.328 160.993C135.039 157.628 141.37 157.957 146.193 160.93C154.404 155.192 162.876 156.285 171.39 160.863C179.032 156.833 183.852 156.601 192.379 158.278C192.349 161.359 192.408 164.44 192.555 167.518C186.29 167.972 183.133 167.281 176.756 169.204L176.4 169.08C175.751 169.326 174.231 169.985 173.631 169.928C172.841 170.571 170.037 172.487 169.62 172.996C169.044 172.68 166.384 169.808 165.726 169.083C163.398 166.521 155.659 167.384 151.874 167.383L149.625 167.364C143.898 167.422 138.249 165.583 136.333 172.228L135.835 174.422C135.652 176.296 133.701 183.959 133.2 186.312C132.425 182.355 131.394 177.89 129.989 174.144C129.505 172.854 124.797 167.954 123.858 167.799C119.136 167.018 113.618 167.409 108.745 167.329Z" fill="#96D5F4"/>
<path d="M172.624 161.71C173.37 161.301 174.113 160.883 174.851 160.456C175.184 162.73 175.932 166.473 176.426 168.722C175.833 168.97 174.445 169.636 173.897 169.578C174.035 168.4 172.897 163.213 172.624 161.71Z" fill="white"/>
<path d="M135.631 174.144C134.435 172.569 133.344 170.258 132.329 168.491C131.58 167.185 129.638 164.11 130.112 162.738C131.781 163.016 134.759 170.135 136.122 171.945L135.631 174.144Z" fill="white"/>
<path d="M147.528 161.588C148.159 161.215 148.816 160.811 149.453 160.456C150.3 162.603 151.364 165.143 152.091 167.3L149.776 167.28C149.423 165.837 148.195 163.009 147.528 161.588Z" fill="white"/>
<path d="M194.8 193.934C198.778 193.933 202.876 193.886 206.844 193.95C206.744 212.784 206.184 231.767 205.93 250.61L205.676 267.889C205.605 275.378 206.53 285.5 201.037 291.255C195.332 285.242 196.39 274.279 196.313 266.41C196.252 261.903 196.16 257.397 196.04 252.889C194.968 253.079 194.365 253.19 193.256 253.23C191.693 253.203 188.942 253.164 187.43 253.32L187.31 253.325C186.342 253.051 182.949 253.243 181.743 253.297C179.775 252.865 175.228 253.594 172.851 252.991C170.561 252.408 168.532 250.379 167.3 248.453C169.53 249.507 172.46 249.254 174.911 249.218C179.715 249.15 184.502 249.201 189.303 249.22C192.463 249.197 194.682 247.446 194.75 244.153C194.866 238.482 194.797 232.77 194.796 227.079L194.8 193.934Z" fill="#202161"/>
<path d="M200.239 200.76C200.994 200.858 200.965 200.721 201.381 201.15C201.657 217.149 201.439 233.838 201.441 249.89L201.442 267.771C201.442 271.32 201.553 275.608 201.268 279.087C200.736 279.041 200.762 279.056 200.282 278.823C200.083 278.097 200.038 276.683 200.038 275.917C200.04 258.549 200.049 241.164 200.052 223.797L200.041 209.865C200.028 207.549 199.88 202.822 200.239 200.76Z" fill="white"/>
<path d="M232.623 174.145C238.074 180.308 239.836 181.896 240.14 190.91C238.37 203.294 238.296 214.36 240.304 226.701C240.239 231.487 240.222 236.273 240.256 241.06C240.273 251.529 241.217 253.806 228.943 253.092C227.107 252.985 222.943 253.459 221.344 253.086L219.624 253.145C218.551 253.111 217.478 253.124 216.404 253.13L214.071 252.966C212.289 252.316 211.703 251.556 210.341 250.238C209.527 249.324 209.328 249.157 208.365 248.432L208.539 248.091C210.06 249.343 213.17 249.178 215.093 249.112C220.585 248.925 226.101 249.277 231.576 249.033C233.612 248.943 235.983 247.171 236.129 245.025C236.345 242.085 236.274 239.046 236.27 236.082L236.242 219.916L236.266 197.856C236.272 190.227 237.141 180.612 232.239 174.308L232.623 174.145Z" fill="#202161"/>
<path d="M164.782 196.958C165.113 197.876 165.096 198.016 165.009 198.984C165.174 200.511 164.899 204.469 165.571 205.378C165.812 206.906 165.871 221.479 165.604 222.259L164.854 222.814C163.688 220.909 160.235 215.067 158.936 213.733C160.422 209.693 161.677 205.455 163.256 201.463C163.682 199.993 164.272 198.418 164.782 196.958Z" fill="#96D5F4"/>
<path d="M164.782 196.958C165.061 197.795 165.047 197.922 164.974 198.804C164.967 199.354 165.061 201.809 164.985 202.154L164.715 202.281C163.997 201.772 164.097 201.603 163.498 201.063C163.857 199.724 164.353 198.289 164.782 196.958Z" fill="#F2EFF2"/>
<path d="M210.462 250.19C211.918 251.53 212.545 252.304 214.449 252.965C213.564 255.756 211.756 259.576 210.592 262.366C209.649 264.627 208.018 268.687 206.844 270.723C207.151 264.785 207.715 260.413 209.231 254.614C209.581 253.276 209.816 251.376 210.462 250.19Z" fill="#96D5F4"/>
<path d="M187.072 253.346C188.635 253.191 191.479 253.23 193.095 253.256C192.692 253.394 192.402 253.417 191.976 253.445L191.799 253.67C192.94 259.341 194.815 265.782 194.669 271.483C193.277 268.823 191.779 264.636 190.487 261.783C189.787 260.238 187.419 254.768 187.072 253.346Z" fill="#96D5F4"/>
<path d="M181.749 253.349C182.916 253.294 186.197 253.1 187.133 253.378C186.442 253.406 185.632 253.387 184.929 253.389C186.706 257.489 188.343 262.11 189.975 266.301C190.94 268.778 192.337 272.063 193.156 274.525C192.3 273.647 182.466 255.084 181.749 253.349Z" fill="#96D5F4"/>
<path d="M216.529 253.239C217.61 253.234 218.691 253.22 219.772 253.255C219.345 254.318 218.136 256.419 217.542 257.512C215.808 260.678 214.048 263.83 212.261 266.966C211.174 268.91 208.755 273.737 207.604 275.285C208.195 273.338 209.833 269.708 210.678 267.62C212.606 262.871 214.491 257.924 216.529 253.239Z" fill="#96D5F4"/>
<path d="M164.259 196.476L164.517 195.437C165.249 197.425 164.976 202.919 164.939 205.323C164.36 204.368 164.598 200.21 164.455 198.605C164.53 197.588 164.544 197.441 164.259 196.476Z" fill="#9DA9BE"/>
<path d="M176.807 168.821L177.186 168.951C173.787 170.358 172.651 171.018 169.834 173.384L169.582 172.915C170.026 172.383 173.014 170.38 173.856 169.707C174.496 169.767 176.115 169.078 176.807 168.821Z" fill="#9DA9BE"/>
<path d="M225.855 169.68L226.393 169.582L227.629 170.09C229.581 171.183 231.222 172.352 232.7 173.998L232.33 174.145C229.653 171.666 229.417 171.228 225.855 169.68Z" fill="#9DA9BE"/>
<path d="M164.259 222.618L165.019 222.053L164.999 227.376L164.518 225.619C164.487 224.704 164.347 223.552 164.259 222.618Z" fill="#9DA9BE"/>
<path d="M208.23 248.669C207.487 247.938 207.003 246.76 206.844 245.627C207.315 246.212 207.748 247.47 208.365 248.342L208.23 248.669Z" fill="#9DA9BE"/>
<path d="M185.504 169.814C188.723 169.364 192.888 169.706 196.19 169.708C202.983 169.712 209.953 169.356 216.71 169.989C219.139 170.216 221.49 170.61 223.768 171.506C227.457 172.955 230.154 175.377 231.722 179.031C232.587 181.051 232.99 183.09 233.147 185.273C233.565 191.042 233.601 244.152 233.029 245.304C232.797 245.771 231.926 246.002 231.458 246.098C228.62 246.676 225.079 246.21 222.155 246.215C218.731 246.223 215.159 246.508 211.759 246.208C211.069 246.146 210.144 246.049 209.582 245.607C209.088 245.216 209.028 243.594 208.99 242.957C208.702 237.919 208.955 232.726 208.956 227.675L208.968 197.79C208.986 196.123 209.279 192.859 208.277 191.692C206.84 191.17 193.835 191.187 192.357 191.774C191.391 193.077 191.743 204.831 191.743 207.048L191.754 233.708C191.756 236.063 192.229 243.459 191.342 245.31C191.104 245.804 190.913 245.831 190.409 245.956C188.53 246.417 169.18 246.561 168.101 245.776C167.681 245.47 167.527 245.007 167.469 244.514C167.136 241.646 167.399 238.444 167.399 235.542L167.403 217L167.392 196.453C167.367 180.9 166.887 171.303 185.504 169.814Z" fill="#EE1D24"/>
<path d="M197.116 115.022L197.137 114.723C197.22 113.44 197.119 112.883 196.339 111.81C193.781 108.289 196.389 103.064 201.027 103.441C202.61 103.573 204.065 104.369 205.033 105.634C206.743 107.88 206.354 111.026 204.213 112.824C204.332 117.523 204.755 122.236 204.835 126.891C204.91 128.726 205.383 135.212 205.299 136.698C205.547 137.291 205.787 137.334 206.372 137.565C209.993 138.994 222.626 142.661 224.068 146.007C224.473 146.947 224.393 148.023 223.992 148.949C223.746 149.515 223.336 150.074 222.76 150.333C222.432 150.48 222.149 150.486 221.808 150.403C220.347 150.049 218.72 149.02 217.311 148.428C214.128 147.097 210.817 146.095 207.431 145.44C207.388 152.309 207.429 160.521 207.144 167.298L201.359 167.268C201.423 164.943 201.608 146.806 201.159 146.082C200.516 145.952 200.83 145.924 200.195 146.237C199.863 146.921 200.002 165.163 200.07 167.277L194.434 167.3C194.338 160.476 194.449 152.114 194.094 145.41C188.921 146.56 184.437 148.217 179.625 150.396C178.029 151.118 175.959 146.524 178.111 145.044C182.08 142.313 191.464 138.232 196.031 137.308L196.101 134.615C196.663 128.398 196.691 121.389 197.116 115.022Z" fill="#202161"/>
<path d="M197.296 115.114C198.08 115.174 197.721 115.255 198.404 114.829L198.823 115.004C198.288 115.528 198.297 115.351 198.252 115.92C199.331 116.805 201.354 116.152 202.713 117.146L202.778 117.485C203.636 118.195 203.631 118.18 203.544 119.341C203.298 119.785 203.278 119.74 203.159 120.212C203.717 120.91 203.731 120.723 203.853 121.487C203.639 121.748 203.681 121.755 203.407 121.93L203.298 122.528C203.921 123.225 203.956 123.356 204.071 124.336C204.068 125.681 204.274 126.746 203.974 128.027L204.322 128.91L204.238 129.389C203.537 129.471 201.499 128.286 200.539 128.124C199.692 127.981 199.136 128.033 198.295 128.074L198.275 128.775L198.467 128.949L199.245 128.896L199.359 129.055L198.651 129.022L198.901 129.219C201.236 129.274 204.278 129.538 204.563 132.313C204.438 132.671 204.308 132.957 204.116 133.285L204.244 133.569C202.748 132.635 197.405 130.588 197.541 133.758L197.663 133.793C198.143 134.626 198.135 134.306 198.727 134.83C198.064 135.078 197.832 135.109 197.355 135.629C197.226 136.255 197.176 135.978 197.401 136.496C196.862 136.946 197.011 136.917 196.198 136.831L196.269 134.206C196.837 128.149 196.866 121.318 197.296 115.114Z" fill="#262C6F"/>
<path d="M198.406 129.278C200.945 129.332 204.253 129.591 204.563 132.319C202.64 132.108 201.502 130.054 198.672 130.709C198.343 130.785 197.37 130.868 196.958 130.584L196.97 130.235C197.409 129.687 197.736 129.596 198.406 129.278Z" fill="#F2EFF2"/>
<path d="M198.308 128.153L197.858 128.077L197.719 127.818C198.607 126.19 201.967 127.374 203.297 128.02L203.485 128.113L203.802 128.866L203.725 129.274C203.086 129.343 201.229 128.334 200.353 128.196C199.581 128.074 199.075 128.119 198.308 128.153Z" fill="#F2EFF2"/>
<path d="M203.802 123.954C201.797 123.501 200.815 122.636 198.439 122.785C198.06 122.809 198.048 122.763 197.733 122.61L197.719 122.243C198.631 121.02 201.738 122.092 203.035 122.454C203.654 123.032 203.688 123.141 203.802 123.954Z" fill="#F2EFF2"/>
<path d="M203.334 121.673C200.831 120.47 200.565 120.986 197.905 120.444C197.725 120.407 197.758 120.308 197.719 120.117C198.88 118.672 201.514 119.753 203.074 120.222C203.66 120.812 203.674 120.653 203.802 121.298C203.578 121.519 203.622 121.525 203.334 121.673Z" fill="#F2EFF2"/>
<path d="M203.005 119.392C201.653 118.934 199.731 117.649 198.146 117.44C197.898 117.408 197.782 117.037 197.719 116.772C198.812 115.873 201.09 116.628 202.267 117.041C203.094 117.94 203.09 117.921 203.005 119.392Z" fill="#F2EFF2"/>
<path d="M198.678 123.954C200.377 123.961 203.712 124.316 203.802 126.738L203.564 126.996L203.129 126.85C201.235 125.63 200.77 125.819 198.656 125.43C197.966 125.303 197.999 125.381 197.719 124.931C198.044 124.213 197.94 124.437 198.678 123.954Z" fill="#F2EFF2"/>
<path d="M198.388 135.425C200.804 135.171 203.399 135.611 204.563 137.976C204.233 138.394 204.441 138.293 203.995 138.403C200.821 136.884 201.04 136.104 197.109 137.058C196.891 136.551 196.94 136.822 197.064 136.208C197.524 135.699 197.748 135.668 198.388 135.425Z" fill="white"/>
<path d="M196.961 134.077C196.816 130.809 202.504 132.919 204.097 133.882C204.381 134.421 204.649 134.746 204.536 135.319C203.771 135.635 201.525 134.067 200.57 133.674C199.061 133.75 198.543 133.764 197.09 134.113L196.961 134.077Z" fill="#F2EFF2"/>
<path d="M198.289 114.829C199.545 114.9 202.684 115.186 203.042 116.669C202.788 117.061 202.689 117.039 202.174 117.11C200.817 116.052 198.797 116.747 197.719 115.805C197.763 115.199 197.755 115.387 198.289 114.829Z" fill="white"/>
<path d="M191.517 108.745L191.635 108.945C189.634 110.558 188.531 110.794 186.256 112.885C176.312 122.03 172.693 134.959 171.601 148.026C171.246 152.275 171.36 156.234 171.22 160.456L170.425 157.824C169.991 155.699 169.409 153.593 168.991 151.449C165.123 131.617 173.452 116.931 191.517 108.745Z" fill="#96D5F4"/>
<path d="M212.891 110.266C221.609 114.542 228.494 121.428 231.635 130.553C234.996 140.315 233.234 150.82 230.233 160.456C230.088 157.856 230.177 155.266 230.098 152.663C229.65 137.778 226.126 122.609 214.226 112.278C213.556 111.706 212.87 111.153 212.167 110.619L212.891 110.266Z" fill="#96D5F4"/>
<path d="M207.604 106.464C209.358 106.776 211.549 107.497 213.286 107.985C221.673 110.345 230.064 114.338 236.753 120.043C248.694 130.228 253.451 142.242 254.753 157.414C254.323 156.954 253.644 154.55 253.421 153.759C252.527 150.605 251.45 147.933 250.098 144.945C246.751 137.41 242.139 130.512 236.465 124.553C231.842 119.721 226.512 115.627 220.663 112.413C218.002 110.935 215.235 109.662 212.382 108.606C211.045 108.11 209.754 107.722 208.408 107.284C207.906 107.12 207.885 106.908 207.604 106.464Z" fill="#96D5F4"/>
<path d="M193.469 106.544L193.825 106.464L193.916 106.709C193.031 107.938 191.091 107.726 189.621 108.292C171.479 115.273 157.53 129.516 150.307 147.49C148.964 150.833 148.066 153.845 146.999 157.274L146.788 157.414C146.675 156.818 147.073 154.539 147.152 153.798C148.009 145.212 150.99 136.976 155.825 129.833C162.931 119.484 174.053 112.415 185.858 108.665C188.231 107.911 191.029 106.998 193.469 106.544Z" fill="#96D5F4"/>
<path d="M208.365 107.985C210.013 108.641 211.335 109.169 212.928 109.962L212.287 110.266L208.365 107.985Z" fill="#96D5F4"/>
<path d="M104.121 193.709C102.183 186.615 99.1152 179.785 97.4024 172.652C97.0041 170.934 98.5307 168.813 100.173 168.459C101.779 168.131 103.469 168.116 105.104 168.123C110.734 168.149 116.389 167.969 122.014 168.14C122.636 168.159 124.664 168.486 125.071 168.857C126.737 170.462 127.484 173.339 127.963 175.572C128.975 180.295 130.671 185.272 131.489 190L132.923 190.059C133.953 184.701 135.298 179.362 136.442 174.026C137.102 171.021 138.274 168.248 141.778 168.156C147.871 167.995 154.086 168.179 160.17 168.064C169.738 167.883 166.179 174.739 164.37 180.629L160.411 193.538C156.544 206.223 152.922 219.038 148.783 231.631C146.563 238.384 143.37 244.495 136.816 247.79C128.505 251.969 113.796 251.729 105.023 248.676C103.676 248.207 101.711 247.362 101.101 245.98C100.038 243.572 100.294 231.637 101.388 229.258C101.811 228.337 102.586 227.723 103.543 227.411C105.046 226.923 106.598 227.336 108.133 227.281L108.84 226.81C107.664 226.519 107.212 223.286 106.913 222.102C104.54 212.69 103.622 203.401 104.121 193.709Z" fill="white"/>
<path d="M103.556 193.916C103.728 194.613 103.805 194.663 104.071 195.266C106.318 200.373 107.724 205.946 109.736 211.133C111.875 216.65 113.34 224.709 119.391 227.158C117.634 227.662 110.415 227.153 108.37 227.032C107.171 226.741 106.71 223.507 106.405 222.322C103.984 212.906 103.047 203.613 103.556 193.916Z" fill="#96D5F4"/>
<path d="M108.697 227.376C110.717 227.458 117.848 227.803 119.585 227.462C120.784 227.688 121.987 227.904 123.194 228.11C120.973 228.219 110 227.979 107.985 227.696L108.697 227.376Z" fill="#262C6F"/>
<path d="M133.08 190.178L132.235 193.156C132.038 192.228 131.816 191.002 131.559 190.114L133.08 190.178Z" fill="#262C6F"/>
<path d="M159.836 171.234C161.446 171.216 162.419 170.843 163.776 171.611C164.411 172.431 164.334 172.975 164.031 173.926L151.891 212.652C149.792 219.409 147.772 226.17 145.492 232.891C141.12 245.774 130.336 248.537 117.805 247.799C114.341 247.595 105.722 246.763 103.279 244.661C102.409 242.345 102.683 232.457 103.527 230.193C107.042 230.06 121.416 231.767 123.583 230.271C124.992 229.299 125.324 226.764 125.721 225.197C123.645 225.319 121.567 225.003 119.624 224.268C117.905 223.111 116.841 221.886 115.996 219.979C114.198 215.919 112.816 211.693 111.368 207.502L105.557 190.641C104.503 187.58 99.7724 174.589 99.6196 172.272C100.281 171.153 103.625 171.065 104.809 171.231C109.204 171.846 119.161 170.38 123.127 171.615C125.228 173.684 129.75 197.789 132.011 202.476L132.127 202.716C134.913 197.22 137.745 174.327 140.302 171.789C140.579 171.514 140.722 171.416 141.104 171.346C143.124 170.98 145.547 171.225 147.606 171.234C151.683 171.255 155.759 171.255 159.836 171.234Z" fill="#EE1D24"/>
<path d="M310.139 250.19C310.616 250.529 311.331 251.231 311.787 251.648C300.54 275.006 282.288 294.258 259.577 306.713C230.806 322.325 197.032 325.883 165.648 316.609C133.341 307.076 107.694 285.285 91.6754 255.815L90.4941 253.501C91.2945 253.521 92.0947 253.549 92.8944 253.583C105.31 277.79 125.457 297.139 150.125 308.547C179.34 321.893 212.632 323.156 242.773 312.065C272.433 301.043 296.611 278.836 310.139 250.19Z" fill="white"/>
<path d="M222.819 85.9316C225.024 86.0133 229.82 86.7814 229.653 89.8515C229.572 91.3659 229.073 91.5654 228.258 92.5542C228.523 94.7528 229.406 94.8839 227.503 96.8804C225.526 97.9633 222.453 96.9011 220.532 96.0134C220.907 93.8448 222.122 87.8737 222.819 85.9316Z" fill="white"/>
<path d="M223.297 92.0151C224.586 92.2163 225.911 92.3183 226.573 93.3468C226.717 94.0814 226.484 94.3039 226.085 95.0188C225.101 95.1436 223.831 94.932 222.813 94.8171C222.878 93.977 223.132 92.8678 223.297 92.0151Z" fill="#262C6F"/>
<path d="M224.862 88.2129C225.782 88.4129 226.866 88.6124 227.362 89.5701C227.406 90.5278 227.374 90.2605 226.943 91.2362C226.042 91.3306 225.228 91.0442 224.334 90.8194L224.862 88.2129Z" fill="#262C6F"/>
<path d="M161.732 90.5295C166.464 90.1415 164.705 93.0562 165.261 95.0405C166.182 95.5273 166.727 95.9812 167.096 96.9806C168.192 99.9502 164.616 101.37 162.613 102.093L160.52 102.662C159.277 100.166 157.574 95.269 156.654 92.546C158.551 91.5258 159.65 91.0681 161.732 90.5295Z" fill="white"/>
<path d="M163.037 96.5779C163.605 96.5949 163.849 96.7369 164.224 97.1895C164.437 98.6549 163.64 99.0649 162.62 99.5919C162.418 99.6453 162.36 99.6095 162.141 99.5863C161.68 98.927 161.471 98.027 161.217 97.2105C161.789 96.9892 162.452 96.7802 163.037 96.5779Z" fill="#262C6F"/>
<path d="M161.102 92.8236C161.776 92.701 162.118 92.802 162.63 93.2609C163.027 94.7176 162.282 95.1137 161.174 95.6851L160.734 95.8175C159.707 95.4701 159.569 94.5476 159.78 93.5453C160.282 92.9059 160.187 93.0976 161.102 92.8236Z" fill="#262C6F"/>
<path d="M231.085 297.35C235.532 297.056 237.417 302.335 236.08 305.859C235.618 307.08 234.142 307.603 232.933 307.962C230.325 308.178 228.846 306.869 228.022 304.533C226.72 300.839 227.217 298.615 231.085 297.35Z" fill="white"/>
<path d="M231.298 298.859C232.587 299.222 233.171 299.896 233.604 301.055C234.34 303.029 234.861 304.836 232.463 305.703C230.174 305.294 229.237 301.688 229.833 299.889C230.012 299.346 230.778 299.087 231.298 298.859Z" fill="#202161"/>
<path d="M123.774 114.068C128.99 114.866 133.797 123.259 125.747 125.475C123.116 124.95 120.149 122.315 119.505 119.593C119.235 118.455 119.452 117.252 120.099 116.289C120.932 115.045 122.377 114.361 123.774 114.068Z" fill="white"/>
<path d="M122.6 117.111C123.595 117.095 124.077 117.329 124.824 117.939C126.447 119.265 128.099 120.746 126.025 122.425C124.259 122.593 121.93 120.313 121.684 118.693C121.584 118.036 122.175 117.524 122.6 117.111Z" fill="#202161"/>
<path d="M183.77 84.4373C186.416 84.2318 188.17 85.1969 188.885 87.9191C189.788 91.3574 189.677 94.6608 185.899 95.7507C184.915 95.8389 183.891 95.9231 182.964 95.4194C180.364 94.007 179.528 89.0177 180.842 86.4905C181.509 85.2079 182.465 84.8383 183.77 84.4373Z" fill="white"/>
<path d="M183.84 86.6934C184.815 86.6837 185.571 86.6944 186.078 87.578C187.088 89.337 187.845 92.3135 185.67 93.5358C184.772 93.5367 184.03 93.5591 183.551 92.7486C182.536 91.031 181.714 87.9265 183.84 86.6934Z" fill="#202161"/>
<path d="M245.586 291.255L245.88 291.296C246.618 291.851 249.736 300.263 250.19 301.688C249.488 301.947 248.695 302.345 248.004 302.669C247.16 300.422 246.228 298.294 245.624 295.957C245.11 300.387 244.599 301.703 240.961 298.09L242.262 301.325L243.603 304.717L241.282 305.703C240.208 302.268 238.38 298.643 237.262 295.129L239.305 294.245C240.488 295.09 242.36 296.813 243.523 297.817C243.579 295.977 243.766 293.923 243.898 292.071L245.586 291.255Z" fill="white"/>
<path d="M156.873 292.015C157.481 292.171 158.694 292.68 159.328 292.921C158.645 294.968 156.872 299.152 155.991 301.137C157.235 301.783 157.94 302.066 159.26 302.552C160.385 300.343 161.633 296.782 162.716 294.307C163.453 294.66 164.268 295.005 165.019 295.341C164.551 296.646 163.969 298.041 163.457 299.341C163.079 300.229 161.862 302.762 161.935 303.588L162.605 304.137C162.753 304.802 161.642 307.204 161.325 307.985C161.006 307.865 160.688 307.742 160.372 307.615C158.342 306.791 159.767 305.733 159.229 305.161C158.403 304.281 154.56 303.979 153.697 301.656C153.067 299.959 156.131 293.924 156.873 292.015Z" fill="white"/>
<path d="M284.847 120.152C285.277 120.431 286.095 121.362 286.49 121.779C284.862 123.213 283.024 124.694 281.35 126.098C283.273 125.571 286.738 125.033 288.882 124.586C289.422 125.135 289.974 125.772 290.494 126.347C288.228 128.498 285.099 131.016 282.631 133.015L282.407 133.08C281.868 132.969 281.498 132.39 281.122 131.948C281.307 130.717 284.605 128.326 285.743 127.396C283.285 128 280.879 128.365 278.384 128.789C277.713 128.131 277.363 127.656 276.806 126.923C279.409 124.653 282.192 122.376 284.847 120.152Z" fill="white"/>
<path d="M152.321 94.2966C152.371 94.3064 152.424 94.3062 152.471 94.3257C153.369 94.6973 156.719 102.2 157.414 103.62C156.575 103.921 156.146 104.179 155.382 104.611C154.411 102.699 153.467 100.774 152.55 98.8354C152.45 101.287 152.373 103.734 152.152 106.178C151.484 106.605 150.793 106.893 150.074 107.224C149.124 105.915 146.116 99.6026 145.247 97.8499L147.368 96.8772C148.15 98.6725 149.326 101.047 150.362 102.683C150.209 100.698 150.414 97.1912 150.612 95.2L152.321 94.2966Z" fill="white"/>
<path d="M188.692 301.141L191.129 301.371C190.986 303.666 190.865 305.877 190.534 308.156C191.481 306.795 194.136 302.815 195.188 301.86C196.034 301.563 196.797 301.712 197.718 301.78C197.629 304.948 197.242 309.383 196.924 312.547C196.117 312.518 195.21 312.418 194.398 312.349C194.63 310.282 194.762 308.03 194.957 305.935C193.49 308.024 191.993 310.095 190.467 312.147C189.542 312.117 188.744 311.988 187.833 311.862C188.058 308.284 188.345 304.709 188.692 301.141Z" fill="white"/>
<path d="M206.394 301.169L208.717 301.141L209.125 312.177C208.271 312.248 207.473 312.415 206.789 311.951C206.482 310.502 206.527 306.815 206.716 305.34C205.912 306.857 203.542 311.949 202.564 312.51C201.833 312.537 201.322 312.643 200.682 312.308C200.156 311.532 200.073 302.93 200 301.407L202.397 301.354C202.54 303.718 202.578 306.004 202.622 308.37C203.57 306.429 205.232 302.884 206.394 301.169Z" fill="white"/>
<path d="M292.344 130.038C292.832 130.297 293.487 131.291 293.857 131.781C292.181 133.133 290.018 134.529 288.205 135.698C290.787 135.433 293.447 135.251 296.043 135.015L297.339 136.97C295.542 138.504 290.833 141.524 288.71 142.957C288.157 143.088 287.431 141.706 287.101 141.238C288.862 140.021 290.616 138.794 292.363 137.557L285.1 138.181C284.534 137.545 284.116 136.846 283.65 136.133C285.874 134.296 289.831 131.839 292.344 130.038Z" fill="white"/>
<path d="M246.918 93.5361C247.127 93.5608 247.336 93.5923 247.542 93.63C251.229 94.3301 250.16 96.6493 249.621 99.5814C249.247 101.618 248.767 103.677 248.336 105.703L246.06 104.608C246.242 103.89 246.696 102.56 246.494 101.913C245.75 101.6 244.894 101.154 244.156 100.795C243.615 101.467 243.045 102.292 242.527 102.998C241.869 102.603 241.011 102.231 240.304 101.9C241.517 100.134 245.431 94.8186 246.918 93.5361Z" fill="white"/>
<path d="M247.776 95.8174C248.221 96.3606 247.456 99.0963 246.858 99.6197L246.079 99.5245L245.63 99.1245C245.563 98.1786 247.094 96.6328 247.776 95.8174Z" fill="#262C6F"/>
<path d="M213.554 84.4162C217.226 84.3134 217.133 85.6422 217.502 88.9468C217.758 91.2307 217.948 93.5367 218.251 95.8175C217.4 95.6908 216.501 95.5851 215.642 95.472C215.536 94.5441 215.62 93.8623 215.319 92.9515L214.882 92.7751C214.062 92.6066 213.322 92.5527 212.491 92.4726L211.681 95.0194L209.125 94.6631C209.902 92.4816 212.045 85.4343 213.554 84.4162Z" fill="white"/>
<path d="M214.468 86.6919C215.189 87.1744 215.503 89.8107 214.862 90.4525L213.765 90.4942C213.214 90.3809 213.378 90.4382 212.928 90.2227C212.928 89.281 213.963 87.6247 214.468 86.6919Z" fill="#202161"/>
<path d="M175.224 86.7022L175.661 86.6919C176.189 87.0951 178.344 95.6137 178.707 96.8915C177.863 97.1208 176.895 97.3181 176.033 97.5141C175.752 96.1182 175.349 94.6405 174.999 93.2514L171.483 94.1273C171.862 95.5697 172.626 96.9163 172.318 98.2591C171.821 98.7737 171.819 98.6325 170.966 98.8388C170.827 98.8586 170.476 98.8563 170.322 98.8592C169.608 98.114 167.715 90.2004 167.3 88.6524C168.124 88.4823 169.037 88.2178 169.857 88.0001C170.23 89.3796 170.573 90.6107 170.828 92.0142C172.018 91.6935 173.219 91.4089 174.428 91.1603C174.042 89.7736 173.342 88.5835 173.654 87.3292C174.224 86.787 174.305 86.9203 175.224 86.7022Z" fill="white"/>
<path d="M275.317 111.027C276.028 111.434 276.846 112.155 277.493 112.681C276.485 113.719 275.546 114.731 274.409 115.647C275.307 116.474 276.26 117.302 277.174 118.117C278.157 117.119 279.122 116.104 280.067 115.074L282.129 116.853C279.538 119.35 276.903 122.128 274.385 124.715C273.712 124.184 273.02 123.556 272.37 122.989C273.212 122.039 274.675 120.708 275.628 119.788L272.815 117.355L269.694 120.642L267.681 118.913C269.817 116.754 273.46 113.255 275.317 111.027Z" fill="white"/>
<path d="M127.611 272.243C129.359 272.585 132.056 275.287 132.293 277.082C132.411 278.043 132.127 279.007 131.499 279.774C129.548 282.114 126.77 280.383 124.993 278.934L124.601 278.858C123.935 279.331 122.73 280.719 122.131 281.369C121.499 280.896 120.763 280.233 120.152 279.713C122.556 277.278 125.114 274.556 127.611 272.243Z" fill="white"/>
<path d="M127.98 275.285C128.885 275.849 129.463 276.442 129.223 277.505C128.816 278.027 128.772 278.029 128.155 278.327C127.273 277.977 126.967 277.685 126.236 277.113C126.742 276.496 127.41 275.86 127.98 275.285Z" fill="#202161"/>
<path d="M132.299 106.464C134.554 106.486 136.551 108.17 136.041 110.554C135.647 112.398 134.604 113.168 133.155 114.153L135.657 117.06C134.983 117.635 134.337 118.27 133.542 118.631C131.431 115.98 128.922 112.971 126.996 110.231C128.689 108.52 129.997 107.252 132.299 106.464Z" fill="white"/>
<path d="M131.818 108.745C132.933 108.874 133.478 109.173 133.84 110.069C133.663 111.369 133.066 111.682 131.978 112.548C130.96 111.823 130.055 111.17 130.038 110.013C130.427 109.303 130.969 109.163 131.818 108.745Z" fill="#262C6F"/>
<path d="M265.902 104.183C266.499 104.357 267.372 105.182 267.902 105.622L265.506 108.942C266.876 109.854 268.067 110.809 268.383 112.608C268.768 114.802 267.187 116.1 265.306 116.35C263.032 115.746 261.682 114.37 260.076 112.655C261.042 110.808 264.567 106.064 265.902 104.183Z" fill="white"/>
<path d="M264.449 110.266C265.381 110.666 266.004 111.39 266.16 112.599C266.033 113.376 265.914 113.452 265.465 114.068C264.54 113.744 263.953 113.263 263.118 112.679C263.519 111.802 263.97 111.077 264.449 110.266Z" fill="#202161"/>
<path d="M254.653 286.705C255.64 286.652 256.192 286.731 256.843 287.533C258.711 289.835 259.959 292.684 261.597 295.167L259.239 296.555C257.967 294.107 256.297 291.393 254.856 289.037C253.859 289.544 252.471 290.075 252.021 291.012L252.236 291.5C253.447 293.705 254.899 296.052 256.188 298.232L253.857 299.62C250.637 292.777 245.377 290.841 254.653 286.705Z" fill="white"/>
<path d="M114.724 123.211C115.81 123.141 116.275 123.262 117.17 123.935C119.24 125.49 121.165 127.272 123.194 128.893L121.521 130.862C120.143 129.428 116.93 126.931 115.269 125.482C114.543 126.243 113.768 127.271 113.101 128.111L114.343 129.181L119.501 133.453L117.841 135.361C113.081 131.044 106.975 128.992 114.724 123.211Z" fill="white"/>
<path d="M168.011 296.578L170.541 297.348C170.149 298.689 169.742 300.025 169.319 301.357C171.015 301.816 172.616 302.335 173.639 303.887C174.849 305.723 173.714 307.552 172.058 308.58C169.748 309.146 167.05 308.165 165.019 307.066C165.918 303.602 167.011 300.025 168.011 296.578Z" fill="white"/>
<path d="M168.725 303.422C169.951 303.537 171.397 303.77 171.863 304.919C171.872 305.631 171.691 305.825 171.335 306.454C170.331 306.514 169.081 306.288 168.061 306.152L168.725 303.422Z" fill="#202161"/>
<path d="M279.704 265.399L279.966 265.568C280.328 266.339 281.138 270.511 281.383 271.68C282.998 271.811 286.599 272.464 288.213 272.804C287.235 273.721 286.873 274.08 286.058 275.137C284.261 274.625 282.015 274.338 280.014 273.808C281.286 275.012 282.572 276.204 283.87 277.385C283.284 277.914 282.748 278.51 282.206 279.087C281.469 279.027 274.813 272.595 273.764 271.622C274.393 270.993 275.067 270.371 275.715 269.758C276.957 271.037 277.974 271.916 279.322 273.064C278.784 271.356 278.339 269.148 277.843 267.345L279.704 265.399Z" fill="white"/>
<path d="M224.129 298.94C224.661 298.851 224.416 298.799 224.885 298.988C224.987 300.053 223.171 303.417 222.602 304.547C224.211 306.091 225.806 307.753 227.376 309.347C226.312 309.469 225.349 309.716 224.307 309.959C223.028 308.551 221.647 306.958 220.268 305.67C220.693 306.875 220.969 308.495 221.227 309.776L221.228 310.195C220.687 310.823 219.714 310.863 218.836 311.027C218.205 307.483 217.429 303.819 216.73 300.278C217.523 300.185 218.483 299.983 219.28 299.838C219.57 301.486 219.89 303.129 220.24 304.764C220.871 303.075 221.397 300.915 222.474 299.48C222.865 298.96 223.467 299.025 224.129 298.94Z" fill="white"/>
<path d="M178.304 299.62L180.76 299.922C180.663 301.545 180.306 303.359 179.864 304.928L184.103 300.598C185.092 300.789 186.075 300.919 187.072 301.061C185.514 302.612 183.929 304.139 182.318 305.636C182.997 306.964 183.727 308.745 184.342 310.134L185.055 311.787C184.078 311.552 182.97 311.396 181.971 311.229C181.2 309.358 180.482 307.583 179.822 305.669C179.524 307.377 179.253 308.987 178.847 310.677L176.426 310.234C176.818 307.118 177.726 302.788 178.304 299.62Z" fill="white"/>
<path d="M198.921 83.6501C199.612 83.7541 199.369 83.598 199.815 83.9662C200.096 85.0753 199.957 86.5195 199.964 87.6962L204.001 87.6919L204.03 83.8544L206.825 83.9006C206.81 85.6466 207.029 93.3183 206.29 94.2965C205.56 94.2951 204.756 94.2328 204.022 94.1928L204.014 90.4215L201.339 90.406L201.203 94.2958C200.333 94.2893 199.357 94.218 198.479 94.1737C198.498 92.5154 198.441 84.6266 198.921 83.6501Z" fill="white"/>
<path d="M249.43 106.741C251.823 104.166 259.112 94.1377 260.832 101.529C260.96 102.076 258.146 110.601 257.763 111.787L255.418 110.251C256.043 108.429 257.04 105.801 257.478 103.996C257.282 103.706 257.178 103.37 257.032 103.051L256.696 103.483L256.14 103.476C254.84 104.713 252.991 106.756 251.804 108.156L249.43 106.741Z" fill="white"/>
<path d="M256.274 103.699C256.884 102.859 257.826 101.918 258.555 101.141C258.214 102.132 257.865 103.207 257.502 104.182C257.322 103.913 257.226 103.601 257.093 103.305L256.785 103.706L256.274 103.699Z" fill="#262C6F"/>
<path d="M141.51 283.65C145.77 284.902 144.562 286.704 143.336 289.934C142.594 291.89 141.811 293.847 141.108 295.817C140.399 295.479 139.448 294.876 138.753 294.465C139.802 291.988 140.816 289.501 141.795 286.999C142.052 286.584 141.981 286.803 141.939 286.315C141.347 286.448 136.153 291.455 135.27 292.275C134.598 291.762 133.806 291.299 133.08 290.848C134.538 289.428 139.983 284.348 141.51 283.65Z" fill="white"/>
<path d="M263.155 281.369C264.988 281.46 270.591 286.68 272.243 288.063L270.085 289.651C268.971 288.643 264.353 284.422 263.405 283.912L263.229 284.19C264.013 285.507 265.977 290.214 266.828 291.935C266.104 292.437 265.426 292.989 264.738 293.536C263.916 291.952 260.842 285.428 260.836 283.4C260.835 282.662 262.453 281.771 263.155 281.369Z" fill="white"/>
<path d="M271.723 273.764C272.467 273.774 272.884 274.572 273.305 275.125C272.132 276.063 271.191 276.805 270.123 277.846C270.643 278.523 270.972 278.903 271.569 279.518C272.619 278.654 273.658 277.773 274.679 276.875L276.222 278.288L272.946 281.108L274.7 282.857C275.756 282.068 276.814 281.106 277.812 280.238C278.28 280.568 279.548 281.472 278.913 282.124C278.091 283.073 275.721 285.246 274.404 285.169C272.407 285.053 267.558 279.683 267.683 277.799C267.775 276.395 270.495 274.527 271.723 273.764Z" fill="white"/>
<path d="M234.222 88.2129C235.053 88.3537 235.879 88.6926 236.679 88.9797C236.443 89.7026 235.217 92.605 235.413 93.4713C235.76 94.9963 237.683 95.0739 238.282 93.4531C238.663 92.4234 239.056 91.0144 239.394 89.8393C240.077 90.1437 241.096 90.4623 241.825 90.7151L240.123 95.8165L238.286 101.141L235.874 100.273C236.293 99.0284 236.746 97.7964 237.232 96.5777C230.716 96.3129 232.698 92.5911 234.222 88.2129Z" fill="white"/>
<path d="M148.729 288.988C150.995 288.828 152.445 290.026 154.373 291.206C154.105 291.825 153.743 292.5 153.436 293.108C152.261 292.399 151.103 291.755 149.838 291.232C149.503 291.81 149.066 292.435 148.694 292.995C149.738 293.648 151.102 294.361 152.198 294.969C151.944 295.819 151.962 296.156 151.128 296.495C150.149 296.389 148.766 295.434 147.767 294.89C147.507 295.353 147.056 296.544 146.833 297.086C147.851 297.853 150.426 298.531 150.064 299.912C148.37 301.479 143.948 298.817 144.541 296.337C145.057 294.182 147.04 290.295 148.729 288.988Z" fill="white"/>
<path d="M284.652 259.316C285.249 259.437 285.971 260.049 286.493 260.423C285.804 261.13 284.729 262.169 284.45 263.09C284.646 264.715 287.339 266.748 288.945 266.909C290.047 266.566 290.749 265.19 291.395 264.213C291.989 264.628 292.362 264.82 292.769 265.396C292.802 266.163 292.718 266.024 292.273 266.819C292.095 267.086 291.54 267.794 291.316 268.027C290.569 268.801 289.523 269.227 288.438 269.2C285.851 269.159 281.987 266.241 282.133 263.436C282.229 261.605 283.399 260.498 284.652 259.316Z" fill="white"/>
<path d="M113.974 258.565C117.044 258.409 117.921 260.119 119.392 262.52C118.875 263.02 118.235 263.542 117.684 264.015C117.291 263.307 116.587 262.053 115.901 261.641C115.351 261.305 114.692 261.206 114.072 261.368C112.776 261.711 111.01 263.628 110.408 264.741C110.873 266.044 111.629 266.786 112.55 267.75L110.923 269.202C109.131 267.508 108.605 266.826 107.985 264.438C108.838 261.336 111.229 259.789 113.974 258.565Z" fill="white"/>
<path d="M107.3 131.559C112.174 132.674 104.041 135.452 109.612 138.068C112.951 139.637 112.891 139.334 114.827 136.137C115.448 136.518 115.692 136.652 116.222 137.13C116.441 137.882 116.38 137.632 116.026 138.521C115.871 138.774 115.711 139.023 115.545 139.269C113.367 142.459 110.008 141.755 107.344 139.63C103.516 136.578 104.849 134.51 107.3 131.559Z" fill="white"/>
<path d="M141.938 99.6199L142.138 99.6344C142.691 99.959 143.109 100.786 143.468 101.356C142.651 101.796 141.818 102.311 141.017 102.788C142.331 104.496 144.944 108.506 146.008 110.358C145.236 110.805 144.522 111.294 143.781 111.787L142.51 109.807C141.293 107.962 139.984 106.048 138.875 104.147L136.469 105.673C136.008 104.987 135.738 104.446 135.361 103.717L141.938 99.6199Z" fill="white"/>
<path d="M120.846 264.639C121.631 265.096 125.207 269.167 126.236 270.147L124.631 271.68L122.693 269.661C121.445 270.785 119.633 272.174 118.288 273.266L115.875 275.285C115.275 274.703 114.654 274.032 114.068 273.427C115.79 271.901 119.119 269.225 121.017 267.888L119.143 265.819C119.643 265.431 120.309 265.004 120.846 264.639Z" fill="white"/>
<path d="M135.547 279.087L137.643 280.687C135.561 282.86 132.661 286.555 130.65 288.973C130.098 288.794 129.022 287.856 128.517 287.454C130.834 284.645 133.177 281.856 135.547 279.087Z" fill="white"/>
<path d="M206.082 298.099C206.654 298.129 206.419 297.993 206.839 298.4C206.974 301.237 204.477 301.722 202.91 300.539C202.555 299.914 202.3 299.62 202.281 298.834C203.012 297.74 204.024 299.165 204.544 299.889L206.082 298.099Z" fill="white"/>
<path d="M295.69 129.278C296.379 129.565 296.409 129.719 296.661 130.236C296.255 132.795 296.959 131.802 298.547 132.762C298.882 133.254 298.841 133.234 298.859 133.83C295.673 134.002 294.085 132.016 295.69 129.278Z" fill="white"/>
<path d="M192.218 89.1433C192.638 89.1039 193.058 89.0676 193.477 89.0343C194.42 88.9609 194.719 88.8359 195.39 89.4838C195.465 90.1812 195.452 90.1663 195.341 90.8652L194.981 91.146C193.832 91.2332 192.045 91.615 191.635 90.136C191.846 89.5816 191.857 89.6019 192.218 89.1433Z" fill="white"/>
<path d="M49.6247 203.992C51.1221 200.811 66.4301 170.712 67.6543 170.004C68.1124 169.739 68.9638 169.707 69.4766 169.677C72.0755 169.526 91.2899 169.527 92.6277 169.883C93.0695 170 93.2997 170.066 93.5363 170.476C93.1514 172.836 86.5277 183.978 84.9704 186.742L73.094 207.802C74.4982 210.525 76.3925 213.711 77.9133 216.423L87.2059 232.989C88.5483 235.363 89.9206 237.746 91.2376 240.131C91.9648 241.446 93.9585 244.398 93.3557 245.84C89.904 246.877 70.3535 246.171 66.3707 245.911C65.0942 245.827 50.9412 215.877 49.6033 212.755C49.4419 217.385 50.06 243.106 49.235 245.349C48.8078 245.829 47.9722 246.27 47.3787 246.214C43.8458 245.876 27.7449 247.095 25.7187 245.448C24.7177 241.799 25.2225 230.228 25.2226 225.714L25.2275 194.237L25.2209 180.194C25.2182 178.178 25.0822 172.499 25.5266 170.738C25.9847 170.049 26.1808 170.054 27.0066 169.748C29.9362 169.583 47.0727 169.436 48.9381 170.14C49.3274 170.67 49.5069 172.135 49.5183 172.841C49.6839 183.211 49.3857 193.624 49.6247 203.992Z" fill="#EE1D24"/>
<path d="M340.045 169.806C347.987 169.146 359.724 169.519 364.508 176.878C365.387 178.231 366.039 179.716 366.439 181.277C367.354 184.812 368.081 189.03 368.793 192.65L372.39 210.961L376.285 230.769C376.815 233.46 379.083 243.562 378.653 245.628C377.571 246.615 356.205 246.609 354.837 245.791C354.414 245.285 354.153 244.808 354.033 244.147C350.913 227.065 348.714 209.719 345.663 192.63C345.536 191.749 345.435 189.973 344.663 189.466C343.303 190.108 342.27 199.64 341.991 201.425L337.633 228.741C337.22 231.324 335.412 244.901 334.201 245.838C331.901 246.572 312.702 246.589 310.599 245.745C310.388 245.507 310.315 245.31 310.276 244.999C310.038 243.162 314.262 223.474 314.959 219.911L319.809 195.208C320.691 190.712 321.529 186.232 322.536 181.763C324.572 172.726 331.755 170.544 340.045 169.806Z" fill="#EE1D24"/>
<path d="M77.6479 166.715C78.2035 163.217 80.7173 156.042 81.9976 152.701C90.7898 129.814 106.03 109.972 125.868 95.5832C153.111 75.8123 187.105 67.7255 220.323 73.1132C253.442 78.4428 283.081 96.7387 302.706 123.966C310.758 135.072 316.926 147.43 320.963 160.543C322.189 164.511 322.897 167.938 323.954 171.836L321.829 174.145C321.503 170.722 319.391 163.395 318.309 160.054C311 137.517 297.382 117.553 279.076 102.53C253.785 81.7109 221.258 71.8214 188.673 75.044C155.876 78.2201 125.719 94.4171 104.943 120.014C93.6901 133.747 85.5643 149.77 81.1308 166.967C80.3916 166.972 78.1628 166.944 77.5664 167.075L77.6479 166.715Z" fill="#202161"/>
<path d="M366.206 174.145C368.293 176.402 371.357 179.178 372.366 182.118C374.011 186.914 374.912 192.735 375.893 197.771L380.865 223.283L384.081 239.683C384.633 242.492 386.94 250.05 384.336 252.183C382.667 253.552 378.851 253.182 376.753 253.198C371.193 253.018 365.542 253.446 360.009 253.073C357.793 252.924 355.928 250.398 354.373 248.944C357.364 249.447 363.3 249.324 366.508 249.202C369.685 249.083 381.848 250.687 381.604 245.758C381.349 240.581 379.799 234.417 378.777 229.32L374.452 207.685L371.121 190.882C370.166 186.065 369.2 178.487 366.092 174.746L366.206 174.145Z" fill="#202161"/>
<path d="M52.1876 225.095C52.973 225.62 56.1441 232.51 56.1783 233.605C56.3584 238.21 56.2298 242.85 56.2206 247.462C56.567 250.477 54.0053 253.457 50.8475 253.118C46.0469 252.604 32.6228 254.101 28.8272 252.363C27.3889 251.189 25.6867 249.414 24.3345 248.077C27.409 249.585 31.2145 249.096 34.6083 249.066C38.0687 249.032 41.5294 249.045 44.9896 249.107C53.4379 249.18 52.2516 244.823 52.249 238.104C52.2589 233.767 52.2383 229.43 52.1876 225.095Z" fill="#202161"/>
<path d="M51.7109 169.909L51.9812 169.582C52.8727 170.526 54.9715 172.544 55.5462 173.516C56.7168 175.497 56.0634 181.083 56.2626 183.376C56.4801 185.875 53.4255 190.711 52.0587 193.156C52.1259 189.833 52.4385 171.919 51.7109 169.909Z" fill="#202161"/>
<path d="M365.666 174.144C363.207 171.35 360.284 169.364 356.625 168.291C355.299 167.901 354.18 167.89 352.852 167.3C353.566 167.304 354.562 167.596 355.295 167.74C359.567 168.579 362.875 170.442 365.779 173.559L365.666 174.144Z" fill="#9DA9BE"/>
<path d="M25.9263 167.353C26.8297 167.292 27.1654 167.271 28.0595 167.361L28.1367 167.503C25.5585 168.323 25.5361 167.056 23.4575 169.321C23.2696 169.82 23.2589 169.867 22.9485 170.342L22.8135 170.265C23.0884 168.708 24.4076 167.846 25.9263 167.353Z" fill="#F2EFF2"/>
<path d="M51.5073 170.342C51.2332 169.878 50.3661 168.552 50.1899 168.182L50.4098 168.061L50.2333 168.284L50.2832 168.39L50.5697 168.244C51.023 168.858 51.3028 169.304 51.7109 169.983L51.5073 170.342Z" fill="#9DA9BE"/>
<path d="M62.3574 247.148C63.3772 247.491 63.8605 248.016 64.6388 248.669C63.3149 248.398 63.0339 248.115 62.3574 247.148Z" fill="#F2EFF2"/>
</g>
<defs>
<clipPath id="clip0_19_6">
<rect width="400" height="400" fill="white"/>
</clipPath>
</defs>
</svg>
