<svg width="400" height="400" viewBox="0 0 400 400" fill="none" xmlns="http://www.w3.org/2000/svg">
<g clip-path="url(#clip0_19_157)">
<path d="M198.195 5C198.709 5.23881 203.18 9.162 204.017 9.84788L217.643 20.8037L237.689 36.8783C240.799 39.3678 246.757 43.8911 249.543 46.5822C257.067 53.8534 265.75 63.8177 270.151 73.3014C271.887 77.0471 272.992 85.4353 273.67 89.7686L276.61 109.243L286.466 178.07C285.128 179.72 283.816 181.392 282.534 183.087C285.126 185.478 287.74 187.85 290.236 190.338L286.273 195.562C288.844 198.768 291.736 202.091 294.394 205.254L288.754 211.317C291.356 214.406 293.936 217.511 296.499 220.631C294.139 222.657 291.8 224.706 289.483 226.778C291.597 229.826 294.409 234.985 296.356 238.318C292.645 241.066 288.703 243.8 284.933 246.492L285.046 250.3C291.497 247.719 298.898 243.806 305.164 240.657C305.631 250.621 307.488 260.689 308.394 270.642C300.947 271.336 298.649 273.421 291.769 276.489C287.483 278.4 283.146 280.187 278.759 281.849C257.974 289.711 236.302 294.996 214.23 297.582C209.243 298.157 203.254 298.799 198.262 298.871C193.467 298.871 186.59 298.103 181.817 297.543C159.267 294.87 137.141 289.378 115.959 281.194C111.616 279.512 107.327 277.694 103.097 275.747C97.1353 272.995 94.6427 271.282 88 270.612C89.2083 260.682 90.7396 250.662 91.2529 240.696C97.191 243.225 104.942 247.444 111.289 250.341L111.622 246.635C108.689 244.227 103.418 240.755 100.141 238.31L106.918 226.714C104.572 224.698 102.26 222.644 99.9822 220.548L107.701 211.322C105.821 209.311 103.955 207.285 102.106 205.247L110.16 195.601C108.855 193.758 107.569 192.109 106.178 190.339C108.267 188.149 111.633 185.22 113.928 183.097C112.706 181.46 111.295 179.755 110.014 178.147L120.159 107.398L122.888 89.1256C123.566 84.7448 124.502 77.2787 126.269 73.3959C130.634 63.8041 139.861 53.2754 147.514 46.0384C151.931 42.1111 156.764 38.6224 161.297 34.8381C173.361 24.7651 186.394 15.3485 198.195 5Z" fill="#FEFEFE"/>
<path d="M198.157 11.1555C199.212 11.6686 202.676 14.7187 203.781 15.6064L215.925 25.3692L235.298 40.9091C238.221 43.252 243.29 47.0869 245.958 49.6001C252.766 56.0069 260.981 65.5154 265.318 73.749C267.424 77.7493 268.557 87.2083 269.284 91.9552L271.754 108.151L281.556 176.743C280.193 178.694 277.725 181.603 276.174 183.529C278.829 185.961 281.459 188.421 284.063 190.909C282.832 192.51 281.61 194.117 280.401 195.732C282.958 198.891 285.565 202.014 288.22 205.095C286.366 207.106 284.437 209.111 282.558 211.104L290.046 220.135C287.871 221.971 285.745 223.864 283.662 225.805C285.883 229.436 288.071 233.321 290.221 237.014C286.8 239.417 283.413 241.87 280.064 244.371C280.329 248.646 280.539 252.924 280.696 257.207C287.758 254.321 294.106 251.324 300.953 247.976C301.772 254.134 302.547 260.294 303.282 266.462C300.775 266.947 294.109 270.339 291.369 271.587C287.221 273.465 283.025 275.226 278.78 276.867C258.649 284.64 237.65 289.943 216.243 292.657C210.696 293.363 204.004 294.123 198.426 294.231C193.776 294.226 186.934 293.45 182.285 292.901C159.995 290.256 138.129 284.802 117.209 276.664C112.045 274.643 106.94 272.479 101.898 270.17C101.691 270.075 92.8391 265.879 93.307 266.269C93.2502 264.472 93.7412 261.478 93.9811 259.613C94.4759 255.713 94.9906 251.815 95.5247 247.919C100.816 250.993 109.874 254.75 115.683 257.192C115.993 253.178 115.941 248.207 116.451 244.33L106.233 237.042C108.439 233.293 110.622 229.531 112.781 225.754C111.112 224.087 108.241 221.689 106.397 220.061C108.927 217.105 111.413 214.113 113.857 211.089C111.959 209.101 110.091 207.085 108.253 205.041C110.762 202.33 113.716 198.64 116.119 195.738L112.349 190.86C114.896 188.403 117.647 185.995 120.246 183.502C118.408 181.222 116.603 179.016 114.89 176.638L124.949 106.445L127.452 90.0409C128.049 86.1922 129.053 78.4482 130.61 75.0584C134.399 66.8076 143.127 56.6563 149.721 50.3042C153.622 46.5464 161.01 41.0673 165.37 37.5085C176.222 28.6519 187.349 20.0694 198.157 11.1555Z" fill="#1B1B1C"/>
<path d="M142.158 133.533C140.096 130.098 137.48 126.238 137.245 122.128C136.974 117.382 140.731 97.4779 143.636 94.2714C146.233 91.4047 151.31 90.281 155.037 90.1508C161.207 89.9356 167.196 92.5363 171.643 96.7451C179.209 103.906 180.965 114.532 181.219 124.47C187.933 128.746 192.609 132.444 198.279 138.119C203.256 132.811 209.193 128.309 215.303 124.415C215.3 117.148 216.345 109.917 219.784 103.414C222.848 97.498 228.156 93.0576 234.519 91.0857C242.447 88.6766 253.777 90.5539 255.302 99.7387C256.402 103.527 256.964 107.533 257.809 111.34C260.192 122.103 259.771 124.186 254.337 133.591C252.645 132.644 250.636 131.712 248.88 130.847C251.258 128.879 253.728 125.663 254.886 122.644C257.377 116.146 254.491 98.9141 247.478 96.2484C242.948 94.5272 234.363 96.4213 229.897 98.4142C222.005 101.936 216.62 116.137 218.955 124.263C219.163 124.948 220.47 125.589 221.225 125.716C227.986 126.9 237.575 124.152 243.846 121.614C249.607 119.002 247.811 109.764 245.428 105.916C241.607 99.7379 228.626 106.878 228.767 112.579C229.011 122.558 238.076 115.426 240.957 112.885C238.854 113.672 235.036 115.197 233.669 112.739C233.595 109.225 241.846 104.22 243.921 112.829L243.595 114.212C241.967 120.831 234.116 121.824 228.502 120.366C224.771 119.396 223.857 115.946 225.09 112.514C227.506 105.789 237.832 98.5801 245.007 100.646C251.219 102.866 252.118 115.187 249.512 120.627C245.387 129.237 234.925 127.655 227.064 128.875C222.534 129.581 217.19 130.726 212.894 132.423L212.568 132.554C211.425 134.656 209.902 138.986 209.127 141.375C204.964 154.162 202.09 169.693 204.694 183.025C202.56 184.086 200.367 185.27 198.243 186.374C196.127 185.295 193.955 184.095 191.849 182.976C194.527 166.73 190.556 147.515 183.922 132.567C180.106 130.823 171.677 129.115 167.528 128.684C163.818 128.298 159.928 128.195 156.215 127.422C154.35 127.543 148.128 129.104 146.43 129.785L147.149 130.458L147.049 130.938C145.854 131.917 143.663 132.795 142.158 133.533Z" fill="#FEFEFE"/>
<path d="M145.775 129.185C144.349 127.777 142.474 124.804 141.657 122.796C139.035 116.345 141.957 98.9057 148.948 96.2364C153.393 94.5396 162.26 96.3692 166.764 98.5043C174.288 102.071 180.079 116.269 177.418 124.17C174.199 128.761 162.541 124.284 158.904 123.73C148.176 122.095 146.532 115.138 150.95 106.148C154.214 99.5038 168.155 106.899 167.868 112.904C167.446 121.743 159.219 116.23 155.581 112.996C157.602 113.625 163.337 115.779 162.9 111.409C162.365 110.62 161.97 110.27 161.196 109.719C153.292 104.137 149.366 114.964 156.354 119.26C159.99 121.495 171.244 122.247 171.767 116.299C172.263 110.662 167.736 106.214 163.254 103.394C157.639 99.8617 150.357 97.7132 146.998 105.486C144.585 111.202 144.836 119.061 149.153 123.807C150.581 125.383 152.157 126.073 154.044 126.91C155.015 127.273 155.173 127.289 156.215 127.422C154.351 127.543 148.129 129.104 146.43 129.785L145.775 129.185Z" fill="#1B1B1C"/>
<path d="M154.044 126.909C155.015 127.273 155.173 127.289 156.215 127.422C154.351 127.543 148.129 129.104 146.43 129.784L145.775 129.184C147.317 128.903 152.712 127.545 154.044 126.909Z" fill="#BCBBBC"/>
<path d="M198.017 19.1423C199.818 19.3506 219.401 33.5874 221.867 35.5564C236.04 46.8771 252.788 61.0645 260.7 77.6563C262.865 82.1947 264.239 91.7739 265.061 96.9328C266.396 105.523 267.626 114.13 268.754 122.75L275.528 175.969C270.084 183.284 262.218 192.57 256.345 199.795C255.246 198.765 254.142 197.655 253.063 196.595C258.608 189.762 264.655 182.676 269.976 175.729C267.927 163.724 266.255 150.667 264.442 138.527L258.718 135.591C260.051 133.154 262.963 128.302 263.384 125.583C264.791 116.523 262.598 99.0037 261.099 90.1508C259.268 79.3357 243.135 61.9764 235.22 54.498C230.282 49.8312 221.348 43.1943 215.711 38.9154C210.881 35.2498 203.87 29.9004 198.808 26.602L198.279 26.3996C196.854 26.9361 195.277 28.105 194.045 29.024C175.396 42.7549 157.518 55.0914 143.762 74.0965C135.134 84.3636 134.212 93.592 133.284 106.463C132.287 120.277 130.855 123.363 137.765 135.674C135.751 136.612 133.997 137.514 132.034 138.559C129.904 150.58 128.483 163.512 126.451 175.715C128.123 178.048 130.624 180.927 132.486 183.206L143.411 196.609L140.104 199.818C133.815 191.886 127.208 184.042 121.02 176.05C122.475 159.544 125.384 141.671 127.383 125.152C129.342 111.505 130.937 97.7054 133.699 84.1931C135.931 73.2709 143.295 64.9754 150.626 57.1339C164.316 42.4896 181.087 29.7635 198.017 19.1423Z" fill="#FEFEFE"/>
<path d="M296.217 256.244C296.725 257.022 297.126 261.737 297.272 262.967C288.187 267.214 280.634 270.555 271.094 274.004C252.427 280.744 233.051 285.325 213.341 287.657C208.942 288.173 202.848 288.902 198.472 288.874C192.307 288.831 184.908 287.932 178.774 287.113C150.937 283.402 126.007 275.534 100.674 263.653L99.1494 262.852C99.4889 260.63 99.7963 258.404 100.072 256.175C107.195 259.426 113.59 262.202 120.924 264.931C141.015 272.409 161.936 277.429 183.233 279.882C187.657 280.38 193.213 281.032 197.661 281.068C203.149 281.112 209.489 280.323 214.993 279.671C243.919 276.238 269.856 268.313 296.217 256.244Z" fill="#FEFEFE"/>
<path d="M200.467 72.9254C208.439 72.2149 212.108 75.8959 216.025 82.0765C220.431 80.4667 221.898 81.1094 225.917 80.3848C233.788 78.9648 238.644 77.8734 246.772 77.9658C247.462 79.7166 247.85 81.2222 248.348 83.0346C221.14 85.4982 215.365 94.8591 210.18 120.772C206.197 123.034 202.193 125.256 198.166 127.439C194.147 125.237 190.163 122.976 186.213 120.656C184.322 110.979 184.043 107.606 179.279 98.7627C181.476 90.6537 189.082 84.7625 196.965 82.5937C213.012 78.1767 210.822 110.045 198.511 112.141C193.87 112.931 188.993 105.066 188.651 101.08C188.444 98.6236 189.239 96.1879 190.855 94.326C195.077 89.5338 201.05 90.5648 200.855 97.7785C200.814 99.2889 200.514 100.167 199.337 101.152C195.29 101.854 195.532 98.7589 194.135 95.7953L194.004 95.5241C193.636 98.421 192.337 107.887 197.938 107.269C205.917 106.388 208.074 92.3657 202.386 87.5884C199.825 85.4368 196.148 86.8853 193.439 88.0342C179.108 94.0273 184.337 101.207 188.048 111.858C194.379 130.029 202.858 118.879 210.462 109.01C213.662 104.859 216.209 98.14 214.913 92.7159C213.2 85.5531 208.482 73.9068 198.878 77.2468C189.933 80.1357 179.789 84.0753 174.836 92.596C167.923 85.418 157.846 83.9942 148.155 83.0358C148.382 81.9822 148.686 80.8437 148.944 79.7877C155.312 79.7585 161.867 80.1514 168.195 80.6765C172.107 81.0013 178.547 83.2813 182.218 81.4273C189.138 77.933 192.468 74.1246 200.467 72.9254Z" fill="#FEFEFE"/>
<path d="M157.246 132.73C161.95 132.127 168.872 133.515 173.494 134.745C178.201 135.999 180.275 137.089 182.668 141.264C170.071 134.498 158.942 136.823 146.791 142.959C159.06 151.915 175.884 148.362 187.134 154.944C187.227 160.636 187.348 166.596 187.156 172.275C186.989 177.196 186.508 182.185 186.287 187.131C199.849 194.048 196.579 194.027 210.229 187.127C209.348 175.022 209.163 166.94 209.322 154.858C221.633 148.219 236.731 152.082 249.653 142.929C247.18 141.633 241.528 139.187 238.949 138.451C230.495 135.993 221.407 137.038 213.731 141.352C214.337 140.372 214.99 139.424 215.632 138.469C219.191 134.408 230.352 133.199 235.441 132.624C241.417 131.949 253.479 138.293 257.801 142.228C256.047 143.778 248.847 148.943 246.785 149.915C244.643 150.924 237.439 152.31 234.612 152.918C227.766 154.359 220.932 155.863 214.111 157.431C214.024 164.689 213.207 176 213.605 182.743L213.921 183.004C216.546 182.958 216.962 183.734 219.224 185.352L218.01 188.544C215.881 188.699 212.46 188.899 210.603 189.752C205.781 191.968 204.612 194.278 198.708 194.467C192.329 194.67 190.982 192.129 185.785 189.745C183.807 188.838 180.687 188.697 178.454 188.565L177.228 185.332C178.282 184.579 180.349 182.852 181.486 183.01C182.033 183.087 182.23 183.036 182.819 182.895C183.316 181.097 182.44 160.818 182.387 157.433C175.334 155.835 168.268 154.287 161.192 152.789C158.64 152.236 151.688 150.88 149.599 149.902C147.5 148.92 140.328 143.707 138.608 142.081C143.384 138.583 151.596 134.07 157.246 132.73Z" fill="#FEFEFE"/>
<path d="M198.028 34.8083C200.254 35.0323 229.777 57.4456 233.076 60.2538C219.848 57.6652 206.68 55.5629 193.2 57.1783C181.133 58.9514 172.953 62.91 159.951 63.1134C171.147 53.5792 185.7 43.0358 198.028 34.8083Z" fill="#FEFEFE"/>
<path d="M140.51 152.984C142.262 153.51 144.001 154.08 145.724 154.693C142.991 158.278 137.754 165.335 138.058 169.913C138.275 173.171 141.461 177.905 144.096 180.033C148.14 183.479 152.47 184.24 157.67 183.764C165.03 183.089 175.72 179.596 174.362 170.182C173.452 163.876 168 160.396 161.866 161.635C159.922 161.957 155.022 163.944 154.219 166.066C150.714 175.329 159.736 173.323 163.68 172.398C162.162 171.754 157.933 170.286 159.237 167.991C161.765 163.543 167.869 165.253 168.73 170.042C169.011 171.555 168.659 173.119 167.755 174.365C166.176 176.515 163.19 177.216 160.689 177.598C153.119 178.632 144.9 174.311 148.402 165.573C151.711 157.319 160.602 154.831 168.646 158.118C181.343 163.305 180.924 182.066 168.425 186.928C163.298 188.844 151.351 190.991 146.183 188.764C143.395 187.562 134.522 176.655 133.402 173.18C131.935 168.638 138.25 157.333 140.51 152.984Z" fill="#FEFEFE"/>
<path d="M255.85 153.019C257.53 154.777 263.585 168.452 263.377 171.404C263.051 176.029 256.253 182.977 253.084 186.47C250.683 189.301 247.676 189.753 244.114 189.687C232.057 189.464 217.964 186.559 218.483 171.598C218.596 167.562 220.332 163.741 223.3 161.004C226.621 157.991 231.148 156.47 235.92 156.63C244.463 156.916 253.873 168.59 245.694 175.641C243.203 177.787 238.909 177.983 235.581 177.581C233.01 177.165 230.45 176.475 228.814 174.283C227.866 173.032 227.486 171.444 227.758 169.901C228.246 166.991 230.586 164.904 233.598 165.605C235.239 165.986 238.344 167.493 237.173 169.655C236.431 171.025 234.163 171.777 232.774 172.355C234.972 172.941 238.691 173.961 240.539 172.945C246.68 169.575 240.727 162.923 236.035 161.963C232.17 161.172 229.705 161.094 226.593 162.902C222.327 165.381 220.532 172.55 223.305 176.594C225.886 180.45 230.943 182.451 235.283 183.263C240.722 184.28 246.364 184.413 251.009 181.061C254.302 178.795 257.799 174.281 258.408 170.378C259.142 165.687 253.372 158.253 250.691 154.679L255.85 153.019Z" fill="#FEFEFE"/>
<path d="M198.97 61.9108C210.817 60.555 219.643 66.665 230.95 66.5651C233.546 66.5422 236.158 65.8484 238.649 65.1707C240.244 66.971 241.219 68.2385 242.637 70.1947C230.182 69.2249 224.16 77.9471 213.4 69.5004C209.186 66.193 201.32 67.1197 196.287 68.3983C190.722 70.2155 186.538 72.918 181.625 74.7848C177.591 76.3176 166.961 74.7209 162.24 74.3326C158.696 74.044 155.143 73.9045 151.587 73.9146C152.431 72.3728 153.49 70.7471 154.428 69.2434C170.705 69.0844 183.108 63.535 198.97 61.9108Z" fill="#FEFEFE"/>
<path d="M214.785 224.285C216.141 224.331 217.753 224.536 219.125 224.675C218.611 227.379 218.054 230.075 217.45 232.761C213.727 248.197 207.432 263.455 198.228 276.448C190.333 265.263 184.723 252.796 180.862 239.684C180.176 237.355 177.116 226.062 177.772 224.721L178.634 224.49L181.702 224.298C184.254 238.865 190.705 255.518 198.264 268.249C206.754 253.54 211.151 241.04 214.785 224.285Z" fill="#FEFEFE"/>
<path d="M196.998 222.926C200.529 222.772 205.963 223.335 209.602 223.643C207.771 234.662 203.755 247.195 198.678 257.107L198.423 257.516L198.049 257.472C192.561 247.514 188.933 234.795 186.839 223.625C190.222 223.345 193.608 223.114 196.998 222.926Z" fill="#FEFEFE"/>
<path d="M232.545 217.536C234.191 217.873 235.791 218.394 237.404 218.882C237.07 237.548 233.726 255.238 224.633 271.973C224.037 273.064 223.606 273.079 222.537 273.318C220.909 273.449 219.517 273.729 217.917 274.024C228.408 253.53 231.803 240.632 232.545 217.536Z" fill="#FEFEFE"/>
<path d="M163.142 217.709L163.59 217.693C164.282 218.525 163.958 221.863 164.014 223.222C164.785 241.98 170.091 257.462 178.525 274.019L175.713 273.554L172.467 273.043C163.04 255.582 159.109 238.608 159.091 218.82L163.142 217.709Z" fill="#FEFEFE"/>
<path d="M227.044 215.823C227.85 216.966 227.257 223.473 227.16 225.14C226.117 242.94 220.593 259.398 211.523 274.679C209.73 274.985 207.684 275.103 205.853 275.246C205.765 275.105 205.678 274.961 205.593 274.82C211.017 265.745 214.43 258.722 217.907 248.546C220.005 242.252 221.713 235.837 223.023 229.338C224.029 224.238 223.665 220.076 227.044 215.823Z" fill="#FEFEFE"/>
<path d="M169.178 215.957C172.158 217.341 172.811 226.324 173.548 229.921C177.112 247.339 182.216 260.191 191.157 275.316C189.087 275.18 187.051 274.951 184.99 274.73C174.756 258.858 168.107 234.833 169.178 215.957Z" fill="#FEFEFE"/>
<path d="M119.106 216.856C123.653 221.514 128.232 226.534 132.697 231.3C134.114 229.906 135.331 228.843 136.851 227.554C136.808 237.242 137.085 245.649 139.096 255.181C139.882 258.907 140.987 262.51 141.753 266.151C139.212 265.435 136.676 264.698 134.146 263.94C133.491 256.131 133.408 244.43 133.182 236.351L115.435 221.951C116.521 220.33 117.946 218.463 119.106 216.856Z" fill="#FEFEFE"/>
<path d="M277.324 216.841C278.199 217.809 280.141 220.7 280.981 221.886C276.52 225.992 268.3 232.235 263.405 236.21C263.04 238.434 263.027 243.225 262.945 245.683L262.352 263.917L254.668 266.213C258.408 252.267 260.123 242.057 259.558 227.402C261.245 228.833 262.221 229.7 263.716 231.31L277.324 216.841Z" fill="#FEFEFE"/>
<path d="M195.763 211.62C200.542 211.004 215.288 213.474 220.344 214.493C219.707 215.885 218.952 217.354 218.272 218.738C212.789 218.396 207.296 218.222 201.8 218.212C193.505 218.194 186.389 218.332 178.102 218.712C177.462 217.295 176.811 215.88 176.149 214.47C181.992 213.209 189.816 212.282 195.763 211.62Z" fill="#FEFEFE"/>
<path d="M251.174 223.137L254.332 224.413C255.059 240.663 253.773 252.269 248.714 267.792C247.414 268.177 245.997 268.532 244.679 268.886L241.729 269.554C243.077 265.964 244.481 262.595 245.676 258.933C249.682 246.666 250.925 235.912 251.174 223.137Z" fill="#FEFEFE"/>
<path d="M144.762 223.304L144.931 223.342C145.308 223.887 145.683 233.896 145.846 235.54C146.685 243.408 148.322 251.173 150.733 258.71C151.157 260.019 154.439 268.85 154.427 269.146L154.106 269.402L152.881 269.128L147.821 267.895C142.681 252.67 141.354 240.401 142.115 224.424L144.762 223.304Z" fill="#FEFEFE"/>
<path d="M242.36 220.356C243.495 220.628 244.977 221.149 246.12 221.511C246.179 238.108 243.136 254.673 235.927 269.849C235.429 270.897 235.295 270.876 234.284 271.174L230.396 271.957C238.608 254.308 242.262 239.985 242.36 220.356Z" fill="#FEFEFE"/>
<path d="M153.431 220.536L153.645 220.543C154.157 220.903 154.332 228.74 154.432 230.078C155.584 245.516 159.613 257.962 166.033 271.862L163.899 271.533L161.008 270.951C153.185 252.952 150.457 241.251 150.327 221.473L153.431 220.536Z" fill="#FEFEFE"/>
<path d="M117.189 229.6C118.528 230.432 126.207 237.46 127.693 238.803L128.045 261.855L123.991 260.409L121.103 259.359C121.319 254.457 121.998 247.157 122.605 242.262C119.997 239.944 116.466 237.563 113.686 235.244C114.615 233.449 116.07 231.331 117.189 229.6Z" fill="#FEFEFE"/>
<path d="M279.185 229.554C279.758 230.078 282.269 234.317 282.837 235.249L273.828 242.185C274.524 247.557 274.927 253.884 275.392 259.339L272.354 260.445L268.399 261.832L268.774 238.839C271.712 235.922 276.006 232.358 279.185 229.554Z" fill="#FEFEFE"/>
<path d="M276.954 200.416C278.569 202.257 279.946 203.955 281.461 205.865L265.534 222.867C263.906 222.366 262.134 221.658 260.524 221.054L260.023 217.991C259.288 214.92 258.459 212.187 257.54 209.168C259.856 211.735 262.319 214.316 264.681 216.851L276.954 200.416Z" fill="#FEFEFE"/>
<path d="M119.42 200.437C120.42 201.395 122.896 204.877 123.796 206.094C126.429 209.712 129.112 213.294 131.843 216.841L138.958 209.252C138.067 212.09 137.282 214.581 136.592 217.483L135.911 221.131C134.227 221.725 132.549 222.333 130.877 222.96C126.47 217.683 119.73 210.883 114.955 205.799C116.469 204.032 117.957 202.245 119.42 200.437Z" fill="#FEFEFE"/>
<path d="M225.498 192.415C228.325 192.819 230.883 193.373 233.672 193.962C237.141 201.112 238.274 205.83 239.455 213.484C237.791 213.189 235.567 212.506 233.885 212.041C231.651 203.657 229.52 200.052 225.498 192.415Z" fill="#FEFEFE"/>
<path d="M170.077 192.613L170.42 192.576C170.789 193.214 169.739 194.789 169.345 195.499C166.165 201.228 164.252 205.691 162.566 212.044L157.676 213.392L157.195 213.379C156.336 210.164 161.189 197.511 162.762 193.968C165.355 193.402 167.425 192.973 170.077 192.613Z" fill="#FEFEFE"/>
<path d="M123.745 188.08C127.343 192.242 132.656 199.618 136.146 204.135C135.045 205.152 133.702 206.233 132.546 207.211C131.593 206.934 121.762 194.293 120.298 192.46C121.448 190.865 122.483 189.593 123.745 188.08Z" fill="#FEFEFE"/>
<path d="M272.711 188.089C273.885 189.338 275.138 191.106 276.191 192.508C272.408 196.78 267.827 202.856 264.188 207.411L260.285 204.166L272.711 188.089Z" fill="#FEFEFE"/>
<path d="M221.292 192.348C221.985 192.387 222.83 194.127 223.177 194.73C226.125 199.846 228.028 205.149 229.255 210.914L225.935 210.185L223.821 209.763C222.162 203.457 219.851 198.873 217.145 193.035C218.529 192.757 219.897 192.56 221.292 192.348Z" fill="#FEFEFE"/>
<path d="M174.714 192.278C176.399 192.473 177.679 192.74 179.335 193.088C176.785 198.354 174.333 203.526 172.803 209.181C172.626 209.835 171.959 209.858 171.362 210.043C169.977 210.29 168.523 210.603 167.137 210.878C169.281 202.612 170.364 199.79 174.714 192.278Z" fill="#FEFEFE"/>
<path d="M213.814 194.058C216.212 196.07 218.775 205.876 219.409 209.042L216.477 208.605L213.541 208.156C212.743 203.539 211.402 200.252 209.71 195.945L213.814 194.058Z" fill="#FEFEFE"/>
<path d="M182.291 194.016C183.91 194.653 185.176 195.26 186.742 196.025C185.011 200.103 183.982 203.952 182.646 208.11C182.575 208.33 181.674 208.366 181.422 208.4L177.004 209.026C178.56 202.198 179.45 200.244 182.291 194.016Z" fill="#FEFEFE"/>
<path d="M237.889 195.332C239.679 195.905 241.081 196.536 242.807 197.291C245.498 203.981 246.579 208.896 247.28 216.052L243.914 214.999C242.437 207.021 240.711 202.81 237.889 195.332Z" fill="#FEFEFE"/>
<path d="M158.276 195.359L158.4 195.531C158.429 196.19 156.199 201.618 155.711 202.917C154.064 207.308 153.361 210.459 152.556 214.981L149.662 215.911L149.397 215.703C148.616 212.228 152.283 200.961 153.7 197.25L158.276 195.359Z" fill="#FEFEFE"/>
<path d="M247.227 200.036C254.022 202.602 255.457 213.233 256.253 219.467C254.846 218.98 252.997 218.176 251.577 217.608C250.696 210.608 249.353 206.726 247.227 200.036Z" fill="#FEFEFE"/>
<path d="M148.995 199.931C149.131 201.043 146.402 208.947 145.991 211.017C145.523 213.371 145.193 214.904 144.911 217.58C143.468 218.209 141.898 218.813 140.429 219.406C140.167 215.801 142.344 207.06 144.539 203.899C145.176 202.979 147.952 200.786 148.995 199.931Z" fill="#FEFEFE"/>
<path d="M206.9 197.66C208.205 198.719 209.153 205.95 209.335 207.73L205.527 207.321L202.879 207.057C202.738 204.584 202.548 203.202 202.126 200.732L206.9 197.66Z" fill="#FEFEFE"/>
<path d="M189.365 197.519L194.34 200.732C193.986 202.314 193.986 203.603 193.781 205.185C193.514 207.221 193.062 207.103 191.413 207.291L187.031 207.714C187.627 203.726 188.129 201.351 189.365 197.519Z" fill="#FEFEFE"/>
<path d="M235.922 334.521L249.591 334.528C251.33 339.965 253.192 345.686 254.507 351.237C257.311 363.078 259.412 375.039 262.727 386.764C258.659 386.849 254.36 386.777 250.274 386.774C248.734 382.167 247.801 377.399 246.582 372.679L246.412 372.759L245.888 374.263C243.49 380.157 239.951 386.859 232.956 387.827C225.585 388.846 221.04 382.707 220.585 376.002C219.638 362.022 230.1 350.256 238.41 340.247C237.614 337.998 236.987 336.678 235.922 334.521Z" fill="#FEFEFE"/>
<path d="M239.826 343.421C241.605 347.193 243.75 357.572 244.348 361.871C244.89 365.772 245.036 372.276 242.273 375.381C240.291 377.609 238.398 377.83 235.668 378.126C229.628 377.186 230.416 369.718 231.01 365.253C232.063 357.313 235.812 350.215 239.826 343.421Z" fill="#1B1B1C"/>
<path d="M91.0324 334.377C101.735 334.133 116.926 334.13 127.512 334.449C124.776 340.006 123.174 345.624 121.698 351.587C120.626 348.996 117.171 343.262 115.315 341.169C112.069 337.507 105.637 337.243 101.061 337.047C101.767 342.011 101.679 350.852 101.762 356.055C107.62 356.132 112.842 358.623 117.865 361.339C123.289 364.549 130.145 369.536 130.066 376.521C130.003 382.203 127.479 385.485 121.9 386.268C117.175 386.931 112.147 386.815 107.387 386.818C101.382 386.844 95.3781 386.802 89.3745 386.692C89.9608 377.717 90.2833 368.727 90.3421 359.735C90.4495 350.459 90.5381 343.932 89.4744 334.783C89.9575 334.313 90.1706 334.459 91.0324 334.377Z" fill="#FEFEFE"/>
<path d="M101.805 358.561C110.518 360.921 116.394 366.134 116.483 375.648C116.511 378.68 116.339 380.242 114.181 382.494C110.999 384.681 104.995 384.111 101.112 384.07C101.592 375.673 101.627 366.999 101.805 358.561Z" fill="#1B1B1C"/>
<path d="M175.157 333.28C177.908 333.306 180.232 333.84 182.577 335.306C181.704 339.166 180.853 343.133 179.842 346.949C177.555 346.068 174.815 345.044 172.413 345.963C167.542 347.822 165.316 354.74 164.052 359.205C160.527 371.657 160.101 384.864 162.447 397.557C163.245 401.876 164.62 405.727 166.12 409.81C162.859 410.807 159.452 412.07 156.22 413.215C156.128 404.03 156.692 395.918 157.13 386.828C153.372 386.751 149.611 386.746 145.852 386.815C145.719 380.357 145.435 376.051 144.619 369.628C142.668 356.332 139.705 346.867 135.072 334.42C139.338 334.256 144.074 334.343 148.346 334.415C151.505 346.928 154.786 358.694 155.67 371.696C155.827 374.012 156.004 382.388 156.734 383.978L157.102 384.07C157.585 383.467 158.695 372.956 158.917 371.395C159.652 366.198 160.612 361.034 161.792 355.919C163.447 348.89 166.912 335.265 174.841 333.352L175.157 333.28Z" fill="#FEFEFE"/>
<path d="M191.471 334.372L203.57 334.325C210.059 352.791 210.295 368.311 217.209 386.802C213.359 386.741 209.397 386.797 205.539 386.81C200.753 374.618 199.343 359.583 195.927 346.389C195.599 345.383 195.231 344.361 194.885 343.357C194.497 344.083 194.119 344.818 193.755 345.557C187.186 358.926 185.539 372.651 190.414 386.782L178.339 386.8L178.246 386.407C174.332 369.361 185.096 353.636 193.588 340.172C193.018 338.208 191.911 336.256 191.471 334.372Z" fill="#FEFEFE"/>
<path d="M257.835 334.374C275.916 334.182 294.53 334.292 312.629 334.385C309.761 340.838 308.582 344.787 306.779 351.615C303.438 342.817 300.115 337.433 290.11 337.037C290.477 346.849 290.706 356.666 290.788 366.485C290.798 373.254 290.986 380.023 291.35 386.782L278.931 386.784C279.702 370.386 279.62 353.59 280.118 337.063C270.313 336.963 265.976 343.493 263.541 351.987C262.694 348.251 261.618 344.571 260.323 340.963C259.684 339.21 258.212 335.974 257.835 334.374Z" fill="#FEFEFE"/>
</g>
<defs>
<clipPath id="clip0_19_157">
<rect width="400" height="400" fill="white"/>
</clipPath>
</defs>
</svg>
