<svg width="400" height="400" viewBox="0 0 400 400" fill="none" xmlns="http://www.w3.org/2000/svg">
<g clip-path="url(#clip0_21_2025)">
<g clip-path="url(#clip1_21_2025)">
<path d="M0 200C0 89.5431 89.5431 0 200 0C310.457 0 400 89.5431 400 200C400 310.457 310.457 400 200 400C89.5431 400 0 310.457 0 200Z" fill="white"/>
<path d="M103.753 232.879C116.23 232.516 129.68 232.826 142.301 232.793L222.004 232.686L295.607 232.75C306.653 232.782 319.35 232.51 330.278 232.873C333.573 233.099 336.875 233.233 340.179 233.274C342.048 233.244 346.512 233.062 348.119 233.408L347.984 233.822C347.573 236.106 345.881 240.436 345.011 242.761C339.489 257.75 331.77 271.835 322.108 284.554C251.81 376.999 110.07 359.705 61.974 255.202C58.7947 248.293 55.5721 241.416 54.5576 233.775L54.6943 233.561C55.6518 233.102 68.9123 233.149 71.2967 232.879C81.8744 232.852 93.2381 232.62 103.753 232.879Z" fill="#A92423"/>
<path d="M103.753 232.879C116.23 232.516 129.681 232.826 142.301 232.793L222.004 232.686L295.608 232.75C306.653 232.782 319.35 232.51 330.278 232.873C333.574 233.099 336.875 233.233 340.179 233.274C339.178 233.44 337.813 233.614 336.875 233.915C331.043 233.963 323.495 234.54 318.129 234.416C314.339 234.554 305.975 234.633 302.626 235.154C293.074 260.032 269.975 282.33 245.882 293.1C218.897 304.927 188.334 305.625 160.837 295.042C135.376 285.279 111.302 263.469 100.184 238.451C99.5868 237.101 99.0993 235.705 98.7259 234.276L98.686 233.649C99.6485 233.052 101.489 233.476 103.455 232.96L103.753 232.879Z" fill="black"/>
<path d="M154.155 235.227C157.181 234.389 184.809 234.827 190.416 234.858C210.349 234.968 231.09 234.451 251.046 235.17C255.584 235.334 261.881 234.956 266.125 235.251L266.795 235.564C266.448 239.207 252.17 252.266 249.143 254.68C220.078 277.863 178.876 276.584 150.568 252.782C144.112 247.355 139.511 241.96 134.33 235.376C140.42 235.718 147.829 235.245 154.155 235.227Z" fill="white"/>
<path d="M154.155 235.227C157.181 234.389 184.808 234.827 190.415 234.858C210.349 234.968 231.09 234.451 251.046 235.17C255.583 235.334 261.881 234.956 266.125 235.251C261.648 235.732 252.905 235.505 247.982 235.576C233.17 248.471 218.967 256.037 198.673 255.37C182.407 254.835 165.209 247.105 154.155 235.227Z" fill="#A92423"/>
<path d="M302.626 235.154C305.975 234.633 314.339 234.554 318.129 234.416C317.344 238.841 314.432 244.66 312.329 248.646C302.84 267.074 289.06 282.951 272.152 294.94C245.393 313.471 212.45 320.809 180.356 315.386C146.997 309.424 117.376 290.447 98.017 262.634C94.5541 257.664 84.7475 241.18 83.7295 235.943C84.4674 234.235 85.5412 234.641 87.3103 234.664C89.5822 234.702 97.0822 235.049 98.7256 234.276C99.099 235.705 99.5865 237.101 100.183 238.451C111.301 263.469 135.376 285.279 160.837 295.042C188.334 305.625 218.896 304.927 245.881 293.1C269.975 282.33 293.074 260.032 302.626 235.154Z" fill="white"/>
<path d="M71.2967 232.879C81.8744 232.852 93.2381 232.62 103.753 232.879L103.455 232.96C101.489 233.476 99.6482 233.052 98.6857 233.649L98.7256 234.276C97.0822 235.049 89.5822 234.702 87.3104 234.664C83.7588 234.212 77.4592 234.238 73.7811 234.181L54.5576 233.775L54.6943 233.561C55.6518 233.102 68.9123 233.149 71.2967 232.879Z" fill="#0D0102"/>
<path d="M340.179 233.274C342.048 233.244 346.512 233.062 348.119 233.408L347.984 233.822C346.351 234.098 338.635 233.958 336.875 233.915C337.813 233.614 339.178 233.44 340.179 233.274Z" fill="#53090C"/>
<path d="M54.8662 156.11C56.1377 149.089 59.4311 141.918 62.3932 135.435C79.2115 98.6277 109.735 69.5519 147.96 55.7484C184.969 42.3843 230.398 43.7527 266.233 60.6335C297.494 75.2081 322.805 100.073 337.93 131.072C342.424 140.266 344.415 146.528 347.828 156L348.306 156.252L348.106 157.126C338.818 156.822 329.307 157.286 319.978 157.105C311.564 157.435 302.655 157.221 294.189 157.266L239.283 157.423C179.78 157.621 120.278 157.487 60.7764 157.021C59.5904 157.128 57.2533 157.09 55.9752 157.112L54.8662 156.11Z" fill="#A92423"/>
<path d="M99.7275 155.464C100.922 150.987 103.355 147.149 105.748 143.195C115.768 126.337 129.974 112.353 146.988 102.601C171.682 88.6121 200.85 84.7816 228.319 91.9203C258.613 100.019 281.637 117.639 297.717 144.866C299.408 147.729 301.802 152.169 302.739 155.337C307.004 155.961 313.63 155.825 318.101 155.837L318.394 155.887L319.978 157.105C311.563 157.436 302.655 157.221 294.188 157.266L239.283 157.423C179.78 157.621 120.278 157.487 60.7764 157.021C67.5428 154.72 77.883 156.921 83.5553 155.555C88.7443 155.545 94.592 155.661 99.7275 155.464Z" fill="black"/>
<path d="M135.201 155.02C151.108 135.804 165.026 123.916 191.359 120.875C213.011 118.375 233.384 123.634 250.397 137.444C255.093 141.257 263.788 150.037 267.306 155.06C261.382 155.136 252.632 155.449 246.926 154.969C243.371 155.351 236.704 155.13 232.913 155.113L209.334 155.089L174.774 155.11C169.018 155.119 161.418 155.384 155.826 155.05C149.09 155.309 141.96 155.173 135.201 155.02Z" fill="white"/>
<path d="M155.826 155.05C158.009 149.998 172.975 142.154 178.197 140.204C200.313 131.943 226.407 136.768 244.29 152.161C245.346 153.07 246.125 154.288 246.926 154.969C243.371 155.351 236.704 155.13 232.912 155.113L209.334 155.089L174.774 155.11C169.017 155.12 161.418 155.384 155.826 155.05Z" fill="#A92423"/>
<path d="M83.5547 155.555C84.8793 151.645 87.4527 146.377 89.377 142.636C101.886 118.335 121.844 98.6763 146.331 86.5356C176.138 72.0427 210.485 69.9993 241.8 80.8556C273.772 92.0544 299.957 115.543 314.55 146.115C315.362 147.781 318.384 154.253 318.101 155.837C313.629 155.825 307.003 155.961 302.739 155.338C301.802 152.169 299.407 147.729 297.716 144.866C281.637 117.64 258.613 100.02 228.318 91.9204C200.85 84.7817 171.681 88.6122 146.987 102.601C129.973 112.354 115.768 126.337 105.748 143.195C103.354 147.149 100.922 150.987 99.727 155.464C94.5914 155.661 88.7437 155.545 83.5547 155.555Z" fill="white"/>
<path d="M318.394 155.887C327.163 155.825 339.636 156.371 347.828 156L348.306 156.252L348.106 157.126C338.818 156.822 329.307 157.286 319.978 157.105L318.394 155.887Z" fill="#53090C"/>
<path d="M345.083 177.744L355.071 177.818C355.14 189.761 355.131 201.704 355.045 213.647L345.037 213.577C344.907 210.964 344.95 207.952 344.926 205.307L344.911 192.951C341.809 198.371 338.01 203.667 334.778 209.118C332.289 204.111 327.169 197.84 324.045 192.498C324.174 199.548 324.219 206.6 324.182 213.651L314.553 213.586C314.537 201.654 314.597 189.721 314.734 177.789C318.609 177.704 324.034 176.819 326.293 180.475C329.099 185.014 332.428 189.336 334.819 194.126C338.202 188.562 341.849 183.428 345.083 177.744Z" fill="#A92423"/>
<path d="M278.112 177.907C284.606 177.827 291.219 177.563 297.719 178.12C304.699 178.718 311.09 184.889 309.991 192.241C309.19 197.599 306.816 199.003 302.766 201.994C304.404 204.397 309.279 211.209 310.293 213.29C309.476 213.828 307.326 213.658 306.152 213.676L300.809 213.58C298.039 210.571 295.513 206.915 293.219 203.526C291.411 203.474 290.061 203.303 288.288 203.071C288.25 206.623 288.142 210.173 287.965 213.72L278.438 213.766C277.773 203.168 278.132 188.723 278.112 177.907Z" fill="#A92423"/>
<path d="M288.266 186.124C294.027 186.2 303.81 185.95 298.926 194.724C295.786 195.652 291.434 195.663 288.189 195.685C288.103 192.388 288.164 189.424 288.266 186.124Z" fill="white"/>
<path d="M44.424 177.925C55.3959 178.544 78.7244 173.915 74.2166 195.009C73.5041 198.344 70.4416 200.219 67.5776 201.661C69.0494 203.635 74.633 211.425 74.8213 213.381C73.9119 213.817 71.7365 213.664 70.6057 213.654C69.4104 213.689 67.3639 213.496 66.1076 213.416C63.1576 210.92 58.0264 201.23 54.651 203.352C52.9737 205.941 53.3623 210.461 53.3608 213.664L44.2326 213.709C44.0537 206.756 44.1983 199.476 44.0842 192.493C44.0362 189.551 43.9307 180.558 44.424 177.925Z" fill="black"/>
<path d="M53.4871 186.255C56.3512 186.267 59.2145 186.34 62.0754 186.472C65.5969 188.667 66.995 190.067 64.6746 194.116C60.6325 195.903 57.7868 195.657 53.4465 195.652C53.3801 192.573 53.4578 189.346 53.4871 186.255Z" fill="white"/>
<path d="M249.816 177.833C253.282 177.671 257.433 177.583 260.829 178.16C261.67 181.615 274.368 211.113 276.439 214.074C273.17 214.084 269.554 214.015 266.332 214.327C265.173 212.849 262.471 208.455 261.598 207.602C257.248 207.679 252.733 207.54 248.371 207.465L244.251 214.064C240.786 213.99 237.706 213.951 234.244 214.081C238.064 206.294 241.177 197.935 244.803 190.034C246.596 186.125 248.47 181.901 249.816 177.833Z" fill="#A92423"/>
<path d="M254.792 189.631C256.018 190.45 258.23 198.055 258.85 199.9L253.809 199.862L250.283 199.843C251.734 196.13 253.088 193.201 254.792 189.631Z" fill="white"/>
<path d="M94.3697 177.894C96.7162 177.66 98.6936 177.863 101.034 178.022C103.226 181.85 105.76 188.109 107.587 192.289C110.806 199.509 113.928 206.771 116.953 214.075C113.361 214.121 109.74 214.13 106.157 214.364C105.315 212.197 104.227 209.8 103.305 207.639L98.3396 207.634C95.2518 207.639 92.2096 207.664 89.1225 207.509L86.8076 213.64C83.267 213.782 79.7252 213.892 76.1826 213.972C80.6236 202.287 86.3881 190.441 91.0256 178.608C91.8725 177.845 93.1357 177.967 94.3697 177.894Z" fill="black"/>
<path d="M95.7179 189.965C97.3937 191.122 99.5289 197.541 99.9496 199.637L99.6273 200.026L96.9726 200.015C95.1426 200.059 93.7812 200.373 92.4617 199.383C92.257 198.241 94.9652 192.482 95.7179 189.965Z" fill="white"/>
<path d="M12.1714 177.971C21.5276 178.686 36.4428 174.729 41.1241 185.891C42.4538 189.068 42.4417 192.647 41.0909 195.815C39.2983 199.96 36.3159 201.708 32.3721 203.275C29.4052 204.207 24.9387 204.212 21.845 204.251L21.8893 213.655L12.1471 213.632C12.0791 201.745 12.0872 189.858 12.1714 177.971Z" fill="black"/>
<path d="M23.5301 186.48C25.9473 186.555 30.2359 186.257 31.7335 188.403C33.0319 190.264 32.6216 193.794 30.687 195.143C27.3137 195.612 25.3392 195.683 21.9162 195.724C21.8307 193.704 21.3819 188.365 22.3225 186.741L23.5301 186.48Z" fill="white"/>
<path d="M370.062 177.461C375.725 177.125 382.697 177.591 387.796 180.254C390.406 181.617 385.348 187.175 384.252 188.546C380.657 186.996 376.619 184.915 372.636 185.121C371.362 185.187 369.05 187.027 369.216 188.437C372.258 190.502 382.385 193.119 387.19 195.735C390.652 200.817 390.816 203.601 388.701 209.296C385.124 212.568 381.622 213.651 377.009 214.318C372.796 214.645 359.327 212.356 357.936 208.315C358.647 207.061 362.244 203.643 363.769 201.675C364.549 202.532 365.514 203.582 366.563 204.098C369.441 205.515 378.853 207.527 380.524 203.809C380.165 201.172 376.802 200.643 374.616 200.053C369.166 198.583 365.022 197.271 360.848 193.372C358.962 187.382 359.465 185.581 362.713 180.34C365.252 178.8 367.204 178.063 370.062 177.461Z" fill="#A92423"/>
<path d="M214.494 177.799C222.322 177.228 228.287 178.107 233.631 184.547C231.165 187.327 230.257 187.683 226.94 189.106C220.353 186.243 216.785 182.397 210.526 189.822C208.176 199.857 212.711 210.63 224.981 203.757C225.871 203.259 226.011 202.61 227.143 202.196L227.637 202.753C228.976 203.703 234.43 205.743 232.718 207.986C230.527 210.569 226.304 212.768 223.024 213.58C201.331 218.955 189.771 189.751 209.619 179.382C211.131 178.592 212.83 178.205 214.494 177.799Z" fill="black"/>
<path d="M129.658 177.812C134.443 177.384 146.322 178.844 148.238 184.058C148.202 184.41 148.16 184.82 148.112 185.287C146.208 186.454 144.104 188.16 142.534 189.574C139.273 187.738 137.069 186.287 133.432 185.303C131.857 185.725 130.404 186.092 128.92 186.882C123.946 189.286 123.194 197.646 126.141 201.807C130.844 208.446 136.999 205.617 142.07 202.198L142.776 202.432C144.545 204.314 148.203 205.575 147.988 207.526C145.998 210.236 140.846 213.01 137.563 213.747C115.957 218.597 105.693 189.624 124.491 179.426C126.083 178.562 127.874 178.194 129.658 177.812Z" fill="black"/>
<path d="M149.241 178.134C160.186 178.072 171.131 178.066 182.075 178.116L182.072 186.314L170.571 186.332C170.294 191.679 170.485 198.362 170.504 203.809L170.527 213.634L160.796 213.642C160.718 204.564 160.734 195.487 160.844 186.41C156.885 186.346 152.925 186.326 148.965 186.352C149.241 183.471 149.235 181.03 149.241 178.134Z" fill="black"/>
<path d="M189.791 177.92L194.926 178.007L194.934 200.251C194.934 204.088 195.084 209.64 194.72 213.331C193.63 213.808 191.553 213.67 190.265 213.668L185.071 213.636C184.97 201.759 184.989 189.881 185.128 178.004L189.791 177.92Z" fill="black"/>
<path d="M365.114 232.865C371.098 232.629 377.092 232.812 383.051 233.413C375.461 233.952 359.956 234.431 352.171 233.922C350.856 234.02 349.319 233.893 347.984 233.822L348.119 233.408C346.512 233.062 342.049 233.244 340.179 233.274C336.875 233.233 333.574 233.099 330.278 232.873C341.413 232.58 353.905 232.765 365.114 232.865Z" fill="#504B52"/>
<path d="M365.113 232.865C371.098 232.629 377.092 232.812 383.051 233.412C375.461 233.952 359.956 234.431 352.17 233.922C357.767 233.414 365.116 233.623 371.002 233.406C369.04 233.213 367.077 233.033 365.113 232.865Z" fill="#9A959B"/>
<path d="M20.6895 233.395C36.1934 232.376 55.621 232.379 71.2972 232.879C68.9128 233.149 55.6523 233.102 54.6948 233.561L54.5581 233.775C51.3573 234.414 24.9942 233.889 21.3827 233.391L20.6895 233.395Z" fill="#7C797D"/>
<path d="M348.306 156.252C355.818 156.171 363.33 156.277 370.837 156.57C373.276 156.641 379.302 156.696 381.385 157.08C377.774 157.404 350.963 157.754 348.105 157.126L348.306 156.252Z" fill="#7C797D"/>
<path d="M55.9752 157.112C50.1006 157.548 42.7463 157.347 36.8008 157.4C33.1016 157.432 26.4303 157.548 22.9233 157.154L23.0515 156.984C31.0608 156.134 46.2057 156.284 54.8662 156.111L55.9752 157.112Z" fill="#7C797D"/>
</g>
</g>
<defs>
<clipPath id="clip0_21_2025">
<rect width="400" height="400" fill="white"/>
</clipPath>
<clipPath id="clip1_21_2025">
<rect width="400" height="400" fill="white"/>
</clipPath>
</defs>
</svg>
