<svg width="400" height="400" viewBox="0 0 400 400" fill="none" xmlns="http://www.w3.org/2000/svg">
<g clip-path="url(#clip0_19_142)">
<path d="M393.73 218.25H400L393.73 184.917V218.25Z" fill="#00FF00"/>
<path d="M155.068 224.083L158.412 149.917L154.65 150.333L146.291 227.833L241.17 224.083H155.068Z" fill="#00FF00"/>
<path d="M385.371 139.917L384.117 131.583L249.53 142.417L385.371 139.917Z" fill="#00FF00"/>
<path d="M0 123.667L1.25392 246.167L66.8757 282L132.497 239.5L134.169 117L0 123.667ZM126.646 234.917L67.2936 273.25L8.35946 241.167L7.52351 131.167L128.318 125.333L126.646 234.917Z" fill="#00FF00"/>
<path d="M75.235 177.417C74.817 176.583 74.399 176.167 73.5631 176.167C72.7271 176.167 71.8912 176.167 71.0553 176.583C70.6373 176.583 69.8013 176.583 69.8013 176.167C69.8013 175.333 70.2193 174.917 70.6373 174.5C71.0553 174.083 71.8912 174.083 72.7271 174.083C73.1451 174.083 73.9811 174.5 74.399 174.917C75.235 175.333 76.0709 175.75 76.9069 176.167C77.3248 176.167 77.3249 176.583 77.7428 177C77.7428 177 77.7428 177.417 77.7428 177.833C77.3249 178.25 76.9069 179.083 76.9069 179.5C76.0709 178.667 75.653 177.833 75.235 177.417ZM74.399 179.917C73.9811 179.917 73.9811 179.917 73.9811 180.333C73.5631 181.167 72.7271 180.75 72.3092 180.75C71.8912 180.75 71.8912 180.75 71.8912 181.167C72.3092 181.167 72.3092 181.167 72.7271 181.167C73.1451 181.167 73.5631 181.167 73.9811 181.167C74.399 181.167 74.817 181.167 75.235 181.167C75.653 181.167 76.0709 180.75 76.0709 180.333C76.0709 180.333 76.0709 180.333 76.0709 179.917C76.0709 179.917 75.653 179.917 75.235 179.5C74.817 179.917 74.399 179.917 74.399 179.917ZM80.6686 224.5C81.5046 224.083 81.0866 222.833 81.0866 222C81.0866 222.833 80.6686 223.667 80.6686 224.5ZM64.7857 175.75C65.2036 176.167 65.6216 176.167 65.6216 175.75C66.0396 175.333 66.0396 174.5 66.4576 173.667C66.4576 173.25 66.4576 173.25 66.8755 172.833C66.8755 172.833 67.2935 172.833 67.2935 172.417V173.25V173.667H67.7115C67.7115 173.667 67.7115 173.667 68.1294 173.667C68.5474 173.25 68.9654 172.833 69.3834 172.417C69.8013 172 69.3834 171.583 68.9654 171.583C68.1294 171.583 67.7115 171.583 66.8755 171.583C66.4576 171.583 65.6216 171.583 65.2036 171.583C65.2036 171.583 65.2036 171.583 65.2036 172C65.6216 172.417 65.6216 172.833 65.2036 173.25C64.3677 174.083 64.3677 174.917 64.7857 175.75ZM78.5788 228.25C78.9967 228.667 78.5788 229.083 78.5788 229.5C78.1608 230.333 77.7428 231.583 77.7428 232.833C77.7428 233.667 78.1608 234.5 78.1608 234.917C78.1608 235.75 77.7428 236.583 77.7428 237.417C77.7428 237.833 77.3248 238.667 77.3248 239.083C76.9069 240.333 76.4889 241.583 75.653 242.833C75.235 243.25 74.817 243.667 74.817 244.5C74.817 244.5 74.399 244.5 74.399 244.917L73.9811 244.5C73.9811 243.667 73.5631 243.25 73.1451 242.833C72.7271 242.417 72.3092 242.417 72.3092 243.667C72.3092 244.083 72.3092 244.5 72.3092 244.5C72.3092 244.917 71.8912 245.333 71.4732 245.75C70.6373 246.167 69.3834 246.583 68.9654 247C68.5474 247 68.5474 247.417 68.1294 247.833C67.7115 248.667 68.1294 248.667 68.1294 249.5C68.1294 249.917 67.7115 251.583 67.2935 250.75C66.8755 250.333 66.4576 249.917 66.0396 249.5C65.2036 248.667 64.7857 247.417 64.3677 246.167C63.9497 244.917 64.3677 243.667 63.5317 242.417C63.1138 242 62.6958 241.583 62.6958 241.167C62.2778 240.75 62.2778 240.333 62.2778 239.917C62.2778 239.917 61.8599 239.5 61.4419 239.5C60.6059 239.083 57.6801 239.083 57.6801 237.833C57.6801 237 57.6801 236.167 57.2622 235.75C57.2622 235.333 56.8442 234.917 56.4262 234.917C55.5903 234.917 54.7543 235.75 54.3363 234.917C53.5004 234.5 53.9184 232.833 53.9184 232C53.5004 231.167 53.0824 230.333 53.5004 229.5C53.5004 229.083 53.9184 228.25 53.9184 227.833C53.9184 227.417 53.9184 227 53.5004 227C53.0824 227 52.6645 227 52.6645 227C52.2465 227 51.4105 227 51.4105 226.583C50.9926 225.75 51.8285 225.75 51.8285 225.333C51.8285 224.917 51.4105 224.917 50.9926 224.5C49.7386 224.083 50.5746 222.417 50.5746 221.167C50.1566 219.917 49.3207 218.667 48.9027 217.417C48.4847 216.583 48.4847 216.167 48.9027 215.333C49.3207 214.917 49.3207 214.5 49.7386 214.083C49.7386 213.25 49.3207 212.417 49.3207 212C48.9027 211.167 48.9027 210.333 48.9027 209.5V209.083H48.4847H48.0667C47.6488 209.083 47.2308 208.667 47.2308 208.25C47.6488 207.417 47.6488 206.167 47.6488 204.917C47.2308 202.417 45.5589 199.917 46.3949 197.833C46.8128 197 47.2308 195.75 46.8128 194.917C46.8128 194.5 46.3949 194.5 46.3949 194.083C46.3949 193.25 46.8128 193.25 45.9769 192.833C45.5589 192.417 44.305 192.833 43.887 193.25C43.887 192 45.1409 191.167 45.1409 189.917C45.1409 189.5 44.723 189.083 44.305 189.083C43.887 188.25 43.469 187 43.887 186.167C43.887 184.917 44.723 184.083 45.1409 182.833C45.1409 182.417 45.1409 182.417 45.1409 182C45.1409 181.583 44.305 181.167 43.887 181.167C43.0511 180.75 42.2151 180.75 41.3792 181.583V182V182.417C41.3792 182.833 41.3792 183.667 40.9612 183.667C40.5432 183.667 40.5432 182.833 40.5432 182.833C40.5432 182 40.5432 181.167 40.5432 180.333C40.5432 179.083 40.5432 177.417 40.9612 176.167C40.9612 175.75 41.3792 175.333 41.3792 174.917C41.7972 174.5 42.2151 174.083 42.6331 174.083C43.0511 174.083 43.469 173.667 43.469 173.667C43.887 173.667 44.305 173.667 44.305 173.25C45.1409 173.25 45.5589 173.25 46.3949 173.25C48.0668 173.25 49.3207 173.25 50.9926 173.667C54.7543 174.083 58.5161 173.667 62.2778 173.25C63.1138 173.25 63.5317 173.25 64.3677 172.833C64.7857 172.833 65.6216 172.417 66.0396 172.833C66.0396 172.833 66.0396 172.833 66.0396 173.25C66.0396 173.667 65.6216 173.667 65.6216 174.083C65.2036 174.083 64.7857 174.083 64.7857 174.083H64.3677C64.3677 174.5 63.9497 174.917 63.9497 174.917C63.9497 175.75 63.9497 175.75 63.1138 175.333C61.4419 174.917 59.77 174.5 58.0981 174.5C57.6801 174.5 57.2622 174.917 57.2622 174.917L56.8442 175.333C56.8442 175.333 56.8442 175.333 56.8442 175.75H57.2622C57.2622 175.75 57.2622 175.75 57.6801 175.75H58.0981C58.5161 175.75 58.934 175.75 58.934 175.75C59.352 175.75 59.352 175.333 59.77 175.333H60.188H60.6059C61.0239 175.333 61.0239 175.75 61.0239 176.167C61.0239 176.583 60.6059 176.583 60.6059 176.583C60.188 177 59.77 177 59.352 177C58.934 177 58.5161 177 58.0981 177.417C57.6801 177.417 57.2622 177.833 56.8442 177.833C56.0082 178.25 54.7543 178.25 53.9184 178.667C53.5004 178.667 53.0824 179.083 53.0824 179.5C53.0824 179.917 53.5004 180.333 53.5004 180.75V181.167C53.9184 181.583 55.1723 180.75 55.1723 180.75C55.5903 180.333 56.4262 180.333 56.8442 179.917C56.8442 179.917 56.8442 179.917 57.2622 179.917C57.6801 179.917 58.0981 180.75 58.0981 180.75C58.5161 181.583 58.934 181.583 59.77 181.167C60.188 181.167 60.6059 181.167 60.6059 181.583L60.188 182C59.77 182 59.352 182 59.352 182C59.352 182 59.352 182 59.352 182.417C59.77 182.833 60.188 182.833 60.6059 183.25C60.6059 183.25 60.6059 183.25 60.6059 183.667C60.6059 184.083 59.77 184.083 59.77 184.083C59.352 184.083 58.934 184.5 58.5161 184.5C58.0981 184.917 57.6801 184.917 57.2622 184.5C56.8442 184.5 56.4262 183.25 56.0082 183.667V184.083C55.5903 185.75 55.5903 187.417 56.0082 189.083C56.8442 189.083 57.2622 188.25 57.6801 187.833C58.5161 187.417 58.934 187 59.77 186.583C61.8599 184.917 63.9497 183.667 66.0396 182C66.4576 181.583 66.8755 181.167 66.8755 180.75C66.8755 180.333 67.7115 179.917 68.1294 179.917C69.3834 180.333 68.9654 182.417 68.5474 183.25C68.5474 184.5 68.5474 185.75 68.9654 186.583C68.9654 187 69.3834 187.417 69.8013 187.833C69.8013 188.25 70.2193 188.667 70.2193 188.667C70.2193 188.667 70.2193 189.083 69.8013 189.083C68.9654 189.917 68.5474 190.75 67.7115 191.583C64.3677 192 63.5317 192 63.1138 192C62.6958 192 61.4419 191.583 61.0239 190.75C61.0239 190.333 61.0239 189.917 61.0239 189.5C61.0239 189.083 61.4419 189.083 61.4419 188.667C61.4419 188.25 61.4419 187.833 61.0239 187.833C60.6059 187.833 60.188 188.25 59.77 188.667C58.934 189.083 58.5161 189.5 57.6801 189.917C56.8442 190.75 56.0082 191.583 54.7543 192.833C53.9184 193.667 53.5004 194.083 53.0824 195.333C53.0824 196.167 53.0824 197 53.5004 197.417C53.9184 197 54.3363 196.583 55.1723 195.75C56.0082 194.5 57.2622 193.667 58.5161 192.833C58.934 192.417 59.352 192.417 59.352 192C59.352 192 59.77 192 59.77 191.583C59.77 191.583 59.77 191.583 60.188 191.583C60.188 191.583 60.188 191.583 60.6059 191.583C60.6059 191.583 60.6059 191.583 61.0239 191.583C61.4419 191.583 61.8599 192 61.8599 192C62.2778 192 62.6958 192.417 62.6958 192.417C63.1138 192.833 63.5317 193.25 63.5317 193.667C63.5317 194.083 63.9497 194.5 64.3677 194.083C64.7857 194.083 65.2036 193.667 65.2036 193.667C66.0396 193.25 66.4576 193.25 66.4576 194.083C66.4576 194.917 66.8755 194.917 67.2935 195.333C67.7115 195.333 68.1294 196.167 68.1294 196.583C68.1294 197 67.2935 197.417 66.8755 197C66.4576 196.583 66.0396 196.583 65.2036 197C64.3677 197.417 63.1138 197.417 62.2778 197.417C61.4419 197.417 60.6059 197 60.188 197C59.77 197 59.352 197 58.934 197C57.6801 197.417 57.2622 199.083 56.0082 199.5C55.5903 199.917 55.1723 199.917 54.7543 200.333C54.3363 200.75 54.3363 201.167 54.7543 201.583C54.7543 202 55.1723 202.417 55.1723 202.833C55.5903 203.667 55.5903 204.5 55.1723 205.333C55.1723 205.75 55.1723 206.583 55.5903 206.583H56.0082C56.0082 207 56.0082 207 56.0082 207.417C56.4262 207.417 57.2622 207 57.6801 206.583C57.6801 206.167 57.6801 205.333 57.2622 204.917C58.5161 204.083 58.5161 203.25 58.5161 202.417C58.5161 202 58.5161 201.167 58.934 200.75C59.352 200.333 59.77 200.333 59.77 199.917C61.0239 199.5 61.8599 199.083 62.6958 199.5H63.1138C64.3677 199.917 65.6216 199.5 66.8755 199.5C67.7115 199.5 68.5474 199.5 68.9654 200.333C69.3834 200.75 70.2193 202 69.8013 202.417C69.8013 202.833 69.3834 202.833 68.9654 202.833H68.5474C68.5474 203.25 68.5474 203.667 68.9654 204.083C69.8013 204.917 69.8013 206.583 69.3834 207.417C69.3834 207.833 69.3834 207.833 69.3834 208.25C69.3834 208.667 69.3834 209.083 69.8013 209.5C70.2193 210.333 70.2193 211.167 70.6373 211.583C71.4732 212.833 72.3092 214.083 73.9811 213.667C73.9811 213.667 73.9811 213.667 74.399 213.667C74.817 213.667 74.399 212.833 74.817 212.833C74.817 212.417 75.235 212.417 75.653 212.417C76.0709 212.417 76.4889 212.833 76.4889 213.25C76.4889 213.667 76.4889 214.5 76.4889 214.917C76.4889 215.75 76.4889 216.167 76.4889 217C76.4889 217.833 76.4889 219.083 75.653 219.5L75.235 219.917C75.235 220.333 75.653 220.333 76.0709 220.75V221.167C76.0709 221.583 75.653 221.583 75.653 222V222.833C76.0709 222.833 76.0709 225.75 76.0709 226.167C75.653 227 75.653 227.417 75.653 228.25V228.667H76.0709C77.3249 227.417 78.1608 227.833 78.5788 228.25ZM67.2935 202.833C67.2935 202.417 67.2935 202 67.2935 202H66.8755C66.4576 202 66.4576 202 66.0396 202C65.6216 202 65.6216 202 65.6216 202.417C65.2036 203.25 66.0396 203.667 66.4576 203.667C66.8755 203.667 67.2935 203.25 67.2935 202.833ZM85.2663 189.917C85.2663 189.5 85.2663 189.083 85.2663 188.667C85.2663 188.25 85.6843 187.417 86.1023 187C86.9382 185.333 86.5203 183.25 85.6843 181.583C85.6843 181.167 85.2663 180.75 85.2663 180.333C85.2663 179.917 85.6843 179.917 85.6843 179.917C86.1023 179.917 86.5203 179.5 86.5203 179.5C86.5203 179.083 86.9382 178.25 86.9382 177.833C86.9382 177.417 86.5203 177.417 86.1023 177.417C85.6843 177.417 85.6843 177.417 85.2663 177.833C85.2663 177.833 85.2663 177.833 84.8484 178.25C84.8484 178.667 84.4304 179.083 84.4304 179.083C84.0124 181.167 83.1765 183.667 83.5944 185.75C83.5944 186.583 83.5944 187.417 83.5944 188.25C83.5944 188.667 83.5944 189.083 83.1765 189.5C83.1765 189.917 82.7585 189.917 82.7585 190.333C82.7585 190.75 82.7585 191.167 82.3405 191.167C81.9226 192.417 81.5046 194.083 81.0866 195.333C80.6686 196.167 80.6686 197 80.6686 197.833C80.6686 198.667 80.6686 199.5 80.6686 200.333C80.6686 201.167 80.6686 202 80.2507 202.833C80.2507 203.667 80.2507 204.5 80.2507 205.333C80.2507 205.75 80.2507 206.167 80.2507 206.583V207.833C80.6686 207.833 81.0866 207.417 81.0866 207C81.0866 206.583 81.0866 206.167 81.0866 206.167C80.6686 204.5 81.0866 202.833 81.5046 201.167C81.9226 199.5 81.9226 198.25 81.9226 196.583C81.9226 195.75 81.9226 194.917 81.9226 194.083C81.9226 193.25 82.3405 192.417 82.7585 191.583C84.0124 190.75 85.2663 190.75 85.2663 189.917ZM14.211 219.083C13.793 219.083 13.375 219.917 12.957 220.333C12.957 220.75 12.957 221.167 12.957 221.583C13.375 221.583 13.793 221.167 13.793 221.167C14.211 220.75 14.211 220.333 14.6289 219.917C14.211 219.917 14.211 219.5 14.211 219.083ZM38.8713 205.333C36.7815 205.75 34.2736 206.167 32.1838 207.417C30.0939 208.25 28.0041 209.5 26.3322 210.75C25.9142 211.167 25.0782 211.583 24.6603 212C23.4064 212.833 22.5704 213.667 21.3165 214.5C20.8985 214.917 20.4805 215.333 20.0626 215.333C19.2266 216.167 18.3907 216.583 17.9727 217.417C17.1368 217.833 16.3008 218.667 15.4649 219.083C17.5547 217.833 19.6446 216.583 21.7345 215.75C23.8243 214.5 25.9142 213.25 28.0041 212C29.6759 210.75 31.7658 209.917 33.4377 208.667C35.1096 207.417 37.1995 206.583 39.2893 205.75C40.1253 205.333 41.3792 204.917 42.2151 204.5C41.7972 204.917 40.9612 204.917 40.5432 204.917C40.1253 205.333 39.7073 205.333 38.8713 205.333ZM84.0124 202C83.5944 202.417 84.0124 202.833 84.0124 202.833C84.4304 203.25 84.4304 203.25 84.8484 203.667C85.2663 204.083 85.6843 204.5 86.5203 204.917C86.9382 204.917 87.3562 204.917 87.3562 204.5V204.083C87.3562 204.083 87.3562 203.667 86.9382 203.667C86.1023 203.25 85.2663 202.833 84.0124 202ZM93.6258 177C94.0438 177 94.0438 176.583 94.0438 176.167C94.0438 174.083 93.6258 172.417 92.3719 170.75C91.5359 169.5 91.118 169.917 89.864 170.75H89.4461C89.0281 170.333 88.6101 169.5 87.7742 169.5C86.9382 169.5 86.1023 169.5 85.6843 169.917C84.8484 169.917 84.0124 169.917 83.1765 169.917C80.2507 169.917 76.9069 169.917 73.9811 169.917C70.2193 169.917 66.8755 170.333 63.1138 170.75C59.77 171.167 56.4262 170.75 52.6645 171.167C50.9926 171.167 48.9027 170.75 47.2308 170.75C44.723 170.75 42.6331 170.75 40.1253 170.75C38.8713 170.75 37.6174 171.167 36.3635 172C36.3635 172 35.9455 172 35.9455 172.417C35.9455 172.417 35.9455 172.417 35.9455 172.833H35.5276C34.6916 172.417 34.2736 172 33.8557 172.833C33.0197 174.083 33.8557 175.333 33.8557 177C33.8557 177.417 33.8557 177.417 34.2736 177.833C34.2736 177.833 34.6916 178.25 35.1096 178.25C35.9455 178.25 35.9455 178.667 36.3635 178.667C35.9455 179.083 35.1096 179.083 34.2736 179.083C33.8557 179.083 33.4377 179.083 33.4377 178.667C33.0197 178.25 33.0197 177.417 33.0197 177C33.0197 176.583 33.0197 176.167 33.0197 175.333C33.0197 174.083 33.0197 172.417 33.4377 171.167C33.8557 169.917 34.6916 168.667 35.1096 167.417C35.5276 167 35.5276 166.583 34.6916 166.167C32.6018 165.333 33.4377 162.833 33.4377 161.167C33.4377 160.75 33.4377 160.333 33.4377 159.917C33.4377 158.25 33.8557 156.583 33.8557 154.917C33.8557 154.083 34.2736 153.25 35.1096 152.833C35.9455 152.417 36.3635 152 37.1995 152C37.6174 151.583 38.4534 151.583 38.8713 151.167C39.2893 150.75 39.2893 150.333 39.2893 149.917C39.7073 149.5 40.1253 149.083 40.5432 148.25C41.3792 147 42.2151 145.75 43.469 144.5C45.1409 143.25 46.8128 142 48.4847 141.167C49.3207 140.75 50.5746 140.333 51.8285 139.917C56.4262 138.667 61.0239 137.833 66.0396 138.25C68.5474 138.25 70.6373 138.667 73.1451 139.5C75.653 139.917 77.7428 140.75 79.8327 142C80.2507 142.417 80.6686 142.417 81.0866 142.833C82.7585 144.083 84.4304 145.333 85.6843 147C86.1023 147.833 86.5202 148.667 86.9382 149.083C86.9382 149.5 87.3562 149.5 86.9382 149.917C86.5202 150.75 87.3562 151.167 87.7742 151.167C89.0281 151.583 89.864 152 91.1179 152.833C92.3719 153.25 92.3719 154.5 92.3719 155.75C92.3719 157.833 92.7898 159.5 92.7898 161.583C92.7898 162.417 92.7898 163.25 92.7898 164.083C92.7898 164.083 92.7898 164.083 93.2078 164.083C93.2078 164.083 93.2078 164.083 93.2078 164.5V164.917C93.2078 165.333 92.7898 165.75 92.3719 166.167C91.9539 166.583 91.9539 167 92.3719 167.417C92.7898 167.833 92.7898 168.25 93.6258 168.667L94.0438 169.083V169.5C94.4617 172 94.4617 174.5 94.4617 177C94.4617 177.833 94.0438 178.25 93.2078 178.25C92.7898 178.25 91.9539 178.25 91.5359 177.833C91.5359 177.833 91.5359 177.833 91.1179 177.833L90.7 177.417C91.5359 177.417 92.3719 177.417 93.2078 177.417C93.2078 177 93.6258 177 93.6258 177ZM46.3949 145.333C46.8128 145.333 47.2308 146.167 47.6488 146.167C47.6488 146.167 47.6488 146.167 48.0667 146.167C50.9926 144.5 53.9184 143.25 57.2622 142.417C60.188 142 63.1138 141.583 65.6216 141.583C66.0396 141.583 66.4576 141.583 66.8755 141.583C67.7115 141.583 68.9654 141.583 69.8013 141.583C71.0553 141.583 72.7272 142 73.9811 141.583C73.5631 141.583 72.7271 141.167 72.3092 141.167C71.8912 141.167 71.0553 140.75 70.6373 140.75C69.3834 140.333 68.1294 140.333 66.8755 140.333C62.6958 139.917 58.5161 140.333 54.7543 141.583C52.2465 142.417 49.7386 143.25 47.2308 144.917C46.8128 144.917 46.3949 145.333 46.3949 145.333ZM65.2036 150.333C65.2036 149.917 65.6216 149.917 65.6216 149.917L66.0396 149.5L65.2036 149.083C64.7857 149.083 64.3677 149.083 64.3677 149.083C63.5317 149.083 63.1138 149.083 62.2778 149.083C61.0239 149.083 59.352 149.083 58.0981 149.5C57.6801 149.5 57.2622 149.917 57.2622 150.333C57.2622 152 57.2622 153.25 57.2622 154.917C57.2622 155.75 57.2622 156.167 57.2622 157C57.2622 157 57.6801 155.333 57.6801 154.917C57.6801 154.083 57.6801 153.667 57.6801 152.833C57.6801 152.417 57.6801 152 57.6801 151.583V151.167C57.6801 150.75 58.0981 150.75 58.0981 151.167C58.0981 151.583 58.0981 151.583 58.0981 152C58.0981 152.417 58.0981 153.25 58.0981 153.667C58.0981 155.333 58.0981 157 58.0981 158.667V159.083C58.5161 159.083 58.934 158.667 58.934 158.25C58.934 156.583 58.5161 154.5 58.5161 152.833C58.5161 152 58.934 151.583 59.77 151.167C60.6059 151.167 61.0239 151.167 61.8599 151.167C62.6958 151.167 63.5317 151.583 64.3677 151.583C64.7857 151.583 64.7857 151.583 64.7857 151.167C65.2036 150.75 65.2036 150.75 65.2036 150.333ZM36.3635 165.333C36.7815 164.917 36.7815 164.917 36.7815 164.917C37.1995 164.5 35.9455 163.667 35.9455 163.25C35.5276 162.417 35.9455 161.167 35.9455 160.333C35.9455 159.083 35.9455 157.417 36.3635 156.167C36.7815 154.917 40.1253 154.5 38.8713 152.833C37.6174 152.833 36.3635 153.667 35.5276 154.5L35.1096 154.917V155.333C34.6916 157.833 34.2736 160.333 34.2736 162.833V163.25C34.2736 163.667 35.5276 165.333 36.3635 165.333ZM91.1179 168.25C91.1179 167.833 90.7 167.417 90.7 167.417C90.282 167 90.282 166.583 89.864 165.75C89.4461 164.917 89.0281 164.083 87.7742 164.083H87.3562C86.9382 162.417 85.6843 162.417 84.4304 162.833C82.3405 163.25 80.6686 163.25 78.5788 163.667C77.7428 163.667 76.4889 163.667 75.653 164.083C75.235 164.083 73.9811 164.083 73.5631 164.5C73.5631 164.917 73.5631 165.333 72.7271 165.333H72.3092C71.8912 165.333 71.4732 164.917 70.6373 164.917C68.5474 164.5 66.4576 164.5 64.3677 164.5C62.6958 164.5 61.4419 164.5 59.77 164.5C58.5161 164.5 56.8442 164.917 55.5903 164.917C55.1723 164.917 54.7543 165.333 54.3363 164.917C54.3363 164.917 54.3363 164.5 53.9184 164.083C53.9184 164.083 53.5004 164.083 53.0824 163.667H52.6645H52.2465C50.5746 163.667 48.4847 163.25 46.8128 163.25C45.9769 163.25 45.1409 163.25 44.305 162.833C43.4691 162.833 42.6331 162.417 41.7972 162.833V163.25H41.3792H40.9612C40.5432 163.25 40.5432 163.667 40.5432 163.667V164.083C40.1253 164.083 40.1253 164.083 39.7073 164.083C37.6174 165.333 37.6174 166.167 37.1995 167C36.7815 167.417 36.7815 167.833 36.3635 168.25C36.3635 168.667 35.9455 169.5 35.9455 169.917H36.3635C36.7815 168.25 38.8713 167.833 40.5432 167.417C41.3792 167.417 42.2151 167.417 43.0511 167C46.3949 167 50.1566 166.583 53.5004 166.583C54.7543 166.583 56.0082 166.583 57.2622 166.167C58.934 166.167 60.6059 165.75 62.2778 165.333C64.7857 165.333 67.2935 165.333 70.2193 165.75C73.9811 166.167 77.3248 165.75 81.0866 165.75C83.1765 165.75 84.8484 165.75 86.9382 165.75C87.7742 165.75 88.6101 166.167 89.4461 166.583C89.864 167 90.282 167 90.7 167.417L91.1179 167.833C91.1179 167.833 91.118 168.25 91.5359 168.25C91.5359 169.5 91.1179 168.25 91.1179 168.25ZM91.9539 159.5C92.3719 159.083 91.9539 156.583 91.9539 155.75C91.9539 155.333 91.9539 154.917 91.5359 154.5C91.118 154.083 89.864 153.25 89.4461 153.25C89.0281 153.25 88.6101 153.667 88.6101 154.083C88.6101 154.5 88.6101 154.5 89.0281 154.5C89.4461 154.917 90.282 155.333 90.282 155.75C90.7 157 90.7 158.25 90.7 159.5H91.1179C91.5359 159.5 91.5359 159.5 91.9539 159.5ZM121.63 159.917C120.794 162 120.376 164.5 119.54 166.583C119.122 167.833 118.704 169.5 118.286 170.75C116.614 175.75 114.942 181.167 113.271 186.167C112.853 187 112.853 187.833 112.435 188.667C112.435 189.083 112.435 189.5 112.017 189.5C112.017 189.917 111.599 190.333 111.599 190.75C111.599 191.167 111.181 191.167 111.181 190.75H110.763C110.763 190.75 110.763 190.75 110.345 190.75C109.927 190.75 109.509 191.167 109.509 191.583C109.509 192.417 109.091 192.833 109.091 193.667V194.083C109.091 194.083 109.509 194.083 109.509 193.667C109.927 192.833 109.927 192.833 110.763 192.833C111.181 192.833 111.599 193.667 111.181 194.083C111.181 194.5 110.763 194.917 111.181 195.333C111.181 195.333 111.181 195.75 111.181 196.167C110.763 197.417 110.763 197.417 109.509 197C109.091 197 108.673 196.583 108.255 196.583C107.837 196.583 107.837 196.583 107.837 197C107.419 198.25 107.001 199.083 106.583 200.333C106.583 200.75 106.583 200.75 107.001 200.75C107.419 200.75 107.837 201.167 108.255 201.167C108.673 201.167 109.091 201.583 109.091 202C109.091 202.833 109.091 203.25 108.255 203.25C107.837 203.25 107.837 203.667 107.837 204.083C107.837 204.5 107.837 204.5 108.255 204.5C108.673 204.5 108.673 204.917 108.673 205.333C108.673 205.75 108.673 206.167 108.255 206.583C108.255 206.583 108.255 206.583 108.255 207C108.255 207.417 108.255 208.25 107.837 208.667C107.419 209.5 107.419 209.5 108.255 209.917C108.673 210.333 108.255 212 108.255 213.25C111.181 214.917 114.524 216.583 117.45 218.667L117.868 219.083L118.286 219.5C118.704 219.917 118.704 220.75 118.286 221.167C118.286 221.167 114.106 218.667 113.688 218.667C112.017 217.833 110.763 217 109.091 216.167C107.837 215.75 105.329 214.083 104.911 213.667C103.657 212.833 102.403 212.417 101.149 212C99.8954 211.583 98.6415 210.75 96.9696 210.333C94.8797 209.5 93.2078 208.25 91.5359 206.583C91.118 206.167 91.118 206.167 90.7 205.75C90.282 205.333 90.282 205.333 89.864 204.917C89.864 204.917 89.864 204.917 89.864 204.5C90.282 204.5 90.282 204.5 90.7 204.5C91.118 204.5 91.118 204.5 91.5359 204.917C92.7898 205.333 93.6258 206.167 94.8797 206.583C94.8797 206.583 94.8797 206.583 95.2977 206.583C95.2977 206.167 95.2977 206.167 95.2977 205.75C95.2977 205.75 95.2977 205.333 95.7157 205.333C96.1336 205.333 96.1336 204.917 96.1336 204.917C96.1336 204.5 96.1336 204.083 96.1336 204.083C96.1336 204.083 96.1336 203.667 96.5516 203.667C96.9696 203.667 96.9696 203.25 96.9696 203.25V202.833C96.9696 202.417 97.3875 202 97.8055 202C98.2235 202 98.2235 202 98.6415 202C99.0594 202 99.0594 202 99.4774 202C99.4774 202 99.4774 201.583 99.4774 201.167C99.0594 200.333 98.6415 199.917 98.2235 199.5C96.9696 197.417 95.2977 195.75 94.0438 193.667C93.6258 192.833 93.6258 192 93.6258 191.583C93.6258 190.333 94.8797 189.917 96.1336 189.917C97.3875 190.333 99.0594 190.75 100.313 190.75C101.985 191.167 103.239 191.583 104.911 192C105.329 192 105.747 192 105.747 191.583C106.165 190.75 106.165 189.917 106.583 189.083C106.583 188.667 106.583 188.25 106.165 188.25L105.747 187.833C105.329 187.417 105.329 187 105.329 186.583C105.747 185.75 105.747 184.917 106.165 184.5C106.583 183.667 107.419 180.333 107.419 179.5C108.255 177.417 108.673 175.333 109.509 173.25C111.181 168.25 112.853 163.25 114.524 157.833C114.942 157 114.942 156.167 115.36 155.333C115.778 154.083 117.032 153.25 118.704 153.25C119.958 153.25 120.794 153.667 121.63 154.5C121.63 157.417 122.048 158.667 121.63 159.917ZM102.403 200.75C102.821 200.75 103.657 197.833 103.657 197C103.239 197.417 102.403 200.333 102.403 200.75ZM99.4774 200.333C99.8954 200.75 100.313 200.75 100.313 200.333C100.731 199.083 101.149 197.833 101.567 196.583C101.985 195.333 101.985 195.333 100.731 194.917H100.313C99.8954 194.917 99.4774 194.5 99.0594 195.333C99.0594 195.333 98.6415 195.75 98.2235 195.75C97.8055 195.75 97.3875 195.75 96.9696 195.75C96.5516 195.75 96.1336 195.75 96.1336 195.75C95.7157 196.167 95.7157 196.583 96.1336 197C96.5516 197.417 96.5516 197.833 96.9696 198.25C97.8055 198.667 98.6415 199.5 99.4774 200.333Z" fill="#00FF00"/>
<path d="M194.357 151.583L201.463 157.833V211.167L194.357 217.417H167.607V151.583H194.357ZM178.474 207.833H190.177V161.167H178.474V207.833Z" fill="#00FF00"/>
<path d="M228.631 151.583L241.588 217.833H230.303L228.213 205.75H217.764L226.541 196.167L222.779 172.417L215.674 217.833H204.389L217.346 151.583H228.631Z" fill="#00FF00"/>
<path d="M271.682 151.583L278.788 157.833V178.667L268.757 187.833L278.788 217.833H267.503L256.635 184.917L267.503 174.5V161.167H255.799V217.417H244.514V151.583H271.682Z" fill="#00FF00"/>
<path d="M331.871 151.583L321.839 217.833H311.808L306.792 184.917L301.777 217.833H291.745L282.55 151.583H292.581L297.597 184.5L302.613 151.583H312.644L317.66 184.5L321.839 151.583H331.871Z" fill="#00FF00"/>
<path d="M346.5 151.583V217.833H335.214V151.583H346.5Z" fill="#00FF00"/>
<path d="M384.535 151.583V217.833H374.922L361.129 182V217.833H350.261V151.583H359.875L373.668 186.583V151.583H384.535Z" fill="#00FF00"/>
</g>
<defs>
<clipPath id="clip0_19_142">
<rect width="400" height="165" fill="white" transform="translate(0 117)"/>
</clipPath>
</defs>
</svg>
